<?xml version="1.0" encoding="UTF-8" standalone="no"?>
<!DOCTYPE svg PUBLIC "-//W3C//DTD SVG 1.1//EN"
 "http://www.w3.org/Graphics/SVG/1.1/DTD/svg11.dtd">
<!-- Generated by graphviz version 14.1.5 (20260411.2331)
 -->
<!-- Title: main Pages: 1 -->
<svg width="437pt" height="236pt"
 viewBox="0.00 0.00 437.00 236.00" xmlns="http://www.w3.org/2000/svg" xmlns:xlink="http://www.w3.org/1999/xlink">

<svg id="main" version="1.1" xmlns="http://www.w3.org/2000/svg" xmlns:xlink="http://www.w3.org/1999/xlink" xml:space="preserve">

<style type="text/css"><![CDATA[
.node, .edge {opacity: 0.7;}
.node.selected, .edge.selected {opacity: 1;}
.edge:hover path { stroke: red; }
.edge:hover polygon { stroke: red; fill: red; }
]]></style>
<script type="application/ecmascript" xlink:href="svg.min.js"/>
<svg id="graph" class="graph">
<g id="graph0" class="graph" transform="scale(1 1) rotate(0) translate(4 232)">
<title>main</title>
<!-- Node1 -->
<g id="Node000001" class="node">
<title>Node1</title>
<g id="a_Node000001"><a xlink:title=" ">
<polygon fill="#999999" stroke="#666666" points="37,-96 0,-96 0,-76 37,-76 37,-96"/>
<text xml:space="preserve" text-anchor="middle" x="18.5" y="-82.5" font-family="Helvetica,sans-Serif" font-size="10.00">main</text>
</a>
</g>
</g>
<!-- Node2 -->
<g id="Node000002" class="node">
<title>Node2</title>
<g id="a_Node000002"><a xlink:href="class_l_z77.html#a79cbc4a680b736b23d1119da42569cea" target="_top" xlink:title="Compress the data.">
<polygon fill="white" stroke="#666666" points="162.88,-209 76.38,-209 76.38,-189 162.88,-189 162.88,-209"/>
<text xml:space="preserve" text-anchor="middle" x="119.62" y="-195.5" font-family="Helvetica,sans-Serif" font-size="10.00">LZ77::compress</text>
</a>
</g>
</g>
<!-- Node1&#45;&gt;Node2 -->
<g id="edge1_Node000001_Node000002" class="edge">
<title>Node1&#45;&gt;Node2</title>
<g id="a_edge1_Node000001_Node000002"><a xlink:title=" ">
<path fill="none" stroke="#63b8ff" d="M25.67,-96.33C34.92,-111.39 53.42,-139.9 73,-161 79.7,-168.23 87.77,-175.36 95.24,-181.45"/>
<polygon fill="#63b8ff" stroke="#63b8ff" points="93.03,-184.17 103.05,-187.62 97.36,-178.67 93.03,-184.17"/>
</a>
</g>
</g>
<!-- Node4 -->
<g id="Node000004" class="node">
<title>Node4</title>
<g id="a_Node000004"><a xlink:href="namespaceparser.html#a7f5ecbf764fc175fc336fcea0dd07be8" target="_top" xlink:title="Parse the cli, fully manages error checking.">
<polygon fill="white" stroke="#666666" points="156.12,-134 83.12,-134 83.12,-114 156.12,-114 156.12,-134"/>
<text xml:space="preserve" text-anchor="middle" x="119.62" y="-120.5" font-family="Helvetica,sans-Serif" font-size="10.00">parser::parse</text>
</a>
</g>
</g>
<!-- Node1&#45;&gt;Node4 -->
<g id="edge3_Node000001_Node000004" class="edge">
<title>Node1&#45;&gt;Node4</title>
<g id="a_edge3_Node000001_Node000004"><a xlink:title=" ">
<path fill="none" stroke="#63b8ff" d="M37.22,-92.79C49.32,-97.43 65.81,-103.75 80.78,-109.49"/>
<polygon fill="#63b8ff" stroke="#63b8ff" points="79.33,-112.69 89.92,-113 81.84,-106.15 79.33,-112.69"/>
</a>
</g>
</g>
<!-- Node7 -->
<g id="Node000007" class="node">
<title>Node7</title>
<g id="a_Node000007"><a xlink:href="class_file_info.html#a088e3df093b7480ac8f26624863b6fa0" target="_top" xlink:title="Read a file into a vector. Will call throw_error if file is not found or inaccessible.">
<polygon fill="white" stroke="#666666" points="310.5,-96 219.5,-96 219.5,-76 310.5,-76 310.5,-96"/>
<text xml:space="preserve" text-anchor="middle" x="265" y="-82.5" font-family="Helvetica,sans-Serif" font-size="10.00">FileInfo::read_file</text>
</a>
</g>
</g>
<!-- Node1&#45;&gt;Node7 -->
<g id="edge9_Node000001_Node000007" class="edge">
<title>Node1&#45;&gt;Node7</title>
<g id="a_edge9_Node000001_Node000007"><a xlink:title=" ">
<path fill="none" stroke="#63b8ff" d="M37.48,-86C72.9,-86 153.01,-86 207.81,-86"/>
<polygon fill="#63b8ff" stroke="#63b8ff" points="207.58,-89.5 217.58,-86 207.58,-82.5 207.58,-89.5"/>
</a>
</g>
</g>
<!-- Node8 -->
<g id="Node000008" class="node">
<title>Node8</title>
<g id="a_Node000008"><a xlink:href="class_file_info.html#a69041c392ec2ad14c0f356efea36bb54" target="_top" xlink:title=" ">
<polygon fill="white" stroke="#666666" points="164.75,-58 74.5,-58 74.5,-38 164.75,-38 164.75,-58"/>
<text xml:space="preserve" text-anchor="middle" x="119.62" y="-44.5" font-family="Helvetica,sans-Serif" font-size="10.00">FileInfo::split_file</text>
</a>
</g>
</g>
<!-- Node1&#45;&gt;Node8 -->
<g id="edge11_Node000001_Node000008" class="edge">
<title>Node1&#45;&gt;Node8</title>
<g id="a_edge11_Node000001_Node000008"><a xlink:title=" ">
<path fill="none" stroke="#63b8ff" d="M37.22,-79.21C49.32,-74.57 65.81,-68.25 80.78,-62.51"/>
<polygon fill="#63b8ff" stroke="#63b8ff" points="81.84,-65.85 89.92,-59 79.33,-59.31 81.84,-65.85"/>
</a>
</g>
</g>
<!-- Node10 -->
<g id="Node000010" class="node">
<title>Node10</title>
<g id="a_Node000010"><a xlink:href="class_file_info.html#a63ec6528df6855ce6ff971255f490fae" target="_top" xlink:title=" ">
<polygon fill="white" stroke="#666666" points="166.25,-20 73,-20 73,0 166.25,0 166.25,-20"/>
<text xml:space="preserve" text-anchor="middle" x="119.62" y="-6.5" font-family="Helvetica,sans-Serif" font-size="10.00">FileInfo::write_file</text>
</a>
</g>
</g>
<!-- Node1&#45;&gt;Node10 -->
<g id="edge15_Node000001_Node000010" class="edge">
<title>Node1&#45;&gt;Node10</title>
<g id="a_edge15_Node000001_Node000010"><a xlink:title=" ">
<path fill="none" stroke="#63b8ff" d="M26.8,-75.91C36.26,-63.45 53.81,-42.29 73,-29 74.8,-27.75 76.69,-26.57 78.64,-25.44"/>
<polygon fill="#63b8ff" stroke="#63b8ff" points="80.04,-28.66 87.36,-21 76.86,-22.42 80.04,-28.66"/>
</a>
</g>
</g>
<!-- Node3 -->
<g id="Node000003" class="node">
<title>Node3</title>
<g id="a_Node000003"><a xlink:href="cli__parser_8cppm.html#aed33cfa2e5bce1002f97dcedaa340988" target="_top" xlink:title="Show a progress bar in terminal.">
<polygon fill="white" stroke="#666666" points="306,-228 224,-228 224,-208 306,-208 306,-228"/>
<text xml:space="preserve" text-anchor="middle" x="265" y="-214.5" font-family="Helvetica,sans-Serif" font-size="10.00">show_progress</text>
</a>
</g>
</g>
<!-- Node2&#45;&gt;Node3 -->
<g id="edge2_Node000002_Node000003" class="edge">
<title>Node2&#45;&gt;Node3</title>
<g id="a_edge2_Node000002_Node000003"><a xlink:title=" ">
<path fill="none" stroke="#63b8ff" d="M163.25,-204.65C178.81,-206.71 196.57,-209.06 212.8,-211.22"/>
<polygon fill="#63b8ff" stroke="#63b8ff" points="211.87,-214.62 222.25,-212.47 212.79,-207.68 211.87,-214.62"/>
</a>
</g>
</g>
<!-- Node4&#45;&gt;Node4 -->
<g id="edge7_Node000004_Node000004" class="edge">
<title>Node4&#45;&gt;Node4</title>
<g id="a_edge7_Node000004_Node000004"><a xlink:title=" ">
<path fill="none" stroke="#63b8ff" d="M103.56,-134.34C96.69,-142.98 102.05,-152 119.62,-152 129.24,-152 135.2,-149.3 137.5,-145.44"/>
<polygon fill="#63b8ff" stroke="#63b8ff" points="141,-145.14 135.94,-135.83 134.09,-146.26 141,-145.14"/>
</a>
</g>
</g>
<!-- Node5 -->
<g id="Node000005" class="node">
<title>Node5</title>
<g id="a_Node000005"><a xlink:href="namespaceparser.html#a883c446b2f982a5d7b6989f2442e8186" target="_top" xlink:title=" ">
<polygon fill="white" stroke="#666666" points="295.88,-172 234.12,-172 234.12,-152 295.88,-152 295.88,-172"/>
<text xml:space="preserve" text-anchor="middle" x="265" y="-158.5" font-family="Helvetica,sans-Serif" font-size="10.00">parser::lex</text>
</a>
</g>
</g>
<!-- Node4&#45;&gt;Node5 -->
<g id="edge4_Node000004_Node000005" class="edge">
<title>Node4&#45;&gt;Node5</title>
<g id="a_edge4_Node000004_Node000005"><a xlink:title=" ">
<path fill="none" stroke="#63b8ff" d="M156.43,-133.49C176.68,-138.86 202.08,-145.59 223.11,-151.16"/>
<polygon fill="#63b8ff" stroke="#63b8ff" points="221.94,-154.47 232.5,-153.65 223.73,-147.71 221.94,-154.47"/>
</a>
</g>
</g>
<!-- Node6 -->
<g id="Node000006" class="node">
<title>Node6</title>
<g id="a_Node000006"><a xlink:href="utils_8cppm.html#a6c327b69ce479189b2946651f162daec" target="_top" xlink:title="throw_error is a custom error logger to the terminal. This will NOT ALWAYS throw.">
<polygon fill="white" stroke="#666666" points="428.5,-96 363.75,-96 363.75,-76 428.5,-76 428.5,-96"/>
<text xml:space="preserve" text-anchor="middle" x="396.12" y="-82.5" font-family="Helvetica,sans-Serif" font-size="10.00">throw_error</text>
</a>
</g>
</g>
<!-- Node4&#45;&gt;Node6 -->
<g id="edge8_Node000004_Node000006" class="edge">
<title>Node4&#45;&gt;Node6</title>
<g id="a_edge8_Node000004_Node000006"><a xlink:title=" ">
<path fill="none" stroke="#63b8ff" d="M156.45,-122.71C197.96,-120.75 268.28,-116.02 327.75,-105 335.88,-103.49 344.45,-101.44 352.66,-99.25"/>
<polygon fill="#63b8ff" stroke="#63b8ff" points="353.39,-102.68 362.08,-96.61 351.5,-95.94 353.39,-102.68"/>
</a>
</g>
</g>
<!-- Node5&#45;&gt;Node5 -->
<g id="edge5_Node000005_Node000005" class="edge">
<title>Node5&#45;&gt;Node5</title>
<g id="a_edge5_Node000005_Node000005"><a xlink:title=" ">
<path fill="none" stroke="#63b8ff" d="M244.17,-172.34C235.26,-180.98 242.21,-190 265,-190 277.47,-190 285.19,-187.3 288.18,-183.44"/>
<polygon fill="#63b8ff" stroke="#63b8ff" points="291.63,-182.88 286.15,-173.82 284.79,-184.33 291.63,-182.88"/>
</a>
</g>
</g>
<!-- Node5&#45;&gt;Node6 -->
<g id="edge6_Node000005_Node000006" class="edge">
<title>Node5&#45;&gt;Node6</title>
<g id="a_edge6_Node000005_Node000006"><a xlink:title=" ">
<path fill="none" stroke="#63b8ff" d="M296.31,-152.19C306.59,-148.36 317.93,-143.54 327.75,-138 344.94,-128.3 362.53,-114.56 375.43,-103.64"/>
<polygon fill="#63b8ff" stroke="#63b8ff" points="377.51,-106.47 382.77,-97.28 372.92,-101.18 377.51,-106.47"/>
</a>
</g>
</g>
<!-- Node7&#45;&gt;Node6 -->
<g id="edge10_Node000007_Node000006" class="edge">
<title>Node7&#45;&gt;Node6</title>
<g id="a_edge10_Node000007_Node000006"><a xlink:title=" ">
<path fill="none" stroke="#63b8ff" d="M310.8,-86C324.21,-86 338.87,-86 352.16,-86"/>
<polygon fill="#63b8ff" stroke="#63b8ff" points="351.9,-89.5 361.9,-86 351.9,-82.5 351.9,-89.5"/>
</a>
</g>
</g>
<!-- Node8&#45;&gt;Node6 -->
<g id="edge14_Node000008_Node000006" class="edge">
<title>Node8&#45;&gt;Node6</title>
<g id="a_edge14_Node000008_Node000006"><a xlink:title=" ">
<path fill="none" stroke="#63b8ff" d="M164.99,-49.71C207.15,-51.9 272.18,-56.71 327.75,-67 335.88,-68.51 344.45,-70.56 352.66,-72.75"/>
<polygon fill="#63b8ff" stroke="#63b8ff" points="351.5,-76.06 362.08,-75.39 353.39,-69.32 351.5,-76.06"/>
</a>
</g>
</g>
<!-- Node9 -->
<g id="Node000009" class="node">
<title>Node9</title>
<g id="a_Node000009"><a xlink:href="class_file_info.html#a9ec4f681948c70beda564ffd1d40bc10" target="_top" xlink:title=" ">
<polygon fill="white" stroke="#666666" points="327.75,-20 202.25,-20 202.25,0 327.75,0 327.75,-20"/>
<text xml:space="preserve" text-anchor="middle" x="265" y="-6.5" font-family="Helvetica,sans-Serif" font-size="10.00">FileInfo::check_signature</text>
</a>
</g>
</g>
<!-- Node8&#45;&gt;Node9 -->
<g id="edge12_Node000008_Node000009" class="edge">
<title>Node8&#45;&gt;Node9</title>
<g id="a_edge12_Node000008_Node000009"><a xlink:title=" ">
<path fill="none" stroke="#63b8ff" d="M160.18,-37.52C176.79,-33.11 196.31,-27.94 213.9,-23.28"/>
<polygon fill="#63b8ff" stroke="#63b8ff" points="214.34,-26.78 223.11,-20.84 212.55,-20.02 214.34,-26.78"/>
</a>
</g>
</g>
<!-- Node9&#45;&gt;Node6 -->
<g id="edge13_Node000009_Node000006" class="edge">
<title>Node9&#45;&gt;Node6</title>
<g id="a_edge13_Node000009_Node000006"><a xlink:title=" ">
<path fill="none" stroke="#63b8ff" d="M297.89,-20.4C307.74,-24.14 318.44,-28.74 327.75,-34 344.94,-43.7 362.53,-57.44 375.43,-68.36"/>
<polygon fill="#63b8ff" stroke="#63b8ff" points="372.92,-70.82 382.77,-74.72 377.51,-65.53 372.92,-70.82"/>
</a>
</g>
</g>
<!-- Node10&#45;&gt;Node9 -->
<g id="edge16_Node000010_Node000009" class="edge">
<title>Node10&#45;&gt;Node9</title>
<g id="a_edge16_Node000010_Node000009"><a xlink:title=" ">
<path fill="none" stroke="#63b8ff" d="M166.38,-10C174.16,-10 182.4,-10 190.68,-10"/>
<polygon fill="#63b8ff" stroke="#63b8ff" points="190.43,-13.5 200.43,-10 190.43,-6.5 190.43,-13.5"/>
</a>
</g>
</g>
</g>
</svg>
</svg>

<style type='text/css'>
<![CDATA[
[data-mouse-over-selected='false'] { opacity: 0.7; }
[data-mouse-over-selected='true']  { opacity: 1.0; }
]]>
</style>
<script type="application/ecmascript"><![CDATA[
document.addEventListener('DOMContentLoaded', (event) => {
  highlightEdges();
  highlightAdjacentNodes();
});
]]></script>
</svg>
