<?xml version="1.0" encoding="UTF-8" standalone="no"?>
<!DOCTYPE svg PUBLIC "-//W3C//DTD SVG 1.1//EN"
 "http://www.w3.org/Graphics/SVG/1.1/DTD/svg11.dtd">
<!-- Generated by graphviz version 14.1.4 (20260321.0153)
 -->
<!-- Title: LZ77ConcurrentDecompressor Pages: 1 -->
<svg width="838pt" height="1349pt"
 viewBox="0.00 0.00 838.00 1349.00" xmlns="http://www.w3.org/2000/svg" xmlns:xlink="http://www.w3.org/1999/xlink">
<g id="graph0" class="graph" transform="scale(1 1) rotate(0) translate(4 1344.5)">
<title>LZ77ConcurrentDecompressor</title>
<!-- Node1 -->
<g id="Node000001" class="node">
<title>Node1</title>
<g id="a_Node000001"><a xlink:title=" ">
<polygon fill="#999999" stroke="none" points="439,-105.5 280.75,-105.5 280.75,0 439,0 439,-105.5"/>
<text xml:space="preserve" text-anchor="start" x="292.75" y="-94" font-family="Helvetica,sans-Serif" font-size="10.00">LZ77ConcurrentDecompressor</text>
<text xml:space="preserve" text-anchor="start" x="286.25" y="-79.5" font-family="Helvetica,sans-Serif" font-size="10.00">&#45;</text>
<text xml:space="preserve" text-anchor="start" x="294.75" y="-79.5" font-family="Helvetica,sans-Serif" font-size="10.00">concurrency_</text>
<text xml:space="preserve" text-anchor="start" x="286.25" y="-65" font-family="Helvetica,sans-Serif" font-size="10.00">&#45;</text>
<text xml:space="preserve" text-anchor="start" x="294.75" y="-65" font-family="Helvetica,sans-Serif" font-size="10.00">n_blocks_</text>
<text xml:space="preserve" text-anchor="start" x="286.25" y="-50.5" font-family="Helvetica,sans-Serif" font-size="10.00">&#45;</text>
<text xml:space="preserve" text-anchor="start" x="294.75" y="-50.5" font-family="Helvetica,sans-Serif" font-size="10.00">n_completed_blocks</text>
<text xml:space="preserve" text-anchor="start" x="284.75" y="-36" font-family="Helvetica,sans-Serif" font-size="10.00">+</text>
<text xml:space="preserve" text-anchor="start" x="294.75" y="-36" font-family="Helvetica,sans-Serif" font-size="10.00">LZ77ConcurrentDecompressor()</text>
<text xml:space="preserve" text-anchor="start" x="284.75" y="-21.5" font-family="Helvetica,sans-Serif" font-size="10.00">+</text>
<text xml:space="preserve" text-anchor="start" x="294.75" y="-21.5" font-family="Helvetica,sans-Serif" font-size="10.00">decompress()</text>
<text xml:space="preserve" text-anchor="start" x="286.25" y="-7" font-family="Helvetica,sans-Serif" font-size="10.00">&#45;</text>
<text xml:space="preserve" text-anchor="start" x="294.75" y="-7" font-family="Helvetica,sans-Serif" font-size="10.00">check_results()</text>
<polygon fill="#666666" stroke="#666666" points="280.75,-89 280.75,-89 439,-89 439,-89 280.75,-89"/>
<polygon fill="#666666" stroke="#666666" points="280.75,-45.5 280.75,-45.5 292.75,-45.5 292.75,-45.5 280.75,-45.5"/>
<polygon fill="#666666" stroke="#666666" points="292.75,-45.5 292.75,-45.5 439,-45.5 439,-45.5 292.75,-45.5"/>
<polygon fill="none" stroke="#666666" points="280.75,0 280.75,-105.5 439,-105.5 439,0 280.75,0"/>
</a>
</g>
</g>
<!-- Node2 -->
<g id="Node000002" class="node">
<title>Node2</title>
<g id="a_Node000002"><a xlink:title=" ">
<polygon fill="white" stroke="none" points="95.75,-303 0,-303 0,-245 95.75,-245 95.75,-303"/>
<text xml:space="preserve" text-anchor="start" x="4" y="-291.5" font-family="Helvetica,sans-Serif" font-size="10.00">std::span&lt; std::byte</text>
<text xml:space="preserve" text-anchor="start" x="29.88" y="-281" font-family="Helvetica,sans-Serif" font-size="10.00"> const &gt;</text>
<text xml:space="preserve" text-anchor="start" x="13.5" y="-266.5" font-family="Helvetica,sans-Serif" font-size="10.00">+</text>
<text xml:space="preserve" text-anchor="start" x="33" y="-266.5" font-family="Helvetica,sans-Serif" font-size="10.00">elements</text>
<text xml:space="preserve" text-anchor="start" x="46.38" y="-252" font-family="Helvetica,sans-Serif" font-size="10.00"> </text>
<polygon fill="#666666" stroke="#666666" points="0,-276 0,-276 95.75,-276 95.75,-276 0,-276"/>
<polygon fill="#666666" stroke="#666666" points="0,-261.5 0,-261.5 31,-261.5 31,-261.5 0,-261.5"/>
<polygon fill="#666666" stroke="#666666" points="31,-261.5 31,-261.5 95.75,-261.5 95.75,-261.5 31,-261.5"/>
<polygon fill="none" stroke="#666666" points="0,-245 0,-303 95.75,-303 95.75,-245 0,-245"/>
</a>
</g>
</g>
<!-- Node2&#45;&gt;Node1 -->
<g id="edge1_Node000001_Node000002" class="edge">
<title>Node2&#45;&gt;Node1</title>
<g id="a_edge1_Node000001_Node000002"><a xlink:title=" ">
<path fill="none" stroke="#63b8ff" d="M55.1,-245.39C63.12,-219.68 78.42,-181.82 103.88,-158 149.63,-115.19 215.31,-88.93 268.69,-73.47"/>
<polygon fill="none" stroke="#63b8ff" points="268.5,-73.52 273.2,-68.06 280.06,-70.3 275.35,-75.76 268.5,-73.52"/>
</a>
</g>
<text xml:space="preserve" text-anchor="start" x="148.39" y="-129.5" font-family="Helvetica,sans-Serif" font-size="10.00" fill="grey">&#45;data_</text>
</g>
<!-- Node3 -->
<g id="Node000003" class="node">
<title>Node3</title>
<g id="a_Node000003"><a xlink:title=" ">
<polygon fill="white" stroke="none" points="220.38,-303 113.38,-303 113.38,-245 220.38,-245 220.38,-303"/>
<text xml:space="preserve" text-anchor="start" x="117.38" y="-291.5" font-family="Helvetica,sans-Serif" font-size="10.00">std::vector&lt; std::future</text>
<text xml:space="preserve" text-anchor="start" x="144.75" y="-281" font-family="Helvetica,sans-Serif" font-size="10.00">&lt; void &gt; &gt;</text>
<text xml:space="preserve" text-anchor="start" x="129.69" y="-266.5" font-family="Helvetica,sans-Serif" font-size="10.00">+</text>
<text xml:space="preserve" text-anchor="start" x="152" y="-266.5" font-family="Helvetica,sans-Serif" font-size="10.00">elements</text>
<text xml:space="preserve" text-anchor="start" x="165.38" y="-252" font-family="Helvetica,sans-Serif" font-size="10.00"> </text>
<polygon fill="#666666" stroke="#666666" points="113.38,-276 113.38,-276 220.38,-276 220.38,-276 113.38,-276"/>
<polygon fill="#666666" stroke="#666666" points="113.38,-261.5 113.38,-261.5 150,-261.5 150,-261.5 113.38,-261.5"/>
<polygon fill="#666666" stroke="#666666" points="150,-261.5 150,-261.5 220.38,-261.5 220.38,-261.5 150,-261.5"/>
<polygon fill="none" stroke="#666666" points="113.38,-245 113.38,-303 220.38,-303 220.38,-245 113.38,-245"/>
</a>
</g>
</g>
<!-- Node3&#45;&gt;Node1 -->
<g id="edge2_Node000001_Node000003" class="edge">
<title>Node3&#45;&gt;Node1</title>
<g id="a_edge2_Node000001_Node000003"><a xlink:title=" ">
<path fill="none" stroke="#63b8ff" d="M176.56,-245.2C188.87,-212.96 212.68,-159.62 246.62,-123.5 253.71,-115.96 261.78,-108.93 270.28,-102.45"/>
<polygon fill="none" stroke="#63b8ff" points="270.36,-102.39 272.88,-95.63 280.08,-95.36 277.57,-102.12 270.36,-102.39"/>
</a>
</g>
<text xml:space="preserve" text-anchor="start" x="249.62" y="-129.5" font-family="Helvetica,sans-Serif" font-size="10.00" fill="grey">&#45;results</text>
</g>
<!-- Node4 -->
<g id="Node000004" class="node">
<title>Node4</title>
<g id="a_Node000004"><a xlink:title=" ">
<polygon fill="white" stroke="none" points="354.88,-308.25 238.88,-308.25 238.88,-239.75 354.88,-239.75 354.88,-308.25"/>
<text xml:space="preserve" text-anchor="start" x="242.88" y="-296.75" font-family="Helvetica,sans-Serif" font-size="10.00">std::shared_ptr&lt; std</text>
<text xml:space="preserve" text-anchor="start" x="242.88" y="-286.25" font-family="Helvetica,sans-Serif" font-size="10.00">::pmr::synchronized_pool</text>
<text xml:space="preserve" text-anchor="start" x="271" y="-275.75" font-family="Helvetica,sans-Serif" font-size="10.00">_resource &gt;</text>
<text xml:space="preserve" text-anchor="start" x="254.81" y="-261.25" font-family="Helvetica,sans-Serif" font-size="10.00">+</text>
<text xml:space="preserve" text-anchor="start" x="276.75" y="-261.25" font-family="Helvetica,sans-Serif" font-size="10.00">ptr</text>
<text xml:space="preserve" text-anchor="start" x="254.81" y="-246.75" font-family="Helvetica,sans-Serif" font-size="10.00">+</text>
<text xml:space="preserve" text-anchor="start" x="276.75" y="-246.75" font-family="Helvetica,sans-Serif" font-size="10.00">operator&#45;&gt;()</text>
<polygon fill="#666666" stroke="#666666" points="238.88,-270.75 238.88,-270.75 354.88,-270.75 354.88,-270.75 238.88,-270.75"/>
<polygon fill="#666666" stroke="#666666" points="238.88,-256.25 238.88,-256.25 274.75,-256.25 274.75,-256.25 238.88,-256.25"/>
<polygon fill="#666666" stroke="#666666" points="274.75,-256.25 274.75,-256.25 354.88,-256.25 354.88,-256.25 274.75,-256.25"/>
<polygon fill="none" stroke="#666666" points="238.88,-239.75 238.88,-308.25 354.88,-308.25 354.88,-239.75 238.88,-239.75"/>
</a>
</g>
</g>
<!-- Node4&#45;&gt;Node1 -->
<g id="edge3_Node000001_Node000004" class="edge">
<title>Node4&#45;&gt;Node1</title>
<g id="a_edge3_Node000001_Node000004"><a xlink:title=" ">
<path fill="none" stroke="#63b8ff" d="M289.16,-239.92C283.5,-208.72 279.13,-161.26 294.12,-123.5 295.07,-121.12 296.14,-118.78 297.31,-116.47"/>
<polygon fill="none" stroke="#63b8ff" points="297.37,-116.37 297,-109.17 303.51,-106.06 303.88,-113.26 297.37,-116.37"/>
</a>
</g>
<text xml:space="preserve" text-anchor="start" x="297.12" y="-129.5" font-family="Helvetica,sans-Serif" font-size="10.00" fill="grey">&#45;shared_memory_pool</text>
</g>
<!-- Node5 -->
<g id="Node000005" class="node">
<title>Node5</title>
<g id="a_Node000005"><a xlink:href="classFile.html" target="_top" xlink:title="Interpret a file as to retrieve custom information.">
<polygon fill="white" stroke="none" points="696.88,-722 588.88,-722 588.88,-442.5 696.88,-442.5 696.88,-722"/>
<text xml:space="preserve" text-anchor="start" x="635" y="-710.5" font-family="Helvetica,sans-Serif" font-size="10.00">File</text>
<text xml:space="preserve" text-anchor="start" x="641.38" y="-696" font-family="Helvetica,sans-Serif" font-size="10.00"> </text>
<text xml:space="preserve" text-anchor="start" x="592.88" y="-681.5" font-family="Helvetica,sans-Serif" font-size="10.00">+</text>
<text xml:space="preserve" text-anchor="start" x="602.88" y="-681.5" font-family="Helvetica,sans-Serif" font-size="10.00">File()</text>
<text xml:space="preserve" text-anchor="start" x="592.88" y="-667" font-family="Helvetica,sans-Serif" font-size="10.00">+</text>
<text xml:space="preserve" text-anchor="start" x="602.88" y="-667" font-family="Helvetica,sans-Serif" font-size="10.00">write()</text>
<text xml:space="preserve" text-anchor="start" x="592.88" y="-652.5" font-family="Helvetica,sans-Serif" font-size="10.00">+</text>
<text xml:space="preserve" text-anchor="start" x="602.88" y="-652.5" font-family="Helvetica,sans-Serif" font-size="10.00">write()</text>
<text xml:space="preserve" text-anchor="start" x="592.88" y="-638" font-family="Helvetica,sans-Serif" font-size="10.00">+</text>
<text xml:space="preserve" text-anchor="start" x="602.88" y="-638" font-family="Helvetica,sans-Serif" font-size="10.00">get_in_file_options()</text>
<text xml:space="preserve" text-anchor="start" x="592.88" y="-623.5" font-family="Helvetica,sans-Serif" font-size="10.00">+</text>
<text xml:space="preserve" text-anchor="start" x="602.88" y="-623.5" font-family="Helvetica,sans-Serif" font-size="10.00">get_ref_out_stream()</text>
<text xml:space="preserve" text-anchor="start" x="592.88" y="-609" font-family="Helvetica,sans-Serif" font-size="10.00">+</text>
<text xml:space="preserve" text-anchor="start" x="602.88" y="-609" font-family="Helvetica,sans-Serif" font-size="10.00">split_file()</text>
<text xml:space="preserve" text-anchor="start" x="592.88" y="-594.5" font-family="Helvetica,sans-Serif" font-size="10.00">+</text>
<text xml:space="preserve" text-anchor="start" x="602.88" y="-594.5" font-family="Helvetica,sans-Serif" font-size="10.00">read_file()</text>
<text xml:space="preserve" text-anchor="start" x="592.88" y="-580" font-family="Helvetica,sans-Serif" font-size="10.00">+</text>
<text xml:space="preserve" text-anchor="start" x="602.88" y="-580" font-family="Helvetica,sans-Serif" font-size="10.00">has_signature()</text>
<text xml:space="preserve" text-anchor="start" x="592.88" y="-565.5" font-family="Helvetica,sans-Serif" font-size="10.00">+</text>
<text xml:space="preserve" text-anchor="start" x="602.88" y="-565.5" font-family="Helvetica,sans-Serif" font-size="10.00">has_signature()</text>
<text xml:space="preserve" text-anchor="start" x="592.88" y="-551" font-family="Helvetica,sans-Serif" font-size="10.00">+</text>
<text xml:space="preserve" text-anchor="start" x="602.88" y="-551" font-family="Helvetica,sans-Serif" font-size="10.00">extract_info()</text>
<text xml:space="preserve" text-anchor="start" x="592.88" y="-536.5" font-family="Helvetica,sans-Serif" font-size="10.00">+</text>
<text xml:space="preserve" text-anchor="start" x="602.88" y="-536.5" font-family="Helvetica,sans-Serif" font-size="10.00">extract_info()</text>
<text xml:space="preserve" text-anchor="start" x="592.88" y="-522" font-family="Helvetica,sans-Serif" font-size="10.00">+</text>
<text xml:space="preserve" text-anchor="start" x="602.88" y="-522" font-family="Helvetica,sans-Serif" font-size="10.00">create_file()</text>
<text xml:space="preserve" text-anchor="start" x="594.38" y="-507.5" font-family="Helvetica,sans-Serif" font-size="10.00">&#45;</text>
<text xml:space="preserve" text-anchor="start" x="602.88" y="-507.5" font-family="Helvetica,sans-Serif" font-size="10.00">check_signature()</text>
<text xml:space="preserve" text-anchor="start" x="594.38" y="-493" font-family="Helvetica,sans-Serif" font-size="10.00">&#45;</text>
<text xml:space="preserve" text-anchor="start" x="602.88" y="-493" font-family="Helvetica,sans-Serif" font-size="10.00">has_signature()</text>
<text xml:space="preserve" text-anchor="start" x="594.38" y="-478.5" font-family="Helvetica,sans-Serif" font-size="10.00">&#45;</text>
<text xml:space="preserve" text-anchor="start" x="602.88" y="-478.5" font-family="Helvetica,sans-Serif" font-size="10.00">create_file()</text>
<text xml:space="preserve" text-anchor="start" x="594.38" y="-464" font-family="Helvetica,sans-Serif" font-size="10.00">&#45;</text>
<text xml:space="preserve" text-anchor="start" x="602.88" y="-464" font-family="Helvetica,sans-Serif" font-size="10.00">concatenate_files()</text>
<text xml:space="preserve" text-anchor="start" x="594.38" y="-449.5" font-family="Helvetica,sans-Serif" font-size="10.00">&#45;</text>
<text xml:space="preserve" text-anchor="start" x="602.88" y="-449.5" font-family="Helvetica,sans-Serif" font-size="10.00">create_file()</text>
<polygon fill="#666666" stroke="#666666" points="588.88,-705.5 588.88,-705.5 696.88,-705.5 696.88,-705.5 588.88,-705.5"/>
<polygon fill="#666666" stroke="#666666" points="588.88,-691 588.88,-691 696.88,-691 696.88,-691 588.88,-691"/>
<polygon fill="none" stroke="#666666" points="588.88,-442.5 588.88,-722 696.88,-722 696.88,-442.5 588.88,-442.5"/>
</a>
</g>
</g>
<!-- Node5&#45;&gt;Node1 -->
<g id="edge4_Node000001_Node000005" class="edge">
<title>Node5&#45;&gt;Node1</title>
<g id="a_edge4_Node000001_Node000005"><a xlink:title=" ">
<path fill="none" stroke="#63b8ff" d="M668.83,-442.51C677.65,-353.21 673.32,-239.11 614.88,-158 577.12,-105.6 508.24,-79.47 451.58,-66.48"/>
<polygon fill="none" stroke="#63b8ff" points="451.57,-66.48 444.86,-69.12 439.84,-63.95 446.55,-61.3 451.57,-66.48"/>
</a>
</g>
<text xml:space="preserve" text-anchor="start" x="675.34" y="-271.75" font-family="Helvetica,sans-Serif" font-size="10.00" fill="grey">&#45;file_</text>
</g>
<!-- Node13 -->
<g id="Node000013" class="node">
<title>Node13</title>
<g id="a_Node000013"><a xlink:href="classConcOrderedFileList.html" target="_top" xlink:title=" ">
<polygon fill="white" stroke="none" points="605.38,-390 470.38,-390 470.38,-158 605.38,-158 605.38,-390"/>
<text xml:space="preserve" text-anchor="start" x="493.25" y="-378.5" font-family="Helvetica,sans-Serif" font-size="10.00">ConcOrderedFileList</text>
<text xml:space="preserve" text-anchor="start" x="509.75" y="-368" font-family="Helvetica,sans-Serif" font-size="10.00">&lt; std::byte &gt;</text>
<text xml:space="preserve" text-anchor="start" x="475.88" y="-353.5" font-family="Helvetica,sans-Serif" font-size="10.00">&#45;</text>
<text xml:space="preserve" text-anchor="start" x="484.38" y="-353.5" font-family="Helvetica,sans-Serif" font-size="10.00">size_</text>
<text xml:space="preserve" text-anchor="start" x="475.88" y="-339" font-family="Helvetica,sans-Serif" font-size="10.00">&#45;</text>
<text xml:space="preserve" text-anchor="start" x="484.38" y="-339" font-family="Helvetica,sans-Serif" font-size="10.00">expected_sequence_num_</text>
<text xml:space="preserve" text-anchor="start" x="475.88" y="-324.5" font-family="Helvetica,sans-Serif" font-size="10.00">&#45;</text>
<text xml:space="preserve" text-anchor="start" x="484.38" y="-324.5" font-family="Helvetica,sans-Serif" font-size="10.00">head_</text>
<text xml:space="preserve" text-anchor="start" x="475.88" y="-310" font-family="Helvetica,sans-Serif" font-size="10.00">&#45;</text>
<text xml:space="preserve" text-anchor="start" x="484.38" y="-310" font-family="Helvetica,sans-Serif" font-size="10.00">tail_</text>
<text xml:space="preserve" text-anchor="start" x="475.88" y="-295.5" font-family="Helvetica,sans-Serif" font-size="10.00">&#45;</text>
<text xml:space="preserve" text-anchor="start" x="484.38" y="-295.5" font-family="Helvetica,sans-Serif" font-size="10.00">called_writer</text>
<text xml:space="preserve" text-anchor="start" x="475.88" y="-281" font-family="Helvetica,sans-Serif" font-size="10.00">&#45;</text>
<text xml:space="preserve" text-anchor="start" x="484.38" y="-281" font-family="Helvetica,sans-Serif" font-size="10.00">writer_notifier</text>
<text xml:space="preserve" text-anchor="start" x="474.38" y="-266.5" font-family="Helvetica,sans-Serif" font-size="10.00">+</text>
<text xml:space="preserve" text-anchor="start" x="484.38" y="-266.5" font-family="Helvetica,sans-Serif" font-size="10.00">ConcOrderedFileList()</text>
<text xml:space="preserve" text-anchor="start" x="474.38" y="-252" font-family="Helvetica,sans-Serif" font-size="10.00">+</text>
<text xml:space="preserve" text-anchor="start" x="484.38" y="-252" font-family="Helvetica,sans-Serif" font-size="10.00">~ConcOrderedFileList()</text>
<text xml:space="preserve" text-anchor="start" x="474.38" y="-237.5" font-family="Helvetica,sans-Serif" font-size="10.00">+</text>
<text xml:space="preserve" text-anchor="start" x="484.38" y="-237.5" font-family="Helvetica,sans-Serif" font-size="10.00">operator=()</text>
<text xml:space="preserve" text-anchor="start" x="474.38" y="-223" font-family="Helvetica,sans-Serif" font-size="10.00">+</text>
<text xml:space="preserve" text-anchor="start" x="484.38" y="-223" font-family="Helvetica,sans-Serif" font-size="10.00">insert()</text>
<text xml:space="preserve" text-anchor="start" x="474.38" y="-208.5" font-family="Helvetica,sans-Serif" font-size="10.00">+</text>
<text xml:space="preserve" text-anchor="start" x="484.38" y="-208.5" font-family="Helvetica,sans-Serif" font-size="10.00">size()</text>
<text xml:space="preserve" text-anchor="start" x="474.38" y="-194" font-family="Helvetica,sans-Serif" font-size="10.00">+</text>
<text xml:space="preserve" text-anchor="start" x="484.38" y="-194" font-family="Helvetica,sans-Serif" font-size="10.00">expected_sequence_num()</text>
<text xml:space="preserve" text-anchor="start" x="474.38" y="-179.5" font-family="Helvetica,sans-Serif" font-size="10.00">+</text>
<text xml:space="preserve" text-anchor="start" x="484.38" y="-179.5" font-family="Helvetica,sans-Serif" font-size="10.00">file()</text>
<text xml:space="preserve" text-anchor="start" x="475.88" y="-165" font-family="Helvetica,sans-Serif" font-size="10.00">&#45;</text>
<text xml:space="preserve" text-anchor="start" x="484.38" y="-165" font-family="Helvetica,sans-Serif" font-size="10.00">write_file()</text>
<polygon fill="#666666" stroke="#666666" points="470.38,-363 470.38,-363 605.38,-363 605.38,-363 470.38,-363"/>
<polygon fill="#666666" stroke="#666666" points="470.38,-276 470.38,-276 482.38,-276 482.38,-276 470.38,-276"/>
<polygon fill="#666666" stroke="#666666" points="482.38,-276 482.38,-276 605.38,-276 605.38,-276 482.38,-276"/>
<polygon fill="none" stroke="#666666" points="470.38,-158 470.38,-390 605.38,-390 605.38,-158 470.38,-158"/>
</a>
</g>
</g>
<!-- Node5&#45;&gt;Node13 -->
<g id="edge13_Node000013_Node000005" class="edge">
<title>Node5&#45;&gt;Node13</title>
<g id="a_edge13_Node000013_Node000005"><a xlink:title=" ">
<path fill="none" stroke="#63b8ff" d="M595.44,-442.91C590.78,-429.32 586.07,-415.57 581.45,-402.09"/>
<polygon fill="none" stroke="#63b8ff" points="581.42,-402.02 575.69,-397.64 577.53,-390.66 583.26,-395.04 581.42,-402.02"/>
</a>
</g>
<text xml:space="preserve" text-anchor="start" x="590.23" y="-414" font-family="Helvetica,sans-Serif" font-size="10.00" fill="grey">&#45;file_</text>
</g>
<!-- Node6 -->
<g id="Node000006" class="node">
<title>Node6</title>
<g id="a_Node000006"><a xlink:href="structFileOptions.html" target="_top" xlink:title=" ">
<polygon fill="white" stroke="none" points="699.88,-916.25 585.88,-916.25 585.88,-839.75 699.88,-839.75 699.88,-916.25"/>
<text xml:space="preserve" text-anchor="start" x="618.12" y="-904.75" font-family="Helvetica,sans-Serif" font-size="10.00">FileOptions</text>
<text xml:space="preserve" text-anchor="start" x="589.88" y="-890.25" font-family="Helvetica,sans-Serif" font-size="10.00">+</text>
<text xml:space="preserve" text-anchor="start" x="599.88" y="-890.25" font-family="Helvetica,sans-Serif" font-size="10.00">path</text>
<text xml:space="preserve" text-anchor="start" x="589.88" y="-875.75" font-family="Helvetica,sans-Serif" font-size="10.00">+</text>
<text xml:space="preserve" text-anchor="start" x="599.88" y="-875.75" font-family="Helvetica,sans-Serif" font-size="10.00">header</text>
<text xml:space="preserve" text-anchor="start" x="589.88" y="-861.25" font-family="Helvetica,sans-Serif" font-size="10.00">+</text>
<text xml:space="preserve" text-anchor="start" x="599.88" y="-861.25" font-family="Helvetica,sans-Serif" font-size="10.00">delete_on_dtor</text>
<text xml:space="preserve" text-anchor="start" x="589.88" y="-846.75" font-family="Helvetica,sans-Serif" font-size="10.00">+</text>
<text xml:space="preserve" text-anchor="start" x="599.88" y="-846.75" font-family="Helvetica,sans-Serif" font-size="10.00">already_compressed()</text>
<polygon fill="#666666" stroke="#666666" points="585.88,-899.75 585.88,-899.75 699.88,-899.75 699.88,-899.75 585.88,-899.75"/>
<polygon fill="#666666" stroke="#666666" points="585.88,-856.25 585.88,-856.25 597.88,-856.25 597.88,-856.25 585.88,-856.25"/>
<polygon fill="#666666" stroke="#666666" points="597.88,-856.25 597.88,-856.25 699.88,-856.25 699.88,-856.25 597.88,-856.25"/>
<polygon fill="none" stroke="#666666" points="585.88,-839.75 585.88,-916.25 699.88,-916.25 699.88,-839.75 585.88,-839.75"/>
</a>
</g>
</g>
<!-- Node6&#45;&gt;Node5 -->
<g id="edge5_Node000005_Node000006" class="edge">
<title>Node6&#45;&gt;Node5</title>
<g id="a_edge5_Node000005_Node000006"><a xlink:title=" ">
<path fill="none" stroke="#63b8ff" d="M642.88,-839.8C642.88,-812.69 642.88,-774.01 642.88,-734.87"/>
<polygon fill="none" stroke="#63b8ff" points="642.88,-734.78 638.88,-728.78 642.88,-722.78 646.88,-728.78 642.88,-734.78"/>
</a>
</g>
<text xml:space="preserve" text-anchor="start" x="645.88" y="-746" font-family="Helvetica,sans-Serif" font-size="10.00" fill="grey">&#45;in_file_options</text>
</g>
<!-- Node7 -->
<g id="Node000007" class="node">
<title>Node7</title>
<g id="a_Node000007"><a xlink:href="structparser_1_1Options.html" target="_top" xlink:title="All the options available.">
<polygon fill="white" stroke="none" points="829.75,-981.5 718,-981.5 718,-774.5 829.75,-774.5 829.75,-981.5"/>
<text xml:space="preserve" text-anchor="start" x="740.12" y="-970" font-family="Helvetica,sans-Serif" font-size="10.00">parser::Options</text>
<text xml:space="preserve" text-anchor="start" x="722" y="-955.5" font-family="Helvetica,sans-Serif" font-size="10.00">+</text>
<text xml:space="preserve" text-anchor="start" x="732" y="-955.5" font-family="Helvetica,sans-Serif" font-size="10.00">filename_in</text>
<text xml:space="preserve" text-anchor="start" x="722" y="-941" font-family="Helvetica,sans-Serif" font-size="10.00">+</text>
<text xml:space="preserve" text-anchor="start" x="732" y="-941" font-family="Helvetica,sans-Serif" font-size="10.00">filename_out</text>
<text xml:space="preserve" text-anchor="start" x="722" y="-926.5" font-family="Helvetica,sans-Serif" font-size="10.00">+</text>
<text xml:space="preserve" text-anchor="start" x="732" y="-926.5" font-family="Helvetica,sans-Serif" font-size="10.00">compressor</text>
<text xml:space="preserve" text-anchor="start" x="722" y="-912" font-family="Helvetica,sans-Serif" font-size="10.00">+</text>
<text xml:space="preserve" text-anchor="start" x="732" y="-912" font-family="Helvetica,sans-Serif" font-size="10.00">preset</text>
<text xml:space="preserve" text-anchor="start" x="722" y="-897.5" font-family="Helvetica,sans-Serif" font-size="10.00">+</text>
<text xml:space="preserve" text-anchor="start" x="732" y="-897.5" font-family="Helvetica,sans-Serif" font-size="10.00">n_files</text>
<text xml:space="preserve" text-anchor="start" x="722" y="-883" font-family="Helvetica,sans-Serif" font-size="10.00">+</text>
<text xml:space="preserve" text-anchor="start" x="732" y="-883" font-family="Helvetica,sans-Serif" font-size="10.00">size_files</text>
<text xml:space="preserve" text-anchor="start" x="722" y="-868.5" font-family="Helvetica,sans-Serif" font-size="10.00">+</text>
<text xml:space="preserve" text-anchor="start" x="732" y="-868.5" font-family="Helvetica,sans-Serif" font-size="10.00">force_compression</text>
<text xml:space="preserve" text-anchor="start" x="722" y="-854" font-family="Helvetica,sans-Serif" font-size="10.00">+</text>
<text xml:space="preserve" text-anchor="start" x="732" y="-854" font-family="Helvetica,sans-Serif" font-size="10.00">delete_input</text>
<text xml:space="preserve" text-anchor="start" x="722" y="-839.5" font-family="Helvetica,sans-Serif" font-size="10.00">+</text>
<text xml:space="preserve" text-anchor="start" x="732" y="-839.5" font-family="Helvetica,sans-Serif" font-size="10.00">concatenate_files</text>
<text xml:space="preserve" text-anchor="start" x="722" y="-825" font-family="Helvetica,sans-Serif" font-size="10.00">+</text>
<text xml:space="preserve" text-anchor="start" x="732" y="-825" font-family="Helvetica,sans-Serif" font-size="10.00">need_help</text>
<text xml:space="preserve" text-anchor="start" x="722" y="-810.5" font-family="Helvetica,sans-Serif" font-size="10.00">+</text>
<text xml:space="preserve" text-anchor="start" x="732" y="-810.5" font-family="Helvetica,sans-Serif" font-size="10.00">decomp_after_concat</text>
<text xml:space="preserve" text-anchor="start" x="722" y="-796" font-family="Helvetica,sans-Serif" font-size="10.00">+</text>
<text xml:space="preserve" text-anchor="start" x="732" y="-796" font-family="Helvetica,sans-Serif" font-size="10.00">concurrency</text>
<text xml:space="preserve" text-anchor="start" x="772.38" y="-781.5" font-family="Helvetica,sans-Serif" font-size="10.00"> </text>
<polygon fill="#666666" stroke="#666666" points="718,-965 718,-965 829.75,-965 829.75,-965 718,-965"/>
<polygon fill="#666666" stroke="#666666" points="718,-791 718,-791 730,-791 730,-791 718,-791"/>
<polygon fill="#666666" stroke="#666666" points="730,-791 730,-791 829.75,-791 829.75,-791 730,-791"/>
<polygon fill="none" stroke="#666666" points="718,-774.5 718,-981.5 829.75,-981.5 829.75,-774.5 718,-774.5"/>
</a>
</g>
</g>
<!-- Node7&#45;&gt;Node5 -->
<g id="edge6_Node000005_Node000007" class="edge">
<title>Node7&#45;&gt;Node5</title>
<g id="a_edge6_Node000005_Node000007"><a xlink:title=" ">
<path fill="none" stroke="#63b8ff" d="M732.78,-774.6C727.86,-762.89 722.82,-751.16 717.88,-740 712.88,-728.73 707.57,-717.06 702.17,-705.4"/>
<polygon fill="none" stroke="#63b8ff" points="702.19,-705.47 696.03,-701.72 697.12,-694.59 703.28,-698.34 702.19,-705.47"/>
</a>
</g>
<text xml:space="preserve" text-anchor="start" x="727.31" y="-746" font-family="Helvetica,sans-Serif" font-size="10.00" fill="grey">&#45;cli_options</text>
</g>
<!-- Node8 -->
<g id="Node000008" class="node">
<title>Node8</title>
<g id="a_Node000008"><a xlink:title=" ">
<polygon fill="white" stroke="none" points="567.75,-901.75 502,-901.75 502,-854.25 567.75,-854.25 567.75,-901.75"/>
<text xml:space="preserve" text-anchor="start" x="506" y="-890.25" font-family="Helvetica,sans-Serif" font-size="10.00">std::ofstream</text>
<text xml:space="preserve" text-anchor="start" x="533.38" y="-875.75" font-family="Helvetica,sans-Serif" font-size="10.00"> </text>
<text xml:space="preserve" text-anchor="start" x="533.38" y="-861.25" font-family="Helvetica,sans-Serif" font-size="10.00"> </text>
<polygon fill="#666666" stroke="#666666" points="502,-885.25 502,-885.25 567.75,-885.25 567.75,-885.25 502,-885.25"/>
<polygon fill="#666666" stroke="#666666" points="502,-870.75 502,-870.75 567.75,-870.75 567.75,-870.75 502,-870.75"/>
<polygon fill="none" stroke="#666666" points="502,-854.25 502,-901.75 567.75,-901.75 567.75,-854.25 502,-854.25"/>
</a>
</g>
</g>
<!-- Node8&#45;&gt;Node5 -->
<g id="edge7_Node000005_Node000008" class="edge">
<title>Node8&#45;&gt;Node5</title>
<g id="a_edge7_Node000005_Node000008"><a xlink:title=" ">
<path fill="none" stroke="#63b8ff" d="M543.17,-854.44C552.96,-827.81 570.11,-781.16 587.46,-733.98"/>
<polygon fill="none" stroke="#63b8ff" points="587.42,-734.09 585.73,-727.08 591.56,-722.83 593.24,-729.84 587.42,-734.09"/>
</a>
</g>
<text xml:space="preserve" text-anchor="start" x="585.41" y="-746" font-family="Helvetica,sans-Serif" font-size="10.00" fill="grey">&#45;out_file</text>
</g>
<!-- Node9 -->
<g id="Node000009" class="node">
<title>Node9</title>
<g id="a_Node000009"><a xlink:title=" ">
<polygon fill="white" stroke="none" points="582,-1076.5 487.75,-1076.5 487.75,-1018.5 582,-1018.5 582,-1076.5"/>
<text xml:space="preserve" text-anchor="start" x="491.75" y="-1065" font-family="Helvetica,sans-Serif" font-size="10.00">std::basic_ofstream</text>
<text xml:space="preserve" text-anchor="start" x="515.38" y="-1054.5" font-family="Helvetica,sans-Serif" font-size="10.00">&lt; Char &gt;</text>
<text xml:space="preserve" text-anchor="start" x="533.38" y="-1040" font-family="Helvetica,sans-Serif" font-size="10.00"> </text>
<text xml:space="preserve" text-anchor="start" x="533.38" y="-1025.5" font-family="Helvetica,sans-Serif" font-size="10.00"> </text>
<polygon fill="#666666" stroke="#666666" points="487.75,-1049.5 487.75,-1049.5 582,-1049.5 582,-1049.5 487.75,-1049.5"/>
<polygon fill="#666666" stroke="#666666" points="487.75,-1035 487.75,-1035 582,-1035 582,-1035 487.75,-1035"/>
<polygon fill="none" stroke="#666666" points="487.75,-1018.5 487.75,-1076.5 582,-1076.5 582,-1018.5 487.75,-1018.5"/>
</a>
</g>
</g>
<!-- Node9&#45;&gt;Node8 -->
<g id="edge8_Node000008_Node000009" class="edge">
<title>Node9&#45;&gt;Node8</title>
<g id="a_edge8_Node000008_Node000009"><a xlink:title=" ">
<path fill="none" stroke="#63b8ff" d="M534.88,-1007.37C534.88,-974.5 534.88,-928.67 534.88,-901.59"/>
<polygon fill="none" stroke="#63b8ff" points="531.38,-1007.33 534.88,-1017.33 538.38,-1007.33 531.38,-1007.33"/>
</a>
</g>
</g>
<!-- Node10 -->
<g id="Node000010" class="node">
<title>Node10</title>
<g id="a_Node000010"><a xlink:title=" ">
<polygon fill="white" stroke="none" points="580.5,-1171.5 489.25,-1171.5 489.25,-1113.5 580.5,-1113.5 580.5,-1171.5"/>
<text xml:space="preserve" text-anchor="start" x="493.25" y="-1160" font-family="Helvetica,sans-Serif" font-size="10.00">std::basic_ostream</text>
<text xml:space="preserve" text-anchor="start" x="515.38" y="-1149.5" font-family="Helvetica,sans-Serif" font-size="10.00">&lt; Char &gt;</text>
<text xml:space="preserve" text-anchor="start" x="533.38" y="-1135" font-family="Helvetica,sans-Serif" font-size="10.00"> </text>
<text xml:space="preserve" text-anchor="start" x="533.38" y="-1120.5" font-family="Helvetica,sans-Serif" font-size="10.00"> </text>
<polygon fill="#666666" stroke="#666666" points="489.25,-1144.5 489.25,-1144.5 580.5,-1144.5 580.5,-1144.5 489.25,-1144.5"/>
<polygon fill="#666666" stroke="#666666" points="489.25,-1130 489.25,-1130 580.5,-1130 580.5,-1130 489.25,-1130"/>
<polygon fill="none" stroke="#666666" points="489.25,-1113.5 489.25,-1171.5 580.5,-1171.5 580.5,-1113.5 489.25,-1113.5"/>
</a>
</g>
</g>
<!-- Node10&#45;&gt;Node9 -->
<g id="edge9_Node000009_Node000010" class="edge">
<title>Node10&#45;&gt;Node9</title>
<g id="a_edge9_Node000009_Node000010"><a xlink:title=" ">
<path fill="none" stroke="#63b8ff" d="M534.88,-1102.12C534.88,-1093.47 534.88,-1084.47 534.88,-1076.38"/>
<polygon fill="none" stroke="#63b8ff" points="531.38,-1102.08 534.88,-1112.08 538.38,-1102.08 531.38,-1102.08"/>
</a>
</g>
</g>
<!-- Node11 -->
<g id="Node000011" class="node">
<title>Node11</title>
<g id="a_Node000011"><a xlink:title=" ">
<polygon fill="white" stroke="none" points="588.75,-1256 481,-1256 481,-1208.5 588.75,-1208.5 588.75,-1256"/>
<text xml:space="preserve" text-anchor="start" x="485" y="-1244.5" font-family="Helvetica,sans-Serif" font-size="10.00">std::basic_ios&lt; Char &gt;</text>
<text xml:space="preserve" text-anchor="start" x="533.38" y="-1230" font-family="Helvetica,sans-Serif" font-size="10.00"> </text>
<text xml:space="preserve" text-anchor="start" x="533.38" y="-1215.5" font-family="Helvetica,sans-Serif" font-size="10.00"> </text>
<polygon fill="#666666" stroke="#666666" points="481,-1239.5 481,-1239.5 588.75,-1239.5 588.75,-1239.5 481,-1239.5"/>
<polygon fill="#666666" stroke="#666666" points="481,-1225 481,-1225 588.75,-1225 588.75,-1225 481,-1225"/>
<polygon fill="none" stroke="#666666" points="481,-1208.5 481,-1256 588.75,-1256 588.75,-1208.5 481,-1208.5"/>
</a>
</g>
</g>
<!-- Node11&#45;&gt;Node10 -->
<g id="edge10_Node000010_Node000011" class="edge">
<title>Node11&#45;&gt;Node10</title>
<g id="a_edge10_Node000010_Node000011"><a xlink:title=" ">
<path fill="none" stroke="#63b8ff" d="M534.88,-1197.38C534.88,-1188.78 534.88,-1179.63 534.88,-1171.36"/>
<polygon fill="none" stroke="#63b8ff" points="531.38,-1197.14 534.88,-1207.14 538.38,-1197.14 531.38,-1197.14"/>
</a>
</g>
</g>
<!-- Node12 -->
<g id="Node000012" class="node">
<title>Node12</title>
<g id="a_Node000012"><a xlink:title=" ">
<polygon fill="white" stroke="none" points="568.12,-1340.5 501.62,-1340.5 501.62,-1293 568.12,-1293 568.12,-1340.5"/>
<text xml:space="preserve" text-anchor="start" x="505.62" y="-1329" font-family="Helvetica,sans-Serif" font-size="10.00">std::ios_base</text>
<text xml:space="preserve" text-anchor="start" x="533.38" y="-1314.5" font-family="Helvetica,sans-Serif" font-size="10.00"> </text>
<text xml:space="preserve" text-anchor="start" x="533.38" y="-1300" font-family="Helvetica,sans-Serif" font-size="10.00"> </text>
<polygon fill="#666666" stroke="#666666" points="501.62,-1324 501.62,-1324 568.12,-1324 568.12,-1324 501.62,-1324"/>
<polygon fill="#666666" stroke="#666666" points="501.62,-1309.5 501.62,-1309.5 568.12,-1309.5 568.12,-1309.5 501.62,-1309.5"/>
<polygon fill="none" stroke="#666666" points="501.62,-1293 501.62,-1340.5 568.12,-1340.5 568.12,-1293 501.62,-1293"/>
</a>
</g>
</g>
<!-- Node12&#45;&gt;Node11 -->
<g id="edge11_Node000011_Node000012" class="edge">
<title>Node12&#45;&gt;Node11</title>
<g id="a_edge11_Node000011_Node000012"><a xlink:title=" ">
<path fill="none" stroke="#63b8ff" d="M534.88,-1281.71C534.88,-1272.96 534.88,-1263.77 534.88,-1255.77"/>
<polygon fill="none" stroke="#63b8ff" points="531.38,-1281.69 534.88,-1291.69 538.38,-1281.69 531.38,-1281.69"/>
</a>
</g>
</g>
<!-- Node13&#45;&gt;Node1 -->
<g id="edge12_Node000001_Node000013" class="edge">
<title>Node13&#45;&gt;Node1</title>
<g id="a_edge12_Node000001_Node000013"><a xlink:title=" ">
<path fill="none" stroke="#63b8ff" d="M493.32,-158.16C486.12,-145.81 477.99,-133.95 468.88,-123.5 462.94,-116.69 456.18,-110.3 448.99,-104.36"/>
<polygon fill="none" stroke="#63b8ff" points="449.15,-104.48 441.96,-103.95 439.69,-97.1 446.88,-97.64 449.15,-104.48"/>
</a>
</g>
<text xml:space="preserve" text-anchor="start" x="482.9" y="-129.5" font-family="Helvetica,sans-Serif" font-size="10.00" fill="grey">&#45;file_list_</text>
</g>
<!-- Node14 -->
<g id="Node000014" class="node">
<title>Node14</title>
<g id="a_Node000014"><a xlink:title=" ">
<polygon fill="white" stroke="none" points="502.12,-606 447.62,-606 447.62,-558.5 502.12,-558.5 502.12,-606"/>
<text xml:space="preserve" text-anchor="start" x="451.62" y="-594.5" font-family="Helvetica,sans-Serif" font-size="10.00">std::mutex</text>
<text xml:space="preserve" text-anchor="start" x="473.38" y="-580" font-family="Helvetica,sans-Serif" font-size="10.00"> </text>
<text xml:space="preserve" text-anchor="start" x="473.38" y="-565.5" font-family="Helvetica,sans-Serif" font-size="10.00"> </text>
<polygon fill="#666666" stroke="#666666" points="447.62,-589.5 447.62,-589.5 502.12,-589.5 502.12,-589.5 447.62,-589.5"/>
<polygon fill="#666666" stroke="#666666" points="447.62,-575 447.62,-575 502.12,-575 502.12,-575 447.62,-575"/>
<polygon fill="none" stroke="#666666" points="447.62,-558.5 447.62,-606 502.12,-606 502.12,-558.5 447.62,-558.5"/>
</a>
</g>
</g>
<!-- Node14&#45;&gt;Node13 -->
<g id="edge14_Node000013_Node000014" class="edge">
<title>Node14&#45;&gt;Node13</title>
<g id="a_edge14_Node000013_Node000014"><a xlink:title=" ">
<path fill="none" stroke="#63b8ff" d="M476.82,-558.63C479.94,-525.37 486.89,-461.42 498.38,-408 498.78,-406.12 499.2,-404.23 499.62,-402.34"/>
<polygon fill="none" stroke="#63b8ff" points="499.64,-402.25 497.13,-395.49 502.4,-390.58 504.92,-397.34 499.64,-402.25"/>
</a>
</g>
<text xml:space="preserve" text-anchor="start" x="501.38" y="-414" font-family="Helvetica,sans-Serif" font-size="10.00" fill="grey">&#45;mut</text>
</g>
<!-- Node16 -->
<g id="Node000016" class="node">
<title>Node16</title>
<g id="a_Node000016"><a xlink:href="classThreadPool.html" target="_top" xlink:title="A tool to asynchronously execute tasks without respawning threads.">
<polygon fill="white" stroke="none" points="452.62,-355.75 373.12,-355.75 373.12,-192.25 452.62,-192.25 452.62,-355.75"/>
<text xml:space="preserve" text-anchor="start" x="388.12" y="-344.25" font-family="Helvetica,sans-Serif" font-size="10.00">ThreadPool</text>
<text xml:space="preserve" text-anchor="start" x="378.62" y="-329.75" font-family="Helvetica,sans-Serif" font-size="10.00">&#45;</text>
<text xml:space="preserve" text-anchor="start" x="387.12" y="-329.75" font-family="Helvetica,sans-Serif" font-size="10.00">stop_threads_</text>
<text xml:space="preserve" text-anchor="start" x="378.62" y="-315.25" font-family="Helvetica,sans-Serif" font-size="10.00">&#45;</text>
<text xml:space="preserve" text-anchor="start" x="387.12" y="-315.25" font-family="Helvetica,sans-Serif" font-size="10.00">cv_</text>
<text xml:space="preserve" text-anchor="start" x="377.12" y="-300.75" font-family="Helvetica,sans-Serif" font-size="10.00">+</text>
<text xml:space="preserve" text-anchor="start" x="387.12" y="-300.75" font-family="Helvetica,sans-Serif" font-size="10.00">ThreadPool()</text>
<text xml:space="preserve" text-anchor="start" x="377.12" y="-286.25" font-family="Helvetica,sans-Serif" font-size="10.00">+</text>
<text xml:space="preserve" text-anchor="start" x="387.12" y="-286.25" font-family="Helvetica,sans-Serif" font-size="10.00">~ThreadPool()</text>
<text xml:space="preserve" text-anchor="start" x="377.12" y="-271.75" font-family="Helvetica,sans-Serif" font-size="10.00">+</text>
<text xml:space="preserve" text-anchor="start" x="387.12" y="-271.75" font-family="Helvetica,sans-Serif" font-size="10.00">ThreadPool()</text>
<text xml:space="preserve" text-anchor="start" x="377.12" y="-257.25" font-family="Helvetica,sans-Serif" font-size="10.00">+</text>
<text xml:space="preserve" text-anchor="start" x="387.12" y="-257.25" font-family="Helvetica,sans-Serif" font-size="10.00">ThreadPool()</text>
<text xml:space="preserve" text-anchor="start" x="377.12" y="-242.75" font-family="Helvetica,sans-Serif" font-size="10.00">+</text>
<text xml:space="preserve" text-anchor="start" x="387.12" y="-242.75" font-family="Helvetica,sans-Serif" font-size="10.00">operator=()</text>
<text xml:space="preserve" text-anchor="start" x="377.12" y="-228.25" font-family="Helvetica,sans-Serif" font-size="10.00">+</text>
<text xml:space="preserve" text-anchor="start" x="387.12" y="-228.25" font-family="Helvetica,sans-Serif" font-size="10.00">operator=()</text>
<text xml:space="preserve" text-anchor="start" x="377.12" y="-213.75" font-family="Helvetica,sans-Serif" font-size="10.00">+</text>
<text xml:space="preserve" text-anchor="start" x="387.12" y="-213.75" font-family="Helvetica,sans-Serif" font-size="10.00">add_task()</text>
<text xml:space="preserve" text-anchor="start" x="378.62" y="-199.25" font-family="Helvetica,sans-Serif" font-size="10.00">&#45;</text>
<text xml:space="preserve" text-anchor="start" x="387.12" y="-199.25" font-family="Helvetica,sans-Serif" font-size="10.00">worker()</text>
<polygon fill="#666666" stroke="#666666" points="373.12,-339.25 373.12,-339.25 452.62,-339.25 452.62,-339.25 373.12,-339.25"/>
<polygon fill="#666666" stroke="#666666" points="373.12,-310.25 373.12,-310.25 385.12,-310.25 385.12,-310.25 373.12,-310.25"/>
<polygon fill="#666666" stroke="#666666" points="385.12,-310.25 385.12,-310.25 452.62,-310.25 452.62,-310.25 385.12,-310.25"/>
<polygon fill="none" stroke="#666666" points="373.12,-192.25 373.12,-355.75 452.62,-355.75 452.62,-192.25 373.12,-192.25"/>
</a>
</g>
</g>
<!-- Node14&#45;&gt;Node16 -->
<g id="edge17_Node000016_Node000014" class="edge">
<title>Node14&#45;&gt;Node16</title>
<g id="a_edge17_Node000016_Node000014"><a xlink:title=" ">
<path fill="none" stroke="#63b8ff" d="M470.3,-558.67C464.13,-528.21 452.79,-472.26 443.12,-424.5 439.45,-406.36 435.53,-386.99 431.77,-368.41"/>
<polygon fill="none" stroke="#63b8ff" points="431.76,-368.34 426.65,-363.25 429.38,-356.58 434.49,-361.66 431.76,-368.34"/>
</a>
</g>
<text xml:space="preserve" text-anchor="start" x="446.12" y="-414" font-family="Helvetica,sans-Serif" font-size="10.00" fill="grey">&#45;mut_</text>
</g>
<!-- Node15 -->
<g id="Node000015" class="node">
<title>Node15</title>
<g id="a_Node000015"><a xlink:title=" ">
<polygon fill="white" stroke="none" points="441.25,-901.75 384.5,-901.75 384.5,-854.25 441.25,-854.25 441.25,-901.75"/>
<text xml:space="preserve" text-anchor="start" x="388.5" y="-890.25" font-family="Helvetica,sans-Serif" font-size="10.00">std::jthread</text>
<text xml:space="preserve" text-anchor="start" x="411.38" y="-875.75" font-family="Helvetica,sans-Serif" font-size="10.00"> </text>
<text xml:space="preserve" text-anchor="start" x="411.38" y="-861.25" font-family="Helvetica,sans-Serif" font-size="10.00"> </text>
<polygon fill="#666666" stroke="#666666" points="384.5,-885.25 384.5,-885.25 441.25,-885.25 441.25,-885.25 384.5,-885.25"/>
<polygon fill="#666666" stroke="#666666" points="384.5,-870.75 384.5,-870.75 441.25,-870.75 441.25,-870.75 384.5,-870.75"/>
<polygon fill="none" stroke="#666666" points="384.5,-854.25 384.5,-901.75 441.25,-901.75 441.25,-854.25 384.5,-854.25"/>
</a>
</g>
</g>
<!-- Node15&#45;&gt;Node13 -->
<g id="edge15_Node000013_Node000015" class="edge">
<title>Node15&#45;&gt;Node13</title>
<g id="a_edge15_Node000013_Node000015"><a xlink:title=" ">
<path fill="none" stroke="#63b8ff" d="M432.38,-854.47C455.83,-825.87 494.11,-773.96 510.88,-722 529.33,-664.8 535.34,-513.61 537.21,-402.85"/>
<polygon fill="none" stroke="#63b8ff" points="537.21,-402.8 533.3,-396.73 537.4,-390.8 541.3,-396.86 537.21,-402.8"/>
</a>
</g>
<text xml:space="preserve" text-anchor="start" x="539.37" y="-580" font-family="Helvetica,sans-Serif" font-size="10.00" fill="grey">&#45;writer</text>
</g>
<!-- Node18 -->
<g id="Node000018" class="node">
<title>Node18</title>
<g id="a_Node000018"><a xlink:title=" ">
<polygon fill="white" stroke="none" points="429.12,-606 308.62,-606 308.62,-558.5 429.12,-558.5 429.12,-606"/>
<text xml:space="preserve" text-anchor="start" x="312.62" y="-594.5" font-family="Helvetica,sans-Serif" font-size="10.00">std::vector&lt; std::jthread &gt;</text>
<text xml:space="preserve" text-anchor="start" x="367.38" y="-580" font-family="Helvetica,sans-Serif" font-size="10.00"> </text>
<text xml:space="preserve" text-anchor="start" x="367.38" y="-565.5" font-family="Helvetica,sans-Serif" font-size="10.00"> </text>
<polygon fill="#666666" stroke="#666666" points="308.62,-589.5 308.62,-589.5 429.12,-589.5 429.12,-589.5 308.62,-589.5"/>
<polygon fill="#666666" stroke="#666666" points="308.62,-575 308.62,-575 429.12,-575 429.12,-575 308.62,-575"/>
<polygon fill="none" stroke="#666666" points="308.62,-558.5 308.62,-606 429.12,-606 429.12,-558.5 308.62,-558.5"/>
</a>
</g>
</g>
<!-- Node15&#45;&gt;Node18 -->
<g id="edge20_Node000018_Node000015" class="edge">
<title>Node15&#45;&gt;Node18</title>
<g id="a_edge20_Node000018_Node000015"><a xlink:title=" ">
<path fill="none" stroke="#63b8ff" d="M409.5,-854.44C401.88,-803.6 383.34,-679.79 374.17,-618.63"/>
<polygon fill="none" stroke="#63b8ff" points="374.18,-618.65 369.33,-613.31 372.4,-606.78 377.24,-612.12 374.18,-618.65"/>
</a>
</g>
<text xml:space="preserve" text-anchor="start" x="397.82" y="-746" font-family="Helvetica,sans-Serif" font-size="10.00" fill="grey">+elements</text>
</g>
<!-- Node16&#45;&gt;Node1 -->
<g id="edge16_Node000001_Node000016" class="edge">
<title>Node16&#45;&gt;Node1</title>
<g id="a_edge16_Node000001_Node000016"><a xlink:title=" ">
<path fill="none" stroke="#63b8ff" d="M413.07,-192.58C411.35,-169.84 407.77,-145.35 400.88,-123.5 400.18,-121.29 399.4,-119.07 398.55,-116.85"/>
<polygon fill="none" stroke="#63b8ff" points="398.59,-116.95 392.53,-113.04 393.81,-105.94 399.87,-109.85 398.59,-116.95"/>
</a>
</g>
<text xml:space="preserve" text-anchor="start" x="408.17" y="-129.5" font-family="Helvetica,sans-Serif" font-size="10.00" fill="grey">&#45;thread_pool</text>
</g>
<!-- Node17 -->
<g id="Node000017" class="node">
<title>Node17</title>
<g id="a_Node000017"><a xlink:title=" ">
<polygon fill="white" stroke="none" points="290.25,-611.25 173.5,-611.25 173.5,-553.25 290.25,-553.25 290.25,-611.25"/>
<text xml:space="preserve" text-anchor="start" x="177.5" y="-599.75" font-family="Helvetica,sans-Serif" font-size="10.00">std::queue&lt; std::function</text>
<text xml:space="preserve" text-anchor="start" x="208.25" y="-589.25" font-family="Helvetica,sans-Serif" font-size="10.00">&lt; void()&gt; &gt;</text>
<text xml:space="preserve" text-anchor="start" x="192.25" y="-574.75" font-family="Helvetica,sans-Serif" font-size="10.00">+</text>
<text xml:space="preserve" text-anchor="start" x="217" y="-574.75" font-family="Helvetica,sans-Serif" font-size="10.00">elements</text>
<text xml:space="preserve" text-anchor="start" x="230.38" y="-560.25" font-family="Helvetica,sans-Serif" font-size="10.00"> </text>
<polygon fill="#666666" stroke="#666666" points="173.5,-584.25 173.5,-584.25 290.25,-584.25 290.25,-584.25 173.5,-584.25"/>
<polygon fill="#666666" stroke="#666666" points="173.5,-569.75 173.5,-569.75 215,-569.75 215,-569.75 173.5,-569.75"/>
<polygon fill="#666666" stroke="#666666" points="215,-569.75 215,-569.75 290.25,-569.75 290.25,-569.75 215,-569.75"/>
<polygon fill="none" stroke="#666666" points="173.5,-553.25 173.5,-611.25 290.25,-611.25 290.25,-553.25 173.5,-553.25"/>
</a>
</g>
</g>
<!-- Node17&#45;&gt;Node16 -->
<g id="edge18_Node000016_Node000017" class="edge">
<title>Node17&#45;&gt;Node16</title>
<g id="a_edge18_Node000016_Node000017"><a xlink:title=" ">
<path fill="none" stroke="#63b8ff" d="M243.2,-553.35C255.41,-524.56 276.31,-478.85 299.88,-442.5 310.73,-425.75 313.03,-420.46 328.62,-408 342.37,-397.02 351.87,-402.86 363.88,-390 370.36,-383.05 376.06,-375.11 381.05,-366.72"/>
<polygon fill="none" stroke="#63b8ff" points="381.01,-366.8 380.39,-359.61 386.79,-356.28 387.41,-363.46 381.01,-366.8"/>
</a>
</g>
<text xml:space="preserve" text-anchor="start" x="331.62" y="-414" font-family="Helvetica,sans-Serif" font-size="10.00" fill="grey">&#45;tasks_</text>
</g>
<!-- Node18&#45;&gt;Node16 -->
<g id="edge19_Node000016_Node000018" class="edge">
<title>Node18&#45;&gt;Node16</title>
<g id="a_edge19_Node000016_Node000018"><a xlink:title=" ">
<path fill="none" stroke="#63b8ff" d="M367.37,-558.65C365.59,-525.4 363.86,-461.48 372.38,-408 374.48,-394.77 377.58,-381.02 381.14,-367.61"/>
<polygon fill="none" stroke="#63b8ff" points="381.07,-367.84 378.82,-360.98 384.28,-356.27 386.53,-363.12 381.07,-367.84"/>
</a>
</g>
<text xml:space="preserve" text-anchor="start" x="375.38" y="-414" font-family="Helvetica,sans-Serif" font-size="10.00" fill="grey">&#45;threads_</text>
</g>
</g>
</svg>
