<?xml version="1.0" encoding="UTF-8" standalone="no"?>
<!DOCTYPE svg PUBLIC "-//W3C//DTD SVG 1.1//EN"
 "http://www.w3.org/Graphics/SVG/1.1/DTD/svg11.dtd">
<!-- Generated by graphviz version 14.1.4 (20260321.0153)
 -->
<!-- Title: ConcOrderedFileList&lt; T &gt; Pages: 1 -->
<!--zoomable 1224 -->

<svg id="main" version="1.1" xmlns="http://www.w3.org/2000/svg" xmlns:xlink="http://www.w3.org/1999/xlink" xml:space="preserve" onload="init(evt)">

<style type="text/css"><![CDATA[
.node, .edge {opacity: 0.7;}
.node.selected, .edge.selected {opacity: 1;}
.edge:hover path { stroke: red; }
.edge:hover polygon { stroke: red; fill: red; }
]]></style>

<defs>
  <circle id="rim" cx="0" cy="0" r="7"/>
  <circle id="rim2" cx="0" cy="0" r="3.5"/>
  <g id="zoomPlus">
    <use xlink:href="#rim" fill="#404040"><set attributeName="fill" to="#808080" begin="zoomplus.mouseover" end="zoomplus.mouseout"/></use>
    <path d="M-4,0h8M0,-4v8" fill="none" stroke="white" stroke-width="1.5" pointer-events="none"/>
  </g>
  <g id="zoomMin">
    <use xlink:href="#rim" fill="#404040"><set attributeName="fill" to="#808080" begin="zoomminus.mouseover" end="zoomminus.mouseout"/></use>
    <path d="M-4,0h8" fill="none" stroke="white" stroke-width="1.5" pointer-events="none"/>
  </g>
  <g id="arrowUp" transform="translate(30 24)">
    <use xlink:href="#rim"/>
    <path pointer-events="none" fill="none" stroke="white" stroke-width="1.5" d="M0,-3.0v7 M-2.5,-0.5L0,-3.0L2.5,-0.5"/>
  </g>
  <g id="arrowRight" transform="rotate(90) translate(36 -43)">
    <use xlink:href="#rim"/>
    <path pointer-events="none" fill="none" stroke="white" stroke-width="1.5" d="M0,-3.0v7 M-2.5,-0.5L0,-3.0L2.5,-0.5"/>
  </g>
  <g id="arrowDown" transform="rotate(180) translate(-30 -48)">
    <use xlink:href="#rim"/>
    <path pointer-events="none" fill="none" stroke="white" stroke-width="1.5" d="M0,-3.0v7 M-2.5,-0.5L0,-3.0L2.5,-0.5"/>
  </g>
  <g id="arrowLeft" transform="rotate(270) translate(-36 17)">
    <use xlink:href="#rim"/>
    <path pointer-events="none" fill="none" stroke="white" stroke-width="1.5" d="M0,-3.0v7 M-2.5,-0.5L0,-3.0L2.5,-0.5"/>
  </g>
  <g id="resetDef">
    <use xlink:href="#rim2" fill="#404040"><set attributeName="fill" to="#808080" begin="reset.mouseover" end="reset.mouseout"/></use>
  </g>
</defs>
<script type="application/ecmascript">
var viewWidth = 397;
var viewHeight = 1224;
var sectionId = 'dynsection-0';
</script>
<script type="application/ecmascript" xlink:href="svg.min.js"/>
<svg id="graph" class="graph">
<g id="viewport">
<title>ConcOrderedFileList&lt; T &gt;</title>
<!-- Node1 -->
<g id="Node000001" class="node">
<title>Node1</title>
<g id="a_Node000001"><a xlink:title="First sequence in first sequence out, i.e. the data is written in the order given to insert().">
<polygon fill="#999999" stroke="none" points="354.5,-265 219.5,-265 219.5,0 354.5,0 354.5,-265"/>
<text xml:space="preserve" text-anchor="start" x="230.38" y="-253.5" font-family="Helvetica,sans-Serif" font-size="10.00">ConcOrderedFileList&lt; T &gt;</text>
<text xml:space="preserve" text-anchor="start" x="225" y="-239" font-family="Helvetica,sans-Serif" font-size="10.00">&#45;</text>
<text xml:space="preserve" text-anchor="start" x="233.5" y="-239" font-family="Helvetica,sans-Serif" font-size="10.00">size_</text>
<text xml:space="preserve" text-anchor="start" x="225" y="-224.5" font-family="Helvetica,sans-Serif" font-size="10.00">&#45;</text>
<text xml:space="preserve" text-anchor="start" x="233.5" y="-224.5" font-family="Helvetica,sans-Serif" font-size="10.00">expected_sequence_num_</text>
<text xml:space="preserve" text-anchor="start" x="225" y="-210" font-family="Helvetica,sans-Serif" font-size="10.00">&#45;</text>
<text xml:space="preserve" text-anchor="start" x="233.5" y="-210" font-family="Helvetica,sans-Serif" font-size="10.00">head_</text>
<text xml:space="preserve" text-anchor="start" x="225" y="-195.5" font-family="Helvetica,sans-Serif" font-size="10.00">&#45;</text>
<text xml:space="preserve" text-anchor="start" x="233.5" y="-195.5" font-family="Helvetica,sans-Serif" font-size="10.00">tail_</text>
<text xml:space="preserve" text-anchor="start" x="225" y="-181" font-family="Helvetica,sans-Serif" font-size="10.00">&#45;</text>
<text xml:space="preserve" text-anchor="start" x="233.5" y="-181" font-family="Helvetica,sans-Serif" font-size="10.00">called_writer</text>
<text xml:space="preserve" text-anchor="start" x="225" y="-166.5" font-family="Helvetica,sans-Serif" font-size="10.00">&#45;</text>
<text xml:space="preserve" text-anchor="start" x="233.5" y="-166.5" font-family="Helvetica,sans-Serif" font-size="10.00">writer_notifier</text>
<text xml:space="preserve" text-anchor="start" x="223.5" y="-152" font-family="Helvetica,sans-Serif" font-size="10.00">+</text>
<text xml:space="preserve" text-anchor="start" x="233.5" y="-152" font-family="Helvetica,sans-Serif" font-size="10.00">ConcOrderedFileList()</text>
<text xml:space="preserve" text-anchor="start" x="223.5" y="-137.5" font-family="Helvetica,sans-Serif" font-size="10.00">+</text>
<text xml:space="preserve" text-anchor="start" x="233.5" y="-137.5" font-family="Helvetica,sans-Serif" font-size="10.00">~ConcOrderedFileList()</text>
<text xml:space="preserve" text-anchor="start" x="223.5" y="-123" font-family="Helvetica,sans-Serif" font-size="10.00">+</text>
<text xml:space="preserve" text-anchor="start" x="233.5" y="-123" font-family="Helvetica,sans-Serif" font-size="10.00">ConcOrderedFileList()</text>
<text xml:space="preserve" text-anchor="start" x="223.5" y="-108.5" font-family="Helvetica,sans-Serif" font-size="10.00">+</text>
<text xml:space="preserve" text-anchor="start" x="233.5" y="-108.5" font-family="Helvetica,sans-Serif" font-size="10.00">operator=()</text>
<text xml:space="preserve" text-anchor="start" x="223.5" y="-94" font-family="Helvetica,sans-Serif" font-size="10.00">+</text>
<text xml:space="preserve" text-anchor="start" x="233.5" y="-94" font-family="Helvetica,sans-Serif" font-size="10.00">ConcOrderedFileList()</text>
<text xml:space="preserve" text-anchor="start" x="223.5" y="-79.5" font-family="Helvetica,sans-Serif" font-size="10.00">+</text>
<text xml:space="preserve" text-anchor="start" x="233.5" y="-79.5" font-family="Helvetica,sans-Serif" font-size="10.00">operator=()</text>
<text xml:space="preserve" text-anchor="start" x="223.5" y="-65" font-family="Helvetica,sans-Serif" font-size="10.00">+</text>
<text xml:space="preserve" text-anchor="start" x="233.5" y="-65" font-family="Helvetica,sans-Serif" font-size="10.00">insert()</text>
<text xml:space="preserve" text-anchor="start" x="223.5" y="-50.5" font-family="Helvetica,sans-Serif" font-size="10.00">+</text>
<text xml:space="preserve" text-anchor="start" x="233.5" y="-50.5" font-family="Helvetica,sans-Serif" font-size="10.00">size()</text>
<text xml:space="preserve" text-anchor="start" x="223.5" y="-36" font-family="Helvetica,sans-Serif" font-size="10.00">+</text>
<text xml:space="preserve" text-anchor="start" x="233.5" y="-36" font-family="Helvetica,sans-Serif" font-size="10.00">expected_sequence_num()</text>
<text xml:space="preserve" text-anchor="start" x="223.5" y="-21.5" font-family="Helvetica,sans-Serif" font-size="10.00">+</text>
<text xml:space="preserve" text-anchor="start" x="233.5" y="-21.5" font-family="Helvetica,sans-Serif" font-size="10.00">file()</text>
<text xml:space="preserve" text-anchor="start" x="225" y="-7" font-family="Helvetica,sans-Serif" font-size="10.00">&#45;</text>
<text xml:space="preserve" text-anchor="start" x="233.5" y="-7" font-family="Helvetica,sans-Serif" font-size="10.00">write_file()</text>
<polygon fill="#666666" stroke="#666666" points="219.5,-248.5 219.5,-248.5 354.5,-248.5 354.5,-248.5 219.5,-248.5"/>
<polygon fill="#666666" stroke="#666666" points="219.5,-161.5 219.5,-161.5 231.5,-161.5 231.5,-161.5 219.5,-161.5"/>
<polygon fill="#666666" stroke="#666666" points="231.5,-161.5 231.5,-161.5 354.5,-161.5 354.5,-161.5 231.5,-161.5"/>
<polygon fill="none" stroke="#666666" points="219.5,0 219.5,-265 354.5,-265 354.5,0 219.5,0"/>
</a>
</g>
</g>
<!-- Node2 -->
<g id="Node000002" class="node">
<title>Node2</title>
<g id="a_Node000002"><a xlink:href="classFile.html" target="_top" xlink:title="Interpret a file as to retrieve custom information.">
<polygon fill="white" stroke="none" points="242,-597 134,-597 134,-317.5 242,-317.5 242,-597"/>
<text xml:space="preserve" text-anchor="start" x="180.12" y="-585.5" font-family="Helvetica,sans-Serif" font-size="10.00">File</text>
<text xml:space="preserve" text-anchor="start" x="186.5" y="-571" font-family="Helvetica,sans-Serif" font-size="10.00"> </text>
<text xml:space="preserve" text-anchor="start" x="138" y="-556.5" font-family="Helvetica,sans-Serif" font-size="10.00">+</text>
<text xml:space="preserve" text-anchor="start" x="148" y="-556.5" font-family="Helvetica,sans-Serif" font-size="10.00">File()</text>
<text xml:space="preserve" text-anchor="start" x="138" y="-542" font-family="Helvetica,sans-Serif" font-size="10.00">+</text>
<text xml:space="preserve" text-anchor="start" x="148" y="-542" font-family="Helvetica,sans-Serif" font-size="10.00">write()</text>
<text xml:space="preserve" text-anchor="start" x="138" y="-527.5" font-family="Helvetica,sans-Serif" font-size="10.00">+</text>
<text xml:space="preserve" text-anchor="start" x="148" y="-527.5" font-family="Helvetica,sans-Serif" font-size="10.00">write()</text>
<text xml:space="preserve" text-anchor="start" x="138" y="-513" font-family="Helvetica,sans-Serif" font-size="10.00">+</text>
<text xml:space="preserve" text-anchor="start" x="148" y="-513" font-family="Helvetica,sans-Serif" font-size="10.00">get_in_file_options()</text>
<text xml:space="preserve" text-anchor="start" x="138" y="-498.5" font-family="Helvetica,sans-Serif" font-size="10.00">+</text>
<text xml:space="preserve" text-anchor="start" x="148" y="-498.5" font-family="Helvetica,sans-Serif" font-size="10.00">get_ref_out_stream()</text>
<text xml:space="preserve" text-anchor="start" x="138" y="-484" font-family="Helvetica,sans-Serif" font-size="10.00">+</text>
<text xml:space="preserve" text-anchor="start" x="148" y="-484" font-family="Helvetica,sans-Serif" font-size="10.00">split_file()</text>
<text xml:space="preserve" text-anchor="start" x="138" y="-469.5" font-family="Helvetica,sans-Serif" font-size="10.00">+</text>
<text xml:space="preserve" text-anchor="start" x="148" y="-469.5" font-family="Helvetica,sans-Serif" font-size="10.00">read_file()</text>
<text xml:space="preserve" text-anchor="start" x="138" y="-455" font-family="Helvetica,sans-Serif" font-size="10.00">+</text>
<text xml:space="preserve" text-anchor="start" x="148" y="-455" font-family="Helvetica,sans-Serif" font-size="10.00">has_signature()</text>
<text xml:space="preserve" text-anchor="start" x="138" y="-440.5" font-family="Helvetica,sans-Serif" font-size="10.00">+</text>
<text xml:space="preserve" text-anchor="start" x="148" y="-440.5" font-family="Helvetica,sans-Serif" font-size="10.00">has_signature()</text>
<text xml:space="preserve" text-anchor="start" x="138" y="-426" font-family="Helvetica,sans-Serif" font-size="10.00">+</text>
<text xml:space="preserve" text-anchor="start" x="148" y="-426" font-family="Helvetica,sans-Serif" font-size="10.00">extract_info()</text>
<text xml:space="preserve" text-anchor="start" x="138" y="-411.5" font-family="Helvetica,sans-Serif" font-size="10.00">+</text>
<text xml:space="preserve" text-anchor="start" x="148" y="-411.5" font-family="Helvetica,sans-Serif" font-size="10.00">extract_info()</text>
<text xml:space="preserve" text-anchor="start" x="138" y="-397" font-family="Helvetica,sans-Serif" font-size="10.00">+</text>
<text xml:space="preserve" text-anchor="start" x="148" y="-397" font-family="Helvetica,sans-Serif" font-size="10.00">create_file()</text>
<text xml:space="preserve" text-anchor="start" x="139.5" y="-382.5" font-family="Helvetica,sans-Serif" font-size="10.00">&#45;</text>
<text xml:space="preserve" text-anchor="start" x="148" y="-382.5" font-family="Helvetica,sans-Serif" font-size="10.00">check_signature()</text>
<text xml:space="preserve" text-anchor="start" x="139.5" y="-368" font-family="Helvetica,sans-Serif" font-size="10.00">&#45;</text>
<text xml:space="preserve" text-anchor="start" x="148" y="-368" font-family="Helvetica,sans-Serif" font-size="10.00">has_signature()</text>
<text xml:space="preserve" text-anchor="start" x="139.5" y="-353.5" font-family="Helvetica,sans-Serif" font-size="10.00">&#45;</text>
<text xml:space="preserve" text-anchor="start" x="148" y="-353.5" font-family="Helvetica,sans-Serif" font-size="10.00">create_file()</text>
<text xml:space="preserve" text-anchor="start" x="139.5" y="-339" font-family="Helvetica,sans-Serif" font-size="10.00">&#45;</text>
<text xml:space="preserve" text-anchor="start" x="148" y="-339" font-family="Helvetica,sans-Serif" font-size="10.00">concatenate_files()</text>
<text xml:space="preserve" text-anchor="start" x="139.5" y="-324.5" font-family="Helvetica,sans-Serif" font-size="10.00">&#45;</text>
<text xml:space="preserve" text-anchor="start" x="148" y="-324.5" font-family="Helvetica,sans-Serif" font-size="10.00">create_file()</text>
<polygon fill="#666666" stroke="#666666" points="134,-580.5 134,-580.5 242,-580.5 242,-580.5 134,-580.5"/>
<polygon fill="#666666" stroke="#666666" points="134,-566 134,-566 242,-566 242,-566 134,-566"/>
<polygon fill="none" stroke="#666666" points="134,-317.5 134,-597 242,-597 242,-317.5 134,-317.5"/>
</a>
</g>
</g>
<!-- Node2&#45;&gt;Node1 -->
<g id="edge1_Node000001_Node000002" class="edge">
<title>Node2&#45;&gt;Node1</title>
<g id="a_edge1_Node000001_Node000002"><a xlink:title=" ">
<path fill="none" stroke="#63b8ff" d="M230.56,-317.5C234.65,-304.16 238.81,-290.61 242.92,-277.22"/>
<polygon fill="none" stroke="#63b8ff" points="242.89,-277.31 240.82,-270.4 246.41,-265.84 248.47,-272.75 242.89,-277.31"/>
</a>
</g>
<text xml:space="preserve" text-anchor="start" x="243.47" y="-289" font-family="Helvetica,sans-Serif" font-size="10.00" fill="grey">&#45;file_</text>
</g>
<!-- Node3 -->
<g id="Node000003" class="node">
<title>Node3</title>
<g id="a_Node000003"><a xlink:href="structFileOptions.html" target="_top" xlink:title=" ">
<polygon fill="white" stroke="none" points="114,-791.25 0,-791.25 0,-714.75 114,-714.75 114,-791.25"/>
<text xml:space="preserve" text-anchor="start" x="32.25" y="-779.75" font-family="Helvetica,sans-Serif" font-size="10.00">FileOptions</text>
<text xml:space="preserve" text-anchor="start" x="4" y="-765.25" font-family="Helvetica,sans-Serif" font-size="10.00">+</text>
<text xml:space="preserve" text-anchor="start" x="14" y="-765.25" font-family="Helvetica,sans-Serif" font-size="10.00">path</text>
<text xml:space="preserve" text-anchor="start" x="4" y="-750.75" font-family="Helvetica,sans-Serif" font-size="10.00">+</text>
<text xml:space="preserve" text-anchor="start" x="14" y="-750.75" font-family="Helvetica,sans-Serif" font-size="10.00">header</text>
<text xml:space="preserve" text-anchor="start" x="4" y="-736.25" font-family="Helvetica,sans-Serif" font-size="10.00">+</text>
<text xml:space="preserve" text-anchor="start" x="14" y="-736.25" font-family="Helvetica,sans-Serif" font-size="10.00">delete_on_dtor</text>
<text xml:space="preserve" text-anchor="start" x="4" y="-721.75" font-family="Helvetica,sans-Serif" font-size="10.00">+</text>
<text xml:space="preserve" text-anchor="start" x="14" y="-721.75" font-family="Helvetica,sans-Serif" font-size="10.00">already_compressed()</text>
<polygon fill="#666666" stroke="#666666" points="0,-774.75 0,-774.75 114,-774.75 114,-774.75 0,-774.75"/>
<polygon fill="#666666" stroke="#666666" points="0,-731.25 0,-731.25 12,-731.25 12,-731.25 0,-731.25"/>
<polygon fill="#666666" stroke="#666666" points="12,-731.25 12,-731.25 114,-731.25 114,-731.25 12,-731.25"/>
<polygon fill="none" stroke="#666666" points="0,-714.75 0,-791.25 114,-791.25 114,-714.75 0,-714.75"/>
</a>
</g>
</g>
<!-- Node3&#45;&gt;Node2 -->
<g id="edge2_Node000002_Node000003" class="edge">
<title>Node3&#45;&gt;Node2</title>
<g id="a_edge2_Node000002_Node000003"><a xlink:title=" ">
<path fill="none" stroke="#63b8ff" d="M71.42,-714.82C82.33,-687.12 97.93,-648.46 112.75,-615 117.79,-603.62 123.17,-591.83 128.63,-580.07"/>
<polygon fill="none" stroke="#63b8ff" points="128.65,-580.02 127.57,-572.89 133.73,-569.15 134.82,-576.28 128.65,-580.02"/>
</a>
</g>
<text xml:space="preserve" text-anchor="start" x="115.75" y="-621" font-family="Helvetica,sans-Serif" font-size="10.00" fill="grey">&#45;in_file_options</text>
</g>
<!-- Node4 -->
<g id="Node000004" class="node">
<title>Node4</title>
<g id="a_Node000004"><a xlink:href="structparser_1_1Options.html" target="_top" xlink:title="All the options available.">
<polygon fill="white" stroke="none" points="243.88,-856.5 132.12,-856.5 132.12,-649.5 243.88,-649.5 243.88,-856.5"/>
<text xml:space="preserve" text-anchor="start" x="154.25" y="-845" font-family="Helvetica,sans-Serif" font-size="10.00">parser::Options</text>
<text xml:space="preserve" text-anchor="start" x="136.12" y="-830.5" font-family="Helvetica,sans-Serif" font-size="10.00">+</text>
<text xml:space="preserve" text-anchor="start" x="146.12" y="-830.5" font-family="Helvetica,sans-Serif" font-size="10.00">filename_in</text>
<text xml:space="preserve" text-anchor="start" x="136.12" y="-816" font-family="Helvetica,sans-Serif" font-size="10.00">+</text>
<text xml:space="preserve" text-anchor="start" x="146.12" y="-816" font-family="Helvetica,sans-Serif" font-size="10.00">filename_out</text>
<text xml:space="preserve" text-anchor="start" x="136.12" y="-801.5" font-family="Helvetica,sans-Serif" font-size="10.00">+</text>
<text xml:space="preserve" text-anchor="start" x="146.12" y="-801.5" font-family="Helvetica,sans-Serif" font-size="10.00">compressor</text>
<text xml:space="preserve" text-anchor="start" x="136.12" y="-787" font-family="Helvetica,sans-Serif" font-size="10.00">+</text>
<text xml:space="preserve" text-anchor="start" x="146.12" y="-787" font-family="Helvetica,sans-Serif" font-size="10.00">preset</text>
<text xml:space="preserve" text-anchor="start" x="136.12" y="-772.5" font-family="Helvetica,sans-Serif" font-size="10.00">+</text>
<text xml:space="preserve" text-anchor="start" x="146.12" y="-772.5" font-family="Helvetica,sans-Serif" font-size="10.00">n_files</text>
<text xml:space="preserve" text-anchor="start" x="136.12" y="-758" font-family="Helvetica,sans-Serif" font-size="10.00">+</text>
<text xml:space="preserve" text-anchor="start" x="146.12" y="-758" font-family="Helvetica,sans-Serif" font-size="10.00">size_files</text>
<text xml:space="preserve" text-anchor="start" x="136.12" y="-743.5" font-family="Helvetica,sans-Serif" font-size="10.00">+</text>
<text xml:space="preserve" text-anchor="start" x="146.12" y="-743.5" font-family="Helvetica,sans-Serif" font-size="10.00">force_compression</text>
<text xml:space="preserve" text-anchor="start" x="136.12" y="-729" font-family="Helvetica,sans-Serif" font-size="10.00">+</text>
<text xml:space="preserve" text-anchor="start" x="146.12" y="-729" font-family="Helvetica,sans-Serif" font-size="10.00">delete_input</text>
<text xml:space="preserve" text-anchor="start" x="136.12" y="-714.5" font-family="Helvetica,sans-Serif" font-size="10.00">+</text>
<text xml:space="preserve" text-anchor="start" x="146.12" y="-714.5" font-family="Helvetica,sans-Serif" font-size="10.00">concatenate_files</text>
<text xml:space="preserve" text-anchor="start" x="136.12" y="-700" font-family="Helvetica,sans-Serif" font-size="10.00">+</text>
<text xml:space="preserve" text-anchor="start" x="146.12" y="-700" font-family="Helvetica,sans-Serif" font-size="10.00">need_help</text>
<text xml:space="preserve" text-anchor="start" x="136.12" y="-685.5" font-family="Helvetica,sans-Serif" font-size="10.00">+</text>
<text xml:space="preserve" text-anchor="start" x="146.12" y="-685.5" font-family="Helvetica,sans-Serif" font-size="10.00">decomp_after_concat</text>
<text xml:space="preserve" text-anchor="start" x="136.12" y="-671" font-family="Helvetica,sans-Serif" font-size="10.00">+</text>
<text xml:space="preserve" text-anchor="start" x="146.12" y="-671" font-family="Helvetica,sans-Serif" font-size="10.00">concurrency</text>
<text xml:space="preserve" text-anchor="start" x="186.5" y="-656.5" font-family="Helvetica,sans-Serif" font-size="10.00"> </text>
<polygon fill="#666666" stroke="#666666" points="132.12,-840 132.12,-840 243.88,-840 243.88,-840 132.12,-840"/>
<polygon fill="#666666" stroke="#666666" points="132.12,-666 132.12,-666 144.12,-666 144.12,-666 132.12,-666"/>
<polygon fill="#666666" stroke="#666666" points="144.12,-666 144.12,-666 243.88,-666 243.88,-666 144.12,-666"/>
<polygon fill="none" stroke="#666666" points="132.12,-649.5 132.12,-856.5 243.88,-856.5 243.88,-649.5 132.12,-649.5"/>
</a>
</g>
</g>
<!-- Node4&#45;&gt;Node2 -->
<g id="edge3_Node000002_Node000004" class="edge">
<title>Node4&#45;&gt;Node2</title>
<g id="a_edge3_Node000002_Node000004"><a xlink:title=" ">
<path fill="none" stroke="#63b8ff" d="M188,-649.67C188,-636.75 188,-623.32 188,-609.83"/>
<polygon fill="none" stroke="#63b8ff" points="188,-609.8 184,-603.8 188,-597.8 192,-603.8 188,-609.8"/>
</a>
</g>
<text xml:space="preserve" text-anchor="start" x="191" y="-621" font-family="Helvetica,sans-Serif" font-size="10.00" fill="grey">&#45;cli_options</text>
</g>
<!-- Node5 -->
<g id="Node000005" class="node">
<title>Node5</title>
<g id="a_Node000005"><a xlink:title=" ">
<polygon fill="white" stroke="none" points="327.88,-776.75 262.12,-776.75 262.12,-729.25 327.88,-729.25 327.88,-776.75"/>
<text xml:space="preserve" text-anchor="start" x="266.12" y="-765.25" font-family="Helvetica,sans-Serif" font-size="10.00">std::ofstream</text>
<text xml:space="preserve" text-anchor="start" x="293.5" y="-750.75" font-family="Helvetica,sans-Serif" font-size="10.00"> </text>
<text xml:space="preserve" text-anchor="start" x="293.5" y="-736.25" font-family="Helvetica,sans-Serif" font-size="10.00"> </text>
<polygon fill="#666666" stroke="#666666" points="262.12,-760.25 262.12,-760.25 327.88,-760.25 327.88,-760.25 262.12,-760.25"/>
<polygon fill="#666666" stroke="#666666" points="262.12,-745.75 262.12,-745.75 327.88,-745.75 327.88,-745.75 262.12,-745.75"/>
<polygon fill="none" stroke="#666666" points="262.12,-729.25 262.12,-776.75 327.88,-776.75 327.88,-729.25 262.12,-729.25"/>
</a>
</g>
</g>
<!-- Node5&#45;&gt;Node2 -->
<g id="edge4_Node000002_Node000005" class="edge">
<title>Node5&#45;&gt;Node2</title>
<g id="a_edge4_Node000002_Node000005"><a xlink:title=" ">
<path fill="none" stroke="#63b8ff" d="M287.34,-729.64C278,-702.47 261.63,-655.27 247,-615 246.25,-612.93 245.49,-610.85 244.73,-608.76"/>
<polygon fill="none" stroke="#63b8ff" points="244.73,-608.77 238.91,-604.51 240.6,-597.5 246.42,-601.76 244.73,-608.77"/>
</a>
</g>
<text xml:space="preserve" text-anchor="start" x="255.35" y="-621" font-family="Helvetica,sans-Serif" font-size="10.00" fill="grey">&#45;out_file</text>
</g>
<!-- Node6 -->
<g id="Node000006" class="node">
<title>Node6</title>
<g id="a_Node000006"><a xlink:title=" ">
<polygon fill="white" stroke="none" points="342.12,-951.5 247.88,-951.5 247.88,-893.5 342.12,-893.5 342.12,-951.5"/>
<text xml:space="preserve" text-anchor="start" x="251.88" y="-940" font-family="Helvetica,sans-Serif" font-size="10.00">std::basic_ofstream</text>
<text xml:space="preserve" text-anchor="start" x="275.5" y="-929.5" font-family="Helvetica,sans-Serif" font-size="10.00">&lt; Char &gt;</text>
<text xml:space="preserve" text-anchor="start" x="293.5" y="-915" font-family="Helvetica,sans-Serif" font-size="10.00"> </text>
<text xml:space="preserve" text-anchor="start" x="293.5" y="-900.5" font-family="Helvetica,sans-Serif" font-size="10.00"> </text>
<polygon fill="#666666" stroke="#666666" points="247.88,-924.5 247.88,-924.5 342.12,-924.5 342.12,-924.5 247.88,-924.5"/>
<polygon fill="#666666" stroke="#666666" points="247.88,-910 247.88,-910 342.12,-910 342.12,-910 247.88,-910"/>
<polygon fill="none" stroke="#666666" points="247.88,-893.5 247.88,-951.5 342.12,-951.5 342.12,-893.5 247.88,-893.5"/>
</a>
</g>
</g>
<!-- Node6&#45;&gt;Node5 -->
<g id="edge5_Node000005_Node000006" class="edge">
<title>Node6&#45;&gt;Node5</title>
<g id="a_edge5_Node000005_Node000006"><a xlink:title=" ">
<path fill="none" stroke="#63b8ff" d="M295,-882.37C295,-849.5 295,-803.67 295,-776.59"/>
<polygon fill="none" stroke="#63b8ff" points="291.5,-882.33 295,-892.33 298.5,-882.33 291.5,-882.33"/>
</a>
</g>
</g>
<!-- Node7 -->
<g id="Node000007" class="node">
<title>Node7</title>
<g id="a_Node000007"><a xlink:title=" ">
<polygon fill="white" stroke="none" points="340.62,-1046.5 249.38,-1046.5 249.38,-988.5 340.62,-988.5 340.62,-1046.5"/>
<text xml:space="preserve" text-anchor="start" x="253.38" y="-1035" font-family="Helvetica,sans-Serif" font-size="10.00">std::basic_ostream</text>
<text xml:space="preserve" text-anchor="start" x="275.5" y="-1024.5" font-family="Helvetica,sans-Serif" font-size="10.00">&lt; Char &gt;</text>
<text xml:space="preserve" text-anchor="start" x="293.5" y="-1010" font-family="Helvetica,sans-Serif" font-size="10.00"> </text>
<text xml:space="preserve" text-anchor="start" x="293.5" y="-995.5" font-family="Helvetica,sans-Serif" font-size="10.00"> </text>
<polygon fill="#666666" stroke="#666666" points="249.38,-1019.5 249.38,-1019.5 340.62,-1019.5 340.62,-1019.5 249.38,-1019.5"/>
<polygon fill="#666666" stroke="#666666" points="249.38,-1005 249.38,-1005 340.62,-1005 340.62,-1005 249.38,-1005"/>
<polygon fill="none" stroke="#666666" points="249.38,-988.5 249.38,-1046.5 340.62,-1046.5 340.62,-988.5 249.38,-988.5"/>
</a>
</g>
</g>
<!-- Node7&#45;&gt;Node6 -->
<g id="edge6_Node000006_Node000007" class="edge">
<title>Node7&#45;&gt;Node6</title>
<g id="a_edge6_Node000006_Node000007"><a xlink:title=" ">
<path fill="none" stroke="#63b8ff" d="M295,-977.12C295,-968.47 295,-959.47 295,-951.38"/>
<polygon fill="none" stroke="#63b8ff" points="291.5,-977.08 295,-987.08 298.5,-977.08 291.5,-977.08"/>
</a>
</g>
</g>
<!-- Node8 -->
<g id="Node000008" class="node">
<title>Node8</title>
<g id="a_Node000008"><a xlink:title=" ">
<polygon fill="white" stroke="none" points="348.88,-1131 241.12,-1131 241.12,-1083.5 348.88,-1083.5 348.88,-1131"/>
<text xml:space="preserve" text-anchor="start" x="245.12" y="-1119.5" font-family="Helvetica,sans-Serif" font-size="10.00">std::basic_ios&lt; Char &gt;</text>
<text xml:space="preserve" text-anchor="start" x="293.5" y="-1105" font-family="Helvetica,sans-Serif" font-size="10.00"> </text>
<text xml:space="preserve" text-anchor="start" x="293.5" y="-1090.5" font-family="Helvetica,sans-Serif" font-size="10.00"> </text>
<polygon fill="#666666" stroke="#666666" points="241.12,-1114.5 241.12,-1114.5 348.88,-1114.5 348.88,-1114.5 241.12,-1114.5"/>
<polygon fill="#666666" stroke="#666666" points="241.12,-1100 241.12,-1100 348.88,-1100 348.88,-1100 241.12,-1100"/>
<polygon fill="none" stroke="#666666" points="241.12,-1083.5 241.12,-1131 348.88,-1131 348.88,-1083.5 241.12,-1083.5"/>
</a>
</g>
</g>
<!-- Node8&#45;&gt;Node7 -->
<g id="edge7_Node000007_Node000008" class="edge">
<title>Node8&#45;&gt;Node7</title>
<g id="a_edge7_Node000007_Node000008"><a xlink:title=" ">
<path fill="none" stroke="#63b8ff" d="M295,-1072.38C295,-1063.78 295,-1054.63 295,-1046.36"/>
<polygon fill="none" stroke="#63b8ff" points="291.5,-1072.14 295,-1082.14 298.5,-1072.14 291.5,-1072.14"/>
</a>
</g>
</g>
<!-- Node9 -->
<g id="Node000009" class="node">
<title>Node9</title>
<g id="a_Node000009"><a xlink:title=" ">
<polygon fill="white" stroke="none" points="328.25,-1215.5 261.75,-1215.5 261.75,-1168 328.25,-1168 328.25,-1215.5"/>
<text xml:space="preserve" text-anchor="start" x="265.75" y="-1204" font-family="Helvetica,sans-Serif" font-size="10.00">std::ios_base</text>
<text xml:space="preserve" text-anchor="start" x="293.5" y="-1189.5" font-family="Helvetica,sans-Serif" font-size="10.00"> </text>
<text xml:space="preserve" text-anchor="start" x="293.5" y="-1175" font-family="Helvetica,sans-Serif" font-size="10.00"> </text>
<polygon fill="#666666" stroke="#666666" points="261.75,-1199 261.75,-1199 328.25,-1199 328.25,-1199 261.75,-1199"/>
<polygon fill="#666666" stroke="#666666" points="261.75,-1184.5 261.75,-1184.5 328.25,-1184.5 328.25,-1184.5 261.75,-1184.5"/>
<polygon fill="none" stroke="#666666" points="261.75,-1168 261.75,-1215.5 328.25,-1215.5 328.25,-1168 261.75,-1168"/>
</a>
</g>
</g>
<!-- Node9&#45;&gt;Node8 -->
<g id="edge8_Node000008_Node000009" class="edge">
<title>Node9&#45;&gt;Node8</title>
<g id="a_edge8_Node000008_Node000009"><a xlink:title=" ">
<path fill="none" stroke="#63b8ff" d="M295,-1156.71C295,-1147.96 295,-1138.77 295,-1130.77"/>
<polygon fill="none" stroke="#63b8ff" points="291.5,-1156.69 295,-1166.69 298.5,-1156.69 291.5,-1156.69"/>
</a>
</g>
</g>
<!-- Node10 -->
<g id="Node000010" class="node">
<title>Node10</title>
<g id="a_Node000010"><a xlink:title=" ">
<polygon fill="white" stroke="none" points="314.25,-481 259.75,-481 259.75,-433.5 314.25,-433.5 314.25,-481"/>
<text xml:space="preserve" text-anchor="start" x="263.75" y="-469.5" font-family="Helvetica,sans-Serif" font-size="10.00">std::mutex</text>
<text xml:space="preserve" text-anchor="start" x="285.5" y="-455" font-family="Helvetica,sans-Serif" font-size="10.00"> </text>
<text xml:space="preserve" text-anchor="start" x="285.5" y="-440.5" font-family="Helvetica,sans-Serif" font-size="10.00"> </text>
<polygon fill="#666666" stroke="#666666" points="259.75,-464.5 259.75,-464.5 314.25,-464.5 314.25,-464.5 259.75,-464.5"/>
<polygon fill="#666666" stroke="#666666" points="259.75,-450 259.75,-450 314.25,-450 314.25,-450 259.75,-450"/>
<polygon fill="none" stroke="#666666" points="259.75,-433.5 259.75,-481 314.25,-481 314.25,-433.5 259.75,-433.5"/>
</a>
</g>
</g>
<!-- Node10&#45;&gt;Node1 -->
<g id="edge9_Node000001_Node000010" class="edge">
<title>Node10&#45;&gt;Node1</title>
<g id="a_edge9_Node000001_Node000010"><a xlink:title=" ">
<path fill="none" stroke="#63b8ff" d="M287,-433.55C287,-400.8 287,-337.61 287,-277.64"/>
<polygon fill="none" stroke="#63b8ff" points="287,-277.8 283,-271.8 287,-265.8 291,-271.8 287,-277.8"/>
</a>
</g>
<text xml:space="preserve" text-anchor="start" x="290" y="-289" font-family="Helvetica,sans-Serif" font-size="10.00" fill="grey">&#45;mut</text>
</g>
<!-- Node11 -->
<g id="Node000011" class="node">
<title>Node11</title>
<g id="a_Node000011"><a xlink:title=" ">
<polygon fill="white" stroke="none" points="389.38,-481 332.62,-481 332.62,-433.5 389.38,-433.5 389.38,-481"/>
<text xml:space="preserve" text-anchor="start" x="336.62" y="-469.5" font-family="Helvetica,sans-Serif" font-size="10.00">std::jthread</text>
<text xml:space="preserve" text-anchor="start" x="359.5" y="-455" font-family="Helvetica,sans-Serif" font-size="10.00"> </text>
<text xml:space="preserve" text-anchor="start" x="359.5" y="-440.5" font-family="Helvetica,sans-Serif" font-size="10.00"> </text>
<polygon fill="#666666" stroke="#666666" points="332.62,-464.5 332.62,-464.5 389.38,-464.5 389.38,-464.5 332.62,-464.5"/>
<polygon fill="#666666" stroke="#666666" points="332.62,-450 332.62,-450 389.38,-450 389.38,-450 332.62,-450"/>
<polygon fill="none" stroke="#666666" points="332.62,-433.5 332.62,-481 389.38,-481 389.38,-433.5 332.62,-433.5"/>
</a>
</g>
</g>
<!-- Node11&#45;&gt;Node1 -->
<g id="edge10_Node000001_Node000011" class="edge">
<title>Node11&#45;&gt;Node1</title>
<g id="a_edge10_Node000001_Node000011"><a xlink:title=" ">
<path fill="none" stroke="#63b8ff" d="M355.8,-433.55C348.27,-400.73 333.74,-337.35 319.96,-277.26"/>
<polygon fill="none" stroke="#63b8ff" points="320.01,-277.48 314.77,-272.52 317.33,-265.78 322.57,-270.73 320.01,-277.48"/>
</a>
</g>
<text xml:space="preserve" text-anchor="start" x="327" y="-289" font-family="Helvetica,sans-Serif" font-size="10.00" fill="grey">&#45;writer</text>
</g>
</g>
</svg>

<g id="navigator" transform="translate(0 0)" fill="#404254">
  <rect fill="#f2f5e9" fill-opacity="0.5" stroke="#606060" stroke-width=".5" x="0" y="0" width="60" height="60"/>
  <use id="zoomplus" xlink:href="#zoomPlus" x="17" y="9" onmousedown="handleZoom(evt,'in')"/>
  <use id="zoomminus" xlink:href="#zoomMin" x="42" y="9" onmousedown="handleZoom(evt,'out')"/>
  <use id="reset" xlink:href="#resetDef" x="30" y="36" onmousedown="handleReset()"/>
   <use id="arrowup" xlink:href="#arrowUp" x="0" y="0" onmousedown="handlePan(0,-1)"/>
  <use id="arrowright" xlink:href="#arrowRight" x="0" y="0" onmousedown="handlePan(1,0)"/>
  <use id="arrowdown" xlink:href="#arrowDown" x="0" y="0" onmousedown="handlePan(0,1)"/>
  <use id="arrowleft" xlink:href="#arrowLeft" x="0" y="0" onmousedown="handlePan(-1,0)"/>
</g>
<svg viewBox="0 0 15 15" width="100%" height="30px" preserveAspectRatio="xMaxYMin meet">
 <g id="arrow_out" transform="scale(0.3 0.3)">
  <a xlink:href="classConcOrderedFileList__coll__graph_org.svg" target="_base">
   <rect id="button" ry="5" rx="5" y="6" x="6" height="38" width="38"
        fill="#f2f5e9" fill-opacity="0.5" stroke="#606060" stroke-width="1.0"/>
   <path id="arrow"
     d="M 11.500037,31.436501 C 11.940474,20.09759 22.043105,11.32322 32.158766,21.979434 L 37.068811,17.246167 C 37.068811,17.246167 37.088388,32 37.088388,32 L 22.160133,31.978069 C 22.160133,31.978069 26.997745,27.140456 26.997745,27.140456 C 18.528582,18.264221 13.291696,25.230495 11.500037,31.436501 z"
     style="fill:#404040;"/>
  </a>
 </g>
</svg>

<style type='text/css'>
<![CDATA[
[data-mouse-over-selected='false'] { opacity: 0.7; }
[data-mouse-over-selected='true']  { opacity: 1.0; }
]]>
</style>
<script type="application/ecmascript"><![CDATA[
document.addEventListener('DOMContentLoaded', (event) => {
  highlightEdges();
  highlightAdjacentNodes();
});
]]></script>
</svg>
