<?xml version="1.0" encoding="UTF-8" standalone="no"?>
<!DOCTYPE svg PUBLIC "-//W3C//DTD SVG 1.1//EN"
 "http://www.w3.org/Graphics/SVG/1.1/DTD/svg11.dtd">
<!-- Generated by graphviz version 14.1.5 (20260411.2331)
 -->
<!-- Title: Window::get_data Pages: 1 -->
<svg width="231pt" height="46pt"
 viewBox="0.00 0.00 231.00 46.00" xmlns="http://www.w3.org/2000/svg" xmlns:xlink="http://www.w3.org/1999/xlink">
<g id="graph0" class="graph" transform="scale(1 1) rotate(0) translate(4 42)">
<title>Window::get_data</title>
<!-- Node1 -->
<g id="Node000001" class="node">
<title>Node1</title>
<g id="a_Node000001"><a xlink:title=" ">
<polygon fill="#999999" stroke="#666666" points="222.5,-20 127.75,-20 127.75,0 222.5,0 222.5,-20"/>
<text xml:space="preserve" text-anchor="middle" x="175.12" y="-6.5" font-family="Helvetica,sans-Serif" font-size="10.00">Window::get_data</text>
</a>
</g>
</g>
<!-- Node2 -->
<g id="Node000002" class="node">
<title>Node2</title>
<g id="a_Node000002"><a xlink:href="classalg_1_1_rabin.html#a3e845390e40970d04a161dc5797395ba" target="_top" xlink:title=" ">
<polygon fill="white" stroke="#666666" points="91.75,-20 0,-20 0,0 91.75,0 91.75,-20"/>
<text xml:space="preserve" text-anchor="middle" x="45.88" y="-6.5" font-family="Helvetica,sans-Serif" font-size="10.00">alg::Rabin::Rabin</text>
</a>
</g>
</g>
<!-- Node1&#45;&gt;Node2 -->
<g id="edge1_Node000001_Node000002" class="edge">
<title>Node1&#45;&gt;Node2</title>
<g id="a_edge1_Node000001_Node000002"><a xlink:title=" ">
<path fill="none" stroke="#63b8ff" d="M116.09,-10C107.95,-10 99.68,-10 91.83,-10"/>
<polygon fill="#63b8ff" stroke="#63b8ff" points="115.95,-13.5 125.95,-10 115.95,-6.5 115.95,-13.5"/>
</a>
</g>
</g>
<!-- Node2&#45;&gt;Node2 -->
<g id="edge2_Node000002_Node000002" class="edge">
<title>Node2&#45;&gt;Node2</title>
<g id="a_edge2_Node000002_Node000002"><a xlink:title=" ">
<path fill="none" stroke="#63b8ff" d="M68.72,-31.44C65.78,-35.3 58.16,-38 45.88,-38 23.41,-38 16.56,-28.98 25.34,-20.34"/>
<polygon fill="#63b8ff" stroke="#63b8ff" points="72.18,-30.9 66.72,-21.82 65.33,-32.32 72.18,-30.9"/>
</a>
</g>
</g>
</g>
</svg>
