<?xml version="1.0" encoding="UTF-8" standalone="no"?>
<!DOCTYPE svg PUBLIC "-//W3C//DTD SVG 1.1//EN"
 "http://www.w3.org/Graphics/SVG/1.1/DTD/svg11.dtd">
<!-- Generated by graphviz version 14.1.5 (20260411.2331)
 -->
<!-- Title: ConcurrentFileBuffer&lt; T &gt; Pages: 1 -->
<!--zoomable 799 -->

<svg id="main" version="1.1" xmlns="http://www.w3.org/2000/svg" xmlns:xlink="http://www.w3.org/1999/xlink" xml:space="preserve" onload="init(evt)">

<style type="text/css"><![CDATA[
.node, .edge {opacity: 0.7;}
.node.selected, .edge.selected {opacity: 1;}
.edge:hover path { stroke: red; }
.edge:hover polygon { stroke: red; fill: red; }
]]></style>

<defs>
  <circle id="rim" cx="0" cy="0" r="7"/>
  <circle id="rim2" cx="0" cy="0" r="3.5"/>
  <g id="zoomPlus">
    <use xlink:href="#rim" fill="#404040"><set attributeName="fill" to="#808080" begin="zoomplus.mouseover" end="zoomplus.mouseout"/></use>
    <path d="M-4,0h8M0,-4v8" fill="none" stroke="white" stroke-width="1.5" pointer-events="none"/>
  </g>
  <g id="zoomMin">
    <use xlink:href="#rim" fill="#404040"><set attributeName="fill" to="#808080" begin="zoomminus.mouseover" end="zoomminus.mouseout"/></use>
    <path d="M-4,0h8" fill="none" stroke="white" stroke-width="1.5" pointer-events="none"/>
  </g>
  <g id="arrowUp" transform="translate(30 24)">
    <use xlink:href="#rim"/>
    <path pointer-events="none" fill="none" stroke="white" stroke-width="1.5" d="M0,-3.0v7 M-2.5,-0.5L0,-3.0L2.5,-0.5"/>
  </g>
  <g id="arrowRight" transform="rotate(90) translate(36 -43)">
    <use xlink:href="#rim"/>
    <path pointer-events="none" fill="none" stroke="white" stroke-width="1.5" d="M0,-3.0v7 M-2.5,-0.5L0,-3.0L2.5,-0.5"/>
  </g>
  <g id="arrowDown" transform="rotate(180) translate(-30 -48)">
    <use xlink:href="#rim"/>
    <path pointer-events="none" fill="none" stroke="white" stroke-width="1.5" d="M0,-3.0v7 M-2.5,-0.5L0,-3.0L2.5,-0.5"/>
  </g>
  <g id="arrowLeft" transform="rotate(270) translate(-36 17)">
    <use xlink:href="#rim"/>
    <path pointer-events="none" fill="none" stroke="white" stroke-width="1.5" d="M0,-3.0v7 M-2.5,-0.5L0,-3.0L2.5,-0.5"/>
  </g>
  <g id="resetDef">
    <use xlink:href="#rim2" fill="#404040"><set attributeName="fill" to="#808080" begin="reset.mouseover" end="reset.mouseout"/></use>
  </g>
</defs>
<script type="application/ecmascript">
var viewWidth = 285;
var viewHeight = 799;
var sectionId = 'dynsection-0';
</script>
<script type="application/ecmascript" xlink:href="svg.min.js"/>
<svg id="graph" class="graph">
<g id="viewport">
<title>ConcurrentFileBuffer&lt; T &gt;</title>
<!-- Node1 -->
<g id="Node000001" class="node">
<title>Node1</title>
<g id="a_Node000001"><a xlink:title="Circular array where if size &gt; capacity, the oldest elements are written to stream until.">
<polygon fill="#999999" stroke="none" points="192.12,-276 71.62,-276 71.62,0 192.12,0 192.12,-276"/>
<text xml:space="preserve" text-anchor="start" x="75.62" y="-262.25" font-family="Helvetica,sans-Serif" font-size="10.00">ConcurrentFileBuffer&lt; T &gt;</text>
<text xml:space="preserve" text-anchor="start" x="77.44" y="-246.25" font-family="Helvetica,sans-Serif" font-size="10.00">&#45;</text>
<text xml:space="preserve" text-anchor="start" x="86.25" y="-246.25" font-family="Helvetica,sans-Serif" font-size="10.00">data_</text>
<text xml:space="preserve" text-anchor="start" x="77.44" y="-230.25" font-family="Helvetica,sans-Serif" font-size="10.00">&#45;</text>
<text xml:space="preserve" text-anchor="start" x="86.25" y="-230.25" font-family="Helvetica,sans-Serif" font-size="10.00">allocator</text>
<text xml:space="preserve" text-anchor="start" x="77.44" y="-214.25" font-family="Helvetica,sans-Serif" font-size="10.00">&#45;</text>
<text xml:space="preserve" text-anchor="start" x="86.25" y="-214.25" font-family="Helvetica,sans-Serif" font-size="10.00">index_</text>
<text xml:space="preserve" text-anchor="start" x="77.44" y="-198.25" font-family="Helvetica,sans-Serif" font-size="10.00">&#45;</text>
<text xml:space="preserve" text-anchor="start" x="86.25" y="-198.25" font-family="Helvetica,sans-Serif" font-size="10.00">written_index_</text>
<text xml:space="preserve" text-anchor="start" x="77.44" y="-182.25" font-family="Helvetica,sans-Serif" font-size="10.00">&#45;</text>
<text xml:space="preserve" text-anchor="start" x="86.25" y="-182.25" font-family="Helvetica,sans-Serif" font-size="10.00">capacity_</text>
<text xml:space="preserve" text-anchor="start" x="77.44" y="-166.25" font-family="Helvetica,sans-Serif" font-size="10.00">&#45;</text>
<text xml:space="preserve" text-anchor="start" x="86.25" y="-166.25" font-family="Helvetica,sans-Serif" font-size="10.00">minimum_size_</text>
<text xml:space="preserve" text-anchor="start" x="75.94" y="-150.25" font-family="Helvetica,sans-Serif" font-size="10.00">+</text>
<text xml:space="preserve" text-anchor="start" x="86.25" y="-150.25" font-family="Helvetica,sans-Serif" font-size="10.00">ConcurrentFileBuffer()</text>
<text xml:space="preserve" text-anchor="start" x="75.94" y="-134.25" font-family="Helvetica,sans-Serif" font-size="10.00">+</text>
<text xml:space="preserve" text-anchor="start" x="86.25" y="-134.25" font-family="Helvetica,sans-Serif" font-size="10.00">~ConcurrentFileBuffer()</text>
<text xml:space="preserve" text-anchor="start" x="75.94" y="-118.25" font-family="Helvetica,sans-Serif" font-size="10.00">+</text>
<text xml:space="preserve" text-anchor="start" x="86.25" y="-118.25" font-family="Helvetica,sans-Serif" font-size="10.00">push_back()</text>
<text xml:space="preserve" text-anchor="start" x="75.94" y="-102.25" font-family="Helvetica,sans-Serif" font-size="10.00">+</text>
<text xml:space="preserve" text-anchor="start" x="86.25" y="-102.25" font-family="Helvetica,sans-Serif" font-size="10.00">push_back()</text>
<text xml:space="preserve" text-anchor="start" x="75.94" y="-86.25" font-family="Helvetica,sans-Serif" font-size="10.00">+</text>
<text xml:space="preserve" text-anchor="start" x="86.25" y="-86.25" font-family="Helvetica,sans-Serif" font-size="10.00">append_range()</text>
<text xml:space="preserve" text-anchor="start" x="75.94" y="-70.25" font-family="Helvetica,sans-Serif" font-size="10.00">+</text>
<text xml:space="preserve" text-anchor="start" x="86.25" y="-70.25" font-family="Helvetica,sans-Serif" font-size="10.00">reserve()</text>
<text xml:space="preserve" text-anchor="start" x="75.94" y="-54.25" font-family="Helvetica,sans-Serif" font-size="10.00">+</text>
<text xml:space="preserve" text-anchor="start" x="86.25" y="-54.25" font-family="Helvetica,sans-Serif" font-size="10.00">operator[]()</text>
<text xml:space="preserve" text-anchor="start" x="75.94" y="-38.25" font-family="Helvetica,sans-Serif" font-size="10.00">+</text>
<text xml:space="preserve" text-anchor="start" x="86.25" y="-38.25" font-family="Helvetica,sans-Serif" font-size="10.00">capacity()</text>
<text xml:space="preserve" text-anchor="start" x="75.94" y="-22.25" font-family="Helvetica,sans-Serif" font-size="10.00">+</text>
<text xml:space="preserve" text-anchor="start" x="86.25" y="-22.25" font-family="Helvetica,sans-Serif" font-size="10.00">minimum_size()</text>
<text xml:space="preserve" text-anchor="start" x="77.44" y="-6.25" font-family="Helvetica,sans-Serif" font-size="10.00">&#45;</text>
<text xml:space="preserve" text-anchor="start" x="86.25" y="-6.25" font-family="Helvetica,sans-Serif" font-size="10.00">true_index()</text>
<polygon fill="#666666" stroke="#666666" points="71.62,-258 71.62,-258 192.12,-258 192.12,-258 71.62,-258"/>
<polygon fill="#666666" stroke="#666666" points="71.62,-162 71.62,-162 84.25,-162 84.25,-162 71.62,-162"/>
<polygon fill="#666666" stroke="#666666" points="84.25,-162 84.25,-162 192.12,-162 192.12,-162 84.25,-162"/>
<polygon fill="none" stroke="#666666" points="71.62,0 71.62,-276 192.12,-276 192.12,0 71.62,0"/>
</a>
</g>
</g>
<!-- Node2 -->
<g id="Node000002" class="node">
<title>Node2</title>
<g id="a_Node000002"><a xlink:title=" ">
<polygon fill="white" stroke="none" points="86.75,-388 21,-388 21,-336 86.75,-336 86.75,-388"/>
<text xml:space="preserve" text-anchor="start" x="25" y="-374.25" font-family="Helvetica,sans-Serif" font-size="10.00">std::ofstream</text>
<text xml:space="preserve" text-anchor="start" x="52.38" y="-358.25" font-family="Helvetica,sans-Serif" font-size="10.00"> </text>
<text xml:space="preserve" text-anchor="start" x="52.38" y="-342.25" font-family="Helvetica,sans-Serif" font-size="10.00"> </text>
<polygon fill="#666666" stroke="#666666" points="21,-370 21,-370 86.75,-370 86.75,-370 21,-370"/>
<polygon fill="#666666" stroke="#666666" points="21,-354 21,-354 86.75,-354 86.75,-354 21,-354"/>
<polygon fill="none" stroke="#666666" points="21,-336 21,-388 86.75,-388 86.75,-336 21,-336"/>
</a>
</g>
</g>
<!-- Node2&#45;&gt;Node1 -->
<g id="edge1_Node000001_Node000002" class="edge">
<title>Node2&#45;&gt;Node1</title>
<g id="a_edge1_Node000001_Node000002"><a xlink:title=" ">
<path fill="none" stroke="#63b8ff" d="M51.65,-336.17C51.15,-323.4 51.56,-307.68 54.88,-294 57.91,-281.5 62.08,-268.84 66.93,-256.43"/>
<polygon fill="none" stroke="#63b8ff" points="66.87,-256.56 65.45,-249.49 71.42,-245.46 72.85,-252.53 66.87,-256.56"/>
</a>
</g>
<text xml:space="preserve" text-anchor="start" x="57.88" y="-299.25" font-family="Helvetica,sans-Serif" font-size="10.00" fill="grey">&#45;out_stream_</text>
</g>
<!-- Node3 -->
<g id="Node000003" class="node">
<title>Node3</title>
<g id="a_Node000003"><a xlink:title=" ">
<polygon fill="white" stroke="none" points="101,-512 6.75,-512 6.75,-448 101,-448 101,-512"/>
<text xml:space="preserve" text-anchor="start" x="10.75" y="-498.25" font-family="Helvetica,sans-Serif" font-size="10.00">std::basic_ofstream</text>
<text xml:space="preserve" text-anchor="start" x="34.38" y="-486.25" font-family="Helvetica,sans-Serif" font-size="10.00">&lt; Char &gt;</text>
<text xml:space="preserve" text-anchor="start" x="52.38" y="-470.25" font-family="Helvetica,sans-Serif" font-size="10.00"> </text>
<text xml:space="preserve" text-anchor="start" x="52.38" y="-454.25" font-family="Helvetica,sans-Serif" font-size="10.00"> </text>
<polygon fill="#666666" stroke="#666666" points="6.75,-482 6.75,-482 101,-482 101,-482 6.75,-482"/>
<polygon fill="#666666" stroke="#666666" points="6.75,-466 6.75,-466 101,-466 101,-466 6.75,-466"/>
<polygon fill="none" stroke="#666666" points="6.75,-448 6.75,-512 101,-512 101,-448 6.75,-448"/>
</a>
</g>
</g>
<!-- Node3&#45;&gt;Node2 -->
<g id="edge2_Node000002_Node000003" class="edge">
<title>Node3&#45;&gt;Node2</title>
<g id="a_edge2_Node000002_Node000003"><a xlink:title=" ">
<path fill="none" stroke="#63b8ff" d="M53.88,-437.12C53.88,-420.54 53.88,-402.05 53.88,-387.68"/>
<polygon fill="none" stroke="#63b8ff" points="50.38,-436.71 53.88,-446.71 57.38,-436.71 50.38,-436.71"/>
</a>
</g>
</g>
<!-- Node4 -->
<g id="Node000004" class="node">
<title>Node4</title>
<g id="a_Node000004"><a xlink:title=" ">
<polygon fill="white" stroke="none" points="99.5,-613 8.25,-613 8.25,-549 99.5,-549 99.5,-613"/>
<text xml:space="preserve" text-anchor="start" x="12.25" y="-599.25" font-family="Helvetica,sans-Serif" font-size="10.00">std::basic_ostream</text>
<text xml:space="preserve" text-anchor="start" x="34.38" y="-587.25" font-family="Helvetica,sans-Serif" font-size="10.00">&lt; Char &gt;</text>
<text xml:space="preserve" text-anchor="start" x="52.38" y="-571.25" font-family="Helvetica,sans-Serif" font-size="10.00"> </text>
<text xml:space="preserve" text-anchor="start" x="52.38" y="-555.25" font-family="Helvetica,sans-Serif" font-size="10.00"> </text>
<polygon fill="#666666" stroke="#666666" points="8.25,-583 8.25,-583 99.5,-583 99.5,-583 8.25,-583"/>
<polygon fill="#666666" stroke="#666666" points="8.25,-567 8.25,-567 99.5,-567 99.5,-567 8.25,-567"/>
<polygon fill="none" stroke="#666666" points="8.25,-549 8.25,-613 99.5,-613 99.5,-549 8.25,-549"/>
</a>
</g>
</g>
<!-- Node4&#45;&gt;Node3 -->
<g id="edge3_Node000003_Node000004" class="edge">
<title>Node4&#45;&gt;Node3</title>
<g id="a_edge3_Node000003_Node000004"><a xlink:title=" ">
<path fill="none" stroke="#63b8ff" d="M53.88,-537.95C53.88,-529.16 53.88,-520.05 53.88,-511.76"/>
<polygon fill="none" stroke="#63b8ff" points="50.38,-537.7 53.88,-547.7 57.38,-537.7 50.38,-537.7"/>
</a>
</g>
</g>
<!-- Node5 -->
<g id="Node000005" class="node">
<title>Node5</title>
<g id="a_Node000005"><a xlink:title=" ">
<polygon fill="white" stroke="none" points="107.75,-702 0,-702 0,-650 107.75,-650 107.75,-702"/>
<text xml:space="preserve" text-anchor="start" x="4" y="-688.25" font-family="Helvetica,sans-Serif" font-size="10.00">std::basic_ios&lt; Char &gt;</text>
<text xml:space="preserve" text-anchor="start" x="52.38" y="-672.25" font-family="Helvetica,sans-Serif" font-size="10.00"> </text>
<text xml:space="preserve" text-anchor="start" x="52.38" y="-656.25" font-family="Helvetica,sans-Serif" font-size="10.00"> </text>
<polygon fill="#666666" stroke="#666666" points="0,-684 0,-684 107.75,-684 107.75,-684 0,-684"/>
<polygon fill="#666666" stroke="#666666" points="0,-668 0,-668 107.75,-668 107.75,-668 0,-668"/>
<polygon fill="none" stroke="#666666" points="0,-650 0,-702 107.75,-702 107.75,-650 0,-650"/>
</a>
</g>
</g>
<!-- Node5&#45;&gt;Node4 -->
<g id="edge4_Node000004_Node000005" class="edge">
<title>Node5&#45;&gt;Node4</title>
<g id="a_edge4_Node000004_Node000005"><a xlink:title=" ">
<path fill="none" stroke="#63b8ff" d="M53.88,-638.85C53.88,-630.3 53.88,-621.27 53.88,-612.98"/>
<polygon fill="none" stroke="#63b8ff" points="50.38,-638.56 53.88,-648.56 57.38,-638.56 50.38,-638.56"/>
</a>
</g>
</g>
<!-- Node6 -->
<g id="Node000006" class="node">
<title>Node6</title>
<g id="a_Node000006"><a xlink:title=" ">
<polygon fill="white" stroke="none" points="87.12,-791 20.62,-791 20.62,-739 87.12,-739 87.12,-791"/>
<text xml:space="preserve" text-anchor="start" x="24.62" y="-777.25" font-family="Helvetica,sans-Serif" font-size="10.00">std::ios_base</text>
<text xml:space="preserve" text-anchor="start" x="52.38" y="-761.25" font-family="Helvetica,sans-Serif" font-size="10.00"> </text>
<text xml:space="preserve" text-anchor="start" x="52.38" y="-745.25" font-family="Helvetica,sans-Serif" font-size="10.00"> </text>
<polygon fill="#666666" stroke="#666666" points="20.62,-773 20.62,-773 87.12,-773 87.12,-773 20.62,-773"/>
<polygon fill="#666666" stroke="#666666" points="20.62,-757 20.62,-757 87.12,-757 87.12,-757 20.62,-757"/>
<polygon fill="none" stroke="#666666" points="20.62,-739 20.62,-791 87.12,-791 87.12,-739 20.62,-739"/>
</a>
</g>
</g>
<!-- Node6&#45;&gt;Node5 -->
<g id="edge5_Node000005_Node000006" class="edge">
<title>Node6&#45;&gt;Node5</title>
<g id="a_edge5_Node000005_Node000006"><a xlink:title=" ">
<path fill="none" stroke="#63b8ff" d="M53.88,-728.05C53.88,-719.21 53.88,-709.94 53.88,-701.76"/>
<polygon fill="none" stroke="#63b8ff" points="50.38,-727.79 53.88,-737.79 57.38,-727.79 50.38,-727.79"/>
</a>
</g>
</g>
<!-- Node7 -->
<g id="Node000007" class="node">
<title>Node7</title>
<g id="a_Node000007"><a xlink:title=" ">
<polygon fill="white" stroke="none" points="198.12,-506 143.62,-506 143.62,-454 198.12,-454 198.12,-506"/>
<text xml:space="preserve" text-anchor="start" x="147.62" y="-492.25" font-family="Helvetica,sans-Serif" font-size="10.00">std::mutex</text>
<text xml:space="preserve" text-anchor="start" x="169.38" y="-476.25" font-family="Helvetica,sans-Serif" font-size="10.00"> </text>
<text xml:space="preserve" text-anchor="start" x="169.38" y="-460.25" font-family="Helvetica,sans-Serif" font-size="10.00"> </text>
<polygon fill="#666666" stroke="#666666" points="143.62,-488 143.62,-488 198.12,-488 198.12,-488 143.62,-488"/>
<polygon fill="#666666" stroke="#666666" points="143.62,-472 143.62,-472 198.12,-472 198.12,-472 143.62,-472"/>
<polygon fill="none" stroke="#666666" points="143.62,-454 143.62,-506 198.12,-506 198.12,-454 143.62,-454"/>
</a>
</g>
</g>
<!-- Node7&#45;&gt;Node1 -->
<g id="edge6_Node000001_Node000007" class="edge">
<title>Node7&#45;&gt;Node1</title>
<g id="a_edge6_Node000001_Node000007"><a xlink:title=" ">
<path fill="none" stroke="#63b8ff" d="M159.69,-454.28C152.74,-437.62 144.38,-414.94 140.38,-394 133.91,-360.19 130.59,-323.41 129.09,-288.58"/>
<polygon fill="none" stroke="#63b8ff" points="129.1,-288.74 124.88,-282.89 128.66,-276.75 132.88,-282.6 129.1,-288.74"/>
</a>
</g>
<text xml:space="preserve" text-anchor="start" x="143.38" y="-358.25" font-family="Helvetica,sans-Serif" font-size="10.00" fill="grey">&#45;mut</text>
</g>
<!-- Node8 -->
<g id="Node000008" class="node">
<title>Node8</title>
<g id="a_Node000008"><a xlink:title=" ">
<polygon fill="white" stroke="none" points="276.75,-394 175,-394 175,-330 276.75,-330 276.75,-394"/>
<text xml:space="preserve" text-anchor="start" x="179" y="-380.25" font-family="Helvetica,sans-Serif" font-size="10.00">std::unique_lock&lt; std</text>
<text xml:space="preserve" text-anchor="start" x="204.88" y="-368.25" font-family="Helvetica,sans-Serif" font-size="10.00">::mutex &gt;</text>
<text xml:space="preserve" text-anchor="start" x="224.38" y="-352.25" font-family="Helvetica,sans-Serif" font-size="10.00"> </text>
<text xml:space="preserve" text-anchor="start" x="224.38" y="-336.25" font-family="Helvetica,sans-Serif" font-size="10.00"> </text>
<polygon fill="#666666" stroke="#666666" points="175,-364 175,-364 276.75,-364 276.75,-364 175,-364"/>
<polygon fill="#666666" stroke="#666666" points="175,-348 175,-348 276.75,-348 276.75,-348 175,-348"/>
<polygon fill="none" stroke="#666666" points="175,-330 175,-394 276.75,-394 276.75,-330 175,-330"/>
</a>
</g>
</g>
<!-- Node7&#45;&gt;Node8 -->
<g id="edge8_Node000008_Node000007" class="edge">
<title>Node7&#45;&gt;Node8</title>
<g id="a_edge8_Node000008_Node000007"><a xlink:title=" ">
<path fill="none" stroke="#63b8ff" d="M182.67,-454.12C189.43,-439.87 198.09,-421.61 205.88,-405.18"/>
<polygon fill="none" stroke="#63b8ff" points="205.83,-405.28 204.78,-398.15 210.97,-394.44 212.01,-401.58 205.83,-405.28"/>
</a>
</g>
<text xml:space="preserve" text-anchor="start" x="204.67" y="-417.25" font-family="Helvetica,sans-Serif" font-size="10.00" fill="grey">+ptr</text>
</g>
<!-- Node8&#45;&gt;Node1 -->
<g id="edge7_Node000001_Node000008" class="edge">
<title>Node8&#45;&gt;Node1</title>
<g id="a_edge7_Node000001_Node000008"><a xlink:title=" ">
<path fill="none" stroke="#63b8ff" d="M212.8,-330.13C207.73,-318.15 201.53,-303.5 194.83,-287.69"/>
<polygon fill="none" stroke="#63b8ff" points="194.91,-287.87 188.89,-283.91 190.23,-276.82 196.26,-280.79 194.91,-287.87"/>
</a>
</g>
<text xml:space="preserve" text-anchor="start" x="206.16" y="-299.25" font-family="Helvetica,sans-Serif" font-size="10.00" fill="grey">&#45;lock</text>
</g>
</g>
</svg>

<g id="navigator" transform="translate(0 0)" fill="#404254">
  <rect fill="#f2f5e9" fill-opacity="0.5" stroke="#606060" stroke-width=".5" x="0" y="0" width="60" height="60"/>
  <use id="zoomplus" xlink:href="#zoomPlus" x="17" y="9" onmousedown="handleZoom(evt,'in')"/>
  <use id="zoomminus" xlink:href="#zoomMin" x="42" y="9" onmousedown="handleZoom(evt,'out')"/>
  <use id="reset" xlink:href="#resetDef" x="30" y="36" onmousedown="handleReset()"/>
   <use id="arrowup" xlink:href="#arrowUp" x="0" y="0" onmousedown="handlePan(0,-1)"/>
  <use id="arrowright" xlink:href="#arrowRight" x="0" y="0" onmousedown="handlePan(1,0)"/>
  <use id="arrowdown" xlink:href="#arrowDown" x="0" y="0" onmousedown="handlePan(0,1)"/>
  <use id="arrowleft" xlink:href="#arrowLeft" x="0" y="0" onmousedown="handlePan(-1,0)"/>
</g>
<svg viewBox="0 0 15 15" width="100%" height="30px" preserveAspectRatio="xMaxYMin meet">
 <g id="arrow_out" transform="scale(0.3 0.3)">
  <a xlink:href="class_concurrent_file_buffer__coll__graph_org.svg" target="_base">
   <rect id="button" ry="5" rx="5" y="6" x="6" height="38" width="38"
        fill="#f2f5e9" fill-opacity="0.5" stroke="#606060" stroke-width="1.0"/>
   <path id="arrow"
     d="M 11.500037,31.436501 C 11.940474,20.09759 22.043105,11.32322 32.158766,21.979434 L 37.068811,17.246167 C 37.068811,17.246167 37.088388,32 37.088388,32 L 22.160133,31.978069 C 22.160133,31.978069 26.997745,27.140456 26.997745,27.140456 C 18.528582,18.264221 13.291696,25.230495 11.500037,31.436501 z"
     style="fill:#404040;"/>
  </a>
 </g>
</svg>

<style type='text/css'>
<![CDATA[
[data-mouse-over-selected='false'] { opacity: 0.7; }
[data-mouse-over-selected='true']  { opacity: 1.0; }
]]>
</style>
<script type="application/ecmascript"><![CDATA[
document.addEventListener('DOMContentLoaded', (event) => {
  highlightEdges();
  highlightAdjacentNodes();
});
]]></script>
</svg>
