<?xml version="1.0" encoding="UTF-8" standalone="no"?>
<!DOCTYPE svg PUBLIC "-//W3C//DTD SVG 1.1//EN"
 "http://www.w3.org/Graphics/SVG/1.1/DTD/svg11.dtd">
<!-- Generated by graphviz version 14.1.4 (20260321.0153)
 -->
<!-- Title: LZ77Block&lt; Alloc &gt; Pages: 1 -->
<!--zoomable 609 -->

<svg id="main" version="1.1" xmlns="http://www.w3.org/2000/svg" xmlns:xlink="http://www.w3.org/1999/xlink" xml:space="preserve" onload="init(evt)">

<style type="text/css"><![CDATA[
.node, .edge {opacity: 0.7;}
.node.selected, .edge.selected {opacity: 1;}
.edge:hover path { stroke: red; }
.edge:hover polygon { stroke: red; fill: red; }
]]></style>

<defs>
  <circle id="rim" cx="0" cy="0" r="7"/>
  <circle id="rim2" cx="0" cy="0" r="3.5"/>
  <g id="zoomPlus">
    <use xlink:href="#rim" fill="#404040"><set attributeName="fill" to="#808080" begin="zoomplus.mouseover" end="zoomplus.mouseout"/></use>
    <path d="M-4,0h8M0,-4v8" fill="none" stroke="white" stroke-width="1.5" pointer-events="none"/>
  </g>
  <g id="zoomMin">
    <use xlink:href="#rim" fill="#404040"><set attributeName="fill" to="#808080" begin="zoomminus.mouseover" end="zoomminus.mouseout"/></use>
    <path d="M-4,0h8" fill="none" stroke="white" stroke-width="1.5" pointer-events="none"/>
  </g>
  <g id="arrowUp" transform="translate(30 24)">
    <use xlink:href="#rim"/>
    <path pointer-events="none" fill="none" stroke="white" stroke-width="1.5" d="M0,-3.0v7 M-2.5,-0.5L0,-3.0L2.5,-0.5"/>
  </g>
  <g id="arrowRight" transform="rotate(90) translate(36 -43)">
    <use xlink:href="#rim"/>
    <path pointer-events="none" fill="none" stroke="white" stroke-width="1.5" d="M0,-3.0v7 M-2.5,-0.5L0,-3.0L2.5,-0.5"/>
  </g>
  <g id="arrowDown" transform="rotate(180) translate(-30 -48)">
    <use xlink:href="#rim"/>
    <path pointer-events="none" fill="none" stroke="white" stroke-width="1.5" d="M0,-3.0v7 M-2.5,-0.5L0,-3.0L2.5,-0.5"/>
  </g>
  <g id="arrowLeft" transform="rotate(270) translate(-36 17)">
    <use xlink:href="#rim"/>
    <path pointer-events="none" fill="none" stroke="white" stroke-width="1.5" d="M0,-3.0v7 M-2.5,-0.5L0,-3.0L2.5,-0.5"/>
  </g>
  <g id="resetDef">
    <use xlink:href="#rim2" fill="#404040"><set attributeName="fill" to="#808080" begin="reset.mouseover" end="reset.mouseout"/></use>
  </g>
</defs>
<script type="application/ecmascript">
var viewWidth = 131;
var viewHeight = 609;
var sectionId = 'dynsection-0';
</script>
<script type="application/ecmascript" xlink:href="svg.min.js"/>
<svg id="graph" class="graph">
<g id="viewport">
<title>LZ77Block&lt; Alloc &gt;</title>
<!-- Node1 -->
<g id="Node000001" class="node">
<title>Node1</title>
<g id="a_Node000001"><a xlink:title="Represents a block of data encoded by LZ77.">
<polygon fill="#999999" stroke="none" points="120.75,-221.5 2.25,-221.5 2.25,0 120.75,0 120.75,-221.5"/>
<text xml:space="preserve" text-anchor="start" x="18" y="-210" font-family="Helvetica,sans-Serif" font-size="10.00">LZ77Block&lt; Alloc &gt;</text>
<text xml:space="preserve" text-anchor="start" x="7.75" y="-195.5" font-family="Helvetica,sans-Serif" font-size="10.00">&#45;</text>
<text xml:space="preserve" text-anchor="start" x="16.25" y="-195.5" font-family="Helvetica,sans-Serif" font-size="10.00">compressed_length_</text>
<text xml:space="preserve" text-anchor="start" x="7.75" y="-181" font-family="Helvetica,sans-Serif" font-size="10.00">&#45;</text>
<text xml:space="preserve" text-anchor="start" x="16.25" y="-181" font-family="Helvetica,sans-Serif" font-size="10.00">uncompressed_length_</text>
<text xml:space="preserve" text-anchor="start" x="6.25" y="-166.5" font-family="Helvetica,sans-Serif" font-size="10.00">+</text>
<text xml:space="preserve" text-anchor="start" x="16.25" y="-166.5" font-family="Helvetica,sans-Serif" font-size="10.00">LZ77Block()</text>
<text xml:space="preserve" text-anchor="start" x="6.25" y="-152" font-family="Helvetica,sans-Serif" font-size="10.00">+</text>
<text xml:space="preserve" text-anchor="start" x="16.25" y="-152" font-family="Helvetica,sans-Serif" font-size="10.00">LZ77Block()</text>
<text xml:space="preserve" text-anchor="start" x="6.25" y="-137.5" font-family="Helvetica,sans-Serif" font-size="10.00">+</text>
<text xml:space="preserve" text-anchor="start" x="16.25" y="-137.5" font-family="Helvetica,sans-Serif" font-size="10.00">serialize()</text>
<text xml:space="preserve" text-anchor="start" x="6.25" y="-123" font-family="Helvetica,sans-Serif" font-size="10.00">+</text>
<text xml:space="preserve" text-anchor="start" x="16.25" y="-123" font-family="Helvetica,sans-Serif" font-size="10.00">write_to()</text>
<text xml:space="preserve" text-anchor="start" x="6.25" y="-108.5" font-family="Helvetica,sans-Serif" font-size="10.00">+</text>
<text xml:space="preserve" text-anchor="start" x="16.25" y="-108.5" font-family="Helvetica,sans-Serif" font-size="10.00">push_back()</text>
<text xml:space="preserve" text-anchor="start" x="6.25" y="-94" font-family="Helvetica,sans-Serif" font-size="10.00">+</text>
<text xml:space="preserve" text-anchor="start" x="16.25" y="-94" font-family="Helvetica,sans-Serif" font-size="10.00">clear()</text>
<text xml:space="preserve" text-anchor="start" x="6.25" y="-79.5" font-family="Helvetica,sans-Serif" font-size="10.00">+</text>
<text xml:space="preserve" text-anchor="start" x="16.25" y="-79.5" font-family="Helvetica,sans-Serif" font-size="10.00">reserve()</text>
<text xml:space="preserve" text-anchor="start" x="6.25" y="-65" font-family="Helvetica,sans-Serif" font-size="10.00">+</text>
<text xml:space="preserve" text-anchor="start" x="16.25" y="-65" font-family="Helvetica,sans-Serif" font-size="10.00">size()</text>
<text xml:space="preserve" text-anchor="start" x="6.25" y="-50.5" font-family="Helvetica,sans-Serif" font-size="10.00">+</text>
<text xml:space="preserve" text-anchor="start" x="16.25" y="-50.5" font-family="Helvetica,sans-Serif" font-size="10.00">size_bytes()</text>
<text xml:space="preserve" text-anchor="start" x="6.25" y="-36" font-family="Helvetica,sans-Serif" font-size="10.00">+</text>
<text xml:space="preserve" text-anchor="start" x="16.25" y="-36" font-family="Helvetica,sans-Serif" font-size="10.00">compressed_length()</text>
<text xml:space="preserve" text-anchor="start" x="16.25" y="-21.5" font-family="Helvetica,sans-Serif" font-size="10.00">and 6 more...</text>
<text xml:space="preserve" text-anchor="start" x="6.25" y="-7" font-family="Helvetica,sans-Serif" font-size="10.00">+</text>
<text xml:space="preserve" text-anchor="start" x="16.25" y="-7" font-family="Helvetica,sans-Serif" font-size="10.00">extract_header()</text>
<polygon fill="#666666" stroke="#666666" points="2.25,-205 2.25,-205 120.75,-205 120.75,-205 2.25,-205"/>
<polygon fill="#666666" stroke="#666666" points="2.25,-176 2.25,-176 14.25,-176 14.25,-176 2.25,-176"/>
<polygon fill="#666666" stroke="#666666" points="14.25,-176 14.25,-176 120.75,-176 120.75,-176 14.25,-176"/>
<polygon fill="none" stroke="#666666" points="2.25,0 2.25,-221.5 120.75,-221.5 120.75,0 2.25,0"/>
</a>
</g>
</g>
<!-- Node2 -->
<g id="Node000002" class="node">
<title>Node2</title>
<g id="a_Node000002"><a xlink:title=" ">
<polygon fill="white" stroke="none" points="110.88,-342.5 12.12,-342.5 12.12,-274 110.88,-274 110.88,-342.5"/>
<text xml:space="preserve" text-anchor="start" x="16.12" y="-331" font-family="Helvetica,sans-Serif" font-size="10.00">std::vector&lt; Token,</text>
<text xml:space="preserve" text-anchor="start" x="16.12" y="-320.5" font-family="Helvetica,sans-Serif" font-size="10.00"> std::allocator&lt; LZ77</text>
<text xml:space="preserve" text-anchor="start" x="37.12" y="-310" font-family="Helvetica,sans-Serif" font-size="10.00">_Token &gt; &gt;</text>
<text xml:space="preserve" text-anchor="start" x="60" y="-295.5" font-family="Helvetica,sans-Serif" font-size="10.00"> </text>
<text xml:space="preserve" text-anchor="start" x="60" y="-281" font-family="Helvetica,sans-Serif" font-size="10.00"> </text>
<polygon fill="#666666" stroke="#666666" points="12.12,-305 12.12,-305 110.88,-305 110.88,-305 12.12,-305"/>
<polygon fill="#666666" stroke="#666666" points="12.12,-290.5 12.12,-290.5 110.88,-290.5 110.88,-290.5 12.12,-290.5"/>
<polygon fill="none" stroke="#666666" points="12.12,-274 12.12,-342.5 110.88,-342.5 110.88,-274 12.12,-274"/>
</a>
</g>
</g>
<!-- Node2&#45;&gt;Node1 -->
<g id="edge1_Node000001_Node000002" class="edge">
<title>Node2&#45;&gt;Node1</title>
<g id="a_edge1_Node000001_Node000002"><a xlink:title=" ">
<path fill="none" stroke="#63b8ff" d="M61.5,-274.09C61.5,-262.54 61.5,-248.82 61.5,-234.33"/>
<polygon fill="none" stroke="#63b8ff" points="61.5,-234.32 57.5,-228.32 61.5,-222.32 65.5,-228.32 61.5,-234.32"/>
</a>
</g>
<text xml:space="preserve" text-anchor="start" x="64.5" y="-245.5" font-family="Helvetica,sans-Serif" font-size="10.00" fill="grey">&#45;buffer_</text>
</g>
<!-- Node3 -->
<g id="Node000003" class="node">
<title>Node3</title>
<g id="a_Node000003"><a xlink:href="structToken.html" target="_top" xlink:title="This is the type LZ77 will output.">
<polygon fill="white" stroke="none" points="91.12,-457 31.88,-457 31.88,-395 91.12,-395 91.12,-457"/>
<text xml:space="preserve" text-anchor="start" x="48.75" y="-445.5" font-family="Helvetica,sans-Serif" font-size="10.00">Token</text>
<text xml:space="preserve" text-anchor="start" x="35.88" y="-431" font-family="Helvetica,sans-Serif" font-size="10.00">+</text>
<text xml:space="preserve" text-anchor="start" x="45.88" y="-431" font-family="Helvetica,sans-Serif" font-size="10.00">offset</text>
<text xml:space="preserve" text-anchor="start" x="35.88" y="-416.5" font-family="Helvetica,sans-Serif" font-size="10.00">+</text>
<text xml:space="preserve" text-anchor="start" x="45.88" y="-416.5" font-family="Helvetica,sans-Serif" font-size="10.00">length</text>
<text xml:space="preserve" text-anchor="start" x="35.88" y="-402" font-family="Helvetica,sans-Serif" font-size="10.00">+</text>
<text xml:space="preserve" text-anchor="start" x="45.88" y="-402" font-family="Helvetica,sans-Serif" font-size="10.00">serialize()</text>
<polygon fill="#666666" stroke="#666666" points="31.88,-440.5 31.88,-440.5 91.12,-440.5 91.12,-440.5 31.88,-440.5"/>
<polygon fill="#666666" stroke="#666666" points="31.88,-411.5 31.88,-411.5 43.88,-411.5 43.88,-411.5 31.88,-411.5"/>
<polygon fill="#666666" stroke="#666666" points="43.88,-411.5 43.88,-411.5 91.12,-411.5 91.12,-411.5 43.88,-411.5"/>
<polygon fill="none" stroke="#666666" points="31.88,-395 31.88,-457 91.12,-457 91.12,-395 31.88,-395"/>
</a>
</g>
</g>
<!-- Node3&#45;&gt;Node2 -->
<g id="edge2_Node000002_Node000003" class="edge">
<title>Node3&#45;&gt;Node2</title>
<g id="a_edge2_Node000002_Node000003"><a xlink:title=" ">
<path fill="none" stroke="#63b8ff" d="M61.5,-395.19C61.5,-383.03 61.5,-368.7 61.5,-355.25"/>
<polygon fill="none" stroke="#63b8ff" points="61.5,-355.12 57.5,-349.12 61.5,-343.12 65.5,-349.12 61.5,-355.12"/>
</a>
</g>
<text xml:space="preserve" text-anchor="start" x="64.5" y="-366.5" font-family="Helvetica,sans-Serif" font-size="10.00" fill="grey">+elements</text>
</g>
<!-- Node4 -->
<g id="Node000004" class="node">
<title>Node4</title>
<g id="a_Node000004"><a xlink:href="structSym.html" target="_top" xlink:title=" ">
<polygon fill="white" stroke="none" points="123,-600.5 0,-600.5 0,-509.5 123,-509.5 123,-600.5"/>
<text xml:space="preserve" text-anchor="start" x="51.38" y="-589" font-family="Helvetica,sans-Serif" font-size="10.00">Sym</text>
<text xml:space="preserve" text-anchor="start" x="4" y="-574.5" font-family="Helvetica,sans-Serif" font-size="10.00">+</text>
<text xml:space="preserve" text-anchor="start" x="14" y="-574.5" font-family="Helvetica,sans-Serif" font-size="10.00">value</text>
<text xml:space="preserve" text-anchor="start" x="4" y="-560" font-family="Helvetica,sans-Serif" font-size="10.00">+</text>
<text xml:space="preserve" text-anchor="start" x="14" y="-560" font-family="Helvetica,sans-Serif" font-size="10.00">operator unsigned char()</text>
<text xml:space="preserve" text-anchor="start" x="4" y="-545.5" font-family="Helvetica,sans-Serif" font-size="10.00">+</text>
<text xml:space="preserve" text-anchor="start" x="14" y="-545.5" font-family="Helvetica,sans-Serif" font-size="10.00">operator&lt;=&gt;()</text>
<text xml:space="preserve" text-anchor="start" x="4" y="-531" font-family="Helvetica,sans-Serif" font-size="10.00">+</text>
<text xml:space="preserve" text-anchor="start" x="14" y="-531" font-family="Helvetica,sans-Serif" font-size="10.00">max()</text>
<text xml:space="preserve" text-anchor="start" x="4" y="-516.5" font-family="Helvetica,sans-Serif" font-size="10.00">+</text>
<text xml:space="preserve" text-anchor="start" x="14" y="-516.5" font-family="Helvetica,sans-Serif" font-size="10.00">alphabet_size()</text>
<polygon fill="#666666" stroke="#666666" points="0,-584 0,-584 123,-584 123,-584 0,-584"/>
<polygon fill="#666666" stroke="#666666" points="0,-569.5 0,-569.5 12,-569.5 12,-569.5 0,-569.5"/>
<polygon fill="#666666" stroke="#666666" points="12,-569.5 12,-569.5 123,-569.5 123,-569.5 12,-569.5"/>
<polygon fill="none" stroke="#666666" points="0,-509.5 0,-600.5 123,-600.5 123,-509.5 0,-509.5"/>
</a>
</g>
</g>
<!-- Node4&#45;&gt;Node3 -->
<g id="edge3_Node000003_Node000004" class="edge">
<title>Node4&#45;&gt;Node3</title>
<g id="a_edge3_Node000003_Node000004"><a xlink:title=" ">
<path fill="none" stroke="#63b8ff" d="M61.5,-509.58C61.5,-496.63 61.5,-482.51 61.5,-469.66"/>
<polygon fill="none" stroke="#63b8ff" points="61.5,-469.75 57.5,-463.75 61.5,-457.75 65.5,-463.75 61.5,-469.75"/>
</a>
</g>
<text xml:space="preserve" text-anchor="start" x="64.5" y="-481" font-family="Helvetica,sans-Serif" font-size="10.00" fill="grey">+symbol</text>
</g>
</g>
</svg>

<g id="navigator" transform="translate(0 0)" fill="#404254">
  <rect fill="#f2f5e9" fill-opacity="0.5" stroke="#606060" stroke-width=".5" x="0" y="0" width="60" height="60"/>
  <use id="zoomplus" xlink:href="#zoomPlus" x="17" y="9" onmousedown="handleZoom(evt,'in')"/>
  <use id="zoomminus" xlink:href="#zoomMin" x="42" y="9" onmousedown="handleZoom(evt,'out')"/>
  <use id="reset" xlink:href="#resetDef" x="30" y="36" onmousedown="handleReset()"/>
   <use id="arrowup" xlink:href="#arrowUp" x="0" y="0" onmousedown="handlePan(0,-1)"/>
  <use id="arrowright" xlink:href="#arrowRight" x="0" y="0" onmousedown="handlePan(1,0)"/>
  <use id="arrowdown" xlink:href="#arrowDown" x="0" y="0" onmousedown="handlePan(0,1)"/>
  <use id="arrowleft" xlink:href="#arrowLeft" x="0" y="0" onmousedown="handlePan(-1,0)"/>
</g>
<svg viewBox="0 0 15 15" width="100%" height="30px" preserveAspectRatio="xMaxYMin meet">
 <g id="arrow_out" transform="scale(0.3 0.3)">
  <a xlink:href="classLZ77Block__coll__graph_org.svg" target="_base">
   <rect id="button" ry="5" rx="5" y="6" x="6" height="38" width="38"
        fill="#f2f5e9" fill-opacity="0.5" stroke="#606060" stroke-width="1.0"/>
   <path id="arrow"
     d="M 11.500037,31.436501 C 11.940474,20.09759 22.043105,11.32322 32.158766,21.979434 L 37.068811,17.246167 C 37.068811,17.246167 37.088388,32 37.088388,32 L 22.160133,31.978069 C 22.160133,31.978069 26.997745,27.140456 26.997745,27.140456 C 18.528582,18.264221 13.291696,25.230495 11.500037,31.436501 z"
     style="fill:#404040;"/>
  </a>
 </g>
</svg>

<style type='text/css'>
<![CDATA[
[data-mouse-over-selected='false'] { opacity: 0.7; }
[data-mouse-over-selected='true']  { opacity: 1.0; }
]]>
</style>
<script type="application/ecmascript"><![CDATA[
document.addEventListener('DOMContentLoaded', (event) => {
  highlightEdges();
  highlightAdjacentNodes();
});
]]></script>
</svg>
