<?xml version="1.0" encoding="UTF-8" standalone="no"?>
<!DOCTYPE svg PUBLIC "-//W3C//DTD SVG 1.1//EN"
 "http://www.w3.org/Graphics/SVG/1.1/DTD/svg11.dtd">
<!-- Generated by graphviz version 14.1.4 (20260321.0153)
 -->
<!-- Title: ThreadPool Pages: 1 -->
<svg width="337pt" height="382pt"
 viewBox="0.00 0.00 337.00 382.00" xmlns="http://www.w3.org/2000/svg" xmlns:xlink="http://www.w3.org/1999/xlink">

<svg id="main" version="1.1" xmlns="http://www.w3.org/2000/svg" xmlns:xlink="http://www.w3.org/1999/xlink" xml:space="preserve">

<style type="text/css"><![CDATA[
.node, .edge {opacity: 0.7;}
.node.selected, .edge.selected {opacity: 1;}
.edge:hover path { stroke: red; }
.edge:hover polygon { stroke: red; fill: red; }
]]></style>
<script type="application/ecmascript" xlink:href="svg.min.js"/>
<svg id="graph" class="graph">
<g id="graph0" class="graph" transform="scale(1 1) rotate(0) translate(4 378)">
<title>ThreadPool</title>
<!-- Node1 -->
<g id="Node000001" class="node">
<title>Node1</title>
<g id="a_Node000001"><a xlink:title="A tool to asynchronously execute tasks without respawning threads.">
<polygon fill="#999999" stroke="none" points="171,-163.5 91.5,-163.5 91.5,0 171,0 171,-163.5"/>
<text xml:space="preserve" text-anchor="start" x="106.5" y="-152" font-family="Helvetica,sans-Serif" font-size="10.00">ThreadPool</text>
<text xml:space="preserve" text-anchor="start" x="97" y="-137.5" font-family="Helvetica,sans-Serif" font-size="10.00">&#45;</text>
<text xml:space="preserve" text-anchor="start" x="105.5" y="-137.5" font-family="Helvetica,sans-Serif" font-size="10.00">stop_threads_</text>
<text xml:space="preserve" text-anchor="start" x="97" y="-123" font-family="Helvetica,sans-Serif" font-size="10.00">&#45;</text>
<text xml:space="preserve" text-anchor="start" x="105.5" y="-123" font-family="Helvetica,sans-Serif" font-size="10.00">cv_</text>
<text xml:space="preserve" text-anchor="start" x="95.5" y="-108.5" font-family="Helvetica,sans-Serif" font-size="10.00">+</text>
<text xml:space="preserve" text-anchor="start" x="105.5" y="-108.5" font-family="Helvetica,sans-Serif" font-size="10.00">ThreadPool()</text>
<text xml:space="preserve" text-anchor="start" x="95.5" y="-94" font-family="Helvetica,sans-Serif" font-size="10.00">+</text>
<text xml:space="preserve" text-anchor="start" x="105.5" y="-94" font-family="Helvetica,sans-Serif" font-size="10.00">~ThreadPool()</text>
<text xml:space="preserve" text-anchor="start" x="95.5" y="-79.5" font-family="Helvetica,sans-Serif" font-size="10.00">+</text>
<text xml:space="preserve" text-anchor="start" x="105.5" y="-79.5" font-family="Helvetica,sans-Serif" font-size="10.00">ThreadPool()</text>
<text xml:space="preserve" text-anchor="start" x="95.5" y="-65" font-family="Helvetica,sans-Serif" font-size="10.00">+</text>
<text xml:space="preserve" text-anchor="start" x="105.5" y="-65" font-family="Helvetica,sans-Serif" font-size="10.00">ThreadPool()</text>
<text xml:space="preserve" text-anchor="start" x="95.5" y="-50.5" font-family="Helvetica,sans-Serif" font-size="10.00">+</text>
<text xml:space="preserve" text-anchor="start" x="105.5" y="-50.5" font-family="Helvetica,sans-Serif" font-size="10.00">operator=()</text>
<text xml:space="preserve" text-anchor="start" x="95.5" y="-36" font-family="Helvetica,sans-Serif" font-size="10.00">+</text>
<text xml:space="preserve" text-anchor="start" x="105.5" y="-36" font-family="Helvetica,sans-Serif" font-size="10.00">operator=()</text>
<text xml:space="preserve" text-anchor="start" x="95.5" y="-21.5" font-family="Helvetica,sans-Serif" font-size="10.00">+</text>
<text xml:space="preserve" text-anchor="start" x="105.5" y="-21.5" font-family="Helvetica,sans-Serif" font-size="10.00">add_task()</text>
<text xml:space="preserve" text-anchor="start" x="97" y="-7" font-family="Helvetica,sans-Serif" font-size="10.00">&#45;</text>
<text xml:space="preserve" text-anchor="start" x="105.5" y="-7" font-family="Helvetica,sans-Serif" font-size="10.00">worker()</text>
<polygon fill="#666666" stroke="#666666" points="91.5,-147 91.5,-147 171,-147 171,-147 91.5,-147"/>
<polygon fill="#666666" stroke="#666666" points="91.5,-118 91.5,-118 103.5,-118 103.5,-118 91.5,-118"/>
<polygon fill="#666666" stroke="#666666" points="103.5,-118 103.5,-118 171,-118 171,-118 103.5,-118"/>
<polygon fill="none" stroke="#666666" points="91.5,0 91.5,-163.5 171,-163.5 171,0 91.5,0"/>
</a>
</g>
</g>
<!-- Node2 -->
<g id="Node000002" class="node">
<title>Node2</title>
<g id="a_Node000002"><a xlink:title=" ">
<polygon fill="white" stroke="none" points="54.5,-268.75 0,-268.75 0,-221.25 54.5,-221.25 54.5,-268.75"/>
<text xml:space="preserve" text-anchor="start" x="4" y="-257.25" font-family="Helvetica,sans-Serif" font-size="10.00">std::mutex</text>
<text xml:space="preserve" text-anchor="start" x="25.75" y="-242.75" font-family="Helvetica,sans-Serif" font-size="10.00"> </text>
<text xml:space="preserve" text-anchor="start" x="25.75" y="-228.25" font-family="Helvetica,sans-Serif" font-size="10.00"> </text>
<polygon fill="#666666" stroke="#666666" points="0,-252.25 0,-252.25 54.5,-252.25 54.5,-252.25 0,-252.25"/>
<polygon fill="#666666" stroke="#666666" points="0,-237.75 0,-237.75 54.5,-237.75 54.5,-237.75 0,-237.75"/>
<polygon fill="none" stroke="#666666" points="0,-221.25 0,-268.75 54.5,-268.75 54.5,-221.25 0,-221.25"/>
</a>
</g>
</g>
<!-- Node2&#45;&gt;Node1 -->
<g id="edge1_Node000001_Node000002" class="edge">
<title>Node2&#45;&gt;Node1</title>
<g id="a_edge1_Node000001_Node000002"><a xlink:title=" ">
<path fill="none" stroke="#63b8ff" d="M41.71,-221.58C52.89,-204.24 69.03,-179.22 84.53,-155.18"/>
<polygon fill="none" stroke="#63b8ff" points="84.6,-155.08 84.49,-147.87 91.11,-144.99 91.21,-152.2 84.6,-155.08"/>
</a>
</g>
<text xml:space="preserve" text-anchor="start" x="69.88" y="-187.5" font-family="Helvetica,sans-Serif" font-size="10.00" fill="grey">&#45;mut_</text>
</g>
<!-- Node3 -->
<g id="Node000003" class="node">
<title>Node3</title>
<g id="a_Node000003"><a xlink:title=" ">
<polygon fill="white" stroke="none" points="189.62,-274 72.88,-274 72.88,-216 189.62,-216 189.62,-274"/>
<text xml:space="preserve" text-anchor="start" x="76.88" y="-262.5" font-family="Helvetica,sans-Serif" font-size="10.00">std::queue&lt; std::function</text>
<text xml:space="preserve" text-anchor="start" x="107.62" y="-252" font-family="Helvetica,sans-Serif" font-size="10.00">&lt; void()&gt; &gt;</text>
<text xml:space="preserve" text-anchor="start" x="91.62" y="-237.5" font-family="Helvetica,sans-Serif" font-size="10.00">+</text>
<text xml:space="preserve" text-anchor="start" x="116.38" y="-237.5" font-family="Helvetica,sans-Serif" font-size="10.00">elements</text>
<text xml:space="preserve" text-anchor="start" x="129.75" y="-223" font-family="Helvetica,sans-Serif" font-size="10.00"> </text>
<polygon fill="#666666" stroke="#666666" points="72.88,-247 72.88,-247 189.62,-247 189.62,-247 72.88,-247"/>
<polygon fill="#666666" stroke="#666666" points="72.88,-232.5 72.88,-232.5 114.38,-232.5 114.38,-232.5 72.88,-232.5"/>
<polygon fill="#666666" stroke="#666666" points="114.38,-232.5 114.38,-232.5 189.62,-232.5 189.62,-232.5 114.38,-232.5"/>
<polygon fill="none" stroke="#666666" points="72.88,-216 72.88,-274 189.62,-274 189.62,-216 72.88,-216"/>
</a>
</g>
</g>
<!-- Node3&#45;&gt;Node1 -->
<g id="edge2_Node000001_Node000003" class="edge">
<title>Node3&#45;&gt;Node1</title>
<g id="a_edge2_Node000001_Node000003"><a xlink:title=" ">
<path fill="none" stroke="#63b8ff" d="M131.25,-216.28C131.25,-204.86 131.25,-190.9 131.25,-176.36"/>
<polygon fill="none" stroke="#63b8ff" points="131.25,-176.39 127.25,-170.39 131.25,-164.39 135.25,-170.39 131.25,-176.39"/>
</a>
</g>
<text xml:space="preserve" text-anchor="start" x="134.25" y="-187.5" font-family="Helvetica,sans-Serif" font-size="10.00" fill="grey">&#45;tasks_</text>
</g>
<!-- Node4 -->
<g id="Node000004" class="node">
<title>Node4</title>
<g id="a_Node000004"><a xlink:title=" ">
<polygon fill="white" stroke="none" points="328.5,-268.75 208,-268.75 208,-221.25 328.5,-221.25 328.5,-268.75"/>
<text xml:space="preserve" text-anchor="start" x="212" y="-257.25" font-family="Helvetica,sans-Serif" font-size="10.00">std::vector&lt; std::jthread &gt;</text>
<text xml:space="preserve" text-anchor="start" x="266.75" y="-242.75" font-family="Helvetica,sans-Serif" font-size="10.00"> </text>
<text xml:space="preserve" text-anchor="start" x="266.75" y="-228.25" font-family="Helvetica,sans-Serif" font-size="10.00"> </text>
<polygon fill="#666666" stroke="#666666" points="208,-252.25 208,-252.25 328.5,-252.25 328.5,-252.25 208,-252.25"/>
<polygon fill="#666666" stroke="#666666" points="208,-237.75 208,-237.75 328.5,-237.75 328.5,-237.75 208,-237.75"/>
<polygon fill="none" stroke="#666666" points="208,-221.25 208,-268.75 328.5,-268.75 328.5,-221.25 208,-221.25"/>
</a>
</g>
</g>
<!-- Node4&#45;&gt;Node1 -->
<g id="edge3_Node000001_Node000004" class="edge">
<title>Node4&#45;&gt;Node1</title>
<g id="a_edge3_Node000001_Node000004"><a xlink:title=" ">
<path fill="none" stroke="#63b8ff" d="M249.2,-221.58C231.18,-200.37 203.38,-167.65 179.3,-139.3"/>
<polygon fill="none" stroke="#63b8ff" points="179.31,-139.32 172.38,-137.33 171.54,-130.17 178.47,-132.15 179.31,-139.32"/>
</a>
</g>
<text xml:space="preserve" text-anchor="start" x="230.77" y="-187.5" font-family="Helvetica,sans-Serif" font-size="10.00" fill="grey">&#45;threads_</text>
</g>
<!-- Node5 -->
<g id="Node000005" class="node">
<title>Node5</title>
<g id="a_Node000005"><a xlink:title=" ">
<polygon fill="white" stroke="none" points="296.62,-374 239.88,-374 239.88,-326.5 296.62,-326.5 296.62,-374"/>
<text xml:space="preserve" text-anchor="start" x="243.88" y="-362.5" font-family="Helvetica,sans-Serif" font-size="10.00">std::jthread</text>
<text xml:space="preserve" text-anchor="start" x="266.75" y="-348" font-family="Helvetica,sans-Serif" font-size="10.00"> </text>
<text xml:space="preserve" text-anchor="start" x="266.75" y="-333.5" font-family="Helvetica,sans-Serif" font-size="10.00"> </text>
<polygon fill="#666666" stroke="#666666" points="239.88,-357.5 239.88,-357.5 296.62,-357.5 296.62,-357.5 239.88,-357.5"/>
<polygon fill="#666666" stroke="#666666" points="239.88,-343 239.88,-343 296.62,-343 296.62,-343 239.88,-343"/>
<polygon fill="none" stroke="#666666" points="239.88,-326.5 239.88,-374 296.62,-374 296.62,-326.5 239.88,-326.5"/>
</a>
</g>
</g>
<!-- Node5&#45;&gt;Node4 -->
<g id="edge4_Node000004_Node000005" class="edge">
<title>Node5&#45;&gt;Node4</title>
<g id="a_edge4_Node000004_Node000005"><a xlink:title=" ">
<path fill="none" stroke="#63b8ff" d="M268.25,-326.59C268.25,-313.41 268.25,-296.51 268.25,-281.59"/>
<polygon fill="none" stroke="#63b8ff" points="268.25,-281.51 264.25,-275.51 268.25,-269.51 272.25,-275.51 268.25,-281.51"/>
</a>
</g>
<text xml:space="preserve" text-anchor="start" x="271.25" y="-298" font-family="Helvetica,sans-Serif" font-size="10.00" fill="grey">+elements</text>
</g>
</g>
</svg>
</svg>

<style type='text/css'>
<![CDATA[
[data-mouse-over-selected='false'] { opacity: 0.7; }
[data-mouse-over-selected='true']  { opacity: 1.0; }
]]>
</style>
<script type="application/ecmascript"><![CDATA[
document.addEventListener('DOMContentLoaded', (event) => {
  highlightEdges();
  highlightAdjacentNodes();
});
]]></script>
</svg>
