<?xml version="1.0" encoding="UTF-8" standalone="no"?>
<!DOCTYPE svg PUBLIC "-//W3C//DTD SVG 1.1//EN"
 "http://www.w3.org/Graphics/SVG/1.1/DTD/svg11.dtd">
<!-- Generated by graphviz version 14.1.4 (20260321.0153)
 -->
<!-- Title: alg::Rabin Pages: 1 -->
<svg width="131pt" height="845pt"
 viewBox="0.00 0.00 131.00 845.00" xmlns="http://www.w3.org/2000/svg" xmlns:xlink="http://www.w3.org/1999/xlink">
<g id="graph0" class="graph" transform="scale(1 1) rotate(0) translate(4 840.5)">
<title>alg::Rabin</title>
<!-- Node1 -->
<g id="Node000001" class="node">
<title>Node1</title>
<g id="a_Node000001"><a xlink:title="This class enables fast string matching. Makes use of two chained arrays. This class is intertwined w...">
<polygon fill="#999999" stroke="none" points="116.25,-217.5 6.75,-217.5 6.75,0 116.25,0 116.25,-217.5"/>
<text xml:space="preserve" text-anchor="start" x="39.75" y="-206" font-family="Helvetica,sans-Serif" font-size="10.00">alg::Rabin</text>
<text xml:space="preserve" text-anchor="start" x="12.25" y="-191.5" font-family="Helvetica,sans-Serif" font-size="10.00">&#45;</text>
<text xml:space="preserve" text-anchor="start" x="20.75" y="-191.5" font-family="Helvetica,sans-Serif" font-size="10.00">hash</text>
<text xml:space="preserve" text-anchor="start" x="12.25" y="-177" font-family="Helvetica,sans-Serif" font-size="10.00">&#45;</text>
<text xml:space="preserve" text-anchor="start" x="20.75" y="-177" font-family="Helvetica,sans-Serif" font-size="10.00">position</text>
<text xml:space="preserve" text-anchor="start" x="12.25" y="-162.5" font-family="Helvetica,sans-Serif" font-size="10.00">&#45;</text>
<text xml:space="preserve" text-anchor="start" x="20.75" y="-162.5" font-family="Helvetica,sans-Serif" font-size="10.00">poss_table</text>
<text xml:space="preserve" text-anchor="start" x="12.25" y="-148" font-family="Helvetica,sans-Serif" font-size="10.00">&#45;</text>
<text xml:space="preserve" text-anchor="start" x="20.75" y="-148" font-family="Helvetica,sans-Serif" font-size="10.00">prev_poss_table</text>
<text xml:space="preserve" text-anchor="start" x="12.25" y="-133.5" font-family="Helvetica,sans-Serif" font-size="10.00">&#45;</text>
<text xml:space="preserve" text-anchor="start" x="20.75" y="-133.5" font-family="Helvetica,sans-Serif" font-size="10.00">MAX_CHAIN</text>
<text xml:space="preserve" text-anchor="start" x="10.75" y="-119" font-family="Helvetica,sans-Serif" font-size="10.00">+</text>
<text xml:space="preserve" text-anchor="start" x="20.75" y="-119" font-family="Helvetica,sans-Serif" font-size="10.00">Rabin()</text>
<text xml:space="preserve" text-anchor="start" x="10.75" y="-104.5" font-family="Helvetica,sans-Serif" font-size="10.00">+</text>
<text xml:space="preserve" text-anchor="start" x="20.75" y="-104.5" font-family="Helvetica,sans-Serif" font-size="10.00">operator=()</text>
<text xml:space="preserve" text-anchor="start" x="10.75" y="-90" font-family="Helvetica,sans-Serif" font-size="10.00">+</text>
<text xml:space="preserve" text-anchor="start" x="20.75" y="-90" font-family="Helvetica,sans-Serif" font-size="10.00">roll_hash()</text>
<text xml:space="preserve" text-anchor="start" x="10.75" y="-75.5" font-family="Helvetica,sans-Serif" font-size="10.00">+</text>
<text xml:space="preserve" text-anchor="start" x="20.75" y="-75.5" font-family="Helvetica,sans-Serif" font-size="10.00">find_pattern()</text>
<text xml:space="preserve" text-anchor="start" x="10.75" y="-61" font-family="Helvetica,sans-Serif" font-size="10.00">+</text>
<text xml:space="preserve" text-anchor="start" x="20.75" y="-61" font-family="Helvetica,sans-Serif" font-size="10.00">get_pos()</text>
<text xml:space="preserve" text-anchor="start" x="12.25" y="-46.5" font-family="Helvetica,sans-Serif" font-size="10.00">&#45;</text>
<text xml:space="preserve" text-anchor="start" x="20.75" y="-46.5" font-family="Helvetica,sans-Serif" font-size="10.00">bucket_index()</text>
<text xml:space="preserve" text-anchor="start" x="12.25" y="-32" font-family="Helvetica,sans-Serif" font-size="10.00">&#45;</text>
<text xml:space="preserve" text-anchor="start" x="20.75" y="-32" font-family="Helvetica,sans-Serif" font-size="10.00">prev_bucket_index()</text>
<text xml:space="preserve" text-anchor="start" x="12.25" y="-17.5" font-family="Helvetica,sans-Serif" font-size="10.00">&#45;</text>
<text xml:space="preserve" text-anchor="start" x="20.75" y="-17.5" font-family="Helvetica,sans-Serif" font-size="10.00">get_max_chain_from</text>
<text xml:space="preserve" text-anchor="start" x="20.75" y="-7" font-family="Helvetica,sans-Serif" font-size="10.00">_preset()</text>
<polygon fill="#666666" stroke="#666666" points="6.75,-201 6.75,-201 116.25,-201 116.25,-201 6.75,-201"/>
<polygon fill="#666666" stroke="#666666" points="6.75,-128.5 6.75,-128.5 18.75,-128.5 18.75,-128.5 6.75,-128.5"/>
<polygon fill="#666666" stroke="#666666" points="18.75,-128.5 18.75,-128.5 116.25,-128.5 116.25,-128.5 18.75,-128.5"/>
<polygon fill="none" stroke="#666666" points="6.75,0 6.75,-217.5 116.25,-217.5 116.25,0 6.75,0"/>
</a>
</g>
</g>
<!-- Node2 -->
<g id="Node000002" class="node">
<title>Node2</title>
<g id="a_Node000002"><a xlink:href="classWindow.html" target="_top" xlink:title="[lz77.Window]">
<polygon fill="white" stroke="none" points="121.12,-593 1.88,-593 1.88,-270 121.12,-270 121.12,-593"/>
<text xml:space="preserve" text-anchor="start" x="43.88" y="-581.5" font-family="Helvetica,sans-Serif" font-size="10.00">Window</text>
<text xml:space="preserve" text-anchor="start" x="7.38" y="-567" font-family="Helvetica,sans-Serif" font-size="10.00">&#45;</text>
<text xml:space="preserve" text-anchor="start" x="15.88" y="-567" font-family="Helvetica,sans-Serif" font-size="10.00">size_look_ahead</text>
<text xml:space="preserve" text-anchor="start" x="7.38" y="-552.5" font-family="Helvetica,sans-Serif" font-size="10.00">&#45;</text>
<text xml:space="preserve" text-anchor="start" x="15.88" y="-552.5" font-family="Helvetica,sans-Serif" font-size="10.00">max_size_look_ahead</text>
<text xml:space="preserve" text-anchor="start" x="7.38" y="-538" font-family="Helvetica,sans-Serif" font-size="10.00">&#45;</text>
<text xml:space="preserve" text-anchor="start" x="15.88" y="-538" font-family="Helvetica,sans-Serif" font-size="10.00">size_search</text>
<text xml:space="preserve" text-anchor="start" x="7.38" y="-523.5" font-family="Helvetica,sans-Serif" font-size="10.00">&#45;</text>
<text xml:space="preserve" text-anchor="start" x="15.88" y="-523.5" font-family="Helvetica,sans-Serif" font-size="10.00">max_size_search</text>
<text xml:space="preserve" text-anchor="start" x="7.38" y="-509" font-family="Helvetica,sans-Serif" font-size="10.00">&#45;</text>
<text xml:space="preserve" text-anchor="start" x="15.88" y="-509" font-family="Helvetica,sans-Serif" font-size="10.00">max_size</text>
<text xml:space="preserve" text-anchor="start" x="7.38" y="-494.5" font-family="Helvetica,sans-Serif" font-size="10.00">&#45;</text>
<text xml:space="preserve" text-anchor="start" x="15.88" y="-494.5" font-family="Helvetica,sans-Serif" font-size="10.00">offset</text>
<text xml:space="preserve" text-anchor="start" x="5.88" y="-480" font-family="Helvetica,sans-Serif" font-size="10.00">+</text>
<text xml:space="preserve" text-anchor="start" x="15.88" y="-480" font-family="Helvetica,sans-Serif" font-size="10.00">Window()</text>
<text xml:space="preserve" text-anchor="start" x="5.88" y="-465.5" font-family="Helvetica,sans-Serif" font-size="10.00">+</text>
<text xml:space="preserve" text-anchor="start" x="15.88" y="-465.5" font-family="Helvetica,sans-Serif" font-size="10.00">Window()</text>
<text xml:space="preserve" text-anchor="start" x="5.88" y="-451" font-family="Helvetica,sans-Serif" font-size="10.00">+</text>
<text xml:space="preserve" text-anchor="start" x="15.88" y="-451" font-family="Helvetica,sans-Serif" font-size="10.00">begin()</text>
<text xml:space="preserve" text-anchor="start" x="5.88" y="-436.5" font-family="Helvetica,sans-Serif" font-size="10.00">+</text>
<text xml:space="preserve" text-anchor="start" x="15.88" y="-436.5" font-family="Helvetica,sans-Serif" font-size="10.00">end()</text>
<text xml:space="preserve" text-anchor="start" x="5.88" y="-422" font-family="Helvetica,sans-Serif" font-size="10.00">+</text>
<text xml:space="preserve" text-anchor="start" x="15.88" y="-422" font-family="Helvetica,sans-Serif" font-size="10.00">slide()</text>
<text xml:space="preserve" text-anchor="start" x="5.88" y="-407.5" font-family="Helvetica,sans-Serif" font-size="10.00">+</text>
<text xml:space="preserve" text-anchor="start" x="15.88" y="-407.5" font-family="Helvetica,sans-Serif" font-size="10.00">look_ahead_buffer()</text>
<text xml:space="preserve" text-anchor="start" x="5.88" y="-393" font-family="Helvetica,sans-Serif" font-size="10.00">+</text>
<text xml:space="preserve" text-anchor="start" x="15.88" y="-393" font-family="Helvetica,sans-Serif" font-size="10.00">search_buffer()</text>
<text xml:space="preserve" text-anchor="start" x="5.88" y="-378.5" font-family="Helvetica,sans-Serif" font-size="10.00">+</text>
<text xml:space="preserve" text-anchor="start" x="15.88" y="-378.5" font-family="Helvetica,sans-Serif" font-size="10.00">get_size_search()</text>
<text xml:space="preserve" text-anchor="start" x="5.88" y="-364" font-family="Helvetica,sans-Serif" font-size="10.00">+</text>
<text xml:space="preserve" text-anchor="start" x="15.88" y="-364" font-family="Helvetica,sans-Serif" font-size="10.00">get_size_la_buf()</text>
<text xml:space="preserve" text-anchor="start" x="5.88" y="-349.5" font-family="Helvetica,sans-Serif" font-size="10.00">+</text>
<text xml:space="preserve" text-anchor="start" x="15.88" y="-349.5" font-family="Helvetica,sans-Serif" font-size="10.00">get_max_size()</text>
<text xml:space="preserve" text-anchor="start" x="5.88" y="-335" font-family="Helvetica,sans-Serif" font-size="10.00">+</text>
<text xml:space="preserve" text-anchor="start" x="15.88" y="-335" font-family="Helvetica,sans-Serif" font-size="10.00">get_max_size_search()</text>
<text xml:space="preserve" text-anchor="start" x="5.88" y="-320.5" font-family="Helvetica,sans-Serif" font-size="10.00">+</text>
<text xml:space="preserve" text-anchor="start" x="15.88" y="-320.5" font-family="Helvetica,sans-Serif" font-size="10.00">get_relative_pos()</text>
<text xml:space="preserve" text-anchor="start" x="5.88" y="-306" font-family="Helvetica,sans-Serif" font-size="10.00">+</text>
<text xml:space="preserve" text-anchor="start" x="15.88" y="-306" font-family="Helvetica,sans-Serif" font-size="10.00">get_absolute_pos()</text>
<text xml:space="preserve" text-anchor="start" x="5.88" y="-291.5" font-family="Helvetica,sans-Serif" font-size="10.00">+</text>
<text xml:space="preserve" text-anchor="start" x="15.88" y="-291.5" font-family="Helvetica,sans-Serif" font-size="10.00">operator[]()</text>
<text xml:space="preserve" text-anchor="start" x="5.88" y="-277" font-family="Helvetica,sans-Serif" font-size="10.00">+</text>
<text xml:space="preserve" text-anchor="start" x="15.88" y="-277" font-family="Helvetica,sans-Serif" font-size="10.00">get_data()</text>
<polygon fill="#666666" stroke="#666666" points="1.88,-576.5 1.88,-576.5 121.12,-576.5 121.12,-576.5 1.88,-576.5"/>
<polygon fill="#666666" stroke="#666666" points="1.88,-489.5 1.88,-489.5 13.88,-489.5 13.88,-489.5 1.88,-489.5"/>
<polygon fill="#666666" stroke="#666666" points="13.88,-489.5 13.88,-489.5 121.12,-489.5 121.12,-489.5 13.88,-489.5"/>
<polygon fill="none" stroke="#666666" points="1.88,-270 1.88,-593 121.12,-593 121.12,-270 1.88,-270"/>
</a>
</g>
</g>
<!-- Node2&#45;&gt;Node1 -->
<g id="edge1_Node000001_Node000002" class="edge">
<title>Node2&#45;&gt;Node1</title>
<g id="a_edge1_Node000001_Node000002"><a xlink:title=" ">
<path fill="none" stroke="#63b8ff" d="M61.5,-270.12C61.5,-256.73 61.5,-243.34 61.5,-230.33"/>
<polygon fill="none" stroke="#63b8ff" points="61.5,-230.35 57.5,-224.35 61.5,-218.35 65.5,-224.35 61.5,-230.35"/>
</a>
</g>
<text xml:space="preserve" text-anchor="start" x="64.5" y="-241.5" font-family="Helvetica,sans-Serif" font-size="10.00" fill="grey">&#45;data</text>
</g>
<!-- Node3 -->
<g id="Node000003" class="node">
<title>Node3</title>
<g id="a_Node000003"><a xlink:title=" ">
<polygon fill="white" stroke="none" points="118.38,-693 4.62,-693 4.62,-645.5 118.38,-645.5 118.38,-693"/>
<text xml:space="preserve" text-anchor="start" x="8.62" y="-681.5" font-family="Helvetica,sans-Serif" font-size="10.00">std::span&lt; const Sym &gt;</text>
<text xml:space="preserve" text-anchor="start" x="60" y="-667" font-family="Helvetica,sans-Serif" font-size="10.00"> </text>
<text xml:space="preserve" text-anchor="start" x="60" y="-652.5" font-family="Helvetica,sans-Serif" font-size="10.00"> </text>
<polygon fill="#666666" stroke="#666666" points="4.62,-676.5 4.62,-676.5 118.38,-676.5 118.38,-676.5 4.62,-676.5"/>
<polygon fill="#666666" stroke="#666666" points="4.62,-662 4.62,-662 118.38,-662 118.38,-662 4.62,-662"/>
<polygon fill="none" stroke="#666666" points="4.62,-645.5 4.62,-693 118.38,-693 118.38,-645.5 4.62,-645.5"/>
</a>
</g>
</g>
<!-- Node3&#45;&gt;Node2 -->
<g id="edge2_Node000002_Node000003" class="edge">
<title>Node3&#45;&gt;Node2</title>
<g id="a_edge2_Node000002_Node000003"><a xlink:title=" ">
<path fill="none" stroke="#63b8ff" d="M61.5,-645.65C61.5,-634.91 61.5,-621.04 61.5,-605.51"/>
<polygon fill="none" stroke="#63b8ff" points="61.5,-605.64 57.5,-599.64 61.5,-593.64 65.5,-599.64 61.5,-605.64"/>
</a>
</g>
<text xml:space="preserve" text-anchor="start" x="64.5" y="-617" font-family="Helvetica,sans-Serif" font-size="10.00" fill="grey">&#45;data</text>
</g>
<!-- Node4 -->
<g id="Node000004" class="node">
<title>Node4</title>
<g id="a_Node000004"><a xlink:href="structSym.html" target="_top" xlink:title=" ">
<polygon fill="white" stroke="none" points="123,-836.5 0,-836.5 0,-745.5 123,-745.5 123,-836.5"/>
<text xml:space="preserve" text-anchor="start" x="51.38" y="-825" font-family="Helvetica,sans-Serif" font-size="10.00">Sym</text>
<text xml:space="preserve" text-anchor="start" x="4" y="-810.5" font-family="Helvetica,sans-Serif" font-size="10.00">+</text>
<text xml:space="preserve" text-anchor="start" x="14" y="-810.5" font-family="Helvetica,sans-Serif" font-size="10.00">value</text>
<text xml:space="preserve" text-anchor="start" x="4" y="-796" font-family="Helvetica,sans-Serif" font-size="10.00">+</text>
<text xml:space="preserve" text-anchor="start" x="14" y="-796" font-family="Helvetica,sans-Serif" font-size="10.00">operator unsigned char()</text>
<text xml:space="preserve" text-anchor="start" x="4" y="-781.5" font-family="Helvetica,sans-Serif" font-size="10.00">+</text>
<text xml:space="preserve" text-anchor="start" x="14" y="-781.5" font-family="Helvetica,sans-Serif" font-size="10.00">operator&lt;=&gt;()</text>
<text xml:space="preserve" text-anchor="start" x="4" y="-767" font-family="Helvetica,sans-Serif" font-size="10.00">+</text>
<text xml:space="preserve" text-anchor="start" x="14" y="-767" font-family="Helvetica,sans-Serif" font-size="10.00">max()</text>
<text xml:space="preserve" text-anchor="start" x="4" y="-752.5" font-family="Helvetica,sans-Serif" font-size="10.00">+</text>
<text xml:space="preserve" text-anchor="start" x="14" y="-752.5" font-family="Helvetica,sans-Serif" font-size="10.00">alphabet_size()</text>
<polygon fill="#666666" stroke="#666666" points="0,-820 0,-820 123,-820 123,-820 0,-820"/>
<polygon fill="#666666" stroke="#666666" points="0,-805.5 0,-805.5 12,-805.5 12,-805.5 0,-805.5"/>
<polygon fill="#666666" stroke="#666666" points="12,-805.5 12,-805.5 123,-805.5 123,-805.5 12,-805.5"/>
<polygon fill="none" stroke="#666666" points="0,-745.5 0,-836.5 123,-836.5 123,-745.5 0,-745.5"/>
</a>
</g>
</g>
<!-- Node4&#45;&gt;Node3 -->
<g id="edge3_Node000003_Node000004" class="edge">
<title>Node4&#45;&gt;Node3</title>
<g id="a_edge3_Node000003_Node000004"><a xlink:title=" ">
<path fill="none" stroke="#63b8ff" d="M61.5,-745.75C61.5,-732.54 61.5,-718.24 61.5,-705.67"/>
<polygon fill="none" stroke="#63b8ff" points="61.5,-705.75 57.5,-699.75 61.5,-693.75 65.5,-699.75 61.5,-705.75"/>
</a>
</g>
<text xml:space="preserve" text-anchor="start" x="64.5" y="-717" font-family="Helvetica,sans-Serif" font-size="10.00" fill="grey">+elements</text>
</g>
</g>
</svg>
