<?xml version="1.0" encoding="UTF-8" standalone="no"?>
<!DOCTYPE svg PUBLIC "-//W3C//DTD SVG 1.1//EN"
 "http://www.w3.org/Graphics/SVG/1.1/DTD/svg11.dtd">
<!-- Generated by graphviz version 14.1.5 (20260411.2331)
 -->
<!-- Title: LZ77&lt; DataType &gt; Pages: 1 -->
<svg width="402pt" height="358pt"
 viewBox="0.00 0.00 402.00 358.00" xmlns="http://www.w3.org/2000/svg" xmlns:xlink="http://www.w3.org/1999/xlink">

<svg id="main" version="1.1" xmlns="http://www.w3.org/2000/svg" xmlns:xlink="http://www.w3.org/1999/xlink" xml:space="preserve">

<style type="text/css"><![CDATA[
.node, .edge {opacity: 0.7;}
.node.selected, .edge.selected {opacity: 1;}
.edge:hover path { stroke: red; }
.edge:hover polygon { stroke: red; fill: red; }
]]></style>
<script type="application/ecmascript" xlink:href="svg.min.js"/>
<svg id="graph" class="graph">
<g id="graph0" class="graph" transform="scale(1 1) rotate(0) translate(4 354)">
<title>LZ77&lt; DataType &gt;</title>
<!-- Node1 -->
<g id="Node000001" class="node">
<title>Node1</title>
<g id="a_Node000001"><a xlink:title="Implement the LZ77 algorithm.">
<polygon fill="#999999" stroke="none" points="265.25,-100 175.5,-100 175.5,0 265.25,0 265.25,-100"/>
<text xml:space="preserve" text-anchor="start" x="179.5" y="-86.25" font-family="Helvetica,sans-Serif" font-size="10.00">LZ77&lt; DataType &gt;</text>
<text xml:space="preserve" text-anchor="start" x="218.88" y="-70.25" font-family="Helvetica,sans-Serif" font-size="10.00"> </text>
<text xml:space="preserve" text-anchor="start" x="182.62" y="-54.25" font-family="Helvetica,sans-Serif" font-size="10.00">+</text>
<text xml:space="preserve" text-anchor="start" x="195.75" y="-54.25" font-family="Helvetica,sans-Serif" font-size="10.00">LZ77()</text>
<text xml:space="preserve" text-anchor="start" x="182.62" y="-38.25" font-family="Helvetica,sans-Serif" font-size="10.00">+</text>
<text xml:space="preserve" text-anchor="start" x="195.75" y="-38.25" font-family="Helvetica,sans-Serif" font-size="10.00">LZ77()</text>
<text xml:space="preserve" text-anchor="start" x="182.62" y="-22.25" font-family="Helvetica,sans-Serif" font-size="10.00">+</text>
<text xml:space="preserve" text-anchor="start" x="195.75" y="-22.25" font-family="Helvetica,sans-Serif" font-size="10.00">compress()</text>
<text xml:space="preserve" text-anchor="start" x="182.62" y="-6.25" font-family="Helvetica,sans-Serif" font-size="10.00">+</text>
<text xml:space="preserve" text-anchor="start" x="195.75" y="-6.25" font-family="Helvetica,sans-Serif" font-size="10.00">decompress()</text>
<polygon fill="#666666" stroke="#666666" points="175.5,-82 175.5,-82 265.25,-82 265.25,-82 175.5,-82"/>
<polygon fill="#666666" stroke="#666666" points="175.5,-66 175.5,-66 265.25,-66 265.25,-66 175.5,-66"/>
<polygon fill="none" stroke="#666666" points="175.5,0 175.5,-100 265.25,-100 265.25,0 175.5,0"/>
</a>
</g>
</g>
<!-- Node2 -->
<g id="Node000002" class="node">
<title>Node2</title>
<g id="a_Node000002"><a xlink:href="struct_compression_data.html" target="_top" xlink:title=" ">
<polygon fill="white" stroke="none" points="146.75,-278 0,-278 0,-226 146.75,-226 146.75,-278"/>
<text xml:space="preserve" text-anchor="start" x="4" y="-264.25" font-family="Helvetica,sans-Serif" font-size="10.00">CompressionData&lt; DataType &gt;</text>
<text xml:space="preserve" text-anchor="start" x="71.88" y="-248.25" font-family="Helvetica,sans-Serif" font-size="10.00"> </text>
<text xml:space="preserve" text-anchor="start" x="71.88" y="-232.25" font-family="Helvetica,sans-Serif" font-size="10.00"> </text>
<polygon fill="#666666" stroke="#666666" points="0,-260 0,-260 146.75,-260 146.75,-260 0,-260"/>
<polygon fill="#666666" stroke="#666666" points="0,-244 0,-244 146.75,-244 146.75,-244 0,-244"/>
<polygon fill="none" stroke="#666666" points="0,-226 0,-278 146.75,-278 146.75,-226 0,-226"/>
</a>
</g>
</g>
<!-- Node2&#45;&gt;Node1 -->
<g id="edge1_Node000001_Node000002" class="edge">
<title>Node2&#45;&gt;Node1</title>
<g id="a_edge1_Node000001_Node000002"><a xlink:title=" ">
<path fill="none" stroke="darkgreen" d="M98.34,-217.04C122.03,-184.8 157.9,-136 184.63,-99.63"/>
<polygon fill="none" stroke="darkgreen" points="95.69,-214.72 92.59,-224.85 101.33,-218.87 95.69,-214.72"/>
</a>
</g>
</g>
<!-- Node3 -->
<g id="Node000003" class="node">
<title>Node3</title>
<g id="a_Node000003"><a xlink:href="structparser_1_1_options.html" target="_top" xlink:title="All the options available.">
<polygon fill="white" stroke="none" points="276.25,-350 164.5,-350 164.5,-154 276.25,-154 276.25,-350"/>
<text xml:space="preserve" text-anchor="start" x="187" y="-336.25" font-family="Helvetica,sans-Serif" font-size="10.00">parser::Options</text>
<text xml:space="preserve" text-anchor="start" x="168.5" y="-320.25" font-family="Helvetica,sans-Serif" font-size="10.00">+</text>
<text xml:space="preserve" text-anchor="start" x="178.5" y="-320.25" font-family="Helvetica,sans-Serif" font-size="10.00">filename_in</text>
<text xml:space="preserve" text-anchor="start" x="168.5" y="-304.25" font-family="Helvetica,sans-Serif" font-size="10.00">+</text>
<text xml:space="preserve" text-anchor="start" x="178.5" y="-304.25" font-family="Helvetica,sans-Serif" font-size="10.00">filename_out</text>
<text xml:space="preserve" text-anchor="start" x="168.5" y="-288.25" font-family="Helvetica,sans-Serif" font-size="10.00">+</text>
<text xml:space="preserve" text-anchor="start" x="178.5" y="-288.25" font-family="Helvetica,sans-Serif" font-size="10.00">compressor</text>
<text xml:space="preserve" text-anchor="start" x="168.5" y="-272.25" font-family="Helvetica,sans-Serif" font-size="10.00">+</text>
<text xml:space="preserve" text-anchor="start" x="178.5" y="-272.25" font-family="Helvetica,sans-Serif" font-size="10.00">preset</text>
<text xml:space="preserve" text-anchor="start" x="168.5" y="-256.25" font-family="Helvetica,sans-Serif" font-size="10.00">+</text>
<text xml:space="preserve" text-anchor="start" x="178.5" y="-256.25" font-family="Helvetica,sans-Serif" font-size="10.00">n_files</text>
<text xml:space="preserve" text-anchor="start" x="168.5" y="-240.25" font-family="Helvetica,sans-Serif" font-size="10.00">+</text>
<text xml:space="preserve" text-anchor="start" x="178.5" y="-240.25" font-family="Helvetica,sans-Serif" font-size="10.00">size_files</text>
<text xml:space="preserve" text-anchor="start" x="168.5" y="-224.25" font-family="Helvetica,sans-Serif" font-size="10.00">+</text>
<text xml:space="preserve" text-anchor="start" x="178.5" y="-224.25" font-family="Helvetica,sans-Serif" font-size="10.00">force_compression</text>
<text xml:space="preserve" text-anchor="start" x="168.5" y="-208.25" font-family="Helvetica,sans-Serif" font-size="10.00">+</text>
<text xml:space="preserve" text-anchor="start" x="178.5" y="-208.25" font-family="Helvetica,sans-Serif" font-size="10.00">delete_input</text>
<text xml:space="preserve" text-anchor="start" x="168.5" y="-192.25" font-family="Helvetica,sans-Serif" font-size="10.00">+</text>
<text xml:space="preserve" text-anchor="start" x="178.5" y="-192.25" font-family="Helvetica,sans-Serif" font-size="10.00">concatenate_files</text>
<text xml:space="preserve" text-anchor="start" x="168.5" y="-176.25" font-family="Helvetica,sans-Serif" font-size="10.00">+</text>
<text xml:space="preserve" text-anchor="start" x="178.5" y="-176.25" font-family="Helvetica,sans-Serif" font-size="10.00">decomp_after_concat</text>
<text xml:space="preserve" text-anchor="start" x="218.88" y="-160.25" font-family="Helvetica,sans-Serif" font-size="10.00"> </text>
<polygon fill="#666666" stroke="#666666" points="164.5,-332 164.5,-332 276.25,-332 276.25,-332 164.5,-332"/>
<polygon fill="#666666" stroke="#666666" points="164.5,-172 164.5,-172 176.5,-172 176.5,-172 164.5,-172"/>
<polygon fill="#666666" stroke="#666666" points="176.5,-172 176.5,-172 276.25,-172 276.25,-172 176.5,-172"/>
<polygon fill="none" stroke="#666666" points="164.5,-154 164.5,-350 276.25,-350 276.25,-154 164.5,-154"/>
</a>
</g>
</g>
<!-- Node3&#45;&gt;Node1 -->
<g id="edge2_Node000001_Node000003" class="edge">
<title>Node3&#45;&gt;Node1</title>
<g id="a_edge2_Node000001_Node000003"><a xlink:title=" ">
<path fill="none" stroke="#63b8ff" d="M220.38,-154.22C220.38,-140.09 220.38,-125.87 220.38,-112.69"/>
<polygon fill="none" stroke="#63b8ff" points="220.38,-112.81 216.38,-106.81 220.38,-100.81 224.38,-106.81 220.38,-112.81"/>
</a>
</g>
<text xml:space="preserve" text-anchor="start" x="223.38" y="-123.25" font-family="Helvetica,sans-Serif" font-size="10.00" fill="grey">&#45;cli_options</text>
</g>
<!-- Node4 -->
<g id="Node000004" class="node">
<title>Node4</title>
<g id="a_Node000004"><a xlink:title=" ">
<polygon fill="white" stroke="none" points="394.12,-284 294.62,-284 294.62,-220 394.12,-220 394.12,-284"/>
<text xml:space="preserve" text-anchor="start" x="298.62" y="-270.25" font-family="Helvetica,sans-Serif" font-size="10.00">std::span&lt; DataType</text>
<text xml:space="preserve" text-anchor="start" x="326.38" y="-258.25" font-family="Helvetica,sans-Serif" font-size="10.00"> const &gt;</text>
<text xml:space="preserve" text-anchor="start" x="309.06" y="-242.25" font-family="Helvetica,sans-Serif" font-size="10.00">+</text>
<text xml:space="preserve" text-anchor="start" x="329.5" y="-242.25" font-family="Helvetica,sans-Serif" font-size="10.00">elements</text>
<text xml:space="preserve" text-anchor="start" x="342.88" y="-226.25" font-family="Helvetica,sans-Serif" font-size="10.00"> </text>
<polygon fill="#666666" stroke="#666666" points="294.62,-254 294.62,-254 394.12,-254 394.12,-254 294.62,-254"/>
<polygon fill="#666666" stroke="#666666" points="294.62,-238 294.62,-238 327.5,-238 327.5,-238 294.62,-238"/>
<polygon fill="#666666" stroke="#666666" points="327.5,-238 327.5,-238 394.12,-238 394.12,-238 327.5,-238"/>
<polygon fill="none" stroke="#666666" points="294.62,-220 294.62,-284 394.12,-284 394.12,-220 294.62,-220"/>
</a>
</g>
</g>
<!-- Node4&#45;&gt;Node1 -->
<g id="edge3_Node000001_Node000004" class="edge">
<title>Node4&#45;&gt;Node1</title>
<g id="a_edge3_Node000001_Node000004"><a xlink:title=" ">
<path fill="none" stroke="#63b8ff" d="M332.44,-220.11C321.02,-192.27 302.31,-150.8 280.38,-118 278.07,-114.56 275.61,-111.11 273.03,-107.7"/>
<polygon fill="none" stroke="#63b8ff" points="273.05,-107.72 266.19,-105.49 265.61,-98.3 272.46,-100.53 273.05,-107.72"/>
</a>
</g>
<text xml:space="preserve" text-anchor="start" x="294.03" y="-123.25" font-family="Helvetica,sans-Serif" font-size="10.00" fill="grey">&#45;data</text>
</g>
</g>
</svg>
</svg>

<style type='text/css'>
<![CDATA[
[data-mouse-over-selected='false'] { opacity: 0.7; }
[data-mouse-over-selected='true']  { opacity: 1.0; }
]]>
</style>
<script type="application/ecmascript"><![CDATA[
document.addEventListener('DOMContentLoaded', (event) => {
  highlightEdges();
  highlightAdjacentNodes();
});
]]></script>
</svg>
