<?xml version="1.0" encoding="UTF-8" standalone="no"?>
<!DOCTYPE svg PUBLIC "-//W3C//DTD SVG 1.1//EN"
 "http://www.w3.org/Graphics/SVG/1.1/DTD/svg11.dtd">
<!-- Generated by graphviz version 14.1.4 (20260321.0153)
 -->
<!-- Title: LZ77ConcurrentCompressor Pages: 1 -->
<!--zoomable 1378 -->

<svg id="main" version="1.1" xmlns="http://www.w3.org/2000/svg" xmlns:xlink="http://www.w3.org/1999/xlink" xml:space="preserve" onload="init(evt)">

<style type="text/css"><![CDATA[
.node, .edge {opacity: 0.7;}
.node.selected, .edge.selected {opacity: 1;}
.edge:hover path { stroke: red; }
.edge:hover polygon { stroke: red; fill: red; }
]]></style>

<defs>
  <circle id="rim" cx="0" cy="0" r="7"/>
  <circle id="rim2" cx="0" cy="0" r="3.5"/>
  <g id="zoomPlus">
    <use xlink:href="#rim" fill="#404040"><set attributeName="fill" to="#808080" begin="zoomplus.mouseover" end="zoomplus.mouseout"/></use>
    <path d="M-4,0h8M0,-4v8" fill="none" stroke="white" stroke-width="1.5" pointer-events="none"/>
  </g>
  <g id="zoomMin">
    <use xlink:href="#rim" fill="#404040"><set attributeName="fill" to="#808080" begin="zoomminus.mouseover" end="zoomminus.mouseout"/></use>
    <path d="M-4,0h8" fill="none" stroke="white" stroke-width="1.5" pointer-events="none"/>
  </g>
  <g id="arrowUp" transform="translate(30 24)">
    <use xlink:href="#rim"/>
    <path pointer-events="none" fill="none" stroke="white" stroke-width="1.5" d="M0,-3.0v7 M-2.5,-0.5L0,-3.0L2.5,-0.5"/>
  </g>
  <g id="arrowRight" transform="rotate(90) translate(36 -43)">
    <use xlink:href="#rim"/>
    <path pointer-events="none" fill="none" stroke="white" stroke-width="1.5" d="M0,-3.0v7 M-2.5,-0.5L0,-3.0L2.5,-0.5"/>
  </g>
  <g id="arrowDown" transform="rotate(180) translate(-30 -48)">
    <use xlink:href="#rim"/>
    <path pointer-events="none" fill="none" stroke="white" stroke-width="1.5" d="M0,-3.0v7 M-2.5,-0.5L0,-3.0L2.5,-0.5"/>
  </g>
  <g id="arrowLeft" transform="rotate(270) translate(-36 17)">
    <use xlink:href="#rim"/>
    <path pointer-events="none" fill="none" stroke="white" stroke-width="1.5" d="M0,-3.0v7 M-2.5,-0.5L0,-3.0L2.5,-0.5"/>
  </g>
  <g id="resetDef">
    <use xlink:href="#rim2" fill="#404040"><set attributeName="fill" to="#808080" begin="reset.mouseover" end="reset.mouseout"/></use>
  </g>
</defs>
<script type="application/ecmascript">
var viewWidth = 746;
var viewHeight = 1378;
var sectionId = 'dynsection-0';
</script>
<script type="application/ecmascript" xlink:href="svg.min.js"/>
<svg id="graph" class="graph">
<g id="viewport">
<title>LZ77ConcurrentCompressor</title>
<!-- Node1 -->
<g id="Node000001" class="node">
<title>Node1</title>
<g id="a_Node000001"><a xlink:title=" ">
<polygon fill="#999999" stroke="none" points="369.75,-134.5 216,-134.5 216,0 369.75,0 369.75,-134.5"/>
<text xml:space="preserve" text-anchor="start" x="231" y="-123" font-family="Helvetica,sans-Serif" font-size="10.00">LZ77ConcurrentCompressor</text>
<text xml:space="preserve" text-anchor="start" x="221.5" y="-108.5" font-family="Helvetica,sans-Serif" font-size="10.00">&#45;</text>
<text xml:space="preserve" text-anchor="start" x="230" y="-108.5" font-family="Helvetica,sans-Serif" font-size="10.00">preset_</text>
<text xml:space="preserve" text-anchor="start" x="221.5" y="-94" font-family="Helvetica,sans-Serif" font-size="10.00">&#45;</text>
<text xml:space="preserve" text-anchor="start" x="230" y="-94" font-family="Helvetica,sans-Serif" font-size="10.00">concurrency_</text>
<text xml:space="preserve" text-anchor="start" x="221.5" y="-79.5" font-family="Helvetica,sans-Serif" font-size="10.00">&#45;</text>
<text xml:space="preserve" text-anchor="start" x="230" y="-79.5" font-family="Helvetica,sans-Serif" font-size="10.00">n_blocks_</text>
<text xml:space="preserve" text-anchor="start" x="221.5" y="-65" font-family="Helvetica,sans-Serif" font-size="10.00">&#45;</text>
<text xml:space="preserve" text-anchor="start" x="230" y="-65" font-family="Helvetica,sans-Serif" font-size="10.00">n_completed_blocks</text>
<text xml:space="preserve" text-anchor="start" x="220" y="-50.5" font-family="Helvetica,sans-Serif" font-size="10.00">+</text>
<text xml:space="preserve" text-anchor="start" x="230" y="-50.5" font-family="Helvetica,sans-Serif" font-size="10.00">LZ77ConcurrentCompressor()</text>
<text xml:space="preserve" text-anchor="start" x="220" y="-36" font-family="Helvetica,sans-Serif" font-size="10.00">+</text>
<text xml:space="preserve" text-anchor="start" x="230" y="-36" font-family="Helvetica,sans-Serif" font-size="10.00">~LZ77ConcurrentCompressor()</text>
<text xml:space="preserve" text-anchor="start" x="220" y="-21.5" font-family="Helvetica,sans-Serif" font-size="10.00">+</text>
<text xml:space="preserve" text-anchor="start" x="230" y="-21.5" font-family="Helvetica,sans-Serif" font-size="10.00">compress()</text>
<text xml:space="preserve" text-anchor="start" x="221.5" y="-7" font-family="Helvetica,sans-Serif" font-size="10.00">&#45;</text>
<text xml:space="preserve" text-anchor="start" x="230" y="-7" font-family="Helvetica,sans-Serif" font-size="10.00">check_results()</text>
<polygon fill="#666666" stroke="#666666" points="216,-118 216,-118 369.75,-118 369.75,-118 216,-118"/>
<polygon fill="#666666" stroke="#666666" points="216,-60 216,-60 228,-60 228,-60 216,-60"/>
<polygon fill="#666666" stroke="#666666" points="228,-60 228,-60 369.75,-60 369.75,-60 228,-60"/>
<polygon fill="none" stroke="#666666" points="216,0 216,-134.5 369.75,-134.5 369.75,0 216,0"/>
</a>
</g>
</g>
<!-- Node2 -->
<g id="Node000002" class="node">
<title>Node2</title>
<g id="a_Node000002"><a xlink:title=" ">
<polygon fill="white" stroke="none" points="171.75,-332 76,-332 76,-274 171.75,-274 171.75,-332"/>
<text xml:space="preserve" text-anchor="start" x="80" y="-320.5" font-family="Helvetica,sans-Serif" font-size="10.00">std::span&lt; std::byte</text>
<text xml:space="preserve" text-anchor="start" x="105.88" y="-310" font-family="Helvetica,sans-Serif" font-size="10.00"> const &gt;</text>
<text xml:space="preserve" text-anchor="start" x="89.5" y="-295.5" font-family="Helvetica,sans-Serif" font-size="10.00">+</text>
<text xml:space="preserve" text-anchor="start" x="109" y="-295.5" font-family="Helvetica,sans-Serif" font-size="10.00">elements</text>
<text xml:space="preserve" text-anchor="start" x="122.38" y="-281" font-family="Helvetica,sans-Serif" font-size="10.00"> </text>
<polygon fill="#666666" stroke="#666666" points="76,-305 76,-305 171.75,-305 171.75,-305 76,-305"/>
<polygon fill="#666666" stroke="#666666" points="76,-290.5 76,-290.5 107,-290.5 107,-290.5 76,-290.5"/>
<polygon fill="#666666" stroke="#666666" points="107,-290.5 107,-290.5 171.75,-290.5 171.75,-290.5 107,-290.5"/>
<polygon fill="none" stroke="#666666" points="76,-274 76,-332 171.75,-332 171.75,-274 76,-274"/>
</a>
</g>
</g>
<!-- Node2&#45;&gt;Node1 -->
<g id="edge1_Node000001_Node000002" class="edge">
<title>Node2&#45;&gt;Node1</title>
<g id="a_edge1_Node000001_Node000002"><a xlink:title=" ">
<path fill="none" stroke="#63b8ff" d="M134.56,-274.21C144.49,-250.07 160.62,-214.73 179.88,-187 190.16,-172.18 202.28,-157.43 214.69,-143.61"/>
<polygon fill="none" stroke="#63b8ff" points="214.6,-143.71 215.7,-136.58 222.71,-134.86 221.6,-141.99 214.6,-143.71"/>
</a>
</g>
<text xml:space="preserve" text-anchor="start" x="207.63" y="-158.5" font-family="Helvetica,sans-Serif" font-size="10.00" fill="grey">&#45;data_</text>
</g>
<!-- Node3 -->
<g id="Node000003" class="node">
<title>Node3</title>
<g id="a_Node000003"><a xlink:title=" ">
<polygon fill="white" stroke="none" points="296.38,-332 189.38,-332 189.38,-274 296.38,-274 296.38,-332"/>
<text xml:space="preserve" text-anchor="start" x="193.38" y="-320.5" font-family="Helvetica,sans-Serif" font-size="10.00">std::vector&lt; std::future</text>
<text xml:space="preserve" text-anchor="start" x="220.75" y="-310" font-family="Helvetica,sans-Serif" font-size="10.00">&lt; void &gt; &gt;</text>
<text xml:space="preserve" text-anchor="start" x="205.69" y="-295.5" font-family="Helvetica,sans-Serif" font-size="10.00">+</text>
<text xml:space="preserve" text-anchor="start" x="228" y="-295.5" font-family="Helvetica,sans-Serif" font-size="10.00">elements</text>
<text xml:space="preserve" text-anchor="start" x="241.38" y="-281" font-family="Helvetica,sans-Serif" font-size="10.00"> </text>
<polygon fill="#666666" stroke="#666666" points="189.38,-305 189.38,-305 296.38,-305 296.38,-305 189.38,-305"/>
<polygon fill="#666666" stroke="#666666" points="189.38,-290.5 189.38,-290.5 226,-290.5 226,-290.5 189.38,-290.5"/>
<polygon fill="#666666" stroke="#666666" points="226,-290.5 226,-290.5 296.38,-290.5 296.38,-290.5 226,-290.5"/>
<polygon fill="none" stroke="#666666" points="189.38,-274 189.38,-332 296.38,-332 296.38,-274 189.38,-274"/>
</a>
</g>
</g>
<!-- Node3&#45;&gt;Node1 -->
<g id="edge2_Node000001_Node000003" class="edge">
<title>Node3&#45;&gt;Node1</title>
<g id="a_edge2_Node000001_Node000003"><a xlink:title=" ">
<path fill="none" stroke="#63b8ff" d="M248.81,-274.27C255.47,-243.12 266.58,-191.17 275.98,-147.23"/>
<polygon fill="none" stroke="#63b8ff" points="276.01,-147.1 273.35,-140.4 278.52,-135.37 281.18,-142.07 276.01,-147.1"/>
</a>
</g>
<text xml:space="preserve" text-anchor="start" x="276.82" y="-158.5" font-family="Helvetica,sans-Serif" font-size="10.00" fill="grey">&#45;results</text>
</g>
<!-- Node4 -->
<g id="Node000004" class="node">
<title>Node4</title>
<g id="a_Node000004"><a xlink:href="classConcOrderedFileList.html" target="_top" xlink:title=" ">
<polygon fill="white" stroke="none" points="449.38,-419 314.38,-419 314.38,-187 449.38,-187 449.38,-419"/>
<text xml:space="preserve" text-anchor="start" x="337.25" y="-407.5" font-family="Helvetica,sans-Serif" font-size="10.00">ConcOrderedFileList</text>
<text xml:space="preserve" text-anchor="start" x="349.25" y="-397" font-family="Helvetica,sans-Serif" font-size="10.00">&lt; LZ77Block &gt;</text>
<text xml:space="preserve" text-anchor="start" x="319.88" y="-382.5" font-family="Helvetica,sans-Serif" font-size="10.00">&#45;</text>
<text xml:space="preserve" text-anchor="start" x="328.38" y="-382.5" font-family="Helvetica,sans-Serif" font-size="10.00">size_</text>
<text xml:space="preserve" text-anchor="start" x="319.88" y="-368" font-family="Helvetica,sans-Serif" font-size="10.00">&#45;</text>
<text xml:space="preserve" text-anchor="start" x="328.38" y="-368" font-family="Helvetica,sans-Serif" font-size="10.00">expected_sequence_num_</text>
<text xml:space="preserve" text-anchor="start" x="319.88" y="-353.5" font-family="Helvetica,sans-Serif" font-size="10.00">&#45;</text>
<text xml:space="preserve" text-anchor="start" x="328.38" y="-353.5" font-family="Helvetica,sans-Serif" font-size="10.00">head_</text>
<text xml:space="preserve" text-anchor="start" x="319.88" y="-339" font-family="Helvetica,sans-Serif" font-size="10.00">&#45;</text>
<text xml:space="preserve" text-anchor="start" x="328.38" y="-339" font-family="Helvetica,sans-Serif" font-size="10.00">tail_</text>
<text xml:space="preserve" text-anchor="start" x="319.88" y="-324.5" font-family="Helvetica,sans-Serif" font-size="10.00">&#45;</text>
<text xml:space="preserve" text-anchor="start" x="328.38" y="-324.5" font-family="Helvetica,sans-Serif" font-size="10.00">called_writer</text>
<text xml:space="preserve" text-anchor="start" x="319.88" y="-310" font-family="Helvetica,sans-Serif" font-size="10.00">&#45;</text>
<text xml:space="preserve" text-anchor="start" x="328.38" y="-310" font-family="Helvetica,sans-Serif" font-size="10.00">writer_notifier</text>
<text xml:space="preserve" text-anchor="start" x="318.38" y="-295.5" font-family="Helvetica,sans-Serif" font-size="10.00">+</text>
<text xml:space="preserve" text-anchor="start" x="328.38" y="-295.5" font-family="Helvetica,sans-Serif" font-size="10.00">ConcOrderedFileList()</text>
<text xml:space="preserve" text-anchor="start" x="318.38" y="-281" font-family="Helvetica,sans-Serif" font-size="10.00">+</text>
<text xml:space="preserve" text-anchor="start" x="328.38" y="-281" font-family="Helvetica,sans-Serif" font-size="10.00">~ConcOrderedFileList()</text>
<text xml:space="preserve" text-anchor="start" x="318.38" y="-266.5" font-family="Helvetica,sans-Serif" font-size="10.00">+</text>
<text xml:space="preserve" text-anchor="start" x="328.38" y="-266.5" font-family="Helvetica,sans-Serif" font-size="10.00">operator=()</text>
<text xml:space="preserve" text-anchor="start" x="318.38" y="-252" font-family="Helvetica,sans-Serif" font-size="10.00">+</text>
<text xml:space="preserve" text-anchor="start" x="328.38" y="-252" font-family="Helvetica,sans-Serif" font-size="10.00">insert()</text>
<text xml:space="preserve" text-anchor="start" x="318.38" y="-237.5" font-family="Helvetica,sans-Serif" font-size="10.00">+</text>
<text xml:space="preserve" text-anchor="start" x="328.38" y="-237.5" font-family="Helvetica,sans-Serif" font-size="10.00">size()</text>
<text xml:space="preserve" text-anchor="start" x="318.38" y="-223" font-family="Helvetica,sans-Serif" font-size="10.00">+</text>
<text xml:space="preserve" text-anchor="start" x="328.38" y="-223" font-family="Helvetica,sans-Serif" font-size="10.00">expected_sequence_num()</text>
<text xml:space="preserve" text-anchor="start" x="318.38" y="-208.5" font-family="Helvetica,sans-Serif" font-size="10.00">+</text>
<text xml:space="preserve" text-anchor="start" x="328.38" y="-208.5" font-family="Helvetica,sans-Serif" font-size="10.00">file()</text>
<text xml:space="preserve" text-anchor="start" x="319.88" y="-194" font-family="Helvetica,sans-Serif" font-size="10.00">&#45;</text>
<text xml:space="preserve" text-anchor="start" x="328.38" y="-194" font-family="Helvetica,sans-Serif" font-size="10.00">write_file()</text>
<polygon fill="#666666" stroke="#666666" points="314.38,-392 314.38,-392 449.38,-392 449.38,-392 314.38,-392"/>
<polygon fill="#666666" stroke="#666666" points="314.38,-305 314.38,-305 326.38,-305 326.38,-305 314.38,-305"/>
<polygon fill="#666666" stroke="#666666" points="326.38,-305 326.38,-305 449.38,-305 449.38,-305 326.38,-305"/>
<polygon fill="none" stroke="#666666" points="314.38,-187 314.38,-419 449.38,-419 449.38,-187 314.38,-187"/>
</a>
</g>
</g>
<!-- Node4&#45;&gt;Node1 -->
<g id="edge3_Node000001_Node000004" class="edge">
<title>Node4&#45;&gt;Node1</title>
<g id="a_edge3_Node000001_Node000004"><a xlink:title=" ">
<path fill="none" stroke="#63b8ff" d="M338.16,-187.18C332.87,-173.3 327.57,-159.38 322.56,-146.21"/>
<polygon fill="none" stroke="#63b8ff" points="322.63,-146.4 316.76,-142.22 318.36,-135.19 324.23,-139.37 322.63,-146.4"/>
</a>
</g>
<text xml:space="preserve" text-anchor="start" x="332.4" y="-158.5" font-family="Helvetica,sans-Serif" font-size="10.00" fill="grey">&#45;file_list_</text>
</g>
<!-- Node5 -->
<g id="Node000005" class="node">
<title>Node5</title>
<g id="a_Node000005"><a xlink:href="classFile.html" target="_top" xlink:title="Interpret a file as to retrieve custom information.">
<polygon fill="white" stroke="none" points="267.88,-751 159.88,-751 159.88,-471.5 267.88,-471.5 267.88,-751"/>
<text xml:space="preserve" text-anchor="start" x="206" y="-739.5" font-family="Helvetica,sans-Serif" font-size="10.00">File</text>
<text xml:space="preserve" text-anchor="start" x="212.38" y="-725" font-family="Helvetica,sans-Serif" font-size="10.00"> </text>
<text xml:space="preserve" text-anchor="start" x="163.88" y="-710.5" font-family="Helvetica,sans-Serif" font-size="10.00">+</text>
<text xml:space="preserve" text-anchor="start" x="173.88" y="-710.5" font-family="Helvetica,sans-Serif" font-size="10.00">File()</text>
<text xml:space="preserve" text-anchor="start" x="163.88" y="-696" font-family="Helvetica,sans-Serif" font-size="10.00">+</text>
<text xml:space="preserve" text-anchor="start" x="173.88" y="-696" font-family="Helvetica,sans-Serif" font-size="10.00">write()</text>
<text xml:space="preserve" text-anchor="start" x="163.88" y="-681.5" font-family="Helvetica,sans-Serif" font-size="10.00">+</text>
<text xml:space="preserve" text-anchor="start" x="173.88" y="-681.5" font-family="Helvetica,sans-Serif" font-size="10.00">write()</text>
<text xml:space="preserve" text-anchor="start" x="163.88" y="-667" font-family="Helvetica,sans-Serif" font-size="10.00">+</text>
<text xml:space="preserve" text-anchor="start" x="173.88" y="-667" font-family="Helvetica,sans-Serif" font-size="10.00">get_in_file_options()</text>
<text xml:space="preserve" text-anchor="start" x="163.88" y="-652.5" font-family="Helvetica,sans-Serif" font-size="10.00">+</text>
<text xml:space="preserve" text-anchor="start" x="173.88" y="-652.5" font-family="Helvetica,sans-Serif" font-size="10.00">get_ref_out_stream()</text>
<text xml:space="preserve" text-anchor="start" x="163.88" y="-638" font-family="Helvetica,sans-Serif" font-size="10.00">+</text>
<text xml:space="preserve" text-anchor="start" x="173.88" y="-638" font-family="Helvetica,sans-Serif" font-size="10.00">split_file()</text>
<text xml:space="preserve" text-anchor="start" x="163.88" y="-623.5" font-family="Helvetica,sans-Serif" font-size="10.00">+</text>
<text xml:space="preserve" text-anchor="start" x="173.88" y="-623.5" font-family="Helvetica,sans-Serif" font-size="10.00">read_file()</text>
<text xml:space="preserve" text-anchor="start" x="163.88" y="-609" font-family="Helvetica,sans-Serif" font-size="10.00">+</text>
<text xml:space="preserve" text-anchor="start" x="173.88" y="-609" font-family="Helvetica,sans-Serif" font-size="10.00">has_signature()</text>
<text xml:space="preserve" text-anchor="start" x="163.88" y="-594.5" font-family="Helvetica,sans-Serif" font-size="10.00">+</text>
<text xml:space="preserve" text-anchor="start" x="173.88" y="-594.5" font-family="Helvetica,sans-Serif" font-size="10.00">has_signature()</text>
<text xml:space="preserve" text-anchor="start" x="163.88" y="-580" font-family="Helvetica,sans-Serif" font-size="10.00">+</text>
<text xml:space="preserve" text-anchor="start" x="173.88" y="-580" font-family="Helvetica,sans-Serif" font-size="10.00">extract_info()</text>
<text xml:space="preserve" text-anchor="start" x="163.88" y="-565.5" font-family="Helvetica,sans-Serif" font-size="10.00">+</text>
<text xml:space="preserve" text-anchor="start" x="173.88" y="-565.5" font-family="Helvetica,sans-Serif" font-size="10.00">extract_info()</text>
<text xml:space="preserve" text-anchor="start" x="163.88" y="-551" font-family="Helvetica,sans-Serif" font-size="10.00">+</text>
<text xml:space="preserve" text-anchor="start" x="173.88" y="-551" font-family="Helvetica,sans-Serif" font-size="10.00">create_file()</text>
<text xml:space="preserve" text-anchor="start" x="165.38" y="-536.5" font-family="Helvetica,sans-Serif" font-size="10.00">&#45;</text>
<text xml:space="preserve" text-anchor="start" x="173.88" y="-536.5" font-family="Helvetica,sans-Serif" font-size="10.00">check_signature()</text>
<text xml:space="preserve" text-anchor="start" x="165.38" y="-522" font-family="Helvetica,sans-Serif" font-size="10.00">&#45;</text>
<text xml:space="preserve" text-anchor="start" x="173.88" y="-522" font-family="Helvetica,sans-Serif" font-size="10.00">has_signature()</text>
<text xml:space="preserve" text-anchor="start" x="165.38" y="-507.5" font-family="Helvetica,sans-Serif" font-size="10.00">&#45;</text>
<text xml:space="preserve" text-anchor="start" x="173.88" y="-507.5" font-family="Helvetica,sans-Serif" font-size="10.00">create_file()</text>
<text xml:space="preserve" text-anchor="start" x="165.38" y="-493" font-family="Helvetica,sans-Serif" font-size="10.00">&#45;</text>
<text xml:space="preserve" text-anchor="start" x="173.88" y="-493" font-family="Helvetica,sans-Serif" font-size="10.00">concatenate_files()</text>
<text xml:space="preserve" text-anchor="start" x="165.38" y="-478.5" font-family="Helvetica,sans-Serif" font-size="10.00">&#45;</text>
<text xml:space="preserve" text-anchor="start" x="173.88" y="-478.5" font-family="Helvetica,sans-Serif" font-size="10.00">create_file()</text>
<polygon fill="#666666" stroke="#666666" points="159.88,-734.5 159.88,-734.5 267.88,-734.5 267.88,-734.5 159.88,-734.5"/>
<polygon fill="#666666" stroke="#666666" points="159.88,-720 159.88,-720 267.88,-720 267.88,-720 159.88,-720"/>
<polygon fill="none" stroke="#666666" points="159.88,-471.5 159.88,-751 267.88,-751 267.88,-471.5 159.88,-471.5"/>
</a>
</g>
</g>
<!-- Node5&#45;&gt;Node4 -->
<g id="edge4_Node000004_Node000005" class="edge">
<title>Node5&#45;&gt;Node4</title>
<g id="a_edge4_Node000004_Node000005"><a xlink:title=" ">
<path fill="none" stroke="#63b8ff" d="M267.72,-512.09C282.02,-486.02 297.66,-457.51 312.66,-430.18"/>
<polygon fill="none" stroke="#63b8ff" points="312.61,-430.27 311.99,-423.09 318.38,-419.75 319,-426.93 312.61,-430.27"/>
</a>
</g>
<text xml:space="preserve" text-anchor="start" x="310.93" y="-443" font-family="Helvetica,sans-Serif" font-size="10.00" fill="grey">&#45;file_</text>
</g>
<!-- Node6 -->
<g id="Node000006" class="node">
<title>Node6</title>
<g id="a_Node000006"><a xlink:href="structFileOptions.html" target="_top" xlink:title=" ">
<polygon fill="white" stroke="none" points="218.88,-945.25 104.88,-945.25 104.88,-868.75 218.88,-868.75 218.88,-945.25"/>
<text xml:space="preserve" text-anchor="start" x="137.12" y="-933.75" font-family="Helvetica,sans-Serif" font-size="10.00">FileOptions</text>
<text xml:space="preserve" text-anchor="start" x="108.88" y="-919.25" font-family="Helvetica,sans-Serif" font-size="10.00">+</text>
<text xml:space="preserve" text-anchor="start" x="118.88" y="-919.25" font-family="Helvetica,sans-Serif" font-size="10.00">path</text>
<text xml:space="preserve" text-anchor="start" x="108.88" y="-904.75" font-family="Helvetica,sans-Serif" font-size="10.00">+</text>
<text xml:space="preserve" text-anchor="start" x="118.88" y="-904.75" font-family="Helvetica,sans-Serif" font-size="10.00">header</text>
<text xml:space="preserve" text-anchor="start" x="108.88" y="-890.25" font-family="Helvetica,sans-Serif" font-size="10.00">+</text>
<text xml:space="preserve" text-anchor="start" x="118.88" y="-890.25" font-family="Helvetica,sans-Serif" font-size="10.00">delete_on_dtor</text>
<text xml:space="preserve" text-anchor="start" x="108.88" y="-875.75" font-family="Helvetica,sans-Serif" font-size="10.00">+</text>
<text xml:space="preserve" text-anchor="start" x="118.88" y="-875.75" font-family="Helvetica,sans-Serif" font-size="10.00">already_compressed()</text>
<polygon fill="#666666" stroke="#666666" points="104.88,-928.75 104.88,-928.75 218.88,-928.75 218.88,-928.75 104.88,-928.75"/>
<polygon fill="#666666" stroke="#666666" points="104.88,-885.25 104.88,-885.25 116.88,-885.25 116.88,-885.25 104.88,-885.25"/>
<polygon fill="#666666" stroke="#666666" points="116.88,-885.25 116.88,-885.25 218.88,-885.25 218.88,-885.25 116.88,-885.25"/>
<polygon fill="none" stroke="#666666" points="104.88,-868.75 104.88,-945.25 218.88,-945.25 218.88,-868.75 104.88,-868.75"/>
</a>
</g>
</g>
<!-- Node6&#45;&gt;Node5 -->
<g id="edge5_Node000005_Node000006" class="edge">
<title>Node6&#45;&gt;Node5</title>
<g id="a_edge5_Node000005_Node000006"><a xlink:title=" ">
<path fill="none" stroke="#63b8ff" d="M168.46,-868.8C173.27,-841.63 180.14,-802.84 187.08,-763.62"/>
<polygon fill="none" stroke="#63b8ff" points="187.09,-763.59 184.19,-756.98 189.18,-751.77 192.07,-758.38 187.09,-763.59"/>
</a>
</g>
<text xml:space="preserve" text-anchor="start" x="187.76" y="-775" font-family="Helvetica,sans-Serif" font-size="10.00" fill="grey">&#45;in_file_options</text>
</g>
<!-- Node7 -->
<g id="Node000007" class="node">
<title>Node7</title>
<g id="a_Node000007"><a xlink:href="structparser_1_1Options.html" target="_top" xlink:title="All the options available.">
<polygon fill="white" stroke="none" points="348.75,-1010.5 237,-1010.5 237,-803.5 348.75,-803.5 348.75,-1010.5"/>
<text xml:space="preserve" text-anchor="start" x="259.12" y="-999" font-family="Helvetica,sans-Serif" font-size="10.00">parser::Options</text>
<text xml:space="preserve" text-anchor="start" x="241" y="-984.5" font-family="Helvetica,sans-Serif" font-size="10.00">+</text>
<text xml:space="preserve" text-anchor="start" x="251" y="-984.5" font-family="Helvetica,sans-Serif" font-size="10.00">filename_in</text>
<text xml:space="preserve" text-anchor="start" x="241" y="-970" font-family="Helvetica,sans-Serif" font-size="10.00">+</text>
<text xml:space="preserve" text-anchor="start" x="251" y="-970" font-family="Helvetica,sans-Serif" font-size="10.00">filename_out</text>
<text xml:space="preserve" text-anchor="start" x="241" y="-955.5" font-family="Helvetica,sans-Serif" font-size="10.00">+</text>
<text xml:space="preserve" text-anchor="start" x="251" y="-955.5" font-family="Helvetica,sans-Serif" font-size="10.00">compressor</text>
<text xml:space="preserve" text-anchor="start" x="241" y="-941" font-family="Helvetica,sans-Serif" font-size="10.00">+</text>
<text xml:space="preserve" text-anchor="start" x="251" y="-941" font-family="Helvetica,sans-Serif" font-size="10.00">preset</text>
<text xml:space="preserve" text-anchor="start" x="241" y="-926.5" font-family="Helvetica,sans-Serif" font-size="10.00">+</text>
<text xml:space="preserve" text-anchor="start" x="251" y="-926.5" font-family="Helvetica,sans-Serif" font-size="10.00">n_files</text>
<text xml:space="preserve" text-anchor="start" x="241" y="-912" font-family="Helvetica,sans-Serif" font-size="10.00">+</text>
<text xml:space="preserve" text-anchor="start" x="251" y="-912" font-family="Helvetica,sans-Serif" font-size="10.00">size_files</text>
<text xml:space="preserve" text-anchor="start" x="241" y="-897.5" font-family="Helvetica,sans-Serif" font-size="10.00">+</text>
<text xml:space="preserve" text-anchor="start" x="251" y="-897.5" font-family="Helvetica,sans-Serif" font-size="10.00">force_compression</text>
<text xml:space="preserve" text-anchor="start" x="241" y="-883" font-family="Helvetica,sans-Serif" font-size="10.00">+</text>
<text xml:space="preserve" text-anchor="start" x="251" y="-883" font-family="Helvetica,sans-Serif" font-size="10.00">delete_input</text>
<text xml:space="preserve" text-anchor="start" x="241" y="-868.5" font-family="Helvetica,sans-Serif" font-size="10.00">+</text>
<text xml:space="preserve" text-anchor="start" x="251" y="-868.5" font-family="Helvetica,sans-Serif" font-size="10.00">concatenate_files</text>
<text xml:space="preserve" text-anchor="start" x="241" y="-854" font-family="Helvetica,sans-Serif" font-size="10.00">+</text>
<text xml:space="preserve" text-anchor="start" x="251" y="-854" font-family="Helvetica,sans-Serif" font-size="10.00">need_help</text>
<text xml:space="preserve" text-anchor="start" x="241" y="-839.5" font-family="Helvetica,sans-Serif" font-size="10.00">+</text>
<text xml:space="preserve" text-anchor="start" x="251" y="-839.5" font-family="Helvetica,sans-Serif" font-size="10.00">decomp_after_concat</text>
<text xml:space="preserve" text-anchor="start" x="241" y="-825" font-family="Helvetica,sans-Serif" font-size="10.00">+</text>
<text xml:space="preserve" text-anchor="start" x="251" y="-825" font-family="Helvetica,sans-Serif" font-size="10.00">concurrency</text>
<text xml:space="preserve" text-anchor="start" x="291.38" y="-810.5" font-family="Helvetica,sans-Serif" font-size="10.00"> </text>
<polygon fill="#666666" stroke="#666666" points="237,-994 237,-994 348.75,-994 348.75,-994 237,-994"/>
<polygon fill="#666666" stroke="#666666" points="237,-820 237,-820 249,-820 249,-820 237,-820"/>
<polygon fill="#666666" stroke="#666666" points="249,-820 249,-820 348.75,-820 348.75,-820 249,-820"/>
<polygon fill="none" stroke="#666666" points="237,-803.5 237,-1010.5 348.75,-1010.5 348.75,-803.5 237,-803.5"/>
</a>
</g>
</g>
<!-- Node7&#45;&gt;Node5 -->
<g id="edge6_Node000005_Node000007" class="edge">
<title>Node7&#45;&gt;Node5</title>
<g id="a_edge6_Node000005_Node000007"><a xlink:title=" ">
<path fill="none" stroke="#63b8ff" d="M268.83,-803.74C265.89,-792.01 262.87,-780.23 259.88,-769 259.35,-767.02 258.81,-765.03 258.27,-763.03"/>
<polygon fill="none" stroke="#63b8ff" points="258.28,-763.06 252.84,-758.33 255.12,-751.49 260.56,-756.22 258.28,-763.06"/>
</a>
</g>
<text xml:space="preserve" text-anchor="start" x="266.76" y="-775" font-family="Helvetica,sans-Serif" font-size="10.00" fill="grey">&#45;cli_options</text>
</g>
<!-- Node8 -->
<g id="Node000008" class="node">
<title>Node8</title>
<g id="a_Node000008"><a xlink:title=" ">
<polygon fill="white" stroke="none" points="86.75,-930.75 21,-930.75 21,-883.25 86.75,-883.25 86.75,-930.75"/>
<text xml:space="preserve" text-anchor="start" x="25" y="-919.25" font-family="Helvetica,sans-Serif" font-size="10.00">std::ofstream</text>
<text xml:space="preserve" text-anchor="start" x="52.38" y="-904.75" font-family="Helvetica,sans-Serif" font-size="10.00"> </text>
<text xml:space="preserve" text-anchor="start" x="52.38" y="-890.25" font-family="Helvetica,sans-Serif" font-size="10.00"> </text>
<polygon fill="#666666" stroke="#666666" points="21,-914.25 21,-914.25 86.75,-914.25 86.75,-914.25 21,-914.25"/>
<polygon fill="#666666" stroke="#666666" points="21,-899.75 21,-899.75 86.75,-899.75 86.75,-899.75 21,-899.75"/>
<polygon fill="none" stroke="#666666" points="21,-883.25 21,-930.75 86.75,-930.75 86.75,-883.25 21,-883.25"/>
</a>
</g>
</g>
<!-- Node8&#45;&gt;Node5 -->
<g id="edge7_Node000005_Node000008" class="edge">
<title>Node8&#45;&gt;Node5</title>
<g id="a_edge7_Node000005_Node000008"><a xlink:title=" ">
<path fill="none" stroke="#63b8ff" d="M61.86,-883.54C69.65,-862.45 82.27,-830.24 95.88,-803.5 112.89,-770.07 133.78,-734.76 153.22,-703.72"/>
<polygon fill="none" stroke="#63b8ff" points="153.15,-703.83 152.96,-696.62 159.55,-693.68 159.73,-700.89 153.15,-703.83"/>
</a>
</g>
<text xml:space="preserve" text-anchor="start" x="116.2" y="-775" font-family="Helvetica,sans-Serif" font-size="10.00" fill="grey">&#45;out_file</text>
</g>
<!-- Node9 -->
<g id="Node000009" class="node">
<title>Node9</title>
<g id="a_Node000009"><a xlink:title=" ">
<polygon fill="white" stroke="none" points="101,-1105.5 6.75,-1105.5 6.75,-1047.5 101,-1047.5 101,-1105.5"/>
<text xml:space="preserve" text-anchor="start" x="10.75" y="-1094" font-family="Helvetica,sans-Serif" font-size="10.00">std::basic_ofstream</text>
<text xml:space="preserve" text-anchor="start" x="34.38" y="-1083.5" font-family="Helvetica,sans-Serif" font-size="10.00">&lt; Char &gt;</text>
<text xml:space="preserve" text-anchor="start" x="52.38" y="-1069" font-family="Helvetica,sans-Serif" font-size="10.00"> </text>
<text xml:space="preserve" text-anchor="start" x="52.38" y="-1054.5" font-family="Helvetica,sans-Serif" font-size="10.00"> </text>
<polygon fill="#666666" stroke="#666666" points="6.75,-1078.5 6.75,-1078.5 101,-1078.5 101,-1078.5 6.75,-1078.5"/>
<polygon fill="#666666" stroke="#666666" points="6.75,-1064 6.75,-1064 101,-1064 101,-1064 6.75,-1064"/>
<polygon fill="none" stroke="#666666" points="6.75,-1047.5 6.75,-1105.5 101,-1105.5 101,-1047.5 6.75,-1047.5"/>
</a>
</g>
</g>
<!-- Node9&#45;&gt;Node8 -->
<g id="edge8_Node000008_Node000009" class="edge">
<title>Node9&#45;&gt;Node8</title>
<g id="a_edge8_Node000008_Node000009"><a xlink:title=" ">
<path fill="none" stroke="#63b8ff" d="M53.88,-1036.37C53.88,-1003.5 53.88,-957.67 53.88,-930.59"/>
<polygon fill="none" stroke="#63b8ff" points="50.38,-1036.33 53.88,-1046.33 57.38,-1036.33 50.38,-1036.33"/>
</a>
</g>
</g>
<!-- Node10 -->
<g id="Node000010" class="node">
<title>Node10</title>
<g id="a_Node000010"><a xlink:title=" ">
<polygon fill="white" stroke="none" points="99.5,-1200.5 8.25,-1200.5 8.25,-1142.5 99.5,-1142.5 99.5,-1200.5"/>
<text xml:space="preserve" text-anchor="start" x="12.25" y="-1189" font-family="Helvetica,sans-Serif" font-size="10.00">std::basic_ostream</text>
<text xml:space="preserve" text-anchor="start" x="34.38" y="-1178.5" font-family="Helvetica,sans-Serif" font-size="10.00">&lt; Char &gt;</text>
<text xml:space="preserve" text-anchor="start" x="52.38" y="-1164" font-family="Helvetica,sans-Serif" font-size="10.00"> </text>
<text xml:space="preserve" text-anchor="start" x="52.38" y="-1149.5" font-family="Helvetica,sans-Serif" font-size="10.00"> </text>
<polygon fill="#666666" stroke="#666666" points="8.25,-1173.5 8.25,-1173.5 99.5,-1173.5 99.5,-1173.5 8.25,-1173.5"/>
<polygon fill="#666666" stroke="#666666" points="8.25,-1159 8.25,-1159 99.5,-1159 99.5,-1159 8.25,-1159"/>
<polygon fill="none" stroke="#666666" points="8.25,-1142.5 8.25,-1200.5 99.5,-1200.5 99.5,-1142.5 8.25,-1142.5"/>
</a>
</g>
</g>
<!-- Node10&#45;&gt;Node9 -->
<g id="edge9_Node000009_Node000010" class="edge">
<title>Node10&#45;&gt;Node9</title>
<g id="a_edge9_Node000009_Node000010"><a xlink:title=" ">
<path fill="none" stroke="#63b8ff" d="M53.88,-1131.12C53.88,-1122.47 53.88,-1113.47 53.88,-1105.38"/>
<polygon fill="none" stroke="#63b8ff" points="50.38,-1131.08 53.88,-1141.08 57.38,-1131.08 50.38,-1131.08"/>
</a>
</g>
</g>
<!-- Node11 -->
<g id="Node000011" class="node">
<title>Node11</title>
<g id="a_Node000011"><a xlink:title=" ">
<polygon fill="white" stroke="none" points="107.75,-1285 0,-1285 0,-1237.5 107.75,-1237.5 107.75,-1285"/>
<text xml:space="preserve" text-anchor="start" x="4" y="-1273.5" font-family="Helvetica,sans-Serif" font-size="10.00">std::basic_ios&lt; Char &gt;</text>
<text xml:space="preserve" text-anchor="start" x="52.38" y="-1259" font-family="Helvetica,sans-Serif" font-size="10.00"> </text>
<text xml:space="preserve" text-anchor="start" x="52.38" y="-1244.5" font-family="Helvetica,sans-Serif" font-size="10.00"> </text>
<polygon fill="#666666" stroke="#666666" points="0,-1268.5 0,-1268.5 107.75,-1268.5 107.75,-1268.5 0,-1268.5"/>
<polygon fill="#666666" stroke="#666666" points="0,-1254 0,-1254 107.75,-1254 107.75,-1254 0,-1254"/>
<polygon fill="none" stroke="#666666" points="0,-1237.5 0,-1285 107.75,-1285 107.75,-1237.5 0,-1237.5"/>
</a>
</g>
</g>
<!-- Node11&#45;&gt;Node10 -->
<g id="edge10_Node000010_Node000011" class="edge">
<title>Node11&#45;&gt;Node10</title>
<g id="a_edge10_Node000010_Node000011"><a xlink:title=" ">
<path fill="none" stroke="#63b8ff" d="M53.88,-1226.38C53.88,-1217.78 53.88,-1208.63 53.88,-1200.36"/>
<polygon fill="none" stroke="#63b8ff" points="50.38,-1226.14 53.88,-1236.14 57.38,-1226.14 50.38,-1226.14"/>
</a>
</g>
</g>
<!-- Node12 -->
<g id="Node000012" class="node">
<title>Node12</title>
<g id="a_Node000012"><a xlink:title=" ">
<polygon fill="white" stroke="none" points="87.12,-1369.5 20.62,-1369.5 20.62,-1322 87.12,-1322 87.12,-1369.5"/>
<text xml:space="preserve" text-anchor="start" x="24.62" y="-1358" font-family="Helvetica,sans-Serif" font-size="10.00">std::ios_base</text>
<text xml:space="preserve" text-anchor="start" x="52.38" y="-1343.5" font-family="Helvetica,sans-Serif" font-size="10.00"> </text>
<text xml:space="preserve" text-anchor="start" x="52.38" y="-1329" font-family="Helvetica,sans-Serif" font-size="10.00"> </text>
<polygon fill="#666666" stroke="#666666" points="20.62,-1353 20.62,-1353 87.12,-1353 87.12,-1353 20.62,-1353"/>
<polygon fill="#666666" stroke="#666666" points="20.62,-1338.5 20.62,-1338.5 87.12,-1338.5 87.12,-1338.5 20.62,-1338.5"/>
<polygon fill="none" stroke="#666666" points="20.62,-1322 20.62,-1369.5 87.12,-1369.5 87.12,-1322 20.62,-1322"/>
</a>
</g>
</g>
<!-- Node12&#45;&gt;Node11 -->
<g id="edge11_Node000011_Node000012" class="edge">
<title>Node12&#45;&gt;Node11</title>
<g id="a_edge11_Node000011_Node000012"><a xlink:title=" ">
<path fill="none" stroke="#63b8ff" d="M53.88,-1310.71C53.88,-1301.96 53.88,-1292.77 53.88,-1284.77"/>
<polygon fill="none" stroke="#63b8ff" points="50.38,-1310.69 53.88,-1320.69 57.38,-1310.69 50.38,-1310.69"/>
</a>
</g>
</g>
<!-- Node13 -->
<g id="Node000013" class="node">
<title>Node13</title>
<g id="a_Node000013"><a xlink:title=" ">
<polygon fill="white" stroke="none" points="464.12,-635 409.62,-635 409.62,-587.5 464.12,-587.5 464.12,-635"/>
<text xml:space="preserve" text-anchor="start" x="413.62" y="-623.5" font-family="Helvetica,sans-Serif" font-size="10.00">std::mutex</text>
<text xml:space="preserve" text-anchor="start" x="435.38" y="-609" font-family="Helvetica,sans-Serif" font-size="10.00"> </text>
<text xml:space="preserve" text-anchor="start" x="435.38" y="-594.5" font-family="Helvetica,sans-Serif" font-size="10.00"> </text>
<polygon fill="#666666" stroke="#666666" points="409.62,-618.5 409.62,-618.5 464.12,-618.5 464.12,-618.5 409.62,-618.5"/>
<polygon fill="#666666" stroke="#666666" points="409.62,-604 409.62,-604 464.12,-604 464.12,-604 409.62,-604"/>
<polygon fill="none" stroke="#666666" points="409.62,-587.5 409.62,-635 464.12,-635 464.12,-587.5 409.62,-587.5"/>
</a>
</g>
</g>
<!-- Node13&#45;&gt;Node4 -->
<g id="edge12_Node000004_Node000013" class="edge">
<title>Node13&#45;&gt;Node4</title>
<g id="a_edge12_Node000004_Node000013"><a xlink:title=" ">
<path fill="none" stroke="#63b8ff" d="M432.83,-587.73C426.89,-554.65 415.36,-490.45 404.77,-431.47"/>
<polygon fill="none" stroke="#63b8ff" points="404.81,-431.68 399.81,-426.48 402.68,-419.87 407.68,-425.07 404.81,-431.68"/>
</a>
</g>
<text xml:space="preserve" text-anchor="start" x="410.73" y="-443" font-family="Helvetica,sans-Serif" font-size="10.00" fill="grey">&#45;mut</text>
</g>
<!-- Node15 -->
<g id="Node000015" class="node">
<title>Node15</title>
<g id="a_Node000015"><a xlink:href="classThreadPool.html" target="_top" xlink:title="A tool to asynchronously execute tasks without respawning threads.">
<polygon fill="white" stroke="none" points="574.62,-384.75 495.12,-384.75 495.12,-221.25 574.62,-221.25 574.62,-384.75"/>
<text xml:space="preserve" text-anchor="start" x="510.12" y="-373.25" font-family="Helvetica,sans-Serif" font-size="10.00">ThreadPool</text>
<text xml:space="preserve" text-anchor="start" x="500.62" y="-358.75" font-family="Helvetica,sans-Serif" font-size="10.00">&#45;</text>
<text xml:space="preserve" text-anchor="start" x="509.12" y="-358.75" font-family="Helvetica,sans-Serif" font-size="10.00">stop_threads_</text>
<text xml:space="preserve" text-anchor="start" x="500.62" y="-344.25" font-family="Helvetica,sans-Serif" font-size="10.00">&#45;</text>
<text xml:space="preserve" text-anchor="start" x="509.12" y="-344.25" font-family="Helvetica,sans-Serif" font-size="10.00">cv_</text>
<text xml:space="preserve" text-anchor="start" x="499.12" y="-329.75" font-family="Helvetica,sans-Serif" font-size="10.00">+</text>
<text xml:space="preserve" text-anchor="start" x="509.12" y="-329.75" font-family="Helvetica,sans-Serif" font-size="10.00">ThreadPool()</text>
<text xml:space="preserve" text-anchor="start" x="499.12" y="-315.25" font-family="Helvetica,sans-Serif" font-size="10.00">+</text>
<text xml:space="preserve" text-anchor="start" x="509.12" y="-315.25" font-family="Helvetica,sans-Serif" font-size="10.00">~ThreadPool()</text>
<text xml:space="preserve" text-anchor="start" x="499.12" y="-300.75" font-family="Helvetica,sans-Serif" font-size="10.00">+</text>
<text xml:space="preserve" text-anchor="start" x="509.12" y="-300.75" font-family="Helvetica,sans-Serif" font-size="10.00">ThreadPool()</text>
<text xml:space="preserve" text-anchor="start" x="499.12" y="-286.25" font-family="Helvetica,sans-Serif" font-size="10.00">+</text>
<text xml:space="preserve" text-anchor="start" x="509.12" y="-286.25" font-family="Helvetica,sans-Serif" font-size="10.00">ThreadPool()</text>
<text xml:space="preserve" text-anchor="start" x="499.12" y="-271.75" font-family="Helvetica,sans-Serif" font-size="10.00">+</text>
<text xml:space="preserve" text-anchor="start" x="509.12" y="-271.75" font-family="Helvetica,sans-Serif" font-size="10.00">operator=()</text>
<text xml:space="preserve" text-anchor="start" x="499.12" y="-257.25" font-family="Helvetica,sans-Serif" font-size="10.00">+</text>
<text xml:space="preserve" text-anchor="start" x="509.12" y="-257.25" font-family="Helvetica,sans-Serif" font-size="10.00">operator=()</text>
<text xml:space="preserve" text-anchor="start" x="499.12" y="-242.75" font-family="Helvetica,sans-Serif" font-size="10.00">+</text>
<text xml:space="preserve" text-anchor="start" x="509.12" y="-242.75" font-family="Helvetica,sans-Serif" font-size="10.00">add_task()</text>
<text xml:space="preserve" text-anchor="start" x="500.62" y="-228.25" font-family="Helvetica,sans-Serif" font-size="10.00">&#45;</text>
<text xml:space="preserve" text-anchor="start" x="509.12" y="-228.25" font-family="Helvetica,sans-Serif" font-size="10.00">worker()</text>
<polygon fill="#666666" stroke="#666666" points="495.12,-368.25 495.12,-368.25 574.62,-368.25 574.62,-368.25 495.12,-368.25"/>
<polygon fill="#666666" stroke="#666666" points="495.12,-339.25 495.12,-339.25 507.12,-339.25 507.12,-339.25 495.12,-339.25"/>
<polygon fill="#666666" stroke="#666666" points="507.12,-339.25 507.12,-339.25 574.62,-339.25 574.62,-339.25 507.12,-339.25"/>
<polygon fill="none" stroke="#666666" points="495.12,-221.25 495.12,-384.75 574.62,-384.75 574.62,-221.25 495.12,-221.25"/>
</a>
</g>
</g>
<!-- Node13&#45;&gt;Node15 -->
<g id="edge15_Node000015_Node000013" class="edge">
<title>Node13&#45;&gt;Node15</title>
<g id="a_edge15_Node000015_Node000013"><a xlink:title=" ">
<path fill="none" stroke="#63b8ff" d="M442.17,-587.97C448.87,-560.41 461.08,-512.16 473.88,-471.5 481.59,-447 490.71,-420.79 499.51,-396.54"/>
<polygon fill="none" stroke="#63b8ff" points="499.51,-396.56 497.81,-389.55 503.63,-385.29 505.33,-392.3 499.51,-396.56"/>
</a>
</g>
<text xml:space="preserve" text-anchor="start" x="487.52" y="-443" font-family="Helvetica,sans-Serif" font-size="10.00" fill="grey">&#45;mut_</text>
</g>
<!-- Node14 -->
<g id="Node000014" class="node">
<title>Node14</title>
<g id="a_Node000014"><a xlink:title=" ">
<polygon fill="white" stroke="none" points="432.25,-930.75 375.5,-930.75 375.5,-883.25 432.25,-883.25 432.25,-930.75"/>
<text xml:space="preserve" text-anchor="start" x="379.5" y="-919.25" font-family="Helvetica,sans-Serif" font-size="10.00">std::jthread</text>
<text xml:space="preserve" text-anchor="start" x="402.38" y="-904.75" font-family="Helvetica,sans-Serif" font-size="10.00"> </text>
<text xml:space="preserve" text-anchor="start" x="402.38" y="-890.25" font-family="Helvetica,sans-Serif" font-size="10.00"> </text>
<polygon fill="#666666" stroke="#666666" points="375.5,-914.25 375.5,-914.25 432.25,-914.25 432.25,-914.25 375.5,-914.25"/>
<polygon fill="#666666" stroke="#666666" points="375.5,-899.75 375.5,-899.75 432.25,-899.75 432.25,-899.75 375.5,-899.75"/>
<polygon fill="none" stroke="#666666" points="375.5,-883.25 375.5,-930.75 432.25,-930.75 432.25,-883.25 375.5,-883.25"/>
</a>
</g>
</g>
<!-- Node14&#45;&gt;Node4 -->
<g id="edge13_Node000004_Node000014" class="edge">
<title>Node14&#45;&gt;Node4</title>
<g id="a_edge13_Node000004_Node000014"><a xlink:title=" ">
<path fill="none" stroke="#63b8ff" d="M396.92,-883.44C388.1,-853.51 373.36,-798.89 367.88,-751 355.59,-643.84 360.76,-521.36 368.06,-431.73"/>
<polygon fill="none" stroke="#63b8ff" points="368.07,-431.61 364.59,-425.29 369.08,-419.65 372.56,-425.96 368.07,-431.61"/>
</a>
</g>
<text xml:space="preserve" text-anchor="start" x="370.88" y="-609" font-family="Helvetica,sans-Serif" font-size="10.00" fill="grey">&#45;writer</text>
</g>
<!-- Node17 -->
<g id="Node000017" class="node">
<title>Node17</title>
<g id="a_Node000017"><a xlink:title=" ">
<polygon fill="white" stroke="none" points="738.12,-635 617.62,-635 617.62,-587.5 738.12,-587.5 738.12,-635"/>
<text xml:space="preserve" text-anchor="start" x="621.62" y="-623.5" font-family="Helvetica,sans-Serif" font-size="10.00">std::vector&lt; std::jthread &gt;</text>
<text xml:space="preserve" text-anchor="start" x="676.38" y="-609" font-family="Helvetica,sans-Serif" font-size="10.00"> </text>
<text xml:space="preserve" text-anchor="start" x="676.38" y="-594.5" font-family="Helvetica,sans-Serif" font-size="10.00"> </text>
<polygon fill="#666666" stroke="#666666" points="617.62,-618.5 617.62,-618.5 738.12,-618.5 738.12,-618.5 617.62,-618.5"/>
<polygon fill="#666666" stroke="#666666" points="617.62,-604 617.62,-604 738.12,-604 738.12,-604 617.62,-604"/>
<polygon fill="none" stroke="#666666" points="617.62,-587.5 617.62,-635 738.12,-635 738.12,-587.5 617.62,-587.5"/>
</a>
</g>
</g>
<!-- Node14&#45;&gt;Node17 -->
<g id="edge18_Node000017_Node000014" class="edge">
<title>Node14&#45;&gt;Node17</title>
<g id="a_edge18_Node000017_Node000014"><a xlink:title=" ">
<path fill="none" stroke="#63b8ff" d="M432.18,-890.23C474.83,-865.31 556.09,-813.22 607.88,-751 634.08,-719.52 653.82,-676.58 665.55,-646.85"/>
<polygon fill="none" stroke="#63b8ff" points="665.48,-647.03 663.88,-640 669.76,-635.82 671.36,-642.86 665.48,-647.03"/>
</a>
</g>
<text xml:space="preserve" text-anchor="start" x="592.37" y="-775" font-family="Helvetica,sans-Serif" font-size="10.00" fill="grey">+elements</text>
</g>
<!-- Node15&#45;&gt;Node1 -->
<g id="edge14_Node000001_Node000015" class="edge">
<title>Node15&#45;&gt;Node1</title>
<g id="a_edge14_Node000001_Node000015"><a xlink:title=" ">
<path fill="none" stroke="#63b8ff" d="M495.14,-232.92C484.41,-216.98 472.08,-200.7 458.88,-187 435.65,-162.9 406.96,-140.42 380.01,-121.64"/>
<polygon fill="none" stroke="#63b8ff" points="380.02,-121.65 372.81,-121.56 370.12,-114.87 377.33,-114.96 380.02,-121.65"/>
</a>
</g>
<text xml:space="preserve" text-anchor="start" x="441.93" y="-158.5" font-family="Helvetica,sans-Serif" font-size="10.00" fill="grey">&#45;thread_pool</text>
</g>
<!-- Node16 -->
<g id="Node000016" class="node">
<title>Node16</title>
<g id="a_Node000016"><a xlink:title=" ">
<polygon fill="white" stroke="none" points="599.25,-640.25 482.5,-640.25 482.5,-582.25 599.25,-582.25 599.25,-640.25"/>
<text xml:space="preserve" text-anchor="start" x="486.5" y="-628.75" font-family="Helvetica,sans-Serif" font-size="10.00">std::queue&lt; std::function</text>
<text xml:space="preserve" text-anchor="start" x="517.25" y="-618.25" font-family="Helvetica,sans-Serif" font-size="10.00">&lt; void()&gt; &gt;</text>
<text xml:space="preserve" text-anchor="start" x="501.25" y="-603.75" font-family="Helvetica,sans-Serif" font-size="10.00">+</text>
<text xml:space="preserve" text-anchor="start" x="526" y="-603.75" font-family="Helvetica,sans-Serif" font-size="10.00">elements</text>
<text xml:space="preserve" text-anchor="start" x="539.38" y="-589.25" font-family="Helvetica,sans-Serif" font-size="10.00"> </text>
<polygon fill="#666666" stroke="#666666" points="482.5,-613.25 482.5,-613.25 599.25,-613.25 599.25,-613.25 482.5,-613.25"/>
<polygon fill="#666666" stroke="#666666" points="482.5,-598.75 482.5,-598.75 524,-598.75 524,-598.75 482.5,-598.75"/>
<polygon fill="#666666" stroke="#666666" points="524,-598.75 524,-598.75 599.25,-598.75 599.25,-598.75 524,-598.75"/>
<polygon fill="none" stroke="#666666" points="482.5,-582.25 482.5,-640.25 599.25,-640.25 599.25,-582.25 482.5,-582.25"/>
</a>
</g>
</g>
<!-- Node16&#45;&gt;Node15 -->
<g id="edge16_Node000015_Node000016" class="edge">
<title>Node16&#45;&gt;Node15</title>
<g id="a_edge16_Node000015_Node000016"><a xlink:title=" ">
<path fill="none" stroke="#63b8ff" d="M540.33,-582.26C539.51,-540.75 537.95,-460.93 536.7,-397.39"/>
<polygon fill="none" stroke="#63b8ff" points="536.71,-397.4 532.59,-391.48 536.47,-385.41 540.59,-391.33 536.71,-397.4"/>
</a>
</g>
<text xml:space="preserve" text-anchor="start" x="540.7" y="-443" font-family="Helvetica,sans-Serif" font-size="10.00" fill="grey">&#45;tasks_</text>
</g>
<!-- Node17&#45;&gt;Node15 -->
<g id="edge17_Node000015_Node000017" class="edge">
<title>Node17&#45;&gt;Node15</title>
<g id="a_edge17_Node000015_Node000017"><a xlink:title=" ">
<path fill="none" stroke="#63b8ff" d="M667.36,-587.73C648.77,-547.92 609.13,-463.03 578.03,-396.42"/>
<polygon fill="none" stroke="#63b8ff" points="577.99,-396.33 571.82,-392.58 572.91,-385.45 579.07,-389.2 577.99,-396.33"/>
</a>
</g>
<text xml:space="preserve" text-anchor="start" x="605.09" y="-443" font-family="Helvetica,sans-Serif" font-size="10.00" fill="grey">&#45;threads_</text>
</g>
</g>
</svg>

<g id="navigator" transform="translate(0 0)" fill="#404254">
  <rect fill="#f2f5e9" fill-opacity="0.5" stroke="#606060" stroke-width=".5" x="0" y="0" width="60" height="60"/>
  <use id="zoomplus" xlink:href="#zoomPlus" x="17" y="9" onmousedown="handleZoom(evt,'in')"/>
  <use id="zoomminus" xlink:href="#zoomMin" x="42" y="9" onmousedown="handleZoom(evt,'out')"/>
  <use id="reset" xlink:href="#resetDef" x="30" y="36" onmousedown="handleReset()"/>
   <use id="arrowup" xlink:href="#arrowUp" x="0" y="0" onmousedown="handlePan(0,-1)"/>
  <use id="arrowright" xlink:href="#arrowRight" x="0" y="0" onmousedown="handlePan(1,0)"/>
  <use id="arrowdown" xlink:href="#arrowDown" x="0" y="0" onmousedown="handlePan(0,1)"/>
  <use id="arrowleft" xlink:href="#arrowLeft" x="0" y="0" onmousedown="handlePan(-1,0)"/>
</g>
<svg viewBox="0 0 15 15" width="100%" height="30px" preserveAspectRatio="xMaxYMin meet">
 <g id="arrow_out" transform="scale(0.3 0.3)">
  <a xlink:href="classLZ77ConcurrentCompressor__coll__graph_org.svg" target="_base">
   <rect id="button" ry="5" rx="5" y="6" x="6" height="38" width="38"
        fill="#f2f5e9" fill-opacity="0.5" stroke="#606060" stroke-width="1.0"/>
   <path id="arrow"
     d="M 11.500037,31.436501 C 11.940474,20.09759 22.043105,11.32322 32.158766,21.979434 L 37.068811,17.246167 C 37.068811,17.246167 37.088388,32 37.088388,32 L 22.160133,31.978069 C 22.160133,31.978069 26.997745,27.140456 26.997745,27.140456 C 18.528582,18.264221 13.291696,25.230495 11.500037,31.436501 z"
     style="fill:#404040;"/>
  </a>
 </g>
</svg>

<style type='text/css'>
<![CDATA[
[data-mouse-over-selected='false'] { opacity: 0.7; }
[data-mouse-over-selected='true']  { opacity: 1.0; }
]]>
</style>
<script type="application/ecmascript"><![CDATA[
document.addEventListener('DOMContentLoaded', (event) => {
  highlightEdges();
  highlightAdjacentNodes();
});
]]></script>
</svg>
