<?xml version="1.0" encoding="UTF-8" standalone="no"?>
<!DOCTYPE svg PUBLIC "-//W3C//DTD SVG 1.1//EN"
 "http://www.w3.org/Graphics/SVG/1.1/DTD/svg11.dtd">
<!-- Generated by graphviz version 14.1.4 (20260321.0153)
 -->
<!-- Title: LZ77Decompressor Pages: 1 -->
<!--zoomable 746 -->

<svg id="main" version="1.1" xmlns="http://www.w3.org/2000/svg" xmlns:xlink="http://www.w3.org/1999/xlink" xml:space="preserve" onload="init(evt)">

<style type="text/css"><![CDATA[
.node, .edge {opacity: 0.7;}
.node.selected, .edge.selected {opacity: 1;}
.edge:hover path { stroke: red; }
.edge:hover polygon { stroke: red; fill: red; }
]]></style>

<defs>
  <circle id="rim" cx="0" cy="0" r="7"/>
  <circle id="rim2" cx="0" cy="0" r="3.5"/>
  <g id="zoomPlus">
    <use xlink:href="#rim" fill="#404040"><set attributeName="fill" to="#808080" begin="zoomplus.mouseover" end="zoomplus.mouseout"/></use>
    <path d="M-4,0h8M0,-4v8" fill="none" stroke="white" stroke-width="1.5" pointer-events="none"/>
  </g>
  <g id="zoomMin">
    <use xlink:href="#rim" fill="#404040"><set attributeName="fill" to="#808080" begin="zoomminus.mouseover" end="zoomminus.mouseout"/></use>
    <path d="M-4,0h8" fill="none" stroke="white" stroke-width="1.5" pointer-events="none"/>
  </g>
  <g id="arrowUp" transform="translate(30 24)">
    <use xlink:href="#rim"/>
    <path pointer-events="none" fill="none" stroke="white" stroke-width="1.5" d="M0,-3.0v7 M-2.5,-0.5L0,-3.0L2.5,-0.5"/>
  </g>
  <g id="arrowRight" transform="rotate(90) translate(36 -43)">
    <use xlink:href="#rim"/>
    <path pointer-events="none" fill="none" stroke="white" stroke-width="1.5" d="M0,-3.0v7 M-2.5,-0.5L0,-3.0L2.5,-0.5"/>
  </g>
  <g id="arrowDown" transform="rotate(180) translate(-30 -48)">
    <use xlink:href="#rim"/>
    <path pointer-events="none" fill="none" stroke="white" stroke-width="1.5" d="M0,-3.0v7 M-2.5,-0.5L0,-3.0L2.5,-0.5"/>
  </g>
  <g id="arrowLeft" transform="rotate(270) translate(-36 17)">
    <use xlink:href="#rim"/>
    <path pointer-events="none" fill="none" stroke="white" stroke-width="1.5" d="M0,-3.0v7 M-2.5,-0.5L0,-3.0L2.5,-0.5"/>
  </g>
  <g id="resetDef">
    <use xlink:href="#rim2" fill="#404040"><set attributeName="fill" to="#808080" begin="reset.mouseover" end="reset.mouseout"/></use>
  </g>
</defs>
<script type="application/ecmascript">
var viewWidth = 131;
var viewHeight = 746;
var sectionId = 'dynsection-0';
</script>
<script type="application/ecmascript" xlink:href="svg.min.js"/>
<svg id="graph" class="graph">
<g id="viewport">
<title>LZ77Decompressor</title>
<!-- Node1 -->
<g id="Node000001" class="node">
<title>Node1</title>
<g id="a_Node000001"><a xlink:title=" ">
<polygon fill="#999999" stroke="none" points="116.62,-62 6.38,-62 6.38,0 116.62,0 116.62,-62"/>
<text xml:space="preserve" text-anchor="start" x="18.38" y="-50.5" font-family="Helvetica,sans-Serif" font-size="10.00">LZ77Decompressor</text>
<text xml:space="preserve" text-anchor="start" x="60" y="-36" font-family="Helvetica,sans-Serif" font-size="10.00"> </text>
<text xml:space="preserve" text-anchor="start" x="10.38" y="-21.5" font-family="Helvetica,sans-Serif" font-size="10.00">+</text>
<text xml:space="preserve" text-anchor="start" x="20.38" y="-21.5" font-family="Helvetica,sans-Serif" font-size="10.00">LZ77Decompressor()</text>
<text xml:space="preserve" text-anchor="start" x="10.38" y="-7" font-family="Helvetica,sans-Serif" font-size="10.00">+</text>
<text xml:space="preserve" text-anchor="start" x="20.38" y="-7" font-family="Helvetica,sans-Serif" font-size="10.00">decompress()</text>
<polygon fill="#666666" stroke="#666666" points="6.38,-45.5 6.38,-45.5 116.62,-45.5 116.62,-45.5 6.38,-45.5"/>
<polygon fill="#666666" stroke="#666666" points="6.38,-31 6.38,-31 116.62,-31 116.62,-31 6.38,-31"/>
<polygon fill="none" stroke="#666666" points="6.38,0 6.38,-62 116.62,-62 116.62,0 6.38,0"/>
</a>
</g>
</g>
<!-- Node2 -->
<g id="Node000002" class="node">
<title>Node2</title>
<g id="a_Node000002"><a xlink:href="classLZ77Block.html" target="_top" xlink:title="Represents a block of data encoded by LZ77.">
<polygon fill="white" stroke="none" points="121.12,-379.5 1.88,-379.5 1.88,-114.5 121.12,-114.5 121.12,-379.5"/>
<text xml:space="preserve" text-anchor="start" x="37.88" y="-368" font-family="Helvetica,sans-Serif" font-size="10.00">LZ77Block</text>
<text xml:space="preserve" text-anchor="start" x="7.38" y="-353.5" font-family="Helvetica,sans-Serif" font-size="10.00">&#45;</text>
<text xml:space="preserve" text-anchor="start" x="15.88" y="-353.5" font-family="Helvetica,sans-Serif" font-size="10.00">compressed_length_</text>
<text xml:space="preserve" text-anchor="start" x="7.38" y="-339" font-family="Helvetica,sans-Serif" font-size="10.00">&#45;</text>
<text xml:space="preserve" text-anchor="start" x="15.88" y="-339" font-family="Helvetica,sans-Serif" font-size="10.00">uncompressed_length_</text>
<text xml:space="preserve" text-anchor="start" x="5.88" y="-324.5" font-family="Helvetica,sans-Serif" font-size="10.00">+</text>
<text xml:space="preserve" text-anchor="start" x="15.88" y="-324.5" font-family="Helvetica,sans-Serif" font-size="10.00">LZ77Block()</text>
<text xml:space="preserve" text-anchor="start" x="5.88" y="-310" font-family="Helvetica,sans-Serif" font-size="10.00">+</text>
<text xml:space="preserve" text-anchor="start" x="15.88" y="-310" font-family="Helvetica,sans-Serif" font-size="10.00">LZ77Block()</text>
<text xml:space="preserve" text-anchor="start" x="5.88" y="-295.5" font-family="Helvetica,sans-Serif" font-size="10.00">+</text>
<text xml:space="preserve" text-anchor="start" x="15.88" y="-295.5" font-family="Helvetica,sans-Serif" font-size="10.00">serialize()</text>
<text xml:space="preserve" text-anchor="start" x="5.88" y="-281" font-family="Helvetica,sans-Serif" font-size="10.00">+</text>
<text xml:space="preserve" text-anchor="start" x="15.88" y="-281" font-family="Helvetica,sans-Serif" font-size="10.00">write_to()</text>
<text xml:space="preserve" text-anchor="start" x="5.88" y="-266.5" font-family="Helvetica,sans-Serif" font-size="10.00">+</text>
<text xml:space="preserve" text-anchor="start" x="15.88" y="-266.5" font-family="Helvetica,sans-Serif" font-size="10.00">push_back()</text>
<text xml:space="preserve" text-anchor="start" x="5.88" y="-252" font-family="Helvetica,sans-Serif" font-size="10.00">+</text>
<text xml:space="preserve" text-anchor="start" x="15.88" y="-252" font-family="Helvetica,sans-Serif" font-size="10.00">clear()</text>
<text xml:space="preserve" text-anchor="start" x="5.88" y="-237.5" font-family="Helvetica,sans-Serif" font-size="10.00">+</text>
<text xml:space="preserve" text-anchor="start" x="15.88" y="-237.5" font-family="Helvetica,sans-Serif" font-size="10.00">reserve()</text>
<text xml:space="preserve" text-anchor="start" x="5.88" y="-223" font-family="Helvetica,sans-Serif" font-size="10.00">+</text>
<text xml:space="preserve" text-anchor="start" x="15.88" y="-223" font-family="Helvetica,sans-Serif" font-size="10.00">size()</text>
<text xml:space="preserve" text-anchor="start" x="5.88" y="-208.5" font-family="Helvetica,sans-Serif" font-size="10.00">+</text>
<text xml:space="preserve" text-anchor="start" x="15.88" y="-208.5" font-family="Helvetica,sans-Serif" font-size="10.00">size_bytes()</text>
<text xml:space="preserve" text-anchor="start" x="5.88" y="-194" font-family="Helvetica,sans-Serif" font-size="10.00">+</text>
<text xml:space="preserve" text-anchor="start" x="15.88" y="-194" font-family="Helvetica,sans-Serif" font-size="10.00">compressed_length()</text>
<text xml:space="preserve" text-anchor="start" x="5.88" y="-179.5" font-family="Helvetica,sans-Serif" font-size="10.00">+</text>
<text xml:space="preserve" text-anchor="start" x="15.88" y="-179.5" font-family="Helvetica,sans-Serif" font-size="10.00">uncompressed_length()</text>
<text xml:space="preserve" text-anchor="start" x="5.88" y="-165" font-family="Helvetica,sans-Serif" font-size="10.00">+</text>
<text xml:space="preserve" text-anchor="start" x="15.88" y="-165" font-family="Helvetica,sans-Serif" font-size="10.00">operator[]()</text>
<text xml:space="preserve" text-anchor="start" x="5.88" y="-150.5" font-family="Helvetica,sans-Serif" font-size="10.00">+</text>
<text xml:space="preserve" text-anchor="start" x="15.88" y="-150.5" font-family="Helvetica,sans-Serif" font-size="10.00">begin()</text>
<text xml:space="preserve" text-anchor="start" x="5.88" y="-136" font-family="Helvetica,sans-Serif" font-size="10.00">+</text>
<text xml:space="preserve" text-anchor="start" x="15.88" y="-136" font-family="Helvetica,sans-Serif" font-size="10.00">end()</text>
<text xml:space="preserve" text-anchor="start" x="5.88" y="-121.5" font-family="Helvetica,sans-Serif" font-size="10.00">+</text>
<text xml:space="preserve" text-anchor="start" x="15.88" y="-121.5" font-family="Helvetica,sans-Serif" font-size="10.00">operator[]()</text>
<polygon fill="#666666" stroke="#666666" points="1.88,-363 1.88,-363 121.12,-363 121.12,-363 1.88,-363"/>
<polygon fill="#666666" stroke="#666666" points="1.88,-334 1.88,-334 13.88,-334 13.88,-334 1.88,-334"/>
<polygon fill="#666666" stroke="#666666" points="13.88,-334 13.88,-334 121.12,-334 121.12,-334 13.88,-334"/>
<polygon fill="none" stroke="#666666" points="1.88,-114.5 1.88,-379.5 121.12,-379.5 121.12,-114.5 1.88,-114.5"/>
</a>
</g>
</g>
<!-- Node2&#45;&gt;Node1 -->
<g id="edge1_Node000001_Node000002" class="edge">
<title>Node2&#45;&gt;Node1</title>
<g id="a_edge1_Node000001_Node000002"><a xlink:title=" ">
<path fill="none" stroke="#63b8ff" d="M61.5,-114.74C61.5,-100.41 61.5,-86.69 61.5,-74.68"/>
<polygon fill="none" stroke="#63b8ff" points="61.5,-74.82 57.5,-68.82 61.5,-62.82 65.5,-68.82 61.5,-74.82"/>
</a>
</g>
<text xml:space="preserve" text-anchor="start" x="64.5" y="-86" font-family="Helvetica,sans-Serif" font-size="10.00" fill="grey">&#45;data_</text>
</g>
<!-- Node3 -->
<g id="Node000003" class="node">
<title>Node3</title>
<g id="a_Node000003"><a xlink:title=" ">
<polygon fill="white" stroke="none" points="110.12,-479.5 12.88,-479.5 12.88,-432 110.12,-432 110.12,-479.5"/>
<text xml:space="preserve" text-anchor="start" x="16.88" y="-468" font-family="Helvetica,sans-Serif" font-size="10.00">std::vector&lt; Token &gt;</text>
<text xml:space="preserve" text-anchor="start" x="60" y="-453.5" font-family="Helvetica,sans-Serif" font-size="10.00"> </text>
<text xml:space="preserve" text-anchor="start" x="60" y="-439" font-family="Helvetica,sans-Serif" font-size="10.00"> </text>
<polygon fill="#666666" stroke="#666666" points="12.88,-463 12.88,-463 110.12,-463 110.12,-463 12.88,-463"/>
<polygon fill="#666666" stroke="#666666" points="12.88,-448.5 12.88,-448.5 110.12,-448.5 110.12,-448.5 12.88,-448.5"/>
<polygon fill="none" stroke="#666666" points="12.88,-432 12.88,-479.5 110.12,-479.5 110.12,-432 12.88,-432"/>
</a>
</g>
</g>
<!-- Node3&#45;&gt;Node2 -->
<g id="edge2_Node000002_Node000003" class="edge">
<title>Node3&#45;&gt;Node2</title>
<g id="a_edge2_Node000002_Node000003"><a xlink:title=" ">
<path fill="none" stroke="#63b8ff" d="M61.5,-432.23C61.5,-421.41 61.5,-407.45 61.5,-392.06"/>
<polygon fill="none" stroke="#63b8ff" points="61.5,-392.35 57.5,-386.35 61.5,-380.35 65.5,-386.35 61.5,-392.35"/>
</a>
</g>
<text xml:space="preserve" text-anchor="start" x="64.5" y="-403.5" font-family="Helvetica,sans-Serif" font-size="10.00" fill="grey">&#45;block</text>
</g>
<!-- Node4 -->
<g id="Node000004" class="node">
<title>Node4</title>
<g id="a_Node000004"><a xlink:href="structToken.html" target="_top" xlink:title="This is the type LZ77 will output.">
<polygon fill="white" stroke="none" points="91.12,-594 31.88,-594 31.88,-532 91.12,-532 91.12,-594"/>
<text xml:space="preserve" text-anchor="start" x="48.75" y="-582.5" font-family="Helvetica,sans-Serif" font-size="10.00">Token</text>
<text xml:space="preserve" text-anchor="start" x="35.88" y="-568" font-family="Helvetica,sans-Serif" font-size="10.00">+</text>
<text xml:space="preserve" text-anchor="start" x="45.88" y="-568" font-family="Helvetica,sans-Serif" font-size="10.00">offset</text>
<text xml:space="preserve" text-anchor="start" x="35.88" y="-553.5" font-family="Helvetica,sans-Serif" font-size="10.00">+</text>
<text xml:space="preserve" text-anchor="start" x="45.88" y="-553.5" font-family="Helvetica,sans-Serif" font-size="10.00">length</text>
<text xml:space="preserve" text-anchor="start" x="35.88" y="-539" font-family="Helvetica,sans-Serif" font-size="10.00">+</text>
<text xml:space="preserve" text-anchor="start" x="45.88" y="-539" font-family="Helvetica,sans-Serif" font-size="10.00">serialize()</text>
<polygon fill="#666666" stroke="#666666" points="31.88,-577.5 31.88,-577.5 91.12,-577.5 91.12,-577.5 31.88,-577.5"/>
<polygon fill="#666666" stroke="#666666" points="31.88,-548.5 31.88,-548.5 43.88,-548.5 43.88,-548.5 31.88,-548.5"/>
<polygon fill="#666666" stroke="#666666" points="43.88,-548.5 43.88,-548.5 91.12,-548.5 91.12,-548.5 43.88,-548.5"/>
<polygon fill="none" stroke="#666666" points="31.88,-532 31.88,-594 91.12,-594 91.12,-532 31.88,-532"/>
</a>
</g>
</g>
<!-- Node4&#45;&gt;Node3 -->
<g id="edge3_Node000003_Node000004" class="edge">
<title>Node4&#45;&gt;Node3</title>
<g id="a_edge3_Node000003_Node000004"><a xlink:title=" ">
<path fill="none" stroke="#63b8ff" d="M61.5,-532.12C61.5,-519.67 61.5,-505.12 61.5,-492.14"/>
<polygon fill="none" stroke="#63b8ff" points="61.5,-492.24 57.5,-486.24 61.5,-480.24 65.5,-486.24 61.5,-492.24"/>
</a>
</g>
<text xml:space="preserve" text-anchor="start" x="64.5" y="-503.5" font-family="Helvetica,sans-Serif" font-size="10.00" fill="grey">+elements</text>
</g>
<!-- Node5 -->
<g id="Node000005" class="node">
<title>Node5</title>
<g id="a_Node000005"><a xlink:href="structSym.html" target="_top" xlink:title=" ">
<polygon fill="white" stroke="none" points="123,-737.5 0,-737.5 0,-646.5 123,-646.5 123,-737.5"/>
<text xml:space="preserve" text-anchor="start" x="51.38" y="-726" font-family="Helvetica,sans-Serif" font-size="10.00">Sym</text>
<text xml:space="preserve" text-anchor="start" x="4" y="-711.5" font-family="Helvetica,sans-Serif" font-size="10.00">+</text>
<text xml:space="preserve" text-anchor="start" x="14" y="-711.5" font-family="Helvetica,sans-Serif" font-size="10.00">value</text>
<text xml:space="preserve" text-anchor="start" x="4" y="-697" font-family="Helvetica,sans-Serif" font-size="10.00">+</text>
<text xml:space="preserve" text-anchor="start" x="14" y="-697" font-family="Helvetica,sans-Serif" font-size="10.00">operator unsigned char()</text>
<text xml:space="preserve" text-anchor="start" x="4" y="-682.5" font-family="Helvetica,sans-Serif" font-size="10.00">+</text>
<text xml:space="preserve" text-anchor="start" x="14" y="-682.5" font-family="Helvetica,sans-Serif" font-size="10.00">operator&lt;=&gt;()</text>
<text xml:space="preserve" text-anchor="start" x="4" y="-668" font-family="Helvetica,sans-Serif" font-size="10.00">+</text>
<text xml:space="preserve" text-anchor="start" x="14" y="-668" font-family="Helvetica,sans-Serif" font-size="10.00">max()</text>
<text xml:space="preserve" text-anchor="start" x="4" y="-653.5" font-family="Helvetica,sans-Serif" font-size="10.00">+</text>
<text xml:space="preserve" text-anchor="start" x="14" y="-653.5" font-family="Helvetica,sans-Serif" font-size="10.00">alphabet_size()</text>
<polygon fill="#666666" stroke="#666666" points="0,-721 0,-721 123,-721 123,-721 0,-721"/>
<polygon fill="#666666" stroke="#666666" points="0,-706.5 0,-706.5 12,-706.5 12,-706.5 0,-706.5"/>
<polygon fill="#666666" stroke="#666666" points="12,-706.5 12,-706.5 123,-706.5 123,-706.5 12,-706.5"/>
<polygon fill="none" stroke="#666666" points="0,-646.5 0,-737.5 123,-737.5 123,-646.5 0,-646.5"/>
</a>
</g>
</g>
<!-- Node5&#45;&gt;Node4 -->
<g id="edge4_Node000004_Node000005" class="edge">
<title>Node5&#45;&gt;Node4</title>
<g id="a_edge4_Node000004_Node000005"><a xlink:title=" ">
<path fill="none" stroke="#63b8ff" d="M61.5,-646.58C61.5,-633.63 61.5,-619.51 61.5,-606.66"/>
<polygon fill="none" stroke="#63b8ff" points="61.5,-606.75 57.5,-600.75 61.5,-594.75 65.5,-600.75 61.5,-606.75"/>
</a>
</g>
<text xml:space="preserve" text-anchor="start" x="64.5" y="-618" font-family="Helvetica,sans-Serif" font-size="10.00" fill="grey">+symbol</text>
</g>
</g>
</svg>

<g id="navigator" transform="translate(0 0)" fill="#404254">
  <rect fill="#f2f5e9" fill-opacity="0.5" stroke="#606060" stroke-width=".5" x="0" y="0" width="60" height="60"/>
  <use id="zoomplus" xlink:href="#zoomPlus" x="17" y="9" onmousedown="handleZoom(evt,'in')"/>
  <use id="zoomminus" xlink:href="#zoomMin" x="42" y="9" onmousedown="handleZoom(evt,'out')"/>
  <use id="reset" xlink:href="#resetDef" x="30" y="36" onmousedown="handleReset()"/>
   <use id="arrowup" xlink:href="#arrowUp" x="0" y="0" onmousedown="handlePan(0,-1)"/>
  <use id="arrowright" xlink:href="#arrowRight" x="0" y="0" onmousedown="handlePan(1,0)"/>
  <use id="arrowdown" xlink:href="#arrowDown" x="0" y="0" onmousedown="handlePan(0,1)"/>
  <use id="arrowleft" xlink:href="#arrowLeft" x="0" y="0" onmousedown="handlePan(-1,0)"/>
</g>
<svg viewBox="0 0 15 15" width="100%" height="30px" preserveAspectRatio="xMaxYMin meet">
 <g id="arrow_out" transform="scale(0.3 0.3)">
  <a xlink:href="classLZ77Decompressor__coll__graph_org.svg" target="_base">
   <rect id="button" ry="5" rx="5" y="6" x="6" height="38" width="38"
        fill="#f2f5e9" fill-opacity="0.5" stroke="#606060" stroke-width="1.0"/>
   <path id="arrow"
     d="M 11.500037,31.436501 C 11.940474,20.09759 22.043105,11.32322 32.158766,21.979434 L 37.068811,17.246167 C 37.068811,17.246167 37.088388,32 37.088388,32 L 22.160133,31.978069 C 22.160133,31.978069 26.997745,27.140456 26.997745,27.140456 C 18.528582,18.264221 13.291696,25.230495 11.500037,31.436501 z"
     style="fill:#404040;"/>
  </a>
 </g>
</svg>

<style type='text/css'>
<![CDATA[
[data-mouse-over-selected='false'] { opacity: 0.7; }
[data-mouse-over-selected='true']  { opacity: 1.0; }
]]>
</style>
<script type="application/ecmascript"><![CDATA[
document.addEventListener('DOMContentLoaded', (event) => {
  highlightEdges();
  highlightAdjacentNodes();
});
]]></script>
</svg>
