<?xml version="1.0" encoding="UTF-8" standalone="no"?>
<!DOCTYPE svg PUBLIC "-//W3C//DTD SVG 1.1//EN"
 "http://www.w3.org/Graphics/SVG/1.1/DTD/svg11.dtd">
<!-- Generated by graphviz version 14.1.5 (20260411.2331)
 -->
<!-- Title: alg::Rabin::find_pattern Pages: 1 -->
<svg width="281pt" height="128pt"
 viewBox="0.00 0.00 281.00 128.00" xmlns="http://www.w3.org/2000/svg" xmlns:xlink="http://www.w3.org/1999/xlink">
<g id="graph0" class="graph" transform="scale(1 1) rotate(0) translate(4 124)">
<title>alg::Rabin::find_pattern</title>
<!-- Node1 -->
<g id="Node000001" class="node">
<title>Node1</title>
<g id="a_Node000001"><a xlink:title="Find the biggest pattern between the look ahead buffer and search buffer.">
<polygon fill="#999999" stroke="#666666" points="117.25,-70 0,-70 0,-50 117.25,-50 117.25,-70"/>
<text xml:space="preserve" text-anchor="middle" x="58.62" y="-56.5" font-family="Helvetica,sans-Serif" font-size="10.00">alg::Rabin::find_pattern</text>
</a>
</g>
</g>
<!-- Node2 -->
<g id="Node000002" class="node">
<title>Node2</title>
<g id="a_Node000002"><a xlink:href="classalg_1_1_rabin.html#a72778b4f5a658ef5f0f65b6bf2dac96f" target="_top" xlink:title=" ">
<polygon fill="white" stroke="#666666" points="260.75,-120 165.25,-120 165.25,-88 260.75,-88 260.75,-120"/>
<text xml:space="preserve" text-anchor="start" x="173.25" y="-106.5" font-family="Helvetica,sans-Serif" font-size="10.00">alg::Rabin::bucket</text>
<text xml:space="preserve" text-anchor="middle" x="213" y="-94.5" font-family="Helvetica,sans-Serif" font-size="10.00">_index</text>
</a>
</g>
</g>
<!-- Node1&#45;&gt;Node2 -->
<g id="edge1_Node000001_Node000002" class="edge">
<title>Node1&#45;&gt;Node2</title>
<g id="a_edge1_Node000001_Node000002"><a xlink:title=" ">
<path fill="none" stroke="#63b8ff" d="M95.74,-70.43C113.11,-75.44 134.36,-81.58 153.92,-87.23"/>
<polygon fill="#63b8ff" stroke="#63b8ff" points="152.86,-90.57 163.44,-89.98 154.8,-83.84 152.86,-90.57"/>
</a>
</g>
</g>
<!-- Node3 -->
<g id="Node000003" class="node">
<title>Node3</title>
<g id="a_Node000003"><a xlink:href="utils_8cppm.html#a218f468a60030dfa683e2e92f63e3324" target="_top" xlink:title=" ">
<polygon fill="white" stroke="#666666" points="247.25,-70 178.75,-70 178.75,-50 247.25,-50 247.25,-70"/>
<text xml:space="preserve" text-anchor="middle" x="213" y="-56.5" font-family="Helvetica,sans-Serif" font-size="10.00">count_equal</text>
</a>
</g>
</g>
<!-- Node1&#45;&gt;Node3 -->
<g id="edge2_Node000001_Node000003" class="edge">
<title>Node1&#45;&gt;Node3</title>
<g id="a_edge2_Node000001_Node000003"><a xlink:title=" ">
<path fill="none" stroke="#63b8ff" d="M117.67,-60C134.02,-60 151.56,-60 167.02,-60"/>
<polygon fill="#63b8ff" stroke="#63b8ff" points="166.87,-63.5 176.87,-60 166.87,-56.5 166.87,-63.5"/>
</a>
</g>
</g>
<!-- Node4 -->
<g id="Node000004" class="node">
<title>Node4</title>
<g id="a_Node000004"><a xlink:href="classalg_1_1_rabin.html#a07a4f8f848f5fe3e55b406b486c3a0fd" target="_top" xlink:title=" ">
<polygon fill="white" stroke="#666666" points="272.75,-32 153.25,-32 153.25,0 272.75,0 272.75,-32"/>
<text xml:space="preserve" text-anchor="start" x="161.25" y="-18.5" font-family="Helvetica,sans-Serif" font-size="10.00">alg::Rabin::prev_bucket</text>
<text xml:space="preserve" text-anchor="middle" x="213" y="-6.5" font-family="Helvetica,sans-Serif" font-size="10.00">_index</text>
</a>
</g>
</g>
<!-- Node1&#45;&gt;Node4 -->
<g id="edge3_Node000001_Node000004" class="edge">
<title>Node1&#45;&gt;Node4</title>
<g id="a_edge3_Node000001_Node000004"><a xlink:title=" ">
<path fill="none" stroke="#63b8ff" d="M95.74,-49.57C110.25,-45.38 127.47,-40.41 144.15,-35.59"/>
<polygon fill="#63b8ff" stroke="#63b8ff" points="144.91,-39.02 153.55,-32.88 142.97,-32.29 144.91,-39.02"/>
</a>
</g>
</g>
</g>
</svg>
