<?xml version="1.0" encoding="UTF-8" standalone="no"?>
<!DOCTYPE svg PUBLIC "-//W3C//DTD SVG 1.1//EN"
 "http://www.w3.org/Graphics/SVG/1.1/DTD/svg11.dtd">
<!-- Generated by graphviz version 14.1.4 (20260321.0153)
 -->
<!-- Title: LZ77Block Pages: 1 -->
<svg width="131pt" height="631pt"
 viewBox="0.00 0.00 131.00 631.00" xmlns="http://www.w3.org/2000/svg" xmlns:xlink="http://www.w3.org/1999/xlink">
<g id="graph0" class="graph" transform="scale(1 1) rotate(0) translate(4 627)">
<title>LZ77Block</title>
<!-- Node1 -->
<g id="Node000001" class="node">
<title>Node1</title>
<g id="a_Node000001"><a xlink:title="Represents a block of data encoded by LZ77.">
<polygon fill="#999999" stroke="none" points="121.12,-265 1.88,-265 1.88,0 121.12,0 121.12,-265"/>
<text xml:space="preserve" text-anchor="start" x="37.88" y="-253.5" font-family="Helvetica,sans-Serif" font-size="10.00">LZ77Block</text>
<text xml:space="preserve" text-anchor="start" x="7.38" y="-239" font-family="Helvetica,sans-Serif" font-size="10.00">&#45;</text>
<text xml:space="preserve" text-anchor="start" x="15.88" y="-239" font-family="Helvetica,sans-Serif" font-size="10.00">compressed_length_</text>
<text xml:space="preserve" text-anchor="start" x="7.38" y="-224.5" font-family="Helvetica,sans-Serif" font-size="10.00">&#45;</text>
<text xml:space="preserve" text-anchor="start" x="15.88" y="-224.5" font-family="Helvetica,sans-Serif" font-size="10.00">uncompressed_length_</text>
<text xml:space="preserve" text-anchor="start" x="5.88" y="-210" font-family="Helvetica,sans-Serif" font-size="10.00">+</text>
<text xml:space="preserve" text-anchor="start" x="15.88" y="-210" font-family="Helvetica,sans-Serif" font-size="10.00">LZ77Block()</text>
<text xml:space="preserve" text-anchor="start" x="5.88" y="-195.5" font-family="Helvetica,sans-Serif" font-size="10.00">+</text>
<text xml:space="preserve" text-anchor="start" x="15.88" y="-195.5" font-family="Helvetica,sans-Serif" font-size="10.00">LZ77Block()</text>
<text xml:space="preserve" text-anchor="start" x="5.88" y="-181" font-family="Helvetica,sans-Serif" font-size="10.00">+</text>
<text xml:space="preserve" text-anchor="start" x="15.88" y="-181" font-family="Helvetica,sans-Serif" font-size="10.00">serialize()</text>
<text xml:space="preserve" text-anchor="start" x="5.88" y="-166.5" font-family="Helvetica,sans-Serif" font-size="10.00">+</text>
<text xml:space="preserve" text-anchor="start" x="15.88" y="-166.5" font-family="Helvetica,sans-Serif" font-size="10.00">write_to()</text>
<text xml:space="preserve" text-anchor="start" x="5.88" y="-152" font-family="Helvetica,sans-Serif" font-size="10.00">+</text>
<text xml:space="preserve" text-anchor="start" x="15.88" y="-152" font-family="Helvetica,sans-Serif" font-size="10.00">push_back()</text>
<text xml:space="preserve" text-anchor="start" x="5.88" y="-137.5" font-family="Helvetica,sans-Serif" font-size="10.00">+</text>
<text xml:space="preserve" text-anchor="start" x="15.88" y="-137.5" font-family="Helvetica,sans-Serif" font-size="10.00">clear()</text>
<text xml:space="preserve" text-anchor="start" x="5.88" y="-123" font-family="Helvetica,sans-Serif" font-size="10.00">+</text>
<text xml:space="preserve" text-anchor="start" x="15.88" y="-123" font-family="Helvetica,sans-Serif" font-size="10.00">reserve()</text>
<text xml:space="preserve" text-anchor="start" x="5.88" y="-108.5" font-family="Helvetica,sans-Serif" font-size="10.00">+</text>
<text xml:space="preserve" text-anchor="start" x="15.88" y="-108.5" font-family="Helvetica,sans-Serif" font-size="10.00">size()</text>
<text xml:space="preserve" text-anchor="start" x="5.88" y="-94" font-family="Helvetica,sans-Serif" font-size="10.00">+</text>
<text xml:space="preserve" text-anchor="start" x="15.88" y="-94" font-family="Helvetica,sans-Serif" font-size="10.00">size_bytes()</text>
<text xml:space="preserve" text-anchor="start" x="5.88" y="-79.5" font-family="Helvetica,sans-Serif" font-size="10.00">+</text>
<text xml:space="preserve" text-anchor="start" x="15.88" y="-79.5" font-family="Helvetica,sans-Serif" font-size="10.00">compressed_length()</text>
<text xml:space="preserve" text-anchor="start" x="5.88" y="-65" font-family="Helvetica,sans-Serif" font-size="10.00">+</text>
<text xml:space="preserve" text-anchor="start" x="15.88" y="-65" font-family="Helvetica,sans-Serif" font-size="10.00">uncompressed_length()</text>
<text xml:space="preserve" text-anchor="start" x="5.88" y="-50.5" font-family="Helvetica,sans-Serif" font-size="10.00">+</text>
<text xml:space="preserve" text-anchor="start" x="15.88" y="-50.5" font-family="Helvetica,sans-Serif" font-size="10.00">operator[]()</text>
<text xml:space="preserve" text-anchor="start" x="5.88" y="-36" font-family="Helvetica,sans-Serif" font-size="10.00">+</text>
<text xml:space="preserve" text-anchor="start" x="15.88" y="-36" font-family="Helvetica,sans-Serif" font-size="10.00">begin()</text>
<text xml:space="preserve" text-anchor="start" x="5.88" y="-21.5" font-family="Helvetica,sans-Serif" font-size="10.00">+</text>
<text xml:space="preserve" text-anchor="start" x="15.88" y="-21.5" font-family="Helvetica,sans-Serif" font-size="10.00">end()</text>
<text xml:space="preserve" text-anchor="start" x="5.88" y="-7" font-family="Helvetica,sans-Serif" font-size="10.00">+</text>
<text xml:space="preserve" text-anchor="start" x="15.88" y="-7" font-family="Helvetica,sans-Serif" font-size="10.00">operator[]()</text>
<polygon fill="#666666" stroke="#666666" points="1.88,-248.5 1.88,-248.5 121.12,-248.5 121.12,-248.5 1.88,-248.5"/>
<polygon fill="#666666" stroke="#666666" points="1.88,-219.5 1.88,-219.5 13.88,-219.5 13.88,-219.5 1.88,-219.5"/>
<polygon fill="#666666" stroke="#666666" points="13.88,-219.5 13.88,-219.5 121.12,-219.5 121.12,-219.5 13.88,-219.5"/>
<polygon fill="none" stroke="#666666" points="1.88,0 1.88,-265 121.12,-265 121.12,0 1.88,0"/>
</a>
</g>
</g>
<!-- Node2 -->
<g id="Node000002" class="node">
<title>Node2</title>
<g id="a_Node000002"><a xlink:title=" ">
<polygon fill="white" stroke="none" points="110.12,-365 12.88,-365 12.88,-317.5 110.12,-317.5 110.12,-365"/>
<text xml:space="preserve" text-anchor="start" x="16.88" y="-353.5" font-family="Helvetica,sans-Serif" font-size="10.00">std::vector&lt; Token &gt;</text>
<text xml:space="preserve" text-anchor="start" x="60" y="-339" font-family="Helvetica,sans-Serif" font-size="10.00"> </text>
<text xml:space="preserve" text-anchor="start" x="60" y="-324.5" font-family="Helvetica,sans-Serif" font-size="10.00"> </text>
<polygon fill="#666666" stroke="#666666" points="12.88,-348.5 12.88,-348.5 110.12,-348.5 110.12,-348.5 12.88,-348.5"/>
<polygon fill="#666666" stroke="#666666" points="12.88,-334 12.88,-334 110.12,-334 110.12,-334 12.88,-334"/>
<polygon fill="none" stroke="#666666" points="12.88,-317.5 12.88,-365 110.12,-365 110.12,-317.5 12.88,-317.5"/>
</a>
</g>
</g>
<!-- Node2&#45;&gt;Node1 -->
<g id="edge1_Node000001_Node000002" class="edge">
<title>Node2&#45;&gt;Node1</title>
<g id="a_edge1_Node000001_Node000002"><a xlink:title=" ">
<path fill="none" stroke="#63b8ff" d="M61.5,-317.73C61.5,-306.91 61.5,-292.95 61.5,-277.56"/>
<polygon fill="none" stroke="#63b8ff" points="61.5,-277.85 57.5,-271.85 61.5,-265.85 65.5,-271.85 61.5,-277.85"/>
</a>
</g>
<text xml:space="preserve" text-anchor="start" x="64.5" y="-289" font-family="Helvetica,sans-Serif" font-size="10.00" fill="grey">&#45;block</text>
</g>
<!-- Node3 -->
<g id="Node000003" class="node">
<title>Node3</title>
<g id="a_Node000003"><a xlink:href="structToken.html" target="_top" xlink:title="This is the type LZ77 will output.">
<polygon fill="white" stroke="none" points="91.12,-479.5 31.88,-479.5 31.88,-417.5 91.12,-417.5 91.12,-479.5"/>
<text xml:space="preserve" text-anchor="start" x="48.75" y="-468" font-family="Helvetica,sans-Serif" font-size="10.00">Token</text>
<text xml:space="preserve" text-anchor="start" x="35.88" y="-453.5" font-family="Helvetica,sans-Serif" font-size="10.00">+</text>
<text xml:space="preserve" text-anchor="start" x="45.88" y="-453.5" font-family="Helvetica,sans-Serif" font-size="10.00">offset</text>
<text xml:space="preserve" text-anchor="start" x="35.88" y="-439" font-family="Helvetica,sans-Serif" font-size="10.00">+</text>
<text xml:space="preserve" text-anchor="start" x="45.88" y="-439" font-family="Helvetica,sans-Serif" font-size="10.00">length</text>
<text xml:space="preserve" text-anchor="start" x="35.88" y="-424.5" font-family="Helvetica,sans-Serif" font-size="10.00">+</text>
<text xml:space="preserve" text-anchor="start" x="45.88" y="-424.5" font-family="Helvetica,sans-Serif" font-size="10.00">serialize()</text>
<polygon fill="#666666" stroke="#666666" points="31.88,-463 31.88,-463 91.12,-463 91.12,-463 31.88,-463"/>
<polygon fill="#666666" stroke="#666666" points="31.88,-434 31.88,-434 43.88,-434 43.88,-434 31.88,-434"/>
<polygon fill="#666666" stroke="#666666" points="43.88,-434 43.88,-434 91.12,-434 91.12,-434 43.88,-434"/>
<polygon fill="none" stroke="#666666" points="31.88,-417.5 31.88,-479.5 91.12,-479.5 91.12,-417.5 31.88,-417.5"/>
</a>
</g>
</g>
<!-- Node3&#45;&gt;Node2 -->
<g id="edge2_Node000002_Node000003" class="edge">
<title>Node3&#45;&gt;Node2</title>
<g id="a_edge2_Node000002_Node000003"><a xlink:title=" ">
<path fill="none" stroke="#63b8ff" d="M61.5,-417.62C61.5,-405.17 61.5,-390.62 61.5,-377.64"/>
<polygon fill="none" stroke="#63b8ff" points="61.5,-377.74 57.5,-371.74 61.5,-365.74 65.5,-371.74 61.5,-377.74"/>
</a>
</g>
<text xml:space="preserve" text-anchor="start" x="64.5" y="-389" font-family="Helvetica,sans-Serif" font-size="10.00" fill="grey">+elements</text>
</g>
<!-- Node4 -->
<g id="Node000004" class="node">
<title>Node4</title>
<g id="a_Node000004"><a xlink:href="structSym.html" target="_top" xlink:title=" ">
<polygon fill="white" stroke="none" points="123,-623 0,-623 0,-532 123,-532 123,-623"/>
<text xml:space="preserve" text-anchor="start" x="51.38" y="-611.5" font-family="Helvetica,sans-Serif" font-size="10.00">Sym</text>
<text xml:space="preserve" text-anchor="start" x="4" y="-597" font-family="Helvetica,sans-Serif" font-size="10.00">+</text>
<text xml:space="preserve" text-anchor="start" x="14" y="-597" font-family="Helvetica,sans-Serif" font-size="10.00">value</text>
<text xml:space="preserve" text-anchor="start" x="4" y="-582.5" font-family="Helvetica,sans-Serif" font-size="10.00">+</text>
<text xml:space="preserve" text-anchor="start" x="14" y="-582.5" font-family="Helvetica,sans-Serif" font-size="10.00">operator unsigned char()</text>
<text xml:space="preserve" text-anchor="start" x="4" y="-568" font-family="Helvetica,sans-Serif" font-size="10.00">+</text>
<text xml:space="preserve" text-anchor="start" x="14" y="-568" font-family="Helvetica,sans-Serif" font-size="10.00">operator&lt;=&gt;()</text>
<text xml:space="preserve" text-anchor="start" x="4" y="-553.5" font-family="Helvetica,sans-Serif" font-size="10.00">+</text>
<text xml:space="preserve" text-anchor="start" x="14" y="-553.5" font-family="Helvetica,sans-Serif" font-size="10.00">max()</text>
<text xml:space="preserve" text-anchor="start" x="4" y="-539" font-family="Helvetica,sans-Serif" font-size="10.00">+</text>
<text xml:space="preserve" text-anchor="start" x="14" y="-539" font-family="Helvetica,sans-Serif" font-size="10.00">alphabet_size()</text>
<polygon fill="#666666" stroke="#666666" points="0,-606.5 0,-606.5 123,-606.5 123,-606.5 0,-606.5"/>
<polygon fill="#666666" stroke="#666666" points="0,-592 0,-592 12,-592 12,-592 0,-592"/>
<polygon fill="#666666" stroke="#666666" points="12,-592 12,-592 123,-592 123,-592 12,-592"/>
<polygon fill="none" stroke="#666666" points="0,-532 0,-623 123,-623 123,-532 0,-532"/>
</a>
</g>
</g>
<!-- Node4&#45;&gt;Node3 -->
<g id="edge3_Node000003_Node000004" class="edge">
<title>Node4&#45;&gt;Node3</title>
<g id="a_edge3_Node000003_Node000004"><a xlink:title=" ">
<path fill="none" stroke="#63b8ff" d="M61.5,-532.08C61.5,-519.13 61.5,-505.01 61.5,-492.16"/>
<polygon fill="none" stroke="#63b8ff" points="61.5,-492.25 57.5,-486.25 61.5,-480.25 65.5,-486.25 61.5,-492.25"/>
</a>
</g>
<text xml:space="preserve" text-anchor="start" x="64.5" y="-503.5" font-family="Helvetica,sans-Serif" font-size="10.00" fill="grey">+symbol</text>
</g>
</g>
</svg>
