<?xml version="1.0" encoding="UTF-8" standalone="no"?>
<!DOCTYPE svg PUBLIC "-//W3C//DTD SVG 1.1//EN"
 "http://www.w3.org/Graphics/SVG/1.1/DTD/svg11.dtd">
<!-- Generated by graphviz version 14.1.4 (20260321.0153)
 -->
<!-- Title: LZ77Compressor Pages: 1 -->
<svg width="283pt" height="932pt"
 viewBox="0.00 0.00 283.00 932.00" xmlns="http://www.w3.org/2000/svg" xmlns:xlink="http://www.w3.org/1999/xlink">
<g id="graph0" class="graph" transform="scale(1 1) rotate(0) translate(4 928)">
<title>LZ77Compressor</title>
<!-- Node1 -->
<g id="Node000001" class="node">
<title>Node1</title>
<g id="a_Node000001"><a xlink:title=" ">
<polygon fill="#999999" stroke="none" points="154.75,-62 55,-62 55,0 154.75,0 154.75,-62"/>
<text xml:space="preserve" text-anchor="start" x="67" y="-50.5" font-family="Helvetica,sans-Serif" font-size="10.00">LZ77Compressor</text>
<text xml:space="preserve" text-anchor="start" x="103.38" y="-36" font-family="Helvetica,sans-Serif" font-size="10.00"> </text>
<text xml:space="preserve" text-anchor="start" x="59" y="-21.5" font-family="Helvetica,sans-Serif" font-size="10.00">+</text>
<text xml:space="preserve" text-anchor="start" x="69" y="-21.5" font-family="Helvetica,sans-Serif" font-size="10.00">LZ77Compressor()</text>
<text xml:space="preserve" text-anchor="start" x="59" y="-7" font-family="Helvetica,sans-Serif" font-size="10.00">+</text>
<text xml:space="preserve" text-anchor="start" x="69" y="-7" font-family="Helvetica,sans-Serif" font-size="10.00">compress()</text>
<polygon fill="#666666" stroke="#666666" points="55,-45.5 55,-45.5 154.75,-45.5 154.75,-45.5 55,-45.5"/>
<polygon fill="#666666" stroke="#666666" points="55,-31 55,-31 154.75,-31 154.75,-31 55,-31"/>
<polygon fill="none" stroke="#666666" points="55,0 55,-62 154.75,-62 154.75,0 55,0"/>
</a>
</g>
</g>
<!-- Node2 -->
<g id="Node000002" class="node">
<title>Node2</title>
<g id="a_Node000002"><a xlink:title=" ">
<polygon fill="white" stroke="none" points="113.75,-715 0,-715 0,-667.5 113.75,-667.5 113.75,-715"/>
<text xml:space="preserve" text-anchor="start" x="4" y="-703.5" font-family="Helvetica,sans-Serif" font-size="10.00">std::span&lt; Sym const &gt;</text>
<text xml:space="preserve" text-anchor="start" x="55.38" y="-689" font-family="Helvetica,sans-Serif" font-size="10.00"> </text>
<text xml:space="preserve" text-anchor="start" x="55.38" y="-674.5" font-family="Helvetica,sans-Serif" font-size="10.00"> </text>
<polygon fill="#666666" stroke="#666666" points="0,-698.5 0,-698.5 113.75,-698.5 113.75,-698.5 0,-698.5"/>
<polygon fill="#666666" stroke="#666666" points="0,-684 0,-684 113.75,-684 113.75,-684 0,-684"/>
<polygon fill="none" stroke="#666666" points="0,-667.5 0,-715 113.75,-715 113.75,-667.5 0,-667.5"/>
</a>
</g>
</g>
<!-- Node2&#45;&gt;Node1 -->
<g id="edge1_Node000001_Node000002" class="edge">
<title>Node2&#45;&gt;Node1</title>
<g id="a_edge1_Node000001_Node000002"><a xlink:title=" ">
<path fill="none" stroke="#63b8ff" d="M58.13,-667.61C60.97,-616.9 68.24,-490.33 75.88,-384.5 85.64,-249.06 89.68,-215.33 100.88,-80 101.02,-78.27 101.16,-76.5 101.31,-74.72"/>
<polygon fill="none" stroke="#63b8ff" points="101.3,-74.81 97.82,-68.5 102.3,-62.86 105.79,-69.17 101.3,-74.81"/>
</a>
</g>
<text xml:space="preserve" text-anchor="start" x="81.16" y="-356" font-family="Helvetica,sans-Serif" font-size="10.00" fill="grey">&#45;data_</text>
</g>
<!-- Node3 -->
<g id="Node000003" class="node">
<title>Node3</title>
<g id="a_Node000003"><a xlink:href="structSym.html" target="_top" xlink:title=" ">
<polygon fill="white" stroke="none" points="155.38,-924 32.38,-924 32.38,-833 155.38,-833 155.38,-924"/>
<text xml:space="preserve" text-anchor="start" x="83.75" y="-912.5" font-family="Helvetica,sans-Serif" font-size="10.00">Sym</text>
<text xml:space="preserve" text-anchor="start" x="36.38" y="-898" font-family="Helvetica,sans-Serif" font-size="10.00">+</text>
<text xml:space="preserve" text-anchor="start" x="46.38" y="-898" font-family="Helvetica,sans-Serif" font-size="10.00">value</text>
<text xml:space="preserve" text-anchor="start" x="36.38" y="-883.5" font-family="Helvetica,sans-Serif" font-size="10.00">+</text>
<text xml:space="preserve" text-anchor="start" x="46.38" y="-883.5" font-family="Helvetica,sans-Serif" font-size="10.00">operator unsigned char()</text>
<text xml:space="preserve" text-anchor="start" x="36.38" y="-869" font-family="Helvetica,sans-Serif" font-size="10.00">+</text>
<text xml:space="preserve" text-anchor="start" x="46.38" y="-869" font-family="Helvetica,sans-Serif" font-size="10.00">operator&lt;=&gt;()</text>
<text xml:space="preserve" text-anchor="start" x="36.38" y="-854.5" font-family="Helvetica,sans-Serif" font-size="10.00">+</text>
<text xml:space="preserve" text-anchor="start" x="46.38" y="-854.5" font-family="Helvetica,sans-Serif" font-size="10.00">max()</text>
<text xml:space="preserve" text-anchor="start" x="36.38" y="-840" font-family="Helvetica,sans-Serif" font-size="10.00">+</text>
<text xml:space="preserve" text-anchor="start" x="46.38" y="-840" font-family="Helvetica,sans-Serif" font-size="10.00">alphabet_size()</text>
<polygon fill="#666666" stroke="#666666" points="32.38,-907.5 32.38,-907.5 155.38,-907.5 155.38,-907.5 32.38,-907.5"/>
<polygon fill="#666666" stroke="#666666" points="32.38,-893 32.38,-893 44.38,-893 44.38,-893 32.38,-893"/>
<polygon fill="#666666" stroke="#666666" points="44.38,-893 44.38,-893 155.38,-893 155.38,-893 44.38,-893"/>
<polygon fill="none" stroke="#666666" points="32.38,-833 32.38,-924 155.38,-924 155.38,-833 32.38,-833"/>
</a>
</g>
</g>
<!-- Node3&#45;&gt;Node2 -->
<g id="edge2_Node000002_Node000003" class="edge">
<title>Node3&#45;&gt;Node2</title>
<g id="a_edge2_Node000002_Node000003"><a xlink:title=" ">
<path fill="none" stroke="#63b8ff" d="M69.43,-833.28C66.91,-827.28 64.71,-821.09 63.12,-815 55.66,-786.25 54.46,-752.46 54.93,-727.63"/>
<polygon fill="none" stroke="#63b8ff" points="54.93,-727.73 51.11,-721.61 55.3,-715.74 59.11,-721.86 54.93,-727.73"/>
</a>
</g>
<text xml:space="preserve" text-anchor="start" x="66.12" y="-804.5" font-family="Helvetica,sans-Serif" font-size="10.00" fill="grey">+elements</text>
</g>
<!-- Node5 -->
<g id="Node000005" class="node">
<title>Node5</title>
<g id="a_Node000005"><a xlink:title=" ">
<polygon fill="white" stroke="none" points="198.75,-780.5 85,-780.5 85,-733 198.75,-733 198.75,-780.5"/>
<text xml:space="preserve" text-anchor="start" x="89" y="-769" font-family="Helvetica,sans-Serif" font-size="10.00">std::span&lt; const Sym &gt;</text>
<text xml:space="preserve" text-anchor="start" x="140.38" y="-754.5" font-family="Helvetica,sans-Serif" font-size="10.00"> </text>
<text xml:space="preserve" text-anchor="start" x="140.38" y="-740" font-family="Helvetica,sans-Serif" font-size="10.00"> </text>
<polygon fill="#666666" stroke="#666666" points="85,-764 85,-764 198.75,-764 198.75,-764 85,-764"/>
<polygon fill="#666666" stroke="#666666" points="85,-749.5 85,-749.5 198.75,-749.5 198.75,-749.5 85,-749.5"/>
<polygon fill="none" stroke="#666666" points="85,-733 85,-780.5 198.75,-780.5 198.75,-733 85,-733"/>
</a>
</g>
</g>
<!-- Node3&#45;&gt;Node5 -->
<g id="edge5_Node000005_Node000003" class="edge">
<title>Node3&#45;&gt;Node5</title>
<g id="a_edge5_Node000005_Node000003"><a xlink:title=" ">
<path fill="none" stroke="#63b8ff" d="M111.61,-833.25C117.02,-819.76 122.88,-805.13 128,-792.37"/>
<polygon fill="none" stroke="#63b8ff" points="128.02,-792.33 126.54,-785.27 132.48,-781.19 133.96,-788.24 128.02,-792.33"/>
</a>
</g>
<text xml:space="preserve" text-anchor="start" x="127.98" y="-804.5" font-family="Helvetica,sans-Serif" font-size="10.00" fill="grey">+elements</text>
</g>
<!-- Node4 -->
<g id="Node000004" class="node">
<title>Node4</title>
<g id="a_Node000004"><a xlink:href="classWindow.html" target="_top" xlink:title="[lz77.Window]">
<polygon fill="white" stroke="none" points="199.25,-649.5 84.5,-649.5 84.5,-384.5 199.25,-384.5 199.25,-649.5"/>
<text xml:space="preserve" text-anchor="start" x="124.25" y="-638" font-family="Helvetica,sans-Serif" font-size="10.00">Window</text>
<text xml:space="preserve" text-anchor="start" x="90" y="-623.5" font-family="Helvetica,sans-Serif" font-size="10.00">&#45;</text>
<text xml:space="preserve" text-anchor="start" x="98.5" y="-623.5" font-family="Helvetica,sans-Serif" font-size="10.00">size_look_ahead</text>
<text xml:space="preserve" text-anchor="start" x="90" y="-609" font-family="Helvetica,sans-Serif" font-size="10.00">&#45;</text>
<text xml:space="preserve" text-anchor="start" x="98.5" y="-609" font-family="Helvetica,sans-Serif" font-size="10.00">max_size_look_ahead</text>
<text xml:space="preserve" text-anchor="start" x="90" y="-594.5" font-family="Helvetica,sans-Serif" font-size="10.00">&#45;</text>
<text xml:space="preserve" text-anchor="start" x="98.5" y="-594.5" font-family="Helvetica,sans-Serif" font-size="10.00">size_search</text>
<text xml:space="preserve" text-anchor="start" x="90" y="-580" font-family="Helvetica,sans-Serif" font-size="10.00">&#45;</text>
<text xml:space="preserve" text-anchor="start" x="98.5" y="-580" font-family="Helvetica,sans-Serif" font-size="10.00">max_size_search</text>
<text xml:space="preserve" text-anchor="start" x="90" y="-565.5" font-family="Helvetica,sans-Serif" font-size="10.00">&#45;</text>
<text xml:space="preserve" text-anchor="start" x="98.5" y="-565.5" font-family="Helvetica,sans-Serif" font-size="10.00">max_size</text>
<text xml:space="preserve" text-anchor="start" x="90" y="-551" font-family="Helvetica,sans-Serif" font-size="10.00">&#45;</text>
<text xml:space="preserve" text-anchor="start" x="98.5" y="-551" font-family="Helvetica,sans-Serif" font-size="10.00">offset</text>
<text xml:space="preserve" text-anchor="start" x="88.5" y="-536.5" font-family="Helvetica,sans-Serif" font-size="10.00">+</text>
<text xml:space="preserve" text-anchor="start" x="98.5" y="-536.5" font-family="Helvetica,sans-Serif" font-size="10.00">Window()</text>
<text xml:space="preserve" text-anchor="start" x="88.5" y="-522" font-family="Helvetica,sans-Serif" font-size="10.00">+</text>
<text xml:space="preserve" text-anchor="start" x="98.5" y="-522" font-family="Helvetica,sans-Serif" font-size="10.00">Window()</text>
<text xml:space="preserve" text-anchor="start" x="88.5" y="-507.5" font-family="Helvetica,sans-Serif" font-size="10.00">+</text>
<text xml:space="preserve" text-anchor="start" x="98.5" y="-507.5" font-family="Helvetica,sans-Serif" font-size="10.00">begin()</text>
<text xml:space="preserve" text-anchor="start" x="88.5" y="-493" font-family="Helvetica,sans-Serif" font-size="10.00">+</text>
<text xml:space="preserve" text-anchor="start" x="98.5" y="-493" font-family="Helvetica,sans-Serif" font-size="10.00">end()</text>
<text xml:space="preserve" text-anchor="start" x="88.5" y="-478.5" font-family="Helvetica,sans-Serif" font-size="10.00">+</text>
<text xml:space="preserve" text-anchor="start" x="98.5" y="-478.5" font-family="Helvetica,sans-Serif" font-size="10.00">slide()</text>
<text xml:space="preserve" text-anchor="start" x="88.5" y="-464" font-family="Helvetica,sans-Serif" font-size="10.00">+</text>
<text xml:space="preserve" text-anchor="start" x="98.5" y="-464" font-family="Helvetica,sans-Serif" font-size="10.00">look_ahead_buffer()</text>
<text xml:space="preserve" text-anchor="start" x="88.5" y="-449.5" font-family="Helvetica,sans-Serif" font-size="10.00">+</text>
<text xml:space="preserve" text-anchor="start" x="98.5" y="-449.5" font-family="Helvetica,sans-Serif" font-size="10.00">search_buffer()</text>
<text xml:space="preserve" text-anchor="start" x="88.5" y="-435" font-family="Helvetica,sans-Serif" font-size="10.00">+</text>
<text xml:space="preserve" text-anchor="start" x="98.5" y="-435" font-family="Helvetica,sans-Serif" font-size="10.00">get_size_search()</text>
<text xml:space="preserve" text-anchor="start" x="88.5" y="-420.5" font-family="Helvetica,sans-Serif" font-size="10.00">+</text>
<text xml:space="preserve" text-anchor="start" x="98.5" y="-420.5" font-family="Helvetica,sans-Serif" font-size="10.00">get_size_la_buf()</text>
<text xml:space="preserve" text-anchor="start" x="88.5" y="-406" font-family="Helvetica,sans-Serif" font-size="10.00">+</text>
<text xml:space="preserve" text-anchor="start" x="98.5" y="-406" font-family="Helvetica,sans-Serif" font-size="10.00">get_max_size()</text>
<text xml:space="preserve" text-anchor="start" x="98.5" y="-391.5" font-family="Helvetica,sans-Serif" font-size="10.00">and 6 more...</text>
<polygon fill="#666666" stroke="#666666" points="84.5,-633 84.5,-633 199.25,-633 199.25,-633 84.5,-633"/>
<polygon fill="#666666" stroke="#666666" points="84.5,-546 84.5,-546 96.5,-546 96.5,-546 84.5,-546"/>
<polygon fill="#666666" stroke="#666666" points="96.5,-546 96.5,-546 199.25,-546 199.25,-546 96.5,-546"/>
<polygon fill="none" stroke="#666666" points="84.5,-384.5 84.5,-649.5 199.25,-649.5 199.25,-384.5 84.5,-384.5"/>
</a>
</g>
</g>
<!-- Node4&#45;&gt;Node1 -->
<g id="edge3_Node000001_Node000004" class="edge">
<title>Node4&#45;&gt;Node1</title>
<g id="a_edge3_Node000001_Node000004"><a xlink:title=" ">
<path fill="none" stroke="#63b8ff" d="M119.9,-384.57C117.53,-366.94 115.42,-349.06 113.88,-332 105.59,-240.72 104.44,-133.24 104.53,-74.92"/>
<polygon fill="none" stroke="#63b8ff" points="104.53,-74.78 100.55,-68.77 104.57,-62.78 108.55,-68.79 104.53,-74.78"/>
</a>
</g>
<text xml:space="preserve" text-anchor="start" x="116.88" y="-221" font-family="Helvetica,sans-Serif" font-size="10.00" fill="grey">&#45;window</text>
</g>
<!-- Node6 -->
<g id="Node000006" class="node">
<title>Node6</title>
<g id="a_Node000006"><a xlink:href="classalg_1_1Rabin.html" target="_top" xlink:title="This class enables fast string matching. Makes use of two chained arrays. This class is intertwined w...">
<polygon fill="white" stroke="none" points="274.62,-332 165.12,-332 165.12,-114.5 274.62,-114.5 274.62,-332"/>
<text xml:space="preserve" text-anchor="start" x="198.12" y="-320.5" font-family="Helvetica,sans-Serif" font-size="10.00">alg::Rabin</text>
<text xml:space="preserve" text-anchor="start" x="170.62" y="-306" font-family="Helvetica,sans-Serif" font-size="10.00">&#45;</text>
<text xml:space="preserve" text-anchor="start" x="179.12" y="-306" font-family="Helvetica,sans-Serif" font-size="10.00">hash</text>
<text xml:space="preserve" text-anchor="start" x="170.62" y="-291.5" font-family="Helvetica,sans-Serif" font-size="10.00">&#45;</text>
<text xml:space="preserve" text-anchor="start" x="179.12" y="-291.5" font-family="Helvetica,sans-Serif" font-size="10.00">position</text>
<text xml:space="preserve" text-anchor="start" x="170.62" y="-277" font-family="Helvetica,sans-Serif" font-size="10.00">&#45;</text>
<text xml:space="preserve" text-anchor="start" x="179.12" y="-277" font-family="Helvetica,sans-Serif" font-size="10.00">poss_table</text>
<text xml:space="preserve" text-anchor="start" x="170.62" y="-262.5" font-family="Helvetica,sans-Serif" font-size="10.00">&#45;</text>
<text xml:space="preserve" text-anchor="start" x="179.12" y="-262.5" font-family="Helvetica,sans-Serif" font-size="10.00">prev_poss_table</text>
<text xml:space="preserve" text-anchor="start" x="170.62" y="-248" font-family="Helvetica,sans-Serif" font-size="10.00">&#45;</text>
<text xml:space="preserve" text-anchor="start" x="179.12" y="-248" font-family="Helvetica,sans-Serif" font-size="10.00">MAX_CHAIN</text>
<text xml:space="preserve" text-anchor="start" x="169.12" y="-233.5" font-family="Helvetica,sans-Serif" font-size="10.00">+</text>
<text xml:space="preserve" text-anchor="start" x="179.12" y="-233.5" font-family="Helvetica,sans-Serif" font-size="10.00">Rabin()</text>
<text xml:space="preserve" text-anchor="start" x="169.12" y="-219" font-family="Helvetica,sans-Serif" font-size="10.00">+</text>
<text xml:space="preserve" text-anchor="start" x="179.12" y="-219" font-family="Helvetica,sans-Serif" font-size="10.00">operator=()</text>
<text xml:space="preserve" text-anchor="start" x="169.12" y="-204.5" font-family="Helvetica,sans-Serif" font-size="10.00">+</text>
<text xml:space="preserve" text-anchor="start" x="179.12" y="-204.5" font-family="Helvetica,sans-Serif" font-size="10.00">roll_hash()</text>
<text xml:space="preserve" text-anchor="start" x="169.12" y="-190" font-family="Helvetica,sans-Serif" font-size="10.00">+</text>
<text xml:space="preserve" text-anchor="start" x="179.12" y="-190" font-family="Helvetica,sans-Serif" font-size="10.00">find_pattern()</text>
<text xml:space="preserve" text-anchor="start" x="169.12" y="-175.5" font-family="Helvetica,sans-Serif" font-size="10.00">+</text>
<text xml:space="preserve" text-anchor="start" x="179.12" y="-175.5" font-family="Helvetica,sans-Serif" font-size="10.00">get_pos()</text>
<text xml:space="preserve" text-anchor="start" x="170.62" y="-161" font-family="Helvetica,sans-Serif" font-size="10.00">&#45;</text>
<text xml:space="preserve" text-anchor="start" x="179.12" y="-161" font-family="Helvetica,sans-Serif" font-size="10.00">bucket_index()</text>
<text xml:space="preserve" text-anchor="start" x="170.62" y="-146.5" font-family="Helvetica,sans-Serif" font-size="10.00">&#45;</text>
<text xml:space="preserve" text-anchor="start" x="179.12" y="-146.5" font-family="Helvetica,sans-Serif" font-size="10.00">prev_bucket_index()</text>
<text xml:space="preserve" text-anchor="start" x="170.62" y="-132" font-family="Helvetica,sans-Serif" font-size="10.00">&#45;</text>
<text xml:space="preserve" text-anchor="start" x="179.12" y="-132" font-family="Helvetica,sans-Serif" font-size="10.00">get_max_chain_from</text>
<text xml:space="preserve" text-anchor="start" x="179.12" y="-121.5" font-family="Helvetica,sans-Serif" font-size="10.00">_preset()</text>
<polygon fill="#666666" stroke="#666666" points="165.12,-315.5 165.12,-315.5 274.62,-315.5 274.62,-315.5 165.12,-315.5"/>
<polygon fill="#666666" stroke="#666666" points="165.12,-243 165.12,-243 177.12,-243 177.12,-243 165.12,-243"/>
<polygon fill="#666666" stroke="#666666" points="177.12,-243 177.12,-243 274.62,-243 274.62,-243 177.12,-243"/>
<polygon fill="none" stroke="#666666" points="165.12,-114.5 165.12,-332 274.62,-332 274.62,-114.5 165.12,-114.5"/>
</a>
</g>
</g>
<!-- Node4&#45;&gt;Node6 -->
<g id="edge7_Node000006_Node000004" class="edge">
<title>Node4&#45;&gt;Node6</title>
<g id="a_edge7_Node000006_Node000004"><a xlink:title=" ">
<path fill="none" stroke="#63b8ff" d="M177,-384.63C180.62,-371.09 184.29,-357.37 187.87,-343.96"/>
<polygon fill="none" stroke="#63b8ff" points="187.81,-344.2 185.49,-337.37 190.9,-332.61 193.22,-339.44 187.81,-344.2"/>
</a>
</g>
<text xml:space="preserve" text-anchor="start" x="188.55" y="-356" font-family="Helvetica,sans-Serif" font-size="10.00" fill="grey">&#45;data</text>
</g>
<!-- Node5&#45;&gt;Node4 -->
<g id="edge4_Node000004_Node000005" class="edge">
<title>Node5&#45;&gt;Node4</title>
<g id="a_edge4_Node000004_Node000005"><a xlink:title=" ">
<path fill="none" stroke="#63b8ff" d="M141.88,-733.38C141.88,-715.94 141.88,-690.07 141.88,-662.26"/>
<polygon fill="none" stroke="#63b8ff" points="141.88,-662.27 137.88,-656.27 141.88,-650.27 145.88,-656.27 141.88,-662.27"/>
</a>
</g>
<text xml:space="preserve" text-anchor="start" x="144.88" y="-689" font-family="Helvetica,sans-Serif" font-size="10.00" fill="grey">&#45;data</text>
</g>
<!-- Node6&#45;&gt;Node1 -->
<g id="edge6_Node000001_Node000006" class="edge">
<title>Node6&#45;&gt;Node1</title>
<g id="a_edge6_Node000001_Node000006"><a xlink:title=" ">
<path fill="none" stroke="#63b8ff" d="M165.24,-131.86C152.69,-111.1 139.95,-90.03 129.44,-72.64"/>
<polygon fill="none" stroke="#63b8ff" points="129.55,-72.82 123.02,-69.75 123.34,-62.55 129.87,-65.61 129.55,-72.82"/>
</a>
</g>
<text xml:space="preserve" text-anchor="start" x="145.07" y="-86" font-family="Helvetica,sans-Serif" font-size="10.00" fill="grey">&#45;pattern_matcher</text>
</g>
</g>
</svg>
