<?xml version="1.0" encoding="UTF-8" standalone="no"?>
<!DOCTYPE svg PUBLIC "-//W3C//DTD SVG 1.1//EN"
 "http://www.w3.org/Graphics/SVG/1.1/DTD/svg11.dtd">
<!-- Generated by graphviz version 14.1.5 (20260411.2331)
 -->
<!-- Title: alg::Rabin::operator= Pages: 1 -->
<svg width="424pt" height="178pt"
 viewBox="0.00 0.00 424.00 178.00" xmlns="http://www.w3.org/2000/svg" xmlns:xlink="http://www.w3.org/1999/xlink">

<svg id="main" version="1.1" xmlns="http://www.w3.org/2000/svg" xmlns:xlink="http://www.w3.org/1999/xlink" xml:space="preserve">

<style type="text/css"><![CDATA[
.node, .edge {opacity: 0.7;}
.node.selected, .edge.selected {opacity: 1;}
.edge:hover path { stroke: red; }
.edge:hover polygon { stroke: red; fill: red; }
]]></style>
<script type="application/ecmascript" xlink:href="svg.min.js"/>
<svg id="graph" class="graph">
<g id="graph0" class="graph" transform="scale(1 1) rotate(0) translate(4 174)">
<title>alg::Rabin::operator=</title>
<!-- Node1 -->
<g id="Node000001" class="node">
<title>Node1</title>
<g id="a_Node000001"><a xlink:title=" ">
<polygon fill="#999999" stroke="#666666" points="107.5,-95 0,-95 0,-75 107.5,-75 107.5,-95"/>
<text xml:space="preserve" text-anchor="middle" x="53.75" y="-81.5" font-family="Helvetica,sans-Serif" font-size="10.00">alg::Rabin::operator=</text>
</a>
</g>
</g>
<!-- Node2 -->
<g id="Node000002" class="node">
<title>Node2</title>
<g id="a_Node000002"><a xlink:href="classalg_1_1_rabin.html#aac69972318494ea1b3b996e03d604d36" target="_top" xlink:title="Find the biggest pattern between the look ahead buffer and search buffer.">
<polygon fill="white" stroke="#666666" points="260.75,-120 143.5,-120 143.5,-100 260.75,-100 260.75,-120"/>
<text xml:space="preserve" text-anchor="middle" x="202.12" y="-106.5" font-family="Helvetica,sans-Serif" font-size="10.00">alg::Rabin::find_pattern</text>
</a>
</g>
</g>
<!-- Node1&#45;&gt;Node2 -->
<g id="edge1_Node000001_Node000002" class="edge">
<title>Node1&#45;&gt;Node2</title>
<g id="a_edge1_Node000001_Node000002"><a xlink:title=" ">
<path fill="none" stroke="#63b8ff" d="M107.59,-94.03C115.59,-95.39 123.94,-96.82 132.21,-98.23"/>
<polygon fill="#63b8ff" stroke="#63b8ff" points="131.47,-101.65 141.91,-99.89 132.65,-94.75 131.47,-101.65"/>
</a>
</g>
</g>
<!-- Node6 -->
<g id="Node000006" class="node">
<title>Node6</title>
<g id="a_Node000006"><a xlink:href="classalg_1_1_rabin.html#a3e845390e40970d04a161dc5797395ba" target="_top" xlink:title=" ">
<polygon fill="white" stroke="#666666" points="248,-76 156.25,-76 156.25,-56 248,-56 248,-76"/>
<text xml:space="preserve" text-anchor="middle" x="202.12" y="-62.5" font-family="Helvetica,sans-Serif" font-size="10.00">alg::Rabin::Rabin</text>
</a>
</g>
</g>
<!-- Node1&#45;&gt;Node6 -->
<g id="edge5_Node000001_Node000006" class="edge">
<title>Node1&#45;&gt;Node6</title>
<g id="a_edge5_Node000001_Node000006"><a xlink:title=" ">
<path fill="none" stroke="#63b8ff" d="M107.59,-78.14C119.76,-76.56 132.74,-74.88 145.03,-73.28"/>
<polygon fill="#63b8ff" stroke="#63b8ff" points="145.12,-76.8 154.59,-72.04 144.22,-69.86 145.12,-76.8"/>
</a>
</g>
</g>
<!-- Node3 -->
<g id="Node000003" class="node">
<title>Node3</title>
<g id="a_Node000003"><a xlink:href="classalg_1_1_rabin.html#a72778b4f5a658ef5f0f65b6bf2dac96f" target="_top" xlink:title=" ">
<polygon fill="white" stroke="#666666" points="404.25,-82 308.75,-82 308.75,-50 404.25,-50 404.25,-82"/>
<text xml:space="preserve" text-anchor="start" x="316.75" y="-68.5" font-family="Helvetica,sans-Serif" font-size="10.00">alg::Rabin::bucket</text>
<text xml:space="preserve" text-anchor="middle" x="356.5" y="-56.5" font-family="Helvetica,sans-Serif" font-size="10.00">_index</text>
</a>
</g>
</g>
<!-- Node2&#45;&gt;Node3 -->
<g id="edge2_Node000002_Node000003" class="edge">
<title>Node2&#45;&gt;Node3</title>
<g id="a_edge2_Node000002_Node000003"><a xlink:title=" ">
<path fill="none" stroke="#63b8ff" d="M239.24,-99.57C256.61,-94.56 277.86,-88.42 297.42,-82.77"/>
<polygon fill="#63b8ff" stroke="#63b8ff" points="298.3,-86.16 306.94,-80.02 296.36,-79.43 298.3,-86.16"/>
</a>
</g>
</g>
<!-- Node4 -->
<g id="Node000004" class="node">
<title>Node4</title>
<g id="a_Node000004"><a xlink:href="utils_8cppm.html#a218f468a60030dfa683e2e92f63e3324" target="_top" xlink:title=" ">
<polygon fill="white" stroke="#666666" points="390.75,-170 322.25,-170 322.25,-150 390.75,-150 390.75,-170"/>
<text xml:space="preserve" text-anchor="middle" x="356.5" y="-156.5" font-family="Helvetica,sans-Serif" font-size="10.00">count_equal</text>
</a>
</g>
</g>
<!-- Node2&#45;&gt;Node4 -->
<g id="edge3_Node000002_Node000004" class="edge">
<title>Node2&#45;&gt;Node4</title>
<g id="a_edge3_Node000002_Node000004"><a xlink:title=" ">
<path fill="none" stroke="#63b8ff" d="M234.32,-120.39C252.51,-126.43 275.92,-134.18 296.75,-141 301.83,-142.66 307.16,-144.4 312.45,-146.12"/>
<polygon fill="#63b8ff" stroke="#63b8ff" points="311.13,-149.37 321.72,-149.12 313.29,-142.71 311.13,-149.37"/>
</a>
</g>
</g>
<!-- Node5 -->
<g id="Node000005" class="node">
<title>Node5</title>
<g id="a_Node000005"><a xlink:href="classalg_1_1_rabin.html#a07a4f8f848f5fe3e55b406b486c3a0fd" target="_top" xlink:title=" ">
<polygon fill="white" stroke="#666666" points="416.25,-132 296.75,-132 296.75,-100 416.25,-100 416.25,-132"/>
<text xml:space="preserve" text-anchor="start" x="304.75" y="-118.5" font-family="Helvetica,sans-Serif" font-size="10.00">alg::Rabin::prev_bucket</text>
<text xml:space="preserve" text-anchor="middle" x="356.5" y="-106.5" font-family="Helvetica,sans-Serif" font-size="10.00">_index</text>
</a>
</g>
</g>
<!-- Node2&#45;&gt;Node5 -->
<g id="edge4_Node000002_Node000005" class="edge">
<title>Node2&#45;&gt;Node5</title>
<g id="a_edge4_Node000002_Node000005"><a xlink:title=" ">
<path fill="none" stroke="#63b8ff" d="M261.17,-112.29C269,-112.59 277.1,-112.91 285.12,-113.23"/>
<polygon fill="#63b8ff" stroke="#63b8ff" points="284.71,-116.72 294.84,-113.61 284.99,-109.72 284.71,-116.72"/>
</a>
</g>
</g>
<!-- Node6&#45;&gt;Node3 -->
<g id="edge6_Node000006_Node000003" class="edge">
<title>Node6&#45;&gt;Node3</title>
<g id="a_edge6_Node000006_Node000003"><a xlink:title=" ">
<path fill="none" stroke="#63b8ff" d="M248.43,-66C263.61,-66 280.75,-66 296.8,-66"/>
<polygon fill="#63b8ff" stroke="#63b8ff" points="296.74,-69.5 306.74,-66 296.74,-62.5 296.74,-69.5"/>
</a>
</g>
</g>
<!-- Node7 -->
<g id="Node000007" class="node">
<title>Node7</title>
<g id="a_Node000007"><a xlink:href="classalg_1_1_rabin.html#adf7aeadedcc47129ec1f472e48b0fc9a" target="_top" xlink:title=" ">
<polygon fill="white" stroke="#666666" points="408.38,-32 304.62,-32 304.62,0 408.38,0 408.38,-32"/>
<text xml:space="preserve" text-anchor="start" x="312.62" y="-18.5" font-family="Helvetica,sans-Serif" font-size="10.00">alg::Rabin::get_max</text>
<text xml:space="preserve" text-anchor="middle" x="356.5" y="-6.5" font-family="Helvetica,sans-Serif" font-size="10.00">_chain_from_preset</text>
</a>
</g>
</g>
<!-- Node6&#45;&gt;Node7 -->
<g id="edge7_Node000006_Node000007" class="edge">
<title>Node6&#45;&gt;Node7</title>
<g id="a_edge7_Node000006_Node000007"><a xlink:title=" ">
<path fill="none" stroke="#63b8ff" d="M235.07,-55.52C252.3,-49.86 274.16,-42.69 294.51,-36.01"/>
<polygon fill="#63b8ff" stroke="#63b8ff" points="295.46,-39.39 303.87,-32.94 293.27,-32.74 295.46,-39.39"/>
</a>
</g>
</g>
</g>
</svg>
</svg>

<style type='text/css'>
<![CDATA[
[data-mouse-over-selected='false'] { opacity: 0.7; }
[data-mouse-over-selected='true']  { opacity: 1.0; }
]]>
</style>
<script type="application/ecmascript"><![CDATA[
document.addEventListener('DOMContentLoaded', (event) => {
  highlightEdges();
  highlightAdjacentNodes();
});
]]></script>
</svg>
