<?xml version="1.0" encoding="UTF-8" standalone="no"?>
<!DOCTYPE svg PUBLIC "-//W3C//DTD SVG 1.1//EN"
 "http://www.w3.org/Graphics/SVG/1.1/DTD/svg11.dtd">
<!-- Generated by graphviz version 14.1.5 (20260411.2331)
 -->
<!-- Title: FileInfo::check_signature Pages: 1 -->
<svg width="336pt" height="66pt"
 viewBox="0.00 0.00 336.00 66.00" xmlns="http://www.w3.org/2000/svg" xmlns:xlink="http://www.w3.org/1999/xlink">

<svg id="main" version="1.1" xmlns="http://www.w3.org/2000/svg" xmlns:xlink="http://www.w3.org/1999/xlink" xml:space="preserve">

<style type="text/css"><![CDATA[
.node, .edge {opacity: 0.7;}
.node.selected, .edge.selected {opacity: 1;}
.edge:hover path { stroke: red; }
.edge:hover polygon { stroke: red; fill: red; }
]]></style>
<script type="application/ecmascript" xlink:href="svg.min.js"/>
<svg id="graph" class="graph">
<g id="graph0" class="graph" transform="scale(1 1) rotate(0) translate(4 62)">
<title>FileInfo::check_signature</title>
<!-- Node1 -->
<g id="Node000001" class="node">
<title>Node1</title>
<g id="a_Node000001"><a xlink:title=" ">
<polygon fill="#999999" stroke="#666666" points="327.75,-39 202.25,-39 202.25,-19 327.75,-19 327.75,-39"/>
<text xml:space="preserve" text-anchor="middle" x="265" y="-25.5" font-family="Helvetica,sans-Serif" font-size="10.00">FileInfo::check_signature</text>
</a>
</g>
</g>
<!-- Node2 -->
<g id="Node000002" class="node">
<title>Node2</title>
<g id="a_Node000002"><a xlink:href="class_file_info.html#a69041c392ec2ad14c0f356efea36bb54" target="_top" xlink:title=" ">
<polygon fill="white" stroke="#666666" points="164.75,-58 74.5,-58 74.5,-38 164.75,-38 164.75,-58"/>
<text xml:space="preserve" text-anchor="middle" x="119.62" y="-44.5" font-family="Helvetica,sans-Serif" font-size="10.00">FileInfo::split_file</text>
</a>
</g>
</g>
<!-- Node1&#45;&gt;Node2 -->
<g id="edge1_Node000001_Node000002" class="edge">
<title>Node1&#45;&gt;Node2</title>
<g id="a_edge1_Node000001_Node000002"><a xlink:title=" ">
<path fill="none" stroke="#63b8ff" d="M190.54,-38.74C181.84,-39.89 173.18,-41.04 165.06,-42.11"/>
<polygon fill="#63b8ff" stroke="#63b8ff" points="190.99,-42.21 200.45,-37.42 190.07,-35.27 190.99,-42.21"/>
</a>
</g>
</g>
<!-- Node4 -->
<g id="Node000004" class="node">
<title>Node4</title>
<g id="a_Node000004"><a xlink:href="class_file_info.html#a63ec6528df6855ce6ff971255f490fae" target="_top" xlink:title=" ">
<polygon fill="white" stroke="#666666" points="166.25,-20 73,-20 73,0 166.25,0 166.25,-20"/>
<text xml:space="preserve" text-anchor="middle" x="119.62" y="-6.5" font-family="Helvetica,sans-Serif" font-size="10.00">FileInfo::write_file</text>
</a>
</g>
</g>
<!-- Node1&#45;&gt;Node4 -->
<g id="edge3_Node000001_Node000004" class="edge">
<title>Node1&#45;&gt;Node4</title>
<g id="a_edge3_Node000001_Node000004"><a xlink:title=" ">
<path fill="none" stroke="#63b8ff" d="M190.67,-19.28C182.39,-18.18 174.13,-17.09 166.35,-16.06"/>
<polygon fill="#63b8ff" stroke="#63b8ff" points="190.07,-22.73 200.45,-20.58 190.99,-15.79 190.07,-22.73"/>
</a>
</g>
</g>
<!-- Node3 -->
<g id="Node000003" class="node">
<title>Node3</title>
<g id="a_Node000003"><a xlink:href="_compress-to-fit_8cpp.html#a0ddf1224851353fc92bfbff6f499fa97" target="_top" xlink:title=" ">
<polygon fill="white" stroke="#666666" points="37,-39 0,-39 0,-19 37,-19 37,-39"/>
<text xml:space="preserve" text-anchor="middle" x="18.5" y="-25.5" font-family="Helvetica,sans-Serif" font-size="10.00">main</text>
</a>
</g>
</g>
<!-- Node2&#45;&gt;Node3 -->
<g id="edge2_Node000002_Node000003" class="edge">
<title>Node2&#45;&gt;Node3</title>
<g id="a_edge2_Node000002_Node000003"><a xlink:title=" ">
<path fill="none" stroke="#63b8ff" d="M62.98,-37.33C53.76,-35.57 44.83,-33.86 37.48,-32.45"/>
<polygon fill="#63b8ff" stroke="#63b8ff" points="62.31,-40.77 72.79,-39.22 63.63,-33.9 62.31,-40.77"/>
</a>
</g>
</g>
<!-- Node4&#45;&gt;Node3 -->
<g id="edge4_Node000004_Node000003" class="edge">
<title>Node4&#45;&gt;Node3</title>
<g id="a_edge4_Node000004_Node000003"><a xlink:title=" ">
<path fill="none" stroke="#63b8ff" d="M61.38,-20.97C52.64,-22.65 44.23,-24.26 37.26,-25.59"/>
<polygon fill="#63b8ff" stroke="#63b8ff" points="61.9,-24.44 71.06,-19.12 60.58,-17.56 61.9,-24.44"/>
</a>
</g>
</g>
</g>
</svg>
</svg>

<style type='text/css'>
<![CDATA[
[data-mouse-over-selected='false'] { opacity: 0.7; }
[data-mouse-over-selected='true']  { opacity: 1.0; }
]]>
</style>
<script type="application/ecmascript"><![CDATA[
document.addEventListener('DOMContentLoaded', (event) => {
  highlightEdges();
  highlightAdjacentNodes();
});
]]></script>
</svg>
