<?xml version="1.0" encoding="UTF-8" standalone="no"?>
<!DOCTYPE svg PUBLIC "-//W3C//DTD SVG 1.1//EN"
 "http://www.w3.org/Graphics/SVG/1.1/DTD/svg11.dtd">
<!-- Generated by graphviz version 14.1.4 (20260321.0153)
 -->
<!-- Title: parser::HelpException Pages: 1 -->
<svg width="113pt" height="139pt"
 viewBox="0.00 0.00 113.00 139.00" xmlns="http://www.w3.org/2000/svg" xmlns:xlink="http://www.w3.org/1999/xlink">

<svg id="main" version="1.1" xmlns="http://www.w3.org/2000/svg" xmlns:xlink="http://www.w3.org/1999/xlink" xml:space="preserve">

<style type="text/css"><![CDATA[
.node, .edge {opacity: 0.7;}
.node.selected, .edge.selected {opacity: 1;}
.edge:hover path { stroke: red; }
.edge:hover polygon { stroke: red; fill: red; }
]]></style>
<script type="application/ecmascript" xlink:href="svg.min.js"/>
<svg id="graph" class="graph">
<g id="graph0" class="graph" transform="scale(1 1) rotate(0) translate(4 135)">
<title>parser::HelpException</title>
<!-- Node1 -->
<g id="Node000001" class="node">
<title>Node1</title>
<g id="a_Node000001"><a xlink:title=" ">
<polygon fill="#999999" stroke="none" points="104.75,-47.5 0,-47.5 0,0 104.75,0 104.75,-47.5"/>
<text xml:space="preserve" text-anchor="start" x="4" y="-36" font-family="Helvetica,sans-Serif" font-size="10.00">parser::HelpException</text>
<text xml:space="preserve" text-anchor="start" x="50.88" y="-21.5" font-family="Helvetica,sans-Serif" font-size="10.00"> </text>
<text xml:space="preserve" text-anchor="start" x="18.94" y="-7" font-family="Helvetica,sans-Serif" font-size="10.00">+</text>
<text xml:space="preserve" text-anchor="start" x="43.88" y="-7" font-family="Helvetica,sans-Serif" font-size="10.00">what()</text>
<polygon fill="#666666" stroke="#666666" points="0,-31 0,-31 104.75,-31 104.75,-31 0,-31"/>
<polygon fill="#666666" stroke="#666666" points="0,-16.5 0,-16.5 104.75,-16.5 104.75,-16.5 0,-16.5"/>
<polygon fill="none" stroke="#666666" points="0,0 0,-47.5 104.75,-47.5 104.75,0 0,0"/>
</a>
</g>
</g>
<!-- Node2 -->
<g id="Node000002" class="node">
<title>Node2</title>
<g id="a_Node000002"><a xlink:title=" ">
<polygon fill="white" stroke="none" points="86.75,-131 18,-131 18,-83.5 86.75,-83.5 86.75,-131"/>
<text xml:space="preserve" text-anchor="start" x="22" y="-119.5" font-family="Helvetica,sans-Serif" font-size="10.00">std::exception</text>
<text xml:space="preserve" text-anchor="start" x="50.88" y="-105" font-family="Helvetica,sans-Serif" font-size="10.00"> </text>
<text xml:space="preserve" text-anchor="start" x="50.88" y="-90.5" font-family="Helvetica,sans-Serif" font-size="10.00"> </text>
<polygon fill="#666666" stroke="#666666" points="18,-114.5 18,-114.5 86.75,-114.5 86.75,-114.5 18,-114.5"/>
<polygon fill="#666666" stroke="#666666" points="18,-100 18,-100 86.75,-100 86.75,-100 18,-100"/>
<polygon fill="none" stroke="#666666" points="18,-83.5 18,-131 86.75,-131 86.75,-83.5 18,-83.5"/>
</a>
</g>
</g>
<!-- Node2&#45;&gt;Node1 -->
<g id="edge1_Node000001_Node000002" class="edge">
<title>Node2&#45;&gt;Node1</title>
<g id="a_edge1_Node000001_Node000002"><a xlink:title=" ">
<path fill="none" stroke="#63b8ff" d="M52.38,-72.12C52.38,-63.75 52.38,-55 52.38,-47.33"/>
<polygon fill="none" stroke="#63b8ff" points="48.88,-72.03 52.38,-82.03 55.88,-72.03 48.88,-72.03"/>
</a>
</g>
</g>
</g>
</svg>
</svg>

<style type='text/css'>
<![CDATA[
[data-mouse-over-selected='false'] { opacity: 0.7; }
[data-mouse-over-selected='true']  { opacity: 1.0; }
]]>
</style>
<script type="application/ecmascript"><![CDATA[
document.addEventListener('DOMContentLoaded', (event) => {
  highlightEdges();
  highlightAdjacentNodes();
});
]]></script>
</svg>
