<?xml version="1.0" encoding="UTF-8" standalone="no"?>
<!DOCTYPE svg PUBLIC "-//W3C//DTD SVG 1.1//EN"
 "http://www.w3.org/Graphics/SVG/1.1/DTD/svg11.dtd">
<!-- Generated by graphviz version 14.1.5 (20260411.2331)
 -->
<!-- Title: File Pages: 1 -->
<svg width="357pt" height="882pt"
 viewBox="0.00 0.00 357.00 882.00" xmlns="http://www.w3.org/2000/svg" xmlns:xlink="http://www.w3.org/1999/xlink">
<g id="graph0" class="graph" transform="scale(1 1) rotate(0) translate(4 878)">
<title>File</title>
<!-- Node1 -->
<g id="Node000001" class="node">
<title>Node1</title>
<g id="a_Node000001"><a xlink:title="Interpret a file as to retrieve custom information.">
<polygon fill="#999999" stroke="none" points="238.25,-244 137.75,-244 137.75,0 238.25,0 238.25,-244"/>
<text xml:space="preserve" text-anchor="start" x="180.12" y="-230.25" font-family="Helvetica,sans-Serif" font-size="10.00">File</text>
<text xml:space="preserve" text-anchor="start" x="186.5" y="-214.25" font-family="Helvetica,sans-Serif" font-size="10.00"> </text>
<text xml:space="preserve" text-anchor="start" x="141.75" y="-198.25" font-family="Helvetica,sans-Serif" font-size="10.00">+</text>
<text xml:space="preserve" text-anchor="start" x="151.75" y="-198.25" font-family="Helvetica,sans-Serif" font-size="10.00">File()</text>
<text xml:space="preserve" text-anchor="start" x="141.75" y="-182.25" font-family="Helvetica,sans-Serif" font-size="10.00">+</text>
<text xml:space="preserve" text-anchor="start" x="151.75" y="-182.25" font-family="Helvetica,sans-Serif" font-size="10.00">process_file()</text>
<text xml:space="preserve" text-anchor="start" x="141.75" y="-166.25" font-family="Helvetica,sans-Serif" font-size="10.00">+</text>
<text xml:space="preserve" text-anchor="start" x="151.75" y="-166.25" font-family="Helvetica,sans-Serif" font-size="10.00">write_file()</text>
<text xml:space="preserve" text-anchor="start" x="141.75" y="-150.25" font-family="Helvetica,sans-Serif" font-size="10.00">+</text>
<text xml:space="preserve" text-anchor="start" x="151.75" y="-150.25" font-family="Helvetica,sans-Serif" font-size="10.00">read_file()</text>
<text xml:space="preserve" text-anchor="start" x="141.75" y="-134.25" font-family="Helvetica,sans-Serif" font-size="10.00">+</text>
<text xml:space="preserve" text-anchor="start" x="151.75" y="-134.25" font-family="Helvetica,sans-Serif" font-size="10.00">split_file()</text>
<text xml:space="preserve" text-anchor="start" x="141.75" y="-118.25" font-family="Helvetica,sans-Serif" font-size="10.00">+</text>
<text xml:space="preserve" text-anchor="start" x="151.75" y="-118.25" font-family="Helvetica,sans-Serif" font-size="10.00">has_signature()</text>
<text xml:space="preserve" text-anchor="start" x="141.75" y="-102.25" font-family="Helvetica,sans-Serif" font-size="10.00">+</text>
<text xml:space="preserve" text-anchor="start" x="151.75" y="-102.25" font-family="Helvetica,sans-Serif" font-size="10.00">extract_info()</text>
<text xml:space="preserve" text-anchor="start" x="141.75" y="-86.25" font-family="Helvetica,sans-Serif" font-size="10.00">+</text>
<text xml:space="preserve" text-anchor="start" x="151.75" y="-86.25" font-family="Helvetica,sans-Serif" font-size="10.00">extract_info()</text>
<text xml:space="preserve" text-anchor="start" x="141.75" y="-70.25" font-family="Helvetica,sans-Serif" font-size="10.00">+</text>
<text xml:space="preserve" text-anchor="start" x="151.75" y="-70.25" font-family="Helvetica,sans-Serif" font-size="10.00">create_file()</text>
<text xml:space="preserve" text-anchor="start" x="143.25" y="-54.25" font-family="Helvetica,sans-Serif" font-size="10.00">&#45;</text>
<text xml:space="preserve" text-anchor="start" x="151.75" y="-54.25" font-family="Helvetica,sans-Serif" font-size="10.00">check_signature()</text>
<text xml:space="preserve" text-anchor="start" x="143.25" y="-38.25" font-family="Helvetica,sans-Serif" font-size="10.00">&#45;</text>
<text xml:space="preserve" text-anchor="start" x="151.75" y="-38.25" font-family="Helvetica,sans-Serif" font-size="10.00">has_signature()</text>
<text xml:space="preserve" text-anchor="start" x="143.25" y="-22.25" font-family="Helvetica,sans-Serif" font-size="10.00">&#45;</text>
<text xml:space="preserve" text-anchor="start" x="151.75" y="-22.25" font-family="Helvetica,sans-Serif" font-size="10.00">create_file()</text>
<text xml:space="preserve" text-anchor="start" x="143.25" y="-6.25" font-family="Helvetica,sans-Serif" font-size="10.00">&#45;</text>
<text xml:space="preserve" text-anchor="start" x="151.75" y="-6.25" font-family="Helvetica,sans-Serif" font-size="10.00">concatenate_files()</text>
<polygon fill="#666666" stroke="#666666" points="137.75,-226 137.75,-226 238.25,-226 238.25,-226 137.75,-226"/>
<polygon fill="#666666" stroke="#666666" points="137.75,-210 137.75,-210 238.25,-210 238.25,-210 137.75,-210"/>
<polygon fill="none" stroke="#666666" points="137.75,0 137.75,-244 238.25,-244 238.25,0 137.75,0"/>
</a>
</g>
</g>
<!-- Node2 -->
<g id="Node000002" class="node">
<title>Node2</title>
<g id="a_Node000002"><a xlink:href="struct_file_options.html" target="_top" xlink:title=" ">
<polygon fill="white" stroke="none" points="114,-438 0,-438 0,-354 114,-354 114,-438"/>
<text xml:space="preserve" text-anchor="start" x="32.25" y="-424.25" font-family="Helvetica,sans-Serif" font-size="10.00">FileOptions</text>
<text xml:space="preserve" text-anchor="start" x="4" y="-408.25" font-family="Helvetica,sans-Serif" font-size="10.00">+</text>
<text xml:space="preserve" text-anchor="start" x="14" y="-408.25" font-family="Helvetica,sans-Serif" font-size="10.00">path</text>
<text xml:space="preserve" text-anchor="start" x="4" y="-392.25" font-family="Helvetica,sans-Serif" font-size="10.00">+</text>
<text xml:space="preserve" text-anchor="start" x="14" y="-392.25" font-family="Helvetica,sans-Serif" font-size="10.00">header</text>
<text xml:space="preserve" text-anchor="start" x="4" y="-376.25" font-family="Helvetica,sans-Serif" font-size="10.00">+</text>
<text xml:space="preserve" text-anchor="start" x="14" y="-376.25" font-family="Helvetica,sans-Serif" font-size="10.00">delete_on_dtor</text>
<text xml:space="preserve" text-anchor="start" x="4" y="-360.25" font-family="Helvetica,sans-Serif" font-size="10.00">+</text>
<text xml:space="preserve" text-anchor="start" x="14" y="-360.25" font-family="Helvetica,sans-Serif" font-size="10.00">already_compressed()</text>
<polygon fill="#666666" stroke="#666666" points="0,-420 0,-420 114,-420 114,-420 0,-420"/>
<polygon fill="#666666" stroke="#666666" points="0,-372 0,-372 12,-372 12,-372 0,-372"/>
<polygon fill="#666666" stroke="#666666" points="12,-372 12,-372 114,-372 114,-372 12,-372"/>
<polygon fill="none" stroke="#666666" points="0,-354 0,-438 114,-438 114,-354 0,-354"/>
</a>
</g>
</g>
<!-- Node2&#45;&gt;Node1 -->
<g id="edge1_Node000001_Node000002" class="edge">
<title>Node2&#45;&gt;Node1</title>
<g id="a_edge1_Node000001_Node000002"><a xlink:title=" ">
<path fill="none" stroke="#63b8ff" d="M76.61,-354.28C91.39,-323.6 112.43,-279.91 132.25,-238.76"/>
<polygon fill="none" stroke="#63b8ff" points="132.2,-238.85 131.2,-231.71 137.41,-228.04 138.41,-235.18 132.2,-238.85"/>
</a>
</g>
<text xml:space="preserve" text-anchor="start" x="121.57" y="-267.25" font-family="Helvetica,sans-Serif" font-size="10.00" fill="grey">&#45;file_options</text>
</g>
<!-- Node3 -->
<g id="Node000003" class="node">
<title>Node3</title>
<g id="a_Node000003"><a xlink:href="structparser_1_1_options.html" target="_top" xlink:title="All the options available.">
<polygon fill="white" stroke="none" points="243.88,-494 132.12,-494 132.12,-298 243.88,-298 243.88,-494"/>
<text xml:space="preserve" text-anchor="start" x="154.62" y="-480.25" font-family="Helvetica,sans-Serif" font-size="10.00">parser::Options</text>
<text xml:space="preserve" text-anchor="start" x="136.12" y="-464.25" font-family="Helvetica,sans-Serif" font-size="10.00">+</text>
<text xml:space="preserve" text-anchor="start" x="146.12" y="-464.25" font-family="Helvetica,sans-Serif" font-size="10.00">filename_in</text>
<text xml:space="preserve" text-anchor="start" x="136.12" y="-448.25" font-family="Helvetica,sans-Serif" font-size="10.00">+</text>
<text xml:space="preserve" text-anchor="start" x="146.12" y="-448.25" font-family="Helvetica,sans-Serif" font-size="10.00">filename_out</text>
<text xml:space="preserve" text-anchor="start" x="136.12" y="-432.25" font-family="Helvetica,sans-Serif" font-size="10.00">+</text>
<text xml:space="preserve" text-anchor="start" x="146.12" y="-432.25" font-family="Helvetica,sans-Serif" font-size="10.00">compressor</text>
<text xml:space="preserve" text-anchor="start" x="136.12" y="-416.25" font-family="Helvetica,sans-Serif" font-size="10.00">+</text>
<text xml:space="preserve" text-anchor="start" x="146.12" y="-416.25" font-family="Helvetica,sans-Serif" font-size="10.00">preset</text>
<text xml:space="preserve" text-anchor="start" x="136.12" y="-400.25" font-family="Helvetica,sans-Serif" font-size="10.00">+</text>
<text xml:space="preserve" text-anchor="start" x="146.12" y="-400.25" font-family="Helvetica,sans-Serif" font-size="10.00">n_files</text>
<text xml:space="preserve" text-anchor="start" x="136.12" y="-384.25" font-family="Helvetica,sans-Serif" font-size="10.00">+</text>
<text xml:space="preserve" text-anchor="start" x="146.12" y="-384.25" font-family="Helvetica,sans-Serif" font-size="10.00">size_files</text>
<text xml:space="preserve" text-anchor="start" x="136.12" y="-368.25" font-family="Helvetica,sans-Serif" font-size="10.00">+</text>
<text xml:space="preserve" text-anchor="start" x="146.12" y="-368.25" font-family="Helvetica,sans-Serif" font-size="10.00">force_compression</text>
<text xml:space="preserve" text-anchor="start" x="136.12" y="-352.25" font-family="Helvetica,sans-Serif" font-size="10.00">+</text>
<text xml:space="preserve" text-anchor="start" x="146.12" y="-352.25" font-family="Helvetica,sans-Serif" font-size="10.00">delete_input</text>
<text xml:space="preserve" text-anchor="start" x="136.12" y="-336.25" font-family="Helvetica,sans-Serif" font-size="10.00">+</text>
<text xml:space="preserve" text-anchor="start" x="146.12" y="-336.25" font-family="Helvetica,sans-Serif" font-size="10.00">concatenate_files</text>
<text xml:space="preserve" text-anchor="start" x="136.12" y="-320.25" font-family="Helvetica,sans-Serif" font-size="10.00">+</text>
<text xml:space="preserve" text-anchor="start" x="146.12" y="-320.25" font-family="Helvetica,sans-Serif" font-size="10.00">decomp_after_concat</text>
<text xml:space="preserve" text-anchor="start" x="186.5" y="-304.25" font-family="Helvetica,sans-Serif" font-size="10.00"> </text>
<polygon fill="#666666" stroke="#666666" points="132.12,-476 132.12,-476 243.88,-476 243.88,-476 132.12,-476"/>
<polygon fill="#666666" stroke="#666666" points="132.12,-316 132.12,-316 144.12,-316 144.12,-316 132.12,-316"/>
<polygon fill="#666666" stroke="#666666" points="144.12,-316 144.12,-316 243.88,-316 243.88,-316 144.12,-316"/>
<polygon fill="none" stroke="#666666" points="132.12,-298 132.12,-494 243.88,-494 243.88,-298 132.12,-298"/>
</a>
</g>
</g>
<!-- Node3&#45;&gt;Node1 -->
<g id="edge2_Node000001_Node000003" class="edge">
<title>Node3&#45;&gt;Node1</title>
<g id="a_edge2_Node000001_Node000003"><a xlink:title=" ">
<path fill="none" stroke="#63b8ff" d="M188,-298.34C188,-284.78 188,-270.64 188,-256.55"/>
<polygon fill="none" stroke="#63b8ff" points="188,-256.53 184,-250.53 188,-244.53 192,-250.53 188,-256.53"/>
</a>
</g>
<text xml:space="preserve" text-anchor="start" x="191" y="-267.25" font-family="Helvetica,sans-Serif" font-size="10.00" fill="grey">&#45;cli_options</text>
</g>
<!-- Node4 -->
<g id="Node000004" class="node">
<title>Node4</title>
<g id="a_Node000004"><a xlink:title=" ">
<polygon fill="white" stroke="none" points="327.88,-422 262.12,-422 262.12,-370 327.88,-370 327.88,-422"/>
<text xml:space="preserve" text-anchor="start" x="266.12" y="-408.25" font-family="Helvetica,sans-Serif" font-size="10.00">std::ofstream</text>
<text xml:space="preserve" text-anchor="start" x="293.5" y="-392.25" font-family="Helvetica,sans-Serif" font-size="10.00"> </text>
<text xml:space="preserve" text-anchor="start" x="293.5" y="-376.25" font-family="Helvetica,sans-Serif" font-size="10.00"> </text>
<polygon fill="#666666" stroke="#666666" points="262.12,-404 262.12,-404 327.88,-404 327.88,-404 262.12,-404"/>
<polygon fill="#666666" stroke="#666666" points="262.12,-388 262.12,-388 327.88,-388 327.88,-388 262.12,-388"/>
<polygon fill="none" stroke="#666666" points="262.12,-370 262.12,-422 327.88,-422 327.88,-370 262.12,-370"/>
</a>
</g>
</g>
<!-- Node4&#45;&gt;Node1 -->
<g id="edge3_Node000001_Node000004" class="edge">
<title>Node4&#45;&gt;Node1</title>
<g id="a_edge3_Node000001_Node000004"><a xlink:title=" ">
<path fill="none" stroke="#63b8ff" d="M286.56,-370.34C277.27,-343.52 261.7,-299.48 247,-262 245.68,-258.63 244.32,-255.21 242.95,-251.77"/>
<polygon fill="none" stroke="#63b8ff" points="243.02,-251.95 237.07,-247.88 238.53,-240.82 244.49,-244.89 243.02,-251.95"/>
</a>
</g>
<text xml:space="preserve" text-anchor="start" x="256.92" y="-267.25" font-family="Helvetica,sans-Serif" font-size="10.00" fill="grey">&#45;out_file</text>
</g>
<!-- Node5 -->
<g id="Node000005" class="node">
<title>Node5</title>
<g id="a_Node000005"><a xlink:title=" ">
<polygon fill="white" stroke="none" points="342.12,-595 247.88,-595 247.88,-531 342.12,-531 342.12,-595"/>
<text xml:space="preserve" text-anchor="start" x="251.88" y="-581.25" font-family="Helvetica,sans-Serif" font-size="10.00">std::basic_ofstream</text>
<text xml:space="preserve" text-anchor="start" x="275.5" y="-569.25" font-family="Helvetica,sans-Serif" font-size="10.00">&lt; Char &gt;</text>
<text xml:space="preserve" text-anchor="start" x="293.5" y="-553.25" font-family="Helvetica,sans-Serif" font-size="10.00"> </text>
<text xml:space="preserve" text-anchor="start" x="293.5" y="-537.25" font-family="Helvetica,sans-Serif" font-size="10.00"> </text>
<polygon fill="#666666" stroke="#666666" points="247.88,-565 247.88,-565 342.12,-565 342.12,-565 247.88,-565"/>
<polygon fill="#666666" stroke="#666666" points="247.88,-549 247.88,-549 342.12,-549 342.12,-549 247.88,-549"/>
<polygon fill="none" stroke="#666666" points="247.88,-531 247.88,-595 342.12,-595 342.12,-531 247.88,-531"/>
</a>
</g>
</g>
<!-- Node5&#45;&gt;Node4 -->
<g id="edge4_Node000004_Node000005" class="edge">
<title>Node5&#45;&gt;Node4</title>
<g id="a_edge4_Node000004_Node000005"><a xlink:title=" ">
<path fill="none" stroke="#63b8ff" d="M295,-520.01C295,-488.98 295,-447.79 295,-421.83"/>
<polygon fill="none" stroke="#63b8ff" points="291.5,-519.84 295,-529.84 298.5,-519.84 291.5,-519.84"/>
</a>
</g>
</g>
<!-- Node6 -->
<g id="Node000006" class="node">
<title>Node6</title>
<g id="a_Node000006"><a xlink:title=" ">
<polygon fill="white" stroke="none" points="340.62,-696 249.38,-696 249.38,-632 340.62,-632 340.62,-696"/>
<text xml:space="preserve" text-anchor="start" x="253.38" y="-682.25" font-family="Helvetica,sans-Serif" font-size="10.00">std::basic_ostream</text>
<text xml:space="preserve" text-anchor="start" x="275.5" y="-670.25" font-family="Helvetica,sans-Serif" font-size="10.00">&lt; Char &gt;</text>
<text xml:space="preserve" text-anchor="start" x="293.5" y="-654.25" font-family="Helvetica,sans-Serif" font-size="10.00"> </text>
<text xml:space="preserve" text-anchor="start" x="293.5" y="-638.25" font-family="Helvetica,sans-Serif" font-size="10.00"> </text>
<polygon fill="#666666" stroke="#666666" points="249.38,-666 249.38,-666 340.62,-666 340.62,-666 249.38,-666"/>
<polygon fill="#666666" stroke="#666666" points="249.38,-650 249.38,-650 340.62,-650 340.62,-650 249.38,-650"/>
<polygon fill="none" stroke="#666666" points="249.38,-632 249.38,-696 340.62,-696 340.62,-632 249.38,-632"/>
</a>
</g>
</g>
<!-- Node6&#45;&gt;Node5 -->
<g id="edge5_Node000005_Node000006" class="edge">
<title>Node6&#45;&gt;Node5</title>
<g id="a_edge5_Node000005_Node000006"><a xlink:title=" ">
<path fill="none" stroke="#63b8ff" d="M295,-620.95C295,-612.16 295,-603.05 295,-594.76"/>
<polygon fill="none" stroke="#63b8ff" points="291.5,-620.7 295,-630.7 298.5,-620.7 291.5,-620.7"/>
</a>
</g>
</g>
<!-- Node7 -->
<g id="Node000007" class="node">
<title>Node7</title>
<g id="a_Node000007"><a xlink:title=" ">
<polygon fill="white" stroke="none" points="348.88,-785 241.12,-785 241.12,-733 348.88,-733 348.88,-785"/>
<text xml:space="preserve" text-anchor="start" x="245.12" y="-771.25" font-family="Helvetica,sans-Serif" font-size="10.00">std::basic_ios&lt; Char &gt;</text>
<text xml:space="preserve" text-anchor="start" x="293.5" y="-755.25" font-family="Helvetica,sans-Serif" font-size="10.00"> </text>
<text xml:space="preserve" text-anchor="start" x="293.5" y="-739.25" font-family="Helvetica,sans-Serif" font-size="10.00"> </text>
<polygon fill="#666666" stroke="#666666" points="241.12,-767 241.12,-767 348.88,-767 348.88,-767 241.12,-767"/>
<polygon fill="#666666" stroke="#666666" points="241.12,-751 241.12,-751 348.88,-751 348.88,-751 241.12,-751"/>
<polygon fill="none" stroke="#666666" points="241.12,-733 241.12,-785 348.88,-785 348.88,-733 241.12,-733"/>
</a>
</g>
</g>
<!-- Node7&#45;&gt;Node6 -->
<g id="edge6_Node000006_Node000007" class="edge">
<title>Node7&#45;&gt;Node6</title>
<g id="a_edge6_Node000006_Node000007"><a xlink:title=" ">
<path fill="none" stroke="#63b8ff" d="M295,-721.85C295,-713.3 295,-704.27 295,-695.98"/>
<polygon fill="none" stroke="#63b8ff" points="291.5,-721.56 295,-731.56 298.5,-721.56 291.5,-721.56"/>
</a>
</g>
</g>
<!-- Node8 -->
<g id="Node000008" class="node">
<title>Node8</title>
<g id="a_Node000008"><a xlink:title=" ">
<polygon fill="white" stroke="none" points="328.25,-874 261.75,-874 261.75,-822 328.25,-822 328.25,-874"/>
<text xml:space="preserve" text-anchor="start" x="265.75" y="-860.25" font-family="Helvetica,sans-Serif" font-size="10.00">std::ios_base</text>
<text xml:space="preserve" text-anchor="start" x="293.5" y="-844.25" font-family="Helvetica,sans-Serif" font-size="10.00"> </text>
<text xml:space="preserve" text-anchor="start" x="293.5" y="-828.25" font-family="Helvetica,sans-Serif" font-size="10.00"> </text>
<polygon fill="#666666" stroke="#666666" points="261.75,-856 261.75,-856 328.25,-856 328.25,-856 261.75,-856"/>
<polygon fill="#666666" stroke="#666666" points="261.75,-840 261.75,-840 328.25,-840 328.25,-840 261.75,-840"/>
<polygon fill="none" stroke="#666666" points="261.75,-822 261.75,-874 328.25,-874 328.25,-822 261.75,-822"/>
</a>
</g>
</g>
<!-- Node8&#45;&gt;Node7 -->
<g id="edge7_Node000007_Node000008" class="edge">
<title>Node8&#45;&gt;Node7</title>
<g id="a_edge7_Node000007_Node000008"><a xlink:title=" ">
<path fill="none" stroke="#63b8ff" d="M295,-811.05C295,-802.21 295,-792.94 295,-784.76"/>
<polygon fill="none" stroke="#63b8ff" points="291.5,-810.79 295,-820.79 298.5,-810.79 291.5,-810.79"/>
</a>
</g>
</g>
</g>
</svg>
