<?xml version="1.0" encoding="UTF-8" standalone="no"?>
<!DOCTYPE svg PUBLIC "-//W3C//DTD SVG 1.1//EN"
 "http://www.w3.org/Graphics/SVG/1.1/DTD/svg11.dtd">
<!-- Generated by graphviz version 14.1.5 (20260411.2331)
 -->
<!-- Title: FileInfo::write_file Pages: 1 -->
<svg width="364pt" height="28pt"
 viewBox="0.00 0.00 364.00 28.00" xmlns="http://www.w3.org/2000/svg" xmlns:xlink="http://www.w3.org/1999/xlink">
<g id="graph0" class="graph" transform="scale(1 1) rotate(0) translate(4 24)">
<title>FileInfo::write_file</title>
<!-- Node1 -->
<g id="Node000001" class="node">
<title>Node1</title>
<g id="a_Node000001"><a xlink:title=" ">
<polygon fill="#999999" stroke="#666666" points="93.25,-20 0,-20 0,0 93.25,0 93.25,-20"/>
<text xml:space="preserve" text-anchor="middle" x="46.62" y="-6.5" font-family="Helvetica,sans-Serif" font-size="10.00">FileInfo::write_file</text>
</a>
</g>
</g>
<!-- Node2 -->
<g id="Node000002" class="node">
<title>Node2</title>
<g id="a_Node000002"><a xlink:href="class_file_info.html#a9ec4f681948c70beda564ffd1d40bc10" target="_top" xlink:title=" ">
<polygon fill="white" stroke="#666666" points="254.75,-20 129.25,-20 129.25,0 254.75,0 254.75,-20"/>
<text xml:space="preserve" text-anchor="middle" x="192" y="-6.5" font-family="Helvetica,sans-Serif" font-size="10.00">FileInfo::check_signature</text>
</a>
</g>
</g>
<!-- Node1&#45;&gt;Node2 -->
<g id="edge1_Node000001_Node000002" class="edge">
<title>Node1&#45;&gt;Node2</title>
<g id="a_edge1_Node000001_Node000002"><a xlink:title=" ">
<path fill="none" stroke="#63b8ff" d="M93.38,-10C101.16,-10 109.4,-10 117.68,-10"/>
<polygon fill="#63b8ff" stroke="#63b8ff" points="117.43,-13.5 127.43,-10 117.43,-6.5 117.43,-13.5"/>
</a>
</g>
</g>
<!-- Node3 -->
<g id="Node000003" class="node">
<title>Node3</title>
<g id="a_Node000003"><a xlink:href="utils_8cppm.html#a6c327b69ce479189b2946651f162daec" target="_top" xlink:title="throw_error is a custom error logger to the terminal. This will NOT ALWAYS throw.">
<polygon fill="white" stroke="#666666" points="355.5,-20 290.75,-20 290.75,0 355.5,0 355.5,-20"/>
<text xml:space="preserve" text-anchor="middle" x="323.12" y="-6.5" font-family="Helvetica,sans-Serif" font-size="10.00">throw_error</text>
</a>
</g>
</g>
<!-- Node2&#45;&gt;Node3 -->
<g id="edge2_Node000002_Node000003" class="edge">
<title>Node2&#45;&gt;Node3</title>
<g id="a_edge2_Node000002_Node000003"><a xlink:title=" ">
<path fill="none" stroke="#63b8ff" d="M254.92,-10C263.08,-10 271.3,-10 279.06,-10"/>
<polygon fill="#63b8ff" stroke="#63b8ff" points="278.89,-13.5 288.89,-10 278.89,-6.5 278.89,-13.5"/>
</a>
</g>
</g>
</g>
</svg>
