<?xml version="1.0" encoding="UTF-8" standalone="no"?>
<!DOCTYPE svg PUBLIC "-//W3C//DTD SVG 1.1//EN"
 "http://www.w3.org/Graphics/SVG/1.1/DTD/svg11.dtd">
<!-- Generated by graphviz version 14.1.5 (20260411.2331)
 -->
<!-- Title: ConcurrentFileBuffer&lt; T &gt; Pages: 1 -->
<svg width="285pt" height="767pt"
 viewBox="0.00 0.00 285.00 767.00" xmlns="http://www.w3.org/2000/svg" xmlns:xlink="http://www.w3.org/1999/xlink">
<g id="graph0" class="graph" transform="scale(1 1) rotate(0) translate(4 763)">
<title>ConcurrentFileBuffer&lt; T &gt;</title>
<!-- Node1 -->
<g id="Node000001" class="node">
<title>Node1</title>
<g id="a_Node000001"><a xlink:title="Circular array where if size &gt; capacity, size &#45; minimum_size is written to stream.">
<polygon fill="#999999" stroke="none" points="192.12,-244 71.62,-244 71.62,0 192.12,0 192.12,-244"/>
<text xml:space="preserve" text-anchor="start" x="75.62" y="-230.25" font-family="Helvetica,sans-Serif" font-size="10.00">ConcurrentFileBuffer&lt; T &gt;</text>
<text xml:space="preserve" text-anchor="start" x="78.94" y="-214.25" font-family="Helvetica,sans-Serif" font-size="10.00">&#45;</text>
<text xml:space="preserve" text-anchor="start" x="89.25" y="-214.25" font-family="Helvetica,sans-Serif" font-size="10.00">data_</text>
<text xml:space="preserve" text-anchor="start" x="78.94" y="-198.25" font-family="Helvetica,sans-Serif" font-size="10.00">&#45;</text>
<text xml:space="preserve" text-anchor="start" x="89.25" y="-198.25" font-family="Helvetica,sans-Serif" font-size="10.00">allocator</text>
<text xml:space="preserve" text-anchor="start" x="78.94" y="-182.25" font-family="Helvetica,sans-Serif" font-size="10.00">&#45;</text>
<text xml:space="preserve" text-anchor="start" x="89.25" y="-182.25" font-family="Helvetica,sans-Serif" font-size="10.00">index_</text>
<text xml:space="preserve" text-anchor="start" x="78.94" y="-166.25" font-family="Helvetica,sans-Serif" font-size="10.00">&#45;</text>
<text xml:space="preserve" text-anchor="start" x="89.25" y="-166.25" font-family="Helvetica,sans-Serif" font-size="10.00">written_index_</text>
<text xml:space="preserve" text-anchor="start" x="78.94" y="-150.25" font-family="Helvetica,sans-Serif" font-size="10.00">&#45;</text>
<text xml:space="preserve" text-anchor="start" x="89.25" y="-150.25" font-family="Helvetica,sans-Serif" font-size="10.00">capacity_</text>
<text xml:space="preserve" text-anchor="start" x="78.94" y="-134.25" font-family="Helvetica,sans-Serif" font-size="10.00">&#45;</text>
<text xml:space="preserve" text-anchor="start" x="89.25" y="-134.25" font-family="Helvetica,sans-Serif" font-size="10.00">minimum_size_</text>
<text xml:space="preserve" text-anchor="start" x="77.44" y="-118.25" font-family="Helvetica,sans-Serif" font-size="10.00">+</text>
<text xml:space="preserve" text-anchor="start" x="89.25" y="-118.25" font-family="Helvetica,sans-Serif" font-size="10.00">ConcurrentFileBuffer()</text>
<text xml:space="preserve" text-anchor="start" x="77.44" y="-102.25" font-family="Helvetica,sans-Serif" font-size="10.00">+</text>
<text xml:space="preserve" text-anchor="start" x="89.25" y="-102.25" font-family="Helvetica,sans-Serif" font-size="10.00">push_back()</text>
<text xml:space="preserve" text-anchor="start" x="77.44" y="-86.25" font-family="Helvetica,sans-Serif" font-size="10.00">+</text>
<text xml:space="preserve" text-anchor="start" x="89.25" y="-86.25" font-family="Helvetica,sans-Serif" font-size="10.00">push_back()</text>
<text xml:space="preserve" text-anchor="start" x="77.44" y="-70.25" font-family="Helvetica,sans-Serif" font-size="10.00">+</text>
<text xml:space="preserve" text-anchor="start" x="89.25" y="-70.25" font-family="Helvetica,sans-Serif" font-size="10.00">append_range()</text>
<text xml:space="preserve" text-anchor="start" x="77.44" y="-54.25" font-family="Helvetica,sans-Serif" font-size="10.00">+</text>
<text xml:space="preserve" text-anchor="start" x="89.25" y="-54.25" font-family="Helvetica,sans-Serif" font-size="10.00">reserve()</text>
<text xml:space="preserve" text-anchor="start" x="77.44" y="-38.25" font-family="Helvetica,sans-Serif" font-size="10.00">+</text>
<text xml:space="preserve" text-anchor="start" x="89.25" y="-38.25" font-family="Helvetica,sans-Serif" font-size="10.00">operator[]()</text>
<text xml:space="preserve" text-anchor="start" x="77.44" y="-22.25" font-family="Helvetica,sans-Serif" font-size="10.00">+</text>
<text xml:space="preserve" text-anchor="start" x="89.25" y="-22.25" font-family="Helvetica,sans-Serif" font-size="10.00">capacity()</text>
<text xml:space="preserve" text-anchor="start" x="77.44" y="-6.25" font-family="Helvetica,sans-Serif" font-size="10.00">+</text>
<text xml:space="preserve" text-anchor="start" x="89.25" y="-6.25" font-family="Helvetica,sans-Serif" font-size="10.00">minimum_size()</text>
<polygon fill="#666666" stroke="#666666" points="71.62,-226 71.62,-226 192.12,-226 192.12,-226 71.62,-226"/>
<polygon fill="#666666" stroke="#666666" points="71.62,-130 71.62,-130 87.25,-130 87.25,-130 71.62,-130"/>
<polygon fill="#666666" stroke="#666666" points="87.25,-130 87.25,-130 192.12,-130 192.12,-130 87.25,-130"/>
<polygon fill="none" stroke="#666666" points="71.62,0 71.62,-244 192.12,-244 192.12,0 71.62,0"/>
</a>
</g>
</g>
<!-- Node2 -->
<g id="Node000002" class="node">
<title>Node2</title>
<g id="a_Node000002"><a xlink:title=" ">
<polygon fill="white" stroke="none" points="86.75,-356 21,-356 21,-304 86.75,-304 86.75,-356"/>
<text xml:space="preserve" text-anchor="start" x="25" y="-342.25" font-family="Helvetica,sans-Serif" font-size="10.00">std::ofstream</text>
<text xml:space="preserve" text-anchor="start" x="52.38" y="-326.25" font-family="Helvetica,sans-Serif" font-size="10.00"> </text>
<text xml:space="preserve" text-anchor="start" x="52.38" y="-310.25" font-family="Helvetica,sans-Serif" font-size="10.00"> </text>
<polygon fill="#666666" stroke="#666666" points="21,-338 21,-338 86.75,-338 86.75,-338 21,-338"/>
<polygon fill="#666666" stroke="#666666" points="21,-322 21,-322 86.75,-322 86.75,-322 21,-322"/>
<polygon fill="none" stroke="#666666" points="21,-304 21,-356 86.75,-356 86.75,-304 21,-304"/>
</a>
</g>
</g>
<!-- Node2&#45;&gt;Node1 -->
<g id="edge1_Node000001_Node000002" class="edge">
<title>Node2&#45;&gt;Node1</title>
<g id="a_edge1_Node000001_Node000002"><a xlink:title=" ">
<path fill="none" stroke="#63b8ff" d="M51.39,-304.1C50.83,-291.31 51.25,-275.6 54.88,-262 57.82,-250.94 61.84,-239.81 66.5,-228.93"/>
<polygon fill="none" stroke="#63b8ff" points="66.47,-228.99 65.29,-221.88 71.41,-218.06 72.58,-225.17 66.47,-228.99"/>
</a>
</g>
<text xml:space="preserve" text-anchor="start" x="57.88" y="-267.25" font-family="Helvetica,sans-Serif" font-size="10.00" fill="grey">&#45;out_stream_</text>
</g>
<!-- Node3 -->
<g id="Node000003" class="node">
<title>Node3</title>
<g id="a_Node000003"><a xlink:title=" ">
<polygon fill="white" stroke="none" points="101,-480 6.75,-480 6.75,-416 101,-416 101,-480"/>
<text xml:space="preserve" text-anchor="start" x="10.75" y="-466.25" font-family="Helvetica,sans-Serif" font-size="10.00">std::basic_ofstream</text>
<text xml:space="preserve" text-anchor="start" x="34.38" y="-454.25" font-family="Helvetica,sans-Serif" font-size="10.00">&lt; Char &gt;</text>
<text xml:space="preserve" text-anchor="start" x="52.38" y="-438.25" font-family="Helvetica,sans-Serif" font-size="10.00"> </text>
<text xml:space="preserve" text-anchor="start" x="52.38" y="-422.25" font-family="Helvetica,sans-Serif" font-size="10.00"> </text>
<polygon fill="#666666" stroke="#666666" points="6.75,-450 6.75,-450 101,-450 101,-450 6.75,-450"/>
<polygon fill="#666666" stroke="#666666" points="6.75,-434 6.75,-434 101,-434 101,-434 6.75,-434"/>
<polygon fill="none" stroke="#666666" points="6.75,-416 6.75,-480 101,-480 101,-416 6.75,-416"/>
</a>
</g>
</g>
<!-- Node3&#45;&gt;Node2 -->
<g id="edge2_Node000002_Node000003" class="edge">
<title>Node3&#45;&gt;Node2</title>
<g id="a_edge2_Node000002_Node000003"><a xlink:title=" ">
<path fill="none" stroke="#63b8ff" d="M53.88,-405.12C53.88,-388.54 53.88,-370.05 53.88,-355.68"/>
<polygon fill="none" stroke="#63b8ff" points="50.38,-404.71 53.88,-414.71 57.38,-404.71 50.38,-404.71"/>
</a>
</g>
</g>
<!-- Node4 -->
<g id="Node000004" class="node">
<title>Node4</title>
<g id="a_Node000004"><a xlink:title=" ">
<polygon fill="white" stroke="none" points="99.5,-581 8.25,-581 8.25,-517 99.5,-517 99.5,-581"/>
<text xml:space="preserve" text-anchor="start" x="12.25" y="-567.25" font-family="Helvetica,sans-Serif" font-size="10.00">std::basic_ostream</text>
<text xml:space="preserve" text-anchor="start" x="34.38" y="-555.25" font-family="Helvetica,sans-Serif" font-size="10.00">&lt; Char &gt;</text>
<text xml:space="preserve" text-anchor="start" x="52.38" y="-539.25" font-family="Helvetica,sans-Serif" font-size="10.00"> </text>
<text xml:space="preserve" text-anchor="start" x="52.38" y="-523.25" font-family="Helvetica,sans-Serif" font-size="10.00"> </text>
<polygon fill="#666666" stroke="#666666" points="8.25,-551 8.25,-551 99.5,-551 99.5,-551 8.25,-551"/>
<polygon fill="#666666" stroke="#666666" points="8.25,-535 8.25,-535 99.5,-535 99.5,-535 8.25,-535"/>
<polygon fill="none" stroke="#666666" points="8.25,-517 8.25,-581 99.5,-581 99.5,-517 8.25,-517"/>
</a>
</g>
</g>
<!-- Node4&#45;&gt;Node3 -->
<g id="edge3_Node000003_Node000004" class="edge">
<title>Node4&#45;&gt;Node3</title>
<g id="a_edge3_Node000003_Node000004"><a xlink:title=" ">
<path fill="none" stroke="#63b8ff" d="M53.88,-505.95C53.88,-497.16 53.88,-488.05 53.88,-479.76"/>
<polygon fill="none" stroke="#63b8ff" points="50.38,-505.7 53.88,-515.7 57.38,-505.7 50.38,-505.7"/>
</a>
</g>
</g>
<!-- Node5 -->
<g id="Node000005" class="node">
<title>Node5</title>
<g id="a_Node000005"><a xlink:title=" ">
<polygon fill="white" stroke="none" points="107.75,-670 0,-670 0,-618 107.75,-618 107.75,-670"/>
<text xml:space="preserve" text-anchor="start" x="4" y="-656.25" font-family="Helvetica,sans-Serif" font-size="10.00">std::basic_ios&lt; Char &gt;</text>
<text xml:space="preserve" text-anchor="start" x="52.38" y="-640.25" font-family="Helvetica,sans-Serif" font-size="10.00"> </text>
<text xml:space="preserve" text-anchor="start" x="52.38" y="-624.25" font-family="Helvetica,sans-Serif" font-size="10.00"> </text>
<polygon fill="#666666" stroke="#666666" points="0,-652 0,-652 107.75,-652 107.75,-652 0,-652"/>
<polygon fill="#666666" stroke="#666666" points="0,-636 0,-636 107.75,-636 107.75,-636 0,-636"/>
<polygon fill="none" stroke="#666666" points="0,-618 0,-670 107.75,-670 107.75,-618 0,-618"/>
</a>
</g>
</g>
<!-- Node5&#45;&gt;Node4 -->
<g id="edge4_Node000004_Node000005" class="edge">
<title>Node5&#45;&gt;Node4</title>
<g id="a_edge4_Node000004_Node000005"><a xlink:title=" ">
<path fill="none" stroke="#63b8ff" d="M53.88,-606.85C53.88,-598.3 53.88,-589.27 53.88,-580.98"/>
<polygon fill="none" stroke="#63b8ff" points="50.38,-606.56 53.88,-616.56 57.38,-606.56 50.38,-606.56"/>
</a>
</g>
</g>
<!-- Node6 -->
<g id="Node000006" class="node">
<title>Node6</title>
<g id="a_Node000006"><a xlink:title=" ">
<polygon fill="white" stroke="none" points="87.12,-759 20.62,-759 20.62,-707 87.12,-707 87.12,-759"/>
<text xml:space="preserve" text-anchor="start" x="24.62" y="-745.25" font-family="Helvetica,sans-Serif" font-size="10.00">std::ios_base</text>
<text xml:space="preserve" text-anchor="start" x="52.38" y="-729.25" font-family="Helvetica,sans-Serif" font-size="10.00"> </text>
<text xml:space="preserve" text-anchor="start" x="52.38" y="-713.25" font-family="Helvetica,sans-Serif" font-size="10.00"> </text>
<polygon fill="#666666" stroke="#666666" points="20.62,-741 20.62,-741 87.12,-741 87.12,-741 20.62,-741"/>
<polygon fill="#666666" stroke="#666666" points="20.62,-725 20.62,-725 87.12,-725 87.12,-725 20.62,-725"/>
<polygon fill="none" stroke="#666666" points="20.62,-707 20.62,-759 87.12,-759 87.12,-707 20.62,-707"/>
</a>
</g>
</g>
<!-- Node6&#45;&gt;Node5 -->
<g id="edge5_Node000005_Node000006" class="edge">
<title>Node6&#45;&gt;Node5</title>
<g id="a_edge5_Node000005_Node000006"><a xlink:title=" ">
<path fill="none" stroke="#63b8ff" d="M53.88,-696.05C53.88,-687.21 53.88,-677.94 53.88,-669.76"/>
<polygon fill="none" stroke="#63b8ff" points="50.38,-695.79 53.88,-705.79 57.38,-695.79 50.38,-695.79"/>
</a>
</g>
</g>
<!-- Node7 -->
<g id="Node000007" class="node">
<title>Node7</title>
<g id="a_Node000007"><a xlink:title=" ">
<polygon fill="white" stroke="none" points="198.12,-474 143.62,-474 143.62,-422 198.12,-422 198.12,-474"/>
<text xml:space="preserve" text-anchor="start" x="147.62" y="-460.25" font-family="Helvetica,sans-Serif" font-size="10.00">std::mutex</text>
<text xml:space="preserve" text-anchor="start" x="169.38" y="-444.25" font-family="Helvetica,sans-Serif" font-size="10.00"> </text>
<text xml:space="preserve" text-anchor="start" x="169.38" y="-428.25" font-family="Helvetica,sans-Serif" font-size="10.00"> </text>
<polygon fill="#666666" stroke="#666666" points="143.62,-456 143.62,-456 198.12,-456 198.12,-456 143.62,-456"/>
<polygon fill="#666666" stroke="#666666" points="143.62,-440 143.62,-440 198.12,-440 198.12,-440 143.62,-440"/>
<polygon fill="none" stroke="#666666" points="143.62,-422 143.62,-474 198.12,-474 198.12,-422 143.62,-422"/>
</a>
</g>
</g>
<!-- Node7&#45;&gt;Node1 -->
<g id="edge6_Node000001_Node000007" class="edge">
<title>Node7&#45;&gt;Node1</title>
<g id="a_edge6_Node000001_Node000007"><a xlink:title=" ">
<path fill="none" stroke="#63b8ff" d="M159.71,-422.28C152.76,-405.62 144.4,-382.94 140.38,-362 133.86,-328.14 130.68,-291.09 129.35,-256.49"/>
<polygon fill="none" stroke="#63b8ff" points="129.36,-256.76 125.17,-250.9 128.97,-244.77 133.17,-250.64 129.36,-256.76"/>
</a>
</g>
<text xml:space="preserve" text-anchor="start" x="143.38" y="-326.25" font-family="Helvetica,sans-Serif" font-size="10.00" fill="grey">&#45;mut</text>
</g>
<!-- Node8 -->
<g id="Node000008" class="node">
<title>Node8</title>
<g id="a_Node000008"><a xlink:title=" ">
<polygon fill="white" stroke="none" points="276.75,-362 175,-362 175,-298 276.75,-298 276.75,-362"/>
<text xml:space="preserve" text-anchor="start" x="179" y="-348.25" font-family="Helvetica,sans-Serif" font-size="10.00">std::unique_lock&lt; std</text>
<text xml:space="preserve" text-anchor="start" x="204.88" y="-336.25" font-family="Helvetica,sans-Serif" font-size="10.00">::mutex &gt;</text>
<text xml:space="preserve" text-anchor="start" x="224.38" y="-320.25" font-family="Helvetica,sans-Serif" font-size="10.00"> </text>
<text xml:space="preserve" text-anchor="start" x="224.38" y="-304.25" font-family="Helvetica,sans-Serif" font-size="10.00"> </text>
<polygon fill="#666666" stroke="#666666" points="175,-332 175,-332 276.75,-332 276.75,-332 175,-332"/>
<polygon fill="#666666" stroke="#666666" points="175,-316 175,-316 276.75,-316 276.75,-316 175,-316"/>
<polygon fill="none" stroke="#666666" points="175,-298 175,-362 276.75,-362 276.75,-298 175,-298"/>
</a>
</g>
</g>
<!-- Node7&#45;&gt;Node8 -->
<g id="edge8_Node000008_Node000007" class="edge">
<title>Node7&#45;&gt;Node8</title>
<g id="a_edge8_Node000008_Node000007"><a xlink:title=" ">
<path fill="none" stroke="#63b8ff" d="M182.67,-422.12C189.43,-407.87 198.09,-389.61 205.88,-373.18"/>
<polygon fill="none" stroke="#63b8ff" points="205.83,-373.28 204.78,-366.15 210.97,-362.44 212.01,-369.58 205.83,-373.28"/>
</a>
</g>
<text xml:space="preserve" text-anchor="start" x="204.67" y="-385.25" font-family="Helvetica,sans-Serif" font-size="10.00" fill="grey">+ptr</text>
</g>
<!-- Node8&#45;&gt;Node1 -->
<g id="edge7_Node000001_Node000008" class="edge">
<title>Node8&#45;&gt;Node1</title>
<g id="a_edge7_Node000001_Node000008"><a xlink:title=" ">
<path fill="none" stroke="#63b8ff" d="M211.8,-298.16C206.28,-286.06 199.54,-271.28 192.34,-255.5"/>
<polygon fill="none" stroke="#63b8ff" points="192.38,-255.59 186.25,-251.79 187.4,-244.67 193.53,-248.47 192.38,-255.59"/>
</a>
</g>
<text xml:space="preserve" text-anchor="start" x="206.16" y="-267.25" font-family="Helvetica,sans-Serif" font-size="10.00" fill="grey">&#45;lock</text>
</g>
</g>
</svg>
