<?xml version="1.0" encoding="UTF-8" standalone="no"?>
<!DOCTYPE svg PUBLIC "-//W3C//DTD SVG 1.1//EN"
 "http://www.w3.org/Graphics/SVG/1.1/DTD/svg11.dtd">
<!-- Generated by graphviz version 14.1.5 (20260411.2331)
 -->
<!-- Title: File Pages: 1 -->
<svg width="357pt" height="914pt"
 viewBox="0.00 0.00 357.00 914.00" xmlns="http://www.w3.org/2000/svg" xmlns:xlink="http://www.w3.org/1999/xlink">
<g id="graph0" class="graph" transform="scale(1 1) rotate(0) translate(4 910)">
<title>File</title>
<!-- Node1 -->
<g id="Node000001" class="node">
<title>Node1</title>
<g id="a_Node000001"><a xlink:title="Interpret a file as to retrieve custom information.">
<polygon fill="#999999" stroke="none" points="238.25,-276 137.75,-276 137.75,0 238.25,0 238.25,-276"/>
<text xml:space="preserve" text-anchor="start" x="180.12" y="-262.25" font-family="Helvetica,sans-Serif" font-size="10.00">File</text>
<text xml:space="preserve" text-anchor="start" x="186.5" y="-246.25" font-family="Helvetica,sans-Serif" font-size="10.00"> </text>
<text xml:space="preserve" text-anchor="start" x="141.75" y="-230.25" font-family="Helvetica,sans-Serif" font-size="10.00">+</text>
<text xml:space="preserve" text-anchor="start" x="151.75" y="-230.25" font-family="Helvetica,sans-Serif" font-size="10.00">File()</text>
<text xml:space="preserve" text-anchor="start" x="141.75" y="-214.25" font-family="Helvetica,sans-Serif" font-size="10.00">+</text>
<text xml:space="preserve" text-anchor="start" x="151.75" y="-214.25" font-family="Helvetica,sans-Serif" font-size="10.00">process_file()</text>
<text xml:space="preserve" text-anchor="start" x="141.75" y="-198.25" font-family="Helvetica,sans-Serif" font-size="10.00">+</text>
<text xml:space="preserve" text-anchor="start" x="151.75" y="-198.25" font-family="Helvetica,sans-Serif" font-size="10.00">write_file()</text>
<text xml:space="preserve" text-anchor="start" x="141.75" y="-182.25" font-family="Helvetica,sans-Serif" font-size="10.00">+</text>
<text xml:space="preserve" text-anchor="start" x="151.75" y="-182.25" font-family="Helvetica,sans-Serif" font-size="10.00">read_file()</text>
<text xml:space="preserve" text-anchor="start" x="141.75" y="-166.25" font-family="Helvetica,sans-Serif" font-size="10.00">+</text>
<text xml:space="preserve" text-anchor="start" x="151.75" y="-166.25" font-family="Helvetica,sans-Serif" font-size="10.00">split_file()</text>
<text xml:space="preserve" text-anchor="start" x="141.75" y="-150.25" font-family="Helvetica,sans-Serif" font-size="10.00">+</text>
<text xml:space="preserve" text-anchor="start" x="151.75" y="-150.25" font-family="Helvetica,sans-Serif" font-size="10.00">has_signature()</text>
<text xml:space="preserve" text-anchor="start" x="141.75" y="-134.25" font-family="Helvetica,sans-Serif" font-size="10.00">+</text>
<text xml:space="preserve" text-anchor="start" x="151.75" y="-134.25" font-family="Helvetica,sans-Serif" font-size="10.00">has_signature()</text>
<text xml:space="preserve" text-anchor="start" x="141.75" y="-118.25" font-family="Helvetica,sans-Serif" font-size="10.00">+</text>
<text xml:space="preserve" text-anchor="start" x="151.75" y="-118.25" font-family="Helvetica,sans-Serif" font-size="10.00">extract_info()</text>
<text xml:space="preserve" text-anchor="start" x="141.75" y="-102.25" font-family="Helvetica,sans-Serif" font-size="10.00">+</text>
<text xml:space="preserve" text-anchor="start" x="151.75" y="-102.25" font-family="Helvetica,sans-Serif" font-size="10.00">extract_info()</text>
<text xml:space="preserve" text-anchor="start" x="141.75" y="-86.25" font-family="Helvetica,sans-Serif" font-size="10.00">+</text>
<text xml:space="preserve" text-anchor="start" x="151.75" y="-86.25" font-family="Helvetica,sans-Serif" font-size="10.00">create_file()</text>
<text xml:space="preserve" text-anchor="start" x="143.25" y="-70.25" font-family="Helvetica,sans-Serif" font-size="10.00">&#45;</text>
<text xml:space="preserve" text-anchor="start" x="151.75" y="-70.25" font-family="Helvetica,sans-Serif" font-size="10.00">check_signature()</text>
<text xml:space="preserve" text-anchor="start" x="143.25" y="-54.25" font-family="Helvetica,sans-Serif" font-size="10.00">&#45;</text>
<text xml:space="preserve" text-anchor="start" x="151.75" y="-54.25" font-family="Helvetica,sans-Serif" font-size="10.00">has_signature()</text>
<text xml:space="preserve" text-anchor="start" x="143.25" y="-38.25" font-family="Helvetica,sans-Serif" font-size="10.00">&#45;</text>
<text xml:space="preserve" text-anchor="start" x="151.75" y="-38.25" font-family="Helvetica,sans-Serif" font-size="10.00">create_file()</text>
<text xml:space="preserve" text-anchor="start" x="143.25" y="-22.25" font-family="Helvetica,sans-Serif" font-size="10.00">&#45;</text>
<text xml:space="preserve" text-anchor="start" x="151.75" y="-22.25" font-family="Helvetica,sans-Serif" font-size="10.00">concatenate_files()</text>
<text xml:space="preserve" text-anchor="start" x="143.25" y="-6.25" font-family="Helvetica,sans-Serif" font-size="10.00">&#45;</text>
<text xml:space="preserve" text-anchor="start" x="151.75" y="-6.25" font-family="Helvetica,sans-Serif" font-size="10.00">create_file()</text>
<polygon fill="#666666" stroke="#666666" points="137.75,-258 137.75,-258 238.25,-258 238.25,-258 137.75,-258"/>
<polygon fill="#666666" stroke="#666666" points="137.75,-242 137.75,-242 238.25,-242 238.25,-242 137.75,-242"/>
<polygon fill="none" stroke="#666666" points="137.75,0 137.75,-276 238.25,-276 238.25,0 137.75,0"/>
</a>
</g>
</g>
<!-- Node2 -->
<g id="Node000002" class="node">
<title>Node2</title>
<g id="a_Node000002"><a xlink:href="struct_file_options.html" target="_top" xlink:title=" ">
<polygon fill="white" stroke="none" points="114,-470 0,-470 0,-386 114,-386 114,-470"/>
<text xml:space="preserve" text-anchor="start" x="32.25" y="-456.25" font-family="Helvetica,sans-Serif" font-size="10.00">FileOptions</text>
<text xml:space="preserve" text-anchor="start" x="4" y="-440.25" font-family="Helvetica,sans-Serif" font-size="10.00">+</text>
<text xml:space="preserve" text-anchor="start" x="14" y="-440.25" font-family="Helvetica,sans-Serif" font-size="10.00">path</text>
<text xml:space="preserve" text-anchor="start" x="4" y="-424.25" font-family="Helvetica,sans-Serif" font-size="10.00">+</text>
<text xml:space="preserve" text-anchor="start" x="14" y="-424.25" font-family="Helvetica,sans-Serif" font-size="10.00">header</text>
<text xml:space="preserve" text-anchor="start" x="4" y="-408.25" font-family="Helvetica,sans-Serif" font-size="10.00">+</text>
<text xml:space="preserve" text-anchor="start" x="14" y="-408.25" font-family="Helvetica,sans-Serif" font-size="10.00">delete_on_dtor</text>
<text xml:space="preserve" text-anchor="start" x="4" y="-392.25" font-family="Helvetica,sans-Serif" font-size="10.00">+</text>
<text xml:space="preserve" text-anchor="start" x="14" y="-392.25" font-family="Helvetica,sans-Serif" font-size="10.00">already_compressed()</text>
<polygon fill="#666666" stroke="#666666" points="0,-452 0,-452 114,-452 114,-452 0,-452"/>
<polygon fill="#666666" stroke="#666666" points="0,-404 0,-404 12,-404 12,-404 0,-404"/>
<polygon fill="#666666" stroke="#666666" points="12,-404 12,-404 114,-404 114,-404 12,-404"/>
<polygon fill="none" stroke="#666666" points="0,-386 0,-470 114,-470 114,-386 0,-386"/>
</a>
</g>
</g>
<!-- Node2&#45;&gt;Node1 -->
<g id="edge1_Node000001_Node000002" class="edge">
<title>Node2&#45;&gt;Node1</title>
<g id="a_edge1_Node000001_Node000002"><a xlink:title=" ">
<path fill="none" stroke="#63b8ff" d="M75.63,-386.04C90.51,-353.33 112.17,-305.71 132.51,-261"/>
<polygon fill="none" stroke="#63b8ff" points="132.44,-261.14 131.29,-254.02 137.41,-250.22 138.57,-257.33 132.44,-261.14"/>
</a>
</g>
<text xml:space="preserve" text-anchor="start" x="117.66" y="-299.25" font-family="Helvetica,sans-Serif" font-size="10.00" fill="grey">&#45;file_options</text>
</g>
<!-- Node3 -->
<g id="Node000003" class="node">
<title>Node3</title>
<g id="a_Node000003"><a xlink:href="structparser_1_1_options.html" target="_top" xlink:title="All the options available.">
<polygon fill="white" stroke="none" points="243.88,-526 132.12,-526 132.12,-330 243.88,-330 243.88,-526"/>
<text xml:space="preserve" text-anchor="start" x="154.62" y="-512.25" font-family="Helvetica,sans-Serif" font-size="10.00">parser::Options</text>
<text xml:space="preserve" text-anchor="start" x="136.12" y="-496.25" font-family="Helvetica,sans-Serif" font-size="10.00">+</text>
<text xml:space="preserve" text-anchor="start" x="146.12" y="-496.25" font-family="Helvetica,sans-Serif" font-size="10.00">filename_in</text>
<text xml:space="preserve" text-anchor="start" x="136.12" y="-480.25" font-family="Helvetica,sans-Serif" font-size="10.00">+</text>
<text xml:space="preserve" text-anchor="start" x="146.12" y="-480.25" font-family="Helvetica,sans-Serif" font-size="10.00">filename_out</text>
<text xml:space="preserve" text-anchor="start" x="136.12" y="-464.25" font-family="Helvetica,sans-Serif" font-size="10.00">+</text>
<text xml:space="preserve" text-anchor="start" x="146.12" y="-464.25" font-family="Helvetica,sans-Serif" font-size="10.00">compressor</text>
<text xml:space="preserve" text-anchor="start" x="136.12" y="-448.25" font-family="Helvetica,sans-Serif" font-size="10.00">+</text>
<text xml:space="preserve" text-anchor="start" x="146.12" y="-448.25" font-family="Helvetica,sans-Serif" font-size="10.00">preset</text>
<text xml:space="preserve" text-anchor="start" x="136.12" y="-432.25" font-family="Helvetica,sans-Serif" font-size="10.00">+</text>
<text xml:space="preserve" text-anchor="start" x="146.12" y="-432.25" font-family="Helvetica,sans-Serif" font-size="10.00">n_files</text>
<text xml:space="preserve" text-anchor="start" x="136.12" y="-416.25" font-family="Helvetica,sans-Serif" font-size="10.00">+</text>
<text xml:space="preserve" text-anchor="start" x="146.12" y="-416.25" font-family="Helvetica,sans-Serif" font-size="10.00">size_files</text>
<text xml:space="preserve" text-anchor="start" x="136.12" y="-400.25" font-family="Helvetica,sans-Serif" font-size="10.00">+</text>
<text xml:space="preserve" text-anchor="start" x="146.12" y="-400.25" font-family="Helvetica,sans-Serif" font-size="10.00">force_compression</text>
<text xml:space="preserve" text-anchor="start" x="136.12" y="-384.25" font-family="Helvetica,sans-Serif" font-size="10.00">+</text>
<text xml:space="preserve" text-anchor="start" x="146.12" y="-384.25" font-family="Helvetica,sans-Serif" font-size="10.00">delete_input</text>
<text xml:space="preserve" text-anchor="start" x="136.12" y="-368.25" font-family="Helvetica,sans-Serif" font-size="10.00">+</text>
<text xml:space="preserve" text-anchor="start" x="146.12" y="-368.25" font-family="Helvetica,sans-Serif" font-size="10.00">concatenate_files</text>
<text xml:space="preserve" text-anchor="start" x="136.12" y="-352.25" font-family="Helvetica,sans-Serif" font-size="10.00">+</text>
<text xml:space="preserve" text-anchor="start" x="146.12" y="-352.25" font-family="Helvetica,sans-Serif" font-size="10.00">decomp_after_concat</text>
<text xml:space="preserve" text-anchor="start" x="186.5" y="-336.25" font-family="Helvetica,sans-Serif" font-size="10.00"> </text>
<polygon fill="#666666" stroke="#666666" points="132.12,-508 132.12,-508 243.88,-508 243.88,-508 132.12,-508"/>
<polygon fill="#666666" stroke="#666666" points="132.12,-348 132.12,-348 144.12,-348 144.12,-348 132.12,-348"/>
<polygon fill="#666666" stroke="#666666" points="144.12,-348 144.12,-348 243.88,-348 243.88,-348 144.12,-348"/>
<polygon fill="none" stroke="#666666" points="132.12,-330 132.12,-526 243.88,-526 243.88,-330 132.12,-330"/>
</a>
</g>
</g>
<!-- Node3&#45;&gt;Node1 -->
<g id="edge2_Node000001_Node000003" class="edge">
<title>Node3&#45;&gt;Node1</title>
<g id="a_edge2_Node000001_Node000003"><a xlink:title=" ">
<path fill="none" stroke="#63b8ff" d="M188,-330.3C188,-316.91 188,-302.91 188,-288.84"/>
<polygon fill="none" stroke="#63b8ff" points="188,-288.81 184,-282.81 188,-276.81 192,-282.81 188,-288.81"/>
</a>
</g>
<text xml:space="preserve" text-anchor="start" x="191" y="-299.25" font-family="Helvetica,sans-Serif" font-size="10.00" fill="grey">&#45;cli_options</text>
</g>
<!-- Node4 -->
<g id="Node000004" class="node">
<title>Node4</title>
<g id="a_Node000004"><a xlink:title=" ">
<polygon fill="white" stroke="none" points="327.88,-454 262.12,-454 262.12,-402 327.88,-402 327.88,-454"/>
<text xml:space="preserve" text-anchor="start" x="266.12" y="-440.25" font-family="Helvetica,sans-Serif" font-size="10.00">std::ofstream</text>
<text xml:space="preserve" text-anchor="start" x="293.5" y="-424.25" font-family="Helvetica,sans-Serif" font-size="10.00"> </text>
<text xml:space="preserve" text-anchor="start" x="293.5" y="-408.25" font-family="Helvetica,sans-Serif" font-size="10.00"> </text>
<polygon fill="#666666" stroke="#666666" points="262.12,-436 262.12,-436 327.88,-436 327.88,-436 262.12,-436"/>
<polygon fill="#666666" stroke="#666666" points="262.12,-420 262.12,-420 327.88,-420 327.88,-420 262.12,-420"/>
<polygon fill="none" stroke="#666666" points="262.12,-402 262.12,-454 327.88,-454 327.88,-402 262.12,-402"/>
</a>
</g>
</g>
<!-- Node4&#45;&gt;Node1 -->
<g id="edge3_Node000001_Node000004" class="edge">
<title>Node4&#45;&gt;Node1</title>
<g id="a_edge3_Node000001_Node000004"><a xlink:title=" ">
<path fill="none" stroke="#63b8ff" d="M286.28,-402.44C276.76,-375.71 260.99,-331.75 247,-294 245.57,-290.15 244.12,-286.25 242.66,-282.32"/>
<polygon fill="none" stroke="#63b8ff" points="242.73,-282.52 236.88,-278.3 238.53,-271.28 244.37,-275.5 242.73,-282.52"/>
</a>
</g>
<text xml:space="preserve" text-anchor="start" x="255.31" y="-299.25" font-family="Helvetica,sans-Serif" font-size="10.00" fill="grey">&#45;out_file</text>
</g>
<!-- Node5 -->
<g id="Node000005" class="node">
<title>Node5</title>
<g id="a_Node000005"><a xlink:title=" ">
<polygon fill="white" stroke="none" points="342.12,-627 247.88,-627 247.88,-563 342.12,-563 342.12,-627"/>
<text xml:space="preserve" text-anchor="start" x="251.88" y="-613.25" font-family="Helvetica,sans-Serif" font-size="10.00">std::basic_ofstream</text>
<text xml:space="preserve" text-anchor="start" x="275.5" y="-601.25" font-family="Helvetica,sans-Serif" font-size="10.00">&lt; Char &gt;</text>
<text xml:space="preserve" text-anchor="start" x="293.5" y="-585.25" font-family="Helvetica,sans-Serif" font-size="10.00"> </text>
<text xml:space="preserve" text-anchor="start" x="293.5" y="-569.25" font-family="Helvetica,sans-Serif" font-size="10.00"> </text>
<polygon fill="#666666" stroke="#666666" points="247.88,-597 247.88,-597 342.12,-597 342.12,-597 247.88,-597"/>
<polygon fill="#666666" stroke="#666666" points="247.88,-581 247.88,-581 342.12,-581 342.12,-581 247.88,-581"/>
<polygon fill="none" stroke="#666666" points="247.88,-563 247.88,-627 342.12,-627 342.12,-563 247.88,-563"/>
</a>
</g>
</g>
<!-- Node5&#45;&gt;Node4 -->
<g id="edge4_Node000004_Node000005" class="edge">
<title>Node5&#45;&gt;Node4</title>
<g id="a_edge4_Node000004_Node000005"><a xlink:title=" ">
<path fill="none" stroke="#63b8ff" d="M295,-552.01C295,-520.98 295,-479.79 295,-453.83"/>
<polygon fill="none" stroke="#63b8ff" points="291.5,-551.84 295,-561.84 298.5,-551.84 291.5,-551.84"/>
</a>
</g>
</g>
<!-- Node6 -->
<g id="Node000006" class="node">
<title>Node6</title>
<g id="a_Node000006"><a xlink:title=" ">
<polygon fill="white" stroke="none" points="340.62,-728 249.38,-728 249.38,-664 340.62,-664 340.62,-728"/>
<text xml:space="preserve" text-anchor="start" x="253.38" y="-714.25" font-family="Helvetica,sans-Serif" font-size="10.00">std::basic_ostream</text>
<text xml:space="preserve" text-anchor="start" x="275.5" y="-702.25" font-family="Helvetica,sans-Serif" font-size="10.00">&lt; Char &gt;</text>
<text xml:space="preserve" text-anchor="start" x="293.5" y="-686.25" font-family="Helvetica,sans-Serif" font-size="10.00"> </text>
<text xml:space="preserve" text-anchor="start" x="293.5" y="-670.25" font-family="Helvetica,sans-Serif" font-size="10.00"> </text>
<polygon fill="#666666" stroke="#666666" points="249.38,-698 249.38,-698 340.62,-698 340.62,-698 249.38,-698"/>
<polygon fill="#666666" stroke="#666666" points="249.38,-682 249.38,-682 340.62,-682 340.62,-682 249.38,-682"/>
<polygon fill="none" stroke="#666666" points="249.38,-664 249.38,-728 340.62,-728 340.62,-664 249.38,-664"/>
</a>
</g>
</g>
<!-- Node6&#45;&gt;Node5 -->
<g id="edge5_Node000005_Node000006" class="edge">
<title>Node6&#45;&gt;Node5</title>
<g id="a_edge5_Node000005_Node000006"><a xlink:title=" ">
<path fill="none" stroke="#63b8ff" d="M295,-652.95C295,-644.16 295,-635.05 295,-626.76"/>
<polygon fill="none" stroke="#63b8ff" points="291.5,-652.7 295,-662.7 298.5,-652.7 291.5,-652.7"/>
</a>
</g>
</g>
<!-- Node7 -->
<g id="Node000007" class="node">
<title>Node7</title>
<g id="a_Node000007"><a xlink:title=" ">
<polygon fill="white" stroke="none" points="348.88,-817 241.12,-817 241.12,-765 348.88,-765 348.88,-817"/>
<text xml:space="preserve" text-anchor="start" x="245.12" y="-803.25" font-family="Helvetica,sans-Serif" font-size="10.00">std::basic_ios&lt; Char &gt;</text>
<text xml:space="preserve" text-anchor="start" x="293.5" y="-787.25" font-family="Helvetica,sans-Serif" font-size="10.00"> </text>
<text xml:space="preserve" text-anchor="start" x="293.5" y="-771.25" font-family="Helvetica,sans-Serif" font-size="10.00"> </text>
<polygon fill="#666666" stroke="#666666" points="241.12,-799 241.12,-799 348.88,-799 348.88,-799 241.12,-799"/>
<polygon fill="#666666" stroke="#666666" points="241.12,-783 241.12,-783 348.88,-783 348.88,-783 241.12,-783"/>
<polygon fill="none" stroke="#666666" points="241.12,-765 241.12,-817 348.88,-817 348.88,-765 241.12,-765"/>
</a>
</g>
</g>
<!-- Node7&#45;&gt;Node6 -->
<g id="edge6_Node000006_Node000007" class="edge">
<title>Node7&#45;&gt;Node6</title>
<g id="a_edge6_Node000006_Node000007"><a xlink:title=" ">
<path fill="none" stroke="#63b8ff" d="M295,-753.85C295,-745.3 295,-736.27 295,-727.98"/>
<polygon fill="none" stroke="#63b8ff" points="291.5,-753.56 295,-763.56 298.5,-753.56 291.5,-753.56"/>
</a>
</g>
</g>
<!-- Node8 -->
<g id="Node000008" class="node">
<title>Node8</title>
<g id="a_Node000008"><a xlink:title=" ">
<polygon fill="white" stroke="none" points="328.25,-906 261.75,-906 261.75,-854 328.25,-854 328.25,-906"/>
<text xml:space="preserve" text-anchor="start" x="265.75" y="-892.25" font-family="Helvetica,sans-Serif" font-size="10.00">std::ios_base</text>
<text xml:space="preserve" text-anchor="start" x="293.5" y="-876.25" font-family="Helvetica,sans-Serif" font-size="10.00"> </text>
<text xml:space="preserve" text-anchor="start" x="293.5" y="-860.25" font-family="Helvetica,sans-Serif" font-size="10.00"> </text>
<polygon fill="#666666" stroke="#666666" points="261.75,-888 261.75,-888 328.25,-888 328.25,-888 261.75,-888"/>
<polygon fill="#666666" stroke="#666666" points="261.75,-872 261.75,-872 328.25,-872 328.25,-872 261.75,-872"/>
<polygon fill="none" stroke="#666666" points="261.75,-854 261.75,-906 328.25,-906 328.25,-854 261.75,-854"/>
</a>
</g>
</g>
<!-- Node8&#45;&gt;Node7 -->
<g id="edge7_Node000007_Node000008" class="edge">
<title>Node8&#45;&gt;Node7</title>
<g id="a_edge7_Node000007_Node000008"><a xlink:title=" ">
<path fill="none" stroke="#63b8ff" d="M295,-843.05C295,-834.21 295,-824.94 295,-816.76"/>
<polygon fill="none" stroke="#63b8ff" points="291.5,-842.79 295,-852.79 298.5,-842.79 291.5,-842.79"/>
</a>
</g>
</g>
</g>
</svg>
