<?xml version="1.0" encoding="UTF-8" standalone="no"?>
<!DOCTYPE svg PUBLIC "-//W3C//DTD SVG 1.1//EN"
 "http://www.w3.org/Graphics/SVG/1.1/DTD/svg11.dtd">
<!-- Generated by graphviz version 14.1.5 (20260411.2331)
 -->
<!-- Title: LZ77&lt; DataType &gt; Pages: 1 -->
<svg width="155pt" height="212pt"
 viewBox="0.00 0.00 155.00 212.00" xmlns="http://www.w3.org/2000/svg" xmlns:xlink="http://www.w3.org/1999/xlink">
<g id="graph0" class="graph" transform="scale(1 1) rotate(0) translate(4 208)">
<title>LZ77&lt; DataType &gt;</title>
<!-- Node1 -->
<g id="Node000001" class="node">
<title>Node1</title>
<g id="a_Node000001"><a xlink:title="Implement the LZ77 algorithm.">
<polygon fill="#999999" stroke="none" points="118.25,-116 28.5,-116 28.5,0 118.25,0 118.25,-116"/>
<text xml:space="preserve" text-anchor="start" x="32.5" y="-102.25" font-family="Helvetica,sans-Serif" font-size="10.00">LZ77&lt; DataType &gt;</text>
<text xml:space="preserve" text-anchor="start" x="37.12" y="-86.25" font-family="Helvetica,sans-Serif" font-size="10.00">&#45;</text>
<text xml:space="preserve" text-anchor="start" x="48.75" y="-86.25" font-family="Helvetica,sans-Serif" font-size="10.00">cli_options</text>
<text xml:space="preserve" text-anchor="start" x="37.12" y="-70.25" font-family="Helvetica,sans-Serif" font-size="10.00">&#45;</text>
<text xml:space="preserve" text-anchor="start" x="48.75" y="-70.25" font-family="Helvetica,sans-Serif" font-size="10.00">data</text>
<text xml:space="preserve" text-anchor="start" x="35.62" y="-54.25" font-family="Helvetica,sans-Serif" font-size="10.00">+</text>
<text xml:space="preserve" text-anchor="start" x="48.75" y="-54.25" font-family="Helvetica,sans-Serif" font-size="10.00">LZ77()</text>
<text xml:space="preserve" text-anchor="start" x="35.62" y="-38.25" font-family="Helvetica,sans-Serif" font-size="10.00">+</text>
<text xml:space="preserve" text-anchor="start" x="48.75" y="-38.25" font-family="Helvetica,sans-Serif" font-size="10.00">LZ77()</text>
<text xml:space="preserve" text-anchor="start" x="35.62" y="-22.25" font-family="Helvetica,sans-Serif" font-size="10.00">+</text>
<text xml:space="preserve" text-anchor="start" x="48.75" y="-22.25" font-family="Helvetica,sans-Serif" font-size="10.00">compress()</text>
<text xml:space="preserve" text-anchor="start" x="35.62" y="-6.25" font-family="Helvetica,sans-Serif" font-size="10.00">+</text>
<text xml:space="preserve" text-anchor="start" x="48.75" y="-6.25" font-family="Helvetica,sans-Serif" font-size="10.00">decompress()</text>
<polygon fill="#666666" stroke="#666666" points="28.5,-98 28.5,-98 118.25,-98 118.25,-98 28.5,-98"/>
<polygon fill="#666666" stroke="#666666" points="28.5,-66 28.5,-66 46.75,-66 46.75,-66 28.5,-66"/>
<polygon fill="#666666" stroke="#666666" points="46.75,-66 46.75,-66 118.25,-66 118.25,-66 46.75,-66"/>
<polygon fill="none" stroke="#666666" points="28.5,0 28.5,-116 118.25,-116 118.25,0 28.5,0"/>
</a>
</g>
</g>
<!-- Node2 -->
<g id="Node000002" class="node">
<title>Node2</title>
<g id="a_Node000002"><a xlink:href="struct_compression_data.html" target="_top" xlink:title=" ">
<polygon fill="white" stroke="none" points="146.75,-204 0,-204 0,-152 146.75,-152 146.75,-204"/>
<text xml:space="preserve" text-anchor="start" x="4" y="-190.25" font-family="Helvetica,sans-Serif" font-size="10.00">CompressionData&lt; DataType &gt;</text>
<text xml:space="preserve" text-anchor="start" x="71.88" y="-174.25" font-family="Helvetica,sans-Serif" font-size="10.00"> </text>
<text xml:space="preserve" text-anchor="start" x="71.88" y="-158.25" font-family="Helvetica,sans-Serif" font-size="10.00"> </text>
<polygon fill="#666666" stroke="#666666" points="0,-186 0,-186 146.75,-186 146.75,-186 0,-186"/>
<polygon fill="#666666" stroke="#666666" points="0,-170 0,-170 146.75,-170 146.75,-170 0,-170"/>
<polygon fill="none" stroke="#666666" points="0,-152 0,-204 146.75,-204 146.75,-152 0,-152"/>
</a>
</g>
</g>
<!-- Node2&#45;&gt;Node1 -->
<g id="edge1_Node000001_Node000002" class="edge">
<title>Node2&#45;&gt;Node1</title>
<g id="a_edge1_Node000001_Node000002"><a xlink:title=" ">
<path fill="none" stroke="darkgreen" d="M73.38,-140.82C73.38,-132.89 73.38,-124.31 73.38,-115.79"/>
<polygon fill="none" stroke="darkgreen" points="69.88,-140.75 73.38,-150.75 76.88,-140.75 69.88,-140.75"/>
</a>
</g>
</g>
</g>
</svg>
