<?xml version="1.0" encoding="UTF-8" standalone="no"?>
<!DOCTYPE svg PUBLIC "-//W3C//DTD SVG 1.1//EN"
 "http://www.w3.org/Graphics/SVG/1.1/DTD/svg11.dtd">
<!-- Generated by graphviz version 14.1.5 (20260411.2331)
 -->
<!-- Title: alg::Rabin::bucket_index Pages: 1 -->
<svg width="400pt" height="104pt"
 viewBox="0.00 0.00 400.00 104.00" xmlns="http://www.w3.org/2000/svg" xmlns:xlink="http://www.w3.org/1999/xlink">
<g id="graph0" class="graph" transform="scale(1 1) rotate(0) translate(4 100)">
<title>alg::Rabin::bucket_index</title>
<!-- Node1 -->
<g id="Node000001" class="node">
<title>Node1</title>
<g id="a_Node000001"><a xlink:title=" ">
<polygon fill="#999999" stroke="#666666" points="392.25,-64 296.75,-64 296.75,-32 392.25,-32 392.25,-64"/>
<text xml:space="preserve" text-anchor="start" x="304.75" y="-50.5" font-family="Helvetica,sans-Serif" font-size="10.00">alg::Rabin::bucket</text>
<text xml:space="preserve" text-anchor="middle" x="344.5" y="-38.5" font-family="Helvetica,sans-Serif" font-size="10.00">_index</text>
</a>
</g>
</g>
<!-- Node2 -->
<g id="Node000002" class="node">
<title>Node2</title>
<g id="a_Node000002"><a xlink:href="classalg_1_1_rabin.html#aac69972318494ea1b3b996e03d604d36" target="_top" xlink:title="Find the biggest pattern between the look ahead buffer and search buffer.">
<polygon fill="white" stroke="#666666" points="260.75,-96 143.5,-96 143.5,-76 260.75,-76 260.75,-96"/>
<text xml:space="preserve" text-anchor="middle" x="202.12" y="-82.5" font-family="Helvetica,sans-Serif" font-size="10.00">alg::Rabin::find_pattern</text>
</a>
</g>
</g>
<!-- Node1&#45;&gt;Node2 -->
<g id="edge1_Node000001_Node000002" class="edge">
<title>Node1&#45;&gt;Node2</title>
<g id="a_edge1_Node000001_Node000002"><a xlink:title=" ">
<path fill="none" stroke="#63b8ff" d="M285.26,-63.77C270.5,-67.76 255.01,-71.96 241.51,-75.61"/>
<polygon fill="#63b8ff" stroke="#63b8ff" points="286.17,-67.15 294.91,-61.15 284.34,-60.39 286.17,-67.15"/>
</a>
</g>
</g>
<!-- Node4 -->
<g id="Node000004" class="node">
<title>Node4</title>
<g id="a_Node000004"><a xlink:href="classalg_1_1_rabin.html#a3e845390e40970d04a161dc5797395ba" target="_top" xlink:title=" ">
<polygon fill="white" stroke="#666666" points="248,-58 156.25,-58 156.25,-38 248,-38 248,-58"/>
<text xml:space="preserve" text-anchor="middle" x="202.12" y="-44.5" font-family="Helvetica,sans-Serif" font-size="10.00">alg::Rabin::Rabin</text>
</a>
</g>
</g>
<!-- Node1&#45;&gt;Node4 -->
<g id="edge3_Node000001_Node000004" class="edge">
<title>Node1&#45;&gt;Node4</title>
<g id="a_edge3_Node000001_Node000004"><a xlink:title=" ">
<path fill="none" stroke="#63b8ff" d="M284.89,-48C272.72,-48 260.08,-48 248.47,-48"/>
<polygon fill="#63b8ff" stroke="#63b8ff" points="284.85,-51.5 294.85,-48 284.85,-44.5 284.85,-51.5"/>
</a>
</g>
</g>
<!-- Node5 -->
<g id="Node000005" class="node">
<title>Node5</title>
<g id="a_Node000005"><a xlink:href="classalg_1_1_rabin.html#a838bad9d27d6ae951862fc5e22ab1e1e" target="_top" xlink:title="Roll and add the hash to the symbol_positions.">
<polygon fill="white" stroke="#666666" points="254.75,-20 149.5,-20 149.5,0 254.75,0 254.75,-20"/>
<text xml:space="preserve" text-anchor="middle" x="202.12" y="-6.5" font-family="Helvetica,sans-Serif" font-size="10.00">alg::Rabin::roll_hash</text>
</a>
</g>
</g>
<!-- Node1&#45;&gt;Node5 -->
<g id="edge5_Node000001_Node000005" class="edge">
<title>Node1&#45;&gt;Node5</title>
<g id="a_edge5_Node000001_Node000005"><a xlink:title=" ">
<path fill="none" stroke="#63b8ff" d="M285.26,-32.23C270.5,-28.24 255.01,-24.04 241.51,-20.39"/>
<polygon fill="#63b8ff" stroke="#63b8ff" points="284.34,-35.61 294.91,-34.85 286.17,-28.85 284.34,-35.61"/>
</a>
</g>
</g>
<!-- Node3 -->
<g id="Node000003" class="node">
<title>Node3</title>
<g id="a_Node000003"><a xlink:href="classalg_1_1_rabin.html#a1c223004b4686ec7bbf0dca95eee3672" target="_top" xlink:title=" ">
<polygon fill="white" stroke="#666666" points="107.5,-77 0,-77 0,-57 107.5,-57 107.5,-77"/>
<text xml:space="preserve" text-anchor="middle" x="53.75" y="-63.5" font-family="Helvetica,sans-Serif" font-size="10.00">alg::Rabin::operator=</text>
</a>
</g>
</g>
<!-- Node2&#45;&gt;Node3 -->
<g id="edge2_Node000002_Node000003" class="edge">
<title>Node2&#45;&gt;Node3</title>
<g id="a_edge2_Node000002_Node000003"><a xlink:title=" ">
<path fill="none" stroke="#63b8ff" d="M131.94,-77.02C123.86,-75.97 115.71,-74.91 107.9,-73.9"/>
<polygon fill="#63b8ff" stroke="#63b8ff" points="131.41,-80.48 141.77,-78.3 132.31,-73.54 131.41,-80.48"/>
</a>
</g>
</g>
<!-- Node4&#45;&gt;Node3 -->
<g id="edge4_Node000004_Node000003" class="edge">
<title>Node4&#45;&gt;Node3</title>
<g id="a_edge4_Node000004_Node000003"><a xlink:title=" ">
<path fill="none" stroke="#63b8ff" d="M144.68,-55.33C132.6,-56.89 119.88,-58.55 107.93,-60.1"/>
<polygon fill="#63b8ff" stroke="#63b8ff" points="145.05,-58.81 154.51,-54.05 144.14,-51.87 145.05,-58.81"/>
</a>
</g>
</g>
</g>
</svg>
