<?xml version="1.0" encoding="UTF-8" standalone="no"?>
<!DOCTYPE svg PUBLIC "-//W3C//DTD SVG 1.1//EN"
 "http://www.w3.org/Graphics/SVG/1.1/DTD/svg11.dtd">
<!-- Generated by graphviz version 14.1.4 (20260321.0153)
 -->
<!-- Title: LZ77Compressor Pages: 1 -->
<!--zoomable 990 -->

<svg id="main" version="1.1" xmlns="http://www.w3.org/2000/svg" xmlns:xlink="http://www.w3.org/1999/xlink" xml:space="preserve" onload="init(evt)">

<style type="text/css"><![CDATA[
.node, .edge {opacity: 0.7;}
.node.selected, .edge.selected {opacity: 1;}
.edge:hover path { stroke: red; }
.edge:hover polygon { stroke: red; fill: red; }
]]></style>

<defs>
  <circle id="rim" cx="0" cy="0" r="7"/>
  <circle id="rim2" cx="0" cy="0" r="3.5"/>
  <g id="zoomPlus">
    <use xlink:href="#rim" fill="#404040"><set attributeName="fill" to="#808080" begin="zoomplus.mouseover" end="zoomplus.mouseout"/></use>
    <path d="M-4,0h8M0,-4v8" fill="none" stroke="white" stroke-width="1.5" pointer-events="none"/>
  </g>
  <g id="zoomMin">
    <use xlink:href="#rim" fill="#404040"><set attributeName="fill" to="#808080" begin="zoomminus.mouseover" end="zoomminus.mouseout"/></use>
    <path d="M-4,0h8" fill="none" stroke="white" stroke-width="1.5" pointer-events="none"/>
  </g>
  <g id="arrowUp" transform="translate(30 24)">
    <use xlink:href="#rim"/>
    <path pointer-events="none" fill="none" stroke="white" stroke-width="1.5" d="M0,-3.0v7 M-2.5,-0.5L0,-3.0L2.5,-0.5"/>
  </g>
  <g id="arrowRight" transform="rotate(90) translate(36 -43)">
    <use xlink:href="#rim"/>
    <path pointer-events="none" fill="none" stroke="white" stroke-width="1.5" d="M0,-3.0v7 M-2.5,-0.5L0,-3.0L2.5,-0.5"/>
  </g>
  <g id="arrowDown" transform="rotate(180) translate(-30 -48)">
    <use xlink:href="#rim"/>
    <path pointer-events="none" fill="none" stroke="white" stroke-width="1.5" d="M0,-3.0v7 M-2.5,-0.5L0,-3.0L2.5,-0.5"/>
  </g>
  <g id="arrowLeft" transform="rotate(270) translate(-36 17)">
    <use xlink:href="#rim"/>
    <path pointer-events="none" fill="none" stroke="white" stroke-width="1.5" d="M0,-3.0v7 M-2.5,-0.5L0,-3.0L2.5,-0.5"/>
  </g>
  <g id="resetDef">
    <use xlink:href="#rim2" fill="#404040"><set attributeName="fill" to="#808080" begin="reset.mouseover" end="reset.mouseout"/></use>
  </g>
</defs>
<script type="application/ecmascript">
var viewWidth = 282;
var viewHeight = 990;
var sectionId = 'dynsection-0';
</script>
<script type="application/ecmascript" xlink:href="svg.min.js"/>
<svg id="graph" class="graph">
<g id="viewport">
<title>LZ77Compressor</title>
<!-- Node1 -->
<g id="Node000001" class="node">
<title>Node1</title>
<g id="a_Node000001"><a xlink:title=" ">
<polygon fill="#999999" stroke="none" points="153.75,-62 54,-62 54,0 153.75,0 153.75,-62"/>
<text xml:space="preserve" text-anchor="start" x="66" y="-50.5" font-family="Helvetica,sans-Serif" font-size="10.00">LZ77Compressor</text>
<text xml:space="preserve" text-anchor="start" x="102.38" y="-36" font-family="Helvetica,sans-Serif" font-size="10.00"> </text>
<text xml:space="preserve" text-anchor="start" x="58" y="-21.5" font-family="Helvetica,sans-Serif" font-size="10.00">+</text>
<text xml:space="preserve" text-anchor="start" x="68" y="-21.5" font-family="Helvetica,sans-Serif" font-size="10.00">LZ77Compressor()</text>
<text xml:space="preserve" text-anchor="start" x="58" y="-7" font-family="Helvetica,sans-Serif" font-size="10.00">+</text>
<text xml:space="preserve" text-anchor="start" x="68" y="-7" font-family="Helvetica,sans-Serif" font-size="10.00">compress()</text>
<polygon fill="#666666" stroke="#666666" points="54,-45.5 54,-45.5 153.75,-45.5 153.75,-45.5 54,-45.5"/>
<polygon fill="#666666" stroke="#666666" points="54,-31 54,-31 153.75,-31 153.75,-31 54,-31"/>
<polygon fill="none" stroke="#666666" points="54,0 54,-62 153.75,-62 153.75,0 54,0"/>
</a>
</g>
</g>
<!-- Node2 -->
<g id="Node000002" class="node">
<title>Node2</title>
<g id="a_Node000002"><a xlink:title=" ">
<polygon fill="white" stroke="none" points="113.75,-773 0,-773 0,-725.5 113.75,-725.5 113.75,-773"/>
<text xml:space="preserve" text-anchor="start" x="4" y="-761.5" font-family="Helvetica,sans-Serif" font-size="10.00">std::span&lt; Sym const &gt;</text>
<text xml:space="preserve" text-anchor="start" x="55.38" y="-747" font-family="Helvetica,sans-Serif" font-size="10.00"> </text>
<text xml:space="preserve" text-anchor="start" x="55.38" y="-732.5" font-family="Helvetica,sans-Serif" font-size="10.00"> </text>
<polygon fill="#666666" stroke="#666666" points="0,-756.5 0,-756.5 113.75,-756.5 113.75,-756.5 0,-756.5"/>
<polygon fill="#666666" stroke="#666666" points="0,-742 0,-742 113.75,-742 113.75,-742 0,-742"/>
<polygon fill="none" stroke="#666666" points="0,-725.5 0,-773 113.75,-773 113.75,-725.5 0,-725.5"/>
</a>
</g>
</g>
<!-- Node2&#45;&gt;Node1 -->
<g id="edge1_Node000001_Node000002" class="edge">
<title>Node2&#45;&gt;Node1</title>
<g id="a_edge1_Node000001_Node000002"><a xlink:title=" ">
<path fill="none" stroke="#63b8ff" d="M57.74,-725.67C59.97,-668.53 66.39,-513.52 74.88,-384.5 83.79,-249 88.68,-215.33 99.88,-80 100.02,-78.27 100.16,-76.5 100.31,-74.72"/>
<polygon fill="none" stroke="#63b8ff" points="100.3,-74.81 96.82,-68.5 101.3,-62.86 104.79,-69.17 100.3,-74.81"/>
</a>
</g>
<text xml:space="preserve" text-anchor="start" x="79.99" y="-356" font-family="Helvetica,sans-Serif" font-size="10.00" fill="grey">&#45;data_</text>
</g>
<!-- Node3 -->
<g id="Node000003" class="node">
<title>Node3</title>
<g id="a_Node000003"><a xlink:href="structSym.html" target="_top" xlink:title=" ">
<polygon fill="white" stroke="none" points="156.38,-982 33.38,-982 33.38,-891 156.38,-891 156.38,-982"/>
<text xml:space="preserve" text-anchor="start" x="84.75" y="-970.5" font-family="Helvetica,sans-Serif" font-size="10.00">Sym</text>
<text xml:space="preserve" text-anchor="start" x="37.38" y="-956" font-family="Helvetica,sans-Serif" font-size="10.00">+</text>
<text xml:space="preserve" text-anchor="start" x="47.38" y="-956" font-family="Helvetica,sans-Serif" font-size="10.00">value</text>
<text xml:space="preserve" text-anchor="start" x="37.38" y="-941.5" font-family="Helvetica,sans-Serif" font-size="10.00">+</text>
<text xml:space="preserve" text-anchor="start" x="47.38" y="-941.5" font-family="Helvetica,sans-Serif" font-size="10.00">operator unsigned char()</text>
<text xml:space="preserve" text-anchor="start" x="37.38" y="-927" font-family="Helvetica,sans-Serif" font-size="10.00">+</text>
<text xml:space="preserve" text-anchor="start" x="47.38" y="-927" font-family="Helvetica,sans-Serif" font-size="10.00">operator&lt;=&gt;()</text>
<text xml:space="preserve" text-anchor="start" x="37.38" y="-912.5" font-family="Helvetica,sans-Serif" font-size="10.00">+</text>
<text xml:space="preserve" text-anchor="start" x="47.38" y="-912.5" font-family="Helvetica,sans-Serif" font-size="10.00">max()</text>
<text xml:space="preserve" text-anchor="start" x="37.38" y="-898" font-family="Helvetica,sans-Serif" font-size="10.00">+</text>
<text xml:space="preserve" text-anchor="start" x="47.38" y="-898" font-family="Helvetica,sans-Serif" font-size="10.00">alphabet_size()</text>
<polygon fill="#666666" stroke="#666666" points="33.38,-965.5 33.38,-965.5 156.38,-965.5 156.38,-965.5 33.38,-965.5"/>
<polygon fill="#666666" stroke="#666666" points="33.38,-951 33.38,-951 45.38,-951 45.38,-951 33.38,-951"/>
<polygon fill="#666666" stroke="#666666" points="45.38,-951 45.38,-951 156.38,-951 156.38,-951 45.38,-951"/>
<polygon fill="none" stroke="#666666" points="33.38,-891 33.38,-982 156.38,-982 156.38,-891 33.38,-891"/>
</a>
</g>
</g>
<!-- Node3&#45;&gt;Node2 -->
<g id="edge2_Node000002_Node000003" class="edge">
<title>Node3&#45;&gt;Node2</title>
<g id="a_edge2_Node000002_Node000003"><a xlink:title=" ">
<path fill="none" stroke="#63b8ff" d="M70.47,-891.27C67.95,-885.27 65.73,-879.08 64.12,-873 56.54,-844.26 55.06,-810.48 55.29,-785.64"/>
<polygon fill="none" stroke="#63b8ff" points="55.29,-785.74 51.42,-779.66 55.54,-773.75 59.41,-779.83 55.29,-785.74"/>
</a>
</g>
<text xml:space="preserve" text-anchor="start" x="67.12" y="-862.5" font-family="Helvetica,sans-Serif" font-size="10.00" fill="grey">+elements</text>
</g>
<!-- Node5 -->
<g id="Node000005" class="node">
<title>Node5</title>
<g id="a_Node000005"><a xlink:title=" ">
<polygon fill="white" stroke="none" points="199.75,-838.5 86,-838.5 86,-791 199.75,-791 199.75,-838.5"/>
<text xml:space="preserve" text-anchor="start" x="90" y="-827" font-family="Helvetica,sans-Serif" font-size="10.00">std::span&lt; const Sym &gt;</text>
<text xml:space="preserve" text-anchor="start" x="141.38" y="-812.5" font-family="Helvetica,sans-Serif" font-size="10.00"> </text>
<text xml:space="preserve" text-anchor="start" x="141.38" y="-798" font-family="Helvetica,sans-Serif" font-size="10.00"> </text>
<polygon fill="#666666" stroke="#666666" points="86,-822 86,-822 199.75,-822 199.75,-822 86,-822"/>
<polygon fill="#666666" stroke="#666666" points="86,-807.5 86,-807.5 199.75,-807.5 199.75,-807.5 86,-807.5"/>
<polygon fill="none" stroke="#666666" points="86,-791 86,-838.5 199.75,-838.5 199.75,-791 86,-791"/>
</a>
</g>
</g>
<!-- Node3&#45;&gt;Node5 -->
<g id="edge5_Node000005_Node000003" class="edge">
<title>Node3&#45;&gt;Node5</title>
<g id="a_edge5_Node000005_Node000003"><a xlink:title=" ">
<path fill="none" stroke="#63b8ff" d="M112.61,-891.25C118.02,-877.76 123.88,-863.13 129,-850.37"/>
<polygon fill="none" stroke="#63b8ff" points="129.02,-850.33 127.54,-843.27 133.48,-839.19 134.96,-846.24 129.02,-850.33"/>
</a>
</g>
<text xml:space="preserve" text-anchor="start" x="128.98" y="-862.5" font-family="Helvetica,sans-Serif" font-size="10.00" fill="grey">+elements</text>
</g>
<!-- Node4 -->
<g id="Node000004" class="node">
<title>Node4</title>
<g id="a_Node000004"><a xlink:href="classWindow.html" target="_top" xlink:title="[lz77.Window]">
<polygon fill="white" stroke="none" points="203.5,-707.5 84.25,-707.5 84.25,-384.5 203.5,-384.5 203.5,-707.5"/>
<text xml:space="preserve" text-anchor="start" x="126.25" y="-696" font-family="Helvetica,sans-Serif" font-size="10.00">Window</text>
<text xml:space="preserve" text-anchor="start" x="89.75" y="-681.5" font-family="Helvetica,sans-Serif" font-size="10.00">&#45;</text>
<text xml:space="preserve" text-anchor="start" x="98.25" y="-681.5" font-family="Helvetica,sans-Serif" font-size="10.00">size_look_ahead</text>
<text xml:space="preserve" text-anchor="start" x="89.75" y="-667" font-family="Helvetica,sans-Serif" font-size="10.00">&#45;</text>
<text xml:space="preserve" text-anchor="start" x="98.25" y="-667" font-family="Helvetica,sans-Serif" font-size="10.00">max_size_look_ahead</text>
<text xml:space="preserve" text-anchor="start" x="89.75" y="-652.5" font-family="Helvetica,sans-Serif" font-size="10.00">&#45;</text>
<text xml:space="preserve" text-anchor="start" x="98.25" y="-652.5" font-family="Helvetica,sans-Serif" font-size="10.00">size_search</text>
<text xml:space="preserve" text-anchor="start" x="89.75" y="-638" font-family="Helvetica,sans-Serif" font-size="10.00">&#45;</text>
<text xml:space="preserve" text-anchor="start" x="98.25" y="-638" font-family="Helvetica,sans-Serif" font-size="10.00">max_size_search</text>
<text xml:space="preserve" text-anchor="start" x="89.75" y="-623.5" font-family="Helvetica,sans-Serif" font-size="10.00">&#45;</text>
<text xml:space="preserve" text-anchor="start" x="98.25" y="-623.5" font-family="Helvetica,sans-Serif" font-size="10.00">max_size</text>
<text xml:space="preserve" text-anchor="start" x="89.75" y="-609" font-family="Helvetica,sans-Serif" font-size="10.00">&#45;</text>
<text xml:space="preserve" text-anchor="start" x="98.25" y="-609" font-family="Helvetica,sans-Serif" font-size="10.00">offset</text>
<text xml:space="preserve" text-anchor="start" x="88.25" y="-594.5" font-family="Helvetica,sans-Serif" font-size="10.00">+</text>
<text xml:space="preserve" text-anchor="start" x="98.25" y="-594.5" font-family="Helvetica,sans-Serif" font-size="10.00">Window()</text>
<text xml:space="preserve" text-anchor="start" x="88.25" y="-580" font-family="Helvetica,sans-Serif" font-size="10.00">+</text>
<text xml:space="preserve" text-anchor="start" x="98.25" y="-580" font-family="Helvetica,sans-Serif" font-size="10.00">Window()</text>
<text xml:space="preserve" text-anchor="start" x="88.25" y="-565.5" font-family="Helvetica,sans-Serif" font-size="10.00">+</text>
<text xml:space="preserve" text-anchor="start" x="98.25" y="-565.5" font-family="Helvetica,sans-Serif" font-size="10.00">begin()</text>
<text xml:space="preserve" text-anchor="start" x="88.25" y="-551" font-family="Helvetica,sans-Serif" font-size="10.00">+</text>
<text xml:space="preserve" text-anchor="start" x="98.25" y="-551" font-family="Helvetica,sans-Serif" font-size="10.00">end()</text>
<text xml:space="preserve" text-anchor="start" x="88.25" y="-536.5" font-family="Helvetica,sans-Serif" font-size="10.00">+</text>
<text xml:space="preserve" text-anchor="start" x="98.25" y="-536.5" font-family="Helvetica,sans-Serif" font-size="10.00">slide()</text>
<text xml:space="preserve" text-anchor="start" x="88.25" y="-522" font-family="Helvetica,sans-Serif" font-size="10.00">+</text>
<text xml:space="preserve" text-anchor="start" x="98.25" y="-522" font-family="Helvetica,sans-Serif" font-size="10.00">look_ahead_buffer()</text>
<text xml:space="preserve" text-anchor="start" x="88.25" y="-507.5" font-family="Helvetica,sans-Serif" font-size="10.00">+</text>
<text xml:space="preserve" text-anchor="start" x="98.25" y="-507.5" font-family="Helvetica,sans-Serif" font-size="10.00">search_buffer()</text>
<text xml:space="preserve" text-anchor="start" x="88.25" y="-493" font-family="Helvetica,sans-Serif" font-size="10.00">+</text>
<text xml:space="preserve" text-anchor="start" x="98.25" y="-493" font-family="Helvetica,sans-Serif" font-size="10.00">get_size_search()</text>
<text xml:space="preserve" text-anchor="start" x="88.25" y="-478.5" font-family="Helvetica,sans-Serif" font-size="10.00">+</text>
<text xml:space="preserve" text-anchor="start" x="98.25" y="-478.5" font-family="Helvetica,sans-Serif" font-size="10.00">get_size_la_buf()</text>
<text xml:space="preserve" text-anchor="start" x="88.25" y="-464" font-family="Helvetica,sans-Serif" font-size="10.00">+</text>
<text xml:space="preserve" text-anchor="start" x="98.25" y="-464" font-family="Helvetica,sans-Serif" font-size="10.00">get_max_size()</text>
<text xml:space="preserve" text-anchor="start" x="88.25" y="-449.5" font-family="Helvetica,sans-Serif" font-size="10.00">+</text>
<text xml:space="preserve" text-anchor="start" x="98.25" y="-449.5" font-family="Helvetica,sans-Serif" font-size="10.00">get_max_size_search()</text>
<text xml:space="preserve" text-anchor="start" x="88.25" y="-435" font-family="Helvetica,sans-Serif" font-size="10.00">+</text>
<text xml:space="preserve" text-anchor="start" x="98.25" y="-435" font-family="Helvetica,sans-Serif" font-size="10.00">get_relative_pos()</text>
<text xml:space="preserve" text-anchor="start" x="88.25" y="-420.5" font-family="Helvetica,sans-Serif" font-size="10.00">+</text>
<text xml:space="preserve" text-anchor="start" x="98.25" y="-420.5" font-family="Helvetica,sans-Serif" font-size="10.00">get_absolute_pos()</text>
<text xml:space="preserve" text-anchor="start" x="88.25" y="-406" font-family="Helvetica,sans-Serif" font-size="10.00">+</text>
<text xml:space="preserve" text-anchor="start" x="98.25" y="-406" font-family="Helvetica,sans-Serif" font-size="10.00">operator[]()</text>
<text xml:space="preserve" text-anchor="start" x="88.25" y="-391.5" font-family="Helvetica,sans-Serif" font-size="10.00">+</text>
<text xml:space="preserve" text-anchor="start" x="98.25" y="-391.5" font-family="Helvetica,sans-Serif" font-size="10.00">get_data()</text>
<polygon fill="#666666" stroke="#666666" points="84.25,-691 84.25,-691 203.5,-691 203.5,-691 84.25,-691"/>
<polygon fill="#666666" stroke="#666666" points="84.25,-604 84.25,-604 96.25,-604 96.25,-604 84.25,-604"/>
<polygon fill="#666666" stroke="#666666" points="96.25,-604 96.25,-604 203.5,-604 203.5,-604 96.25,-604"/>
<polygon fill="none" stroke="#666666" points="84.25,-384.5 84.25,-707.5 203.5,-707.5 203.5,-384.5 84.25,-384.5"/>
</a>
</g>
</g>
<!-- Node4&#45;&gt;Node1 -->
<g id="edge3_Node000001_Node000004" class="edge">
<title>Node4&#45;&gt;Node1</title>
<g id="a_edge3_Node000001_Node000004"><a xlink:title=" ">
<path fill="none" stroke="#63b8ff" d="M118.54,-384.73C116.33,-366.97 114.37,-349.12 112.88,-332 104.89,-240.69 103.63,-133.23 103.62,-74.92"/>
<polygon fill="none" stroke="#63b8ff" points="103.62,-74.77 99.63,-68.77 103.64,-62.77 107.63,-68.78 103.62,-74.77"/>
</a>
</g>
<text xml:space="preserve" text-anchor="start" x="115.88" y="-221" font-family="Helvetica,sans-Serif" font-size="10.00" fill="grey">&#45;window</text>
</g>
<!-- Node6 -->
<g id="Node000006" class="node">
<title>Node6</title>
<g id="a_Node000006"><a xlink:href="classalg_1_1Rabin.html" target="_top" xlink:title="This class enables fast string matching. Makes use of two chained arrays. This class is intertwined w...">
<polygon fill="white" stroke="none" points="273.62,-332 164.12,-332 164.12,-114.5 273.62,-114.5 273.62,-332"/>
<text xml:space="preserve" text-anchor="start" x="197.12" y="-320.5" font-family="Helvetica,sans-Serif" font-size="10.00">alg::Rabin</text>
<text xml:space="preserve" text-anchor="start" x="169.62" y="-306" font-family="Helvetica,sans-Serif" font-size="10.00">&#45;</text>
<text xml:space="preserve" text-anchor="start" x="178.12" y="-306" font-family="Helvetica,sans-Serif" font-size="10.00">hash</text>
<text xml:space="preserve" text-anchor="start" x="169.62" y="-291.5" font-family="Helvetica,sans-Serif" font-size="10.00">&#45;</text>
<text xml:space="preserve" text-anchor="start" x="178.12" y="-291.5" font-family="Helvetica,sans-Serif" font-size="10.00">position</text>
<text xml:space="preserve" text-anchor="start" x="169.62" y="-277" font-family="Helvetica,sans-Serif" font-size="10.00">&#45;</text>
<text xml:space="preserve" text-anchor="start" x="178.12" y="-277" font-family="Helvetica,sans-Serif" font-size="10.00">poss_table</text>
<text xml:space="preserve" text-anchor="start" x="169.62" y="-262.5" font-family="Helvetica,sans-Serif" font-size="10.00">&#45;</text>
<text xml:space="preserve" text-anchor="start" x="178.12" y="-262.5" font-family="Helvetica,sans-Serif" font-size="10.00">prev_poss_table</text>
<text xml:space="preserve" text-anchor="start" x="169.62" y="-248" font-family="Helvetica,sans-Serif" font-size="10.00">&#45;</text>
<text xml:space="preserve" text-anchor="start" x="178.12" y="-248" font-family="Helvetica,sans-Serif" font-size="10.00">MAX_CHAIN</text>
<text xml:space="preserve" text-anchor="start" x="168.12" y="-233.5" font-family="Helvetica,sans-Serif" font-size="10.00">+</text>
<text xml:space="preserve" text-anchor="start" x="178.12" y="-233.5" font-family="Helvetica,sans-Serif" font-size="10.00">Rabin()</text>
<text xml:space="preserve" text-anchor="start" x="168.12" y="-219" font-family="Helvetica,sans-Serif" font-size="10.00">+</text>
<text xml:space="preserve" text-anchor="start" x="178.12" y="-219" font-family="Helvetica,sans-Serif" font-size="10.00">operator=()</text>
<text xml:space="preserve" text-anchor="start" x="168.12" y="-204.5" font-family="Helvetica,sans-Serif" font-size="10.00">+</text>
<text xml:space="preserve" text-anchor="start" x="178.12" y="-204.5" font-family="Helvetica,sans-Serif" font-size="10.00">roll_hash()</text>
<text xml:space="preserve" text-anchor="start" x="168.12" y="-190" font-family="Helvetica,sans-Serif" font-size="10.00">+</text>
<text xml:space="preserve" text-anchor="start" x="178.12" y="-190" font-family="Helvetica,sans-Serif" font-size="10.00">find_pattern()</text>
<text xml:space="preserve" text-anchor="start" x="168.12" y="-175.5" font-family="Helvetica,sans-Serif" font-size="10.00">+</text>
<text xml:space="preserve" text-anchor="start" x="178.12" y="-175.5" font-family="Helvetica,sans-Serif" font-size="10.00">get_pos()</text>
<text xml:space="preserve" text-anchor="start" x="169.62" y="-161" font-family="Helvetica,sans-Serif" font-size="10.00">&#45;</text>
<text xml:space="preserve" text-anchor="start" x="178.12" y="-161" font-family="Helvetica,sans-Serif" font-size="10.00">bucket_index()</text>
<text xml:space="preserve" text-anchor="start" x="169.62" y="-146.5" font-family="Helvetica,sans-Serif" font-size="10.00">&#45;</text>
<text xml:space="preserve" text-anchor="start" x="178.12" y="-146.5" font-family="Helvetica,sans-Serif" font-size="10.00">prev_bucket_index()</text>
<text xml:space="preserve" text-anchor="start" x="169.62" y="-132" font-family="Helvetica,sans-Serif" font-size="10.00">&#45;</text>
<text xml:space="preserve" text-anchor="start" x="178.12" y="-132" font-family="Helvetica,sans-Serif" font-size="10.00">get_max_chain_from</text>
<text xml:space="preserve" text-anchor="start" x="178.12" y="-121.5" font-family="Helvetica,sans-Serif" font-size="10.00">_preset()</text>
<polygon fill="#666666" stroke="#666666" points="164.12,-315.5 164.12,-315.5 273.62,-315.5 273.62,-315.5 164.12,-315.5"/>
<polygon fill="#666666" stroke="#666666" points="164.12,-243 164.12,-243 176.12,-243 176.12,-243 164.12,-243"/>
<polygon fill="#666666" stroke="#666666" points="176.12,-243 176.12,-243 273.62,-243 273.62,-243 176.12,-243"/>
<polygon fill="none" stroke="#666666" points="164.12,-114.5 164.12,-332 273.62,-332 273.62,-114.5 164.12,-114.5"/>
</a>
</g>
</g>
<!-- Node4&#45;&gt;Node6 -->
<g id="edge7_Node000006_Node000004" class="edge">
<title>Node4&#45;&gt;Node6</title>
<g id="a_edge7_Node000006_Node000004"><a xlink:title=" ">
<path fill="none" stroke="#63b8ff" d="M181.38,-384.62C184.54,-371.09 187.7,-357.56 190.78,-344.42"/>
<polygon fill="none" stroke="#63b8ff" points="190.75,-344.51 188.23,-337.76 193.49,-332.83 196.02,-339.58 190.75,-344.51"/>
</a>
</g>
<text xml:space="preserve" text-anchor="start" x="191.09" y="-356" font-family="Helvetica,sans-Serif" font-size="10.00" fill="grey">&#45;data</text>
</g>
<!-- Node5&#45;&gt;Node4 -->
<g id="edge4_Node000004_Node000005" class="edge">
<title>Node5&#45;&gt;Node4</title>
<g id="a_edge4_Node000004_Node000005"><a xlink:title=" ">
<path fill="none" stroke="#63b8ff" d="M142.96,-791.01C143.02,-773.8 143.12,-748.41 143.22,-720.42"/>
<polygon fill="none" stroke="#63b8ff" points="143.23,-720.31 139.25,-714.29 143.27,-708.31 147.25,-714.32 143.23,-720.31"/>
</a>
</g>
<text xml:space="preserve" text-anchor="start" x="146.2" y="-747" font-family="Helvetica,sans-Serif" font-size="10.00" fill="grey">&#45;data</text>
</g>
<!-- Node6&#45;&gt;Node1 -->
<g id="edge6_Node000001_Node000006" class="edge">
<title>Node6&#45;&gt;Node1</title>
<g id="a_edge6_Node000001_Node000006"><a xlink:title=" ">
<path fill="none" stroke="#63b8ff" d="M164.24,-131.86C151.69,-111.1 138.95,-90.03 128.44,-72.64"/>
<polygon fill="none" stroke="#63b8ff" points="128.55,-72.82 122.02,-69.75 122.34,-62.55 128.87,-65.61 128.55,-72.82"/>
</a>
</g>
<text xml:space="preserve" text-anchor="start" x="144.07" y="-86" font-family="Helvetica,sans-Serif" font-size="10.00" fill="grey">&#45;pattern_matcher</text>
</g>
</g>
</svg>

<g id="navigator" transform="translate(0 0)" fill="#404254">
  <rect fill="#f2f5e9" fill-opacity="0.5" stroke="#606060" stroke-width=".5" x="0" y="0" width="60" height="60"/>
  <use id="zoomplus" xlink:href="#zoomPlus" x="17" y="9" onmousedown="handleZoom(evt,'in')"/>
  <use id="zoomminus" xlink:href="#zoomMin" x="42" y="9" onmousedown="handleZoom(evt,'out')"/>
  <use id="reset" xlink:href="#resetDef" x="30" y="36" onmousedown="handleReset()"/>
   <use id="arrowup" xlink:href="#arrowUp" x="0" y="0" onmousedown="handlePan(0,-1)"/>
  <use id="arrowright" xlink:href="#arrowRight" x="0" y="0" onmousedown="handlePan(1,0)"/>
  <use id="arrowdown" xlink:href="#arrowDown" x="0" y="0" onmousedown="handlePan(0,1)"/>
  <use id="arrowleft" xlink:href="#arrowLeft" x="0" y="0" onmousedown="handlePan(-1,0)"/>
</g>
<svg viewBox="0 0 15 15" width="100%" height="30px" preserveAspectRatio="xMaxYMin meet">
 <g id="arrow_out" transform="scale(0.3 0.3)">
  <a xlink:href="classLZ77Compressor__coll__graph_org.svg" target="_base">
   <rect id="button" ry="5" rx="5" y="6" x="6" height="38" width="38"
        fill="#f2f5e9" fill-opacity="0.5" stroke="#606060" stroke-width="1.0"/>
   <path id="arrow"
     d="M 11.500037,31.436501 C 11.940474,20.09759 22.043105,11.32322 32.158766,21.979434 L 37.068811,17.246167 C 37.068811,17.246167 37.088388,32 37.088388,32 L 22.160133,31.978069 C 22.160133,31.978069 26.997745,27.140456 26.997745,27.140456 C 18.528582,18.264221 13.291696,25.230495 11.500037,31.436501 z"
     style="fill:#404040;"/>
  </a>
 </g>
</svg>

<style type='text/css'>
<![CDATA[
[data-mouse-over-selected='false'] { opacity: 0.7; }
[data-mouse-over-selected='true']  { opacity: 1.0; }
]]>
</style>
<script type="application/ecmascript"><![CDATA[
document.addEventListener('DOMContentLoaded', (event) => {
  highlightEdges();
  highlightAdjacentNodes();
});
]]></script>
</svg>
