<?xml version="1.0" encoding="UTF-8" standalone="no"?>
<!DOCTYPE svg PUBLIC "-//W3C//DTD SVG 1.1//EN"
 "http://www.w3.org/Graphics/SVG/1.1/DTD/svg11.dtd">
<!-- Generated by graphviz version 14.1.5 (20260411.2331)
 -->
<!-- Title: parser::Token::Token Pages: 1 -->
<svg width="360pt" height="102pt"
 viewBox="0.00 0.00 360.00 102.00" xmlns="http://www.w3.org/2000/svg" xmlns:xlink="http://www.w3.org/1999/xlink">
<g id="graph0" class="graph" transform="scale(1 1) rotate(0) translate(4 98)">
<title>parser::Token::Token</title>
<!-- Node1 -->
<g id="Node000001" class="node">
<title>Node1</title>
<g id="a_Node000001"><a xlink:title=" ">
<polygon fill="#999999" stroke="#666666" points="107.5,-48 0,-48 0,-28 107.5,-28 107.5,-48"/>
<text xml:space="preserve" text-anchor="middle" x="53.75" y="-34.5" font-family="Helvetica,sans-Serif" font-size="10.00">parser::Token::Token</text>
</a>
</g>
</g>
<!-- Node2 -->
<g id="Node000002" class="node">
<title>Node2</title>
<g id="a_Node000002"><a xlink:href="namespaceparser.html#a883c446b2f982a5d7b6989f2442e8186" target="_top" xlink:title=" ">
<polygon fill="white" stroke="#666666" points="228.12,-76 166.38,-76 166.38,-56 228.12,-56 228.12,-76"/>
<text xml:space="preserve" text-anchor="middle" x="197.25" y="-62.5" font-family="Helvetica,sans-Serif" font-size="10.00">parser::lex</text>
</a>
</g>
</g>
<!-- Node1&#45;&gt;Node2 -->
<g id="edge1_Node000001_Node000002" class="edge">
<title>Node1&#45;&gt;Node2</title>
<g id="a_edge1_Node000001_Node000002"><a xlink:title=" ">
<path fill="none" stroke="#63b8ff" d="M107.44,-48.43C123.22,-51.55 140.28,-54.92 155.19,-57.88"/>
<polygon fill="#63b8ff" stroke="#63b8ff" points="154.15,-61.24 164.64,-59.74 155.51,-54.37 154.15,-61.24"/>
</a>
</g>
</g>
<!-- Node4 -->
<g id="Node000004" class="node">
<title>Node4</title>
<g id="a_Node000004"><a xlink:href="classparser_1_1_token.html#a1a02f18007b4724b39adab951f180e9f" target="_top" xlink:title=" ">
<polygon fill="white" stroke="#666666" points="251,-20 143.5,-20 143.5,0 251,0 251,-20"/>
<text xml:space="preserve" text-anchor="middle" x="197.25" y="-6.5" font-family="Helvetica,sans-Serif" font-size="10.00">parser::Token::Token</text>
</a>
</g>
</g>
<!-- Node1&#45;&gt;Node4 -->
<g id="edge4_Node000001_Node000004" class="edge">
<title>Node1&#45;&gt;Node4</title>
<g id="a_edge4_Node000001_Node000004"><a xlink:title=" ">
<path fill="none" stroke="#63b8ff" d="M107.44,-27.57C115.54,-25.97 123.98,-24.3 132.3,-22.65"/>
<polygon fill="#63b8ff" stroke="#63b8ff" points="132.9,-26.1 142.03,-20.73 131.54,-19.24 132.9,-26.1"/>
</a>
</g>
</g>
<!-- Node2&#45;&gt;Node2 -->
<g id="edge2_Node000002_Node000002" class="edge">
<title>Node2&#45;&gt;Node2</title>
<g id="a_edge2_Node000002_Node000002"><a xlink:title=" ">
<path fill="none" stroke="#63b8ff" d="M177.85,-76.34C169.55,-84.98 176.02,-94 197.25,-94 208.86,-94 216.05,-91.3 218.83,-87.44"/>
<polygon fill="#63b8ff" stroke="#63b8ff" points="222.31,-86.96 216.95,-77.82 215.44,-88.31 222.31,-86.96"/>
</a>
</g>
</g>
<!-- Node3 -->
<g id="Node000003" class="node">
<title>Node3</title>
<g id="a_Node000003"><a xlink:href="utils_8cppm.html#a6c327b69ce479189b2946651f162daec" target="_top" xlink:title="throw_error is a custom error logger to the terminal. This will NOT ALWAYS throw.">
<polygon fill="white" stroke="#666666" points="351.75,-76 287,-76 287,-56 351.75,-56 351.75,-76"/>
<text xml:space="preserve" text-anchor="middle" x="319.38" y="-62.5" font-family="Helvetica,sans-Serif" font-size="10.00">throw_error</text>
</a>
</g>
</g>
<!-- Node2&#45;&gt;Node3 -->
<g id="edge3_Node000002_Node000003" class="edge">
<title>Node2&#45;&gt;Node3</title>
<g id="a_edge3_Node000002_Node000003"><a xlink:title=" ">
<path fill="none" stroke="#63b8ff" d="M228.56,-66C242.74,-66 259.88,-66 275.37,-66"/>
<polygon fill="#63b8ff" stroke="#63b8ff" points="275.3,-69.5 285.3,-66 275.3,-62.5 275.3,-69.5"/>
</a>
</g>
</g>
<!-- Node4&#45;&gt;Node4 -->
<g id="edge5_Node000004_Node000004" class="edge">
<title>Node4&#45;&gt;Node4</title>
<g id="a_edge5_Node000004_Node000004"><a xlink:title=" ">
<path fill="none" stroke="#63b8ff" d="M177.85,-20.34C169.55,-28.98 176.02,-38 197.25,-38 208.86,-38 216.05,-35.3 218.83,-31.44"/>
<polygon fill="#63b8ff" stroke="#63b8ff" points="222.31,-30.96 216.95,-21.82 215.44,-32.31 222.31,-30.96"/>
</a>
</g>
</g>
</g>
</svg>
