<?xml version="1.0" encoding="UTF-8" standalone="no"?>
<!DOCTYPE svg PUBLIC "-//W3C//DTD SVG 1.1//EN"
 "http://www.w3.org/Graphics/SVG/1.1/DTD/svg11.dtd">
<!-- Generated by graphviz version 14.1.4 (20260321.0153)
 -->
<!-- Title: parser::Token Pages: 1 -->
<svg width="75pt" height="114pt"
 viewBox="0.00 0.00 75.00 114.00" xmlns="http://www.w3.org/2000/svg" xmlns:xlink="http://www.w3.org/1999/xlink">
<g id="graph0" class="graph" transform="scale(1 1) rotate(0) translate(4 109.5)">
<title>parser::Token</title>
<!-- Node1 -->
<g id="Node000001" class="node">
<title>Node1</title>
<g id="a_Node000001"><a xlink:title="Represents a cli option.">
<polygon fill="#999999" stroke="none" points="67.25,-105.5 0,-105.5 0,0 67.25,0 67.25,-105.5"/>
<text xml:space="preserve" text-anchor="start" x="4" y="-94" font-family="Helvetica,sans-Serif" font-size="10.00">parser::Token</text>
<text xml:space="preserve" text-anchor="start" x="6" y="-79.5" font-family="Helvetica,sans-Serif" font-size="10.00">&#45;</text>
<text xml:space="preserve" text-anchor="start" x="15" y="-79.5" font-family="Helvetica,sans-Serif" font-size="10.00">value</text>
<text xml:space="preserve" text-anchor="start" x="6" y="-65" font-family="Helvetica,sans-Serif" font-size="10.00">&#45;</text>
<text xml:space="preserve" text-anchor="start" x="15" y="-65" font-family="Helvetica,sans-Serif" font-size="10.00">type</text>
<text xml:space="preserve" text-anchor="start" x="4.5" y="-50.5" font-family="Helvetica,sans-Serif" font-size="10.00">+</text>
<text xml:space="preserve" text-anchor="start" x="15" y="-50.5" font-family="Helvetica,sans-Serif" font-size="10.00">Token()</text>
<text xml:space="preserve" text-anchor="start" x="4.5" y="-36" font-family="Helvetica,sans-Serif" font-size="10.00">+</text>
<text xml:space="preserve" text-anchor="start" x="15" y="-36" font-family="Helvetica,sans-Serif" font-size="10.00">Token()</text>
<text xml:space="preserve" text-anchor="start" x="4.5" y="-21.5" font-family="Helvetica,sans-Serif" font-size="10.00">+</text>
<text xml:space="preserve" text-anchor="start" x="15" y="-21.5" font-family="Helvetica,sans-Serif" font-size="10.00">get_value()</text>
<text xml:space="preserve" text-anchor="start" x="4.5" y="-7" font-family="Helvetica,sans-Serif" font-size="10.00">+</text>
<text xml:space="preserve" text-anchor="start" x="15" y="-7" font-family="Helvetica,sans-Serif" font-size="10.00">get_type()</text>
<polygon fill="#666666" stroke="#666666" points="0,-89 0,-89 67.25,-89 67.25,-89 0,-89"/>
<polygon fill="#666666" stroke="#666666" points="0,-60 0,-60 13,-60 13,-60 0,-60"/>
<polygon fill="#666666" stroke="#666666" points="13,-60 13,-60 67.25,-60 67.25,-60 13,-60"/>
<polygon fill="none" stroke="#666666" points="0,0 0,-105.5 67.25,-105.5 67.25,0 0,0"/>
</a>
</g>
</g>
</g>
</svg>
