<?xml version="1.0" encoding="UTF-8" standalone="no"?>
<!DOCTYPE svg PUBLIC "-//W3C//DTD SVG 1.1//EN"
 "http://www.w3.org/Graphics/SVG/1.1/DTD/svg11.dtd">
<!-- Generated by graphviz version 14.1.5 (20260411.2331)
 -->
<!-- Title: Window Pages: 1 -->
<svg width="131pt" height="624pt"
 viewBox="0.00 0.00 131.00 624.00" xmlns="http://www.w3.org/2000/svg" xmlns:xlink="http://www.w3.org/1999/xlink">
<g id="graph0" class="graph" transform="scale(1 1) rotate(0) translate(4 620)">
<title>Window</title>
<!-- Node1 -->
<g id="Node000001" class="node">
<title>Node1</title>
<g id="a_Node000001"><a xlink:title="[lz77.Window]">
<polygon fill="#999999" stroke="none" points="121.12,-356 1.87,-356 1.87,0 121.12,0 121.12,-356"/>
<text xml:space="preserve" text-anchor="start" x="43.88" y="-342.25" font-family="Helvetica,sans-Serif" font-size="10.00">Window</text>
<text xml:space="preserve" text-anchor="start" x="7.38" y="-326.25" font-family="Helvetica,sans-Serif" font-size="10.00">&#45;</text>
<text xml:space="preserve" text-anchor="start" x="15.88" y="-326.25" font-family="Helvetica,sans-Serif" font-size="10.00">size_look_ahead</text>
<text xml:space="preserve" text-anchor="start" x="7.38" y="-310.25" font-family="Helvetica,sans-Serif" font-size="10.00">&#45;</text>
<text xml:space="preserve" text-anchor="start" x="15.88" y="-310.25" font-family="Helvetica,sans-Serif" font-size="10.00">max_size_look_ahead</text>
<text xml:space="preserve" text-anchor="start" x="7.38" y="-294.25" font-family="Helvetica,sans-Serif" font-size="10.00">&#45;</text>
<text xml:space="preserve" text-anchor="start" x="15.88" y="-294.25" font-family="Helvetica,sans-Serif" font-size="10.00">size_search</text>
<text xml:space="preserve" text-anchor="start" x="7.38" y="-278.25" font-family="Helvetica,sans-Serif" font-size="10.00">&#45;</text>
<text xml:space="preserve" text-anchor="start" x="15.88" y="-278.25" font-family="Helvetica,sans-Serif" font-size="10.00">max_size_search</text>
<text xml:space="preserve" text-anchor="start" x="7.38" y="-262.25" font-family="Helvetica,sans-Serif" font-size="10.00">&#45;</text>
<text xml:space="preserve" text-anchor="start" x="15.88" y="-262.25" font-family="Helvetica,sans-Serif" font-size="10.00">max_size</text>
<text xml:space="preserve" text-anchor="start" x="7.38" y="-246.25" font-family="Helvetica,sans-Serif" font-size="10.00">&#45;</text>
<text xml:space="preserve" text-anchor="start" x="15.88" y="-246.25" font-family="Helvetica,sans-Serif" font-size="10.00">offset</text>
<text xml:space="preserve" text-anchor="start" x="5.88" y="-230.25" font-family="Helvetica,sans-Serif" font-size="10.00">+</text>
<text xml:space="preserve" text-anchor="start" x="15.88" y="-230.25" font-family="Helvetica,sans-Serif" font-size="10.00">Window()</text>
<text xml:space="preserve" text-anchor="start" x="5.88" y="-214.25" font-family="Helvetica,sans-Serif" font-size="10.00">+</text>
<text xml:space="preserve" text-anchor="start" x="15.88" y="-214.25" font-family="Helvetica,sans-Serif" font-size="10.00">Window()</text>
<text xml:space="preserve" text-anchor="start" x="5.88" y="-198.25" font-family="Helvetica,sans-Serif" font-size="10.00">+</text>
<text xml:space="preserve" text-anchor="start" x="15.88" y="-198.25" font-family="Helvetica,sans-Serif" font-size="10.00">begin()</text>
<text xml:space="preserve" text-anchor="start" x="5.88" y="-182.25" font-family="Helvetica,sans-Serif" font-size="10.00">+</text>
<text xml:space="preserve" text-anchor="start" x="15.88" y="-182.25" font-family="Helvetica,sans-Serif" font-size="10.00">end()</text>
<text xml:space="preserve" text-anchor="start" x="5.88" y="-166.25" font-family="Helvetica,sans-Serif" font-size="10.00">+</text>
<text xml:space="preserve" text-anchor="start" x="15.88" y="-166.25" font-family="Helvetica,sans-Serif" font-size="10.00">slide()</text>
<text xml:space="preserve" text-anchor="start" x="5.88" y="-150.25" font-family="Helvetica,sans-Serif" font-size="10.00">+</text>
<text xml:space="preserve" text-anchor="start" x="15.88" y="-150.25" font-family="Helvetica,sans-Serif" font-size="10.00">look_ahead_buffer()</text>
<text xml:space="preserve" text-anchor="start" x="5.88" y="-134.25" font-family="Helvetica,sans-Serif" font-size="10.00">+</text>
<text xml:space="preserve" text-anchor="start" x="15.88" y="-134.25" font-family="Helvetica,sans-Serif" font-size="10.00">search_buffer()</text>
<text xml:space="preserve" text-anchor="start" x="5.88" y="-118.25" font-family="Helvetica,sans-Serif" font-size="10.00">+</text>
<text xml:space="preserve" text-anchor="start" x="15.88" y="-118.25" font-family="Helvetica,sans-Serif" font-size="10.00">get_size_search()</text>
<text xml:space="preserve" text-anchor="start" x="5.88" y="-102.25" font-family="Helvetica,sans-Serif" font-size="10.00">+</text>
<text xml:space="preserve" text-anchor="start" x="15.88" y="-102.25" font-family="Helvetica,sans-Serif" font-size="10.00">get_size_la_buf()</text>
<text xml:space="preserve" text-anchor="start" x="5.88" y="-86.25" font-family="Helvetica,sans-Serif" font-size="10.00">+</text>
<text xml:space="preserve" text-anchor="start" x="15.88" y="-86.25" font-family="Helvetica,sans-Serif" font-size="10.00">get_max_size()</text>
<text xml:space="preserve" text-anchor="start" x="5.88" y="-70.25" font-family="Helvetica,sans-Serif" font-size="10.00">+</text>
<text xml:space="preserve" text-anchor="start" x="15.88" y="-70.25" font-family="Helvetica,sans-Serif" font-size="10.00">get_max_size_search()</text>
<text xml:space="preserve" text-anchor="start" x="5.88" y="-54.25" font-family="Helvetica,sans-Serif" font-size="10.00">+</text>
<text xml:space="preserve" text-anchor="start" x="15.88" y="-54.25" font-family="Helvetica,sans-Serif" font-size="10.00">get_relative_pos()</text>
<text xml:space="preserve" text-anchor="start" x="5.88" y="-38.25" font-family="Helvetica,sans-Serif" font-size="10.00">+</text>
<text xml:space="preserve" text-anchor="start" x="15.88" y="-38.25" font-family="Helvetica,sans-Serif" font-size="10.00">get_absolute_pos()</text>
<text xml:space="preserve" text-anchor="start" x="5.88" y="-22.25" font-family="Helvetica,sans-Serif" font-size="10.00">+</text>
<text xml:space="preserve" text-anchor="start" x="15.88" y="-22.25" font-family="Helvetica,sans-Serif" font-size="10.00">operator[]()</text>
<text xml:space="preserve" text-anchor="start" x="5.88" y="-6.25" font-family="Helvetica,sans-Serif" font-size="10.00">+</text>
<text xml:space="preserve" text-anchor="start" x="15.88" y="-6.25" font-family="Helvetica,sans-Serif" font-size="10.00">get_data()</text>
<polygon fill="#666666" stroke="#666666" points="1.88,-338 1.88,-338 121.12,-338 121.12,-338 1.88,-338"/>
<polygon fill="#666666" stroke="#666666" points="1.88,-242 1.88,-242 13.88,-242 13.88,-242 1.88,-242"/>
<polygon fill="#666666" stroke="#666666" points="13.88,-242 13.88,-242 121.12,-242 121.12,-242 13.88,-242"/>
<polygon fill="none" stroke="#666666" points="1.88,0 1.88,-356 121.12,-356 121.12,0 1.88,0"/>
</a>
</g>
</g>
<!-- Node2 -->
<g id="Node000002" class="node">
<title>Node2</title>
<g id="a_Node000002"><a xlink:title=" ">
<polygon fill="white" stroke="none" points="118.38,-462 4.62,-462 4.62,-410 118.38,-410 118.38,-462"/>
<text xml:space="preserve" text-anchor="start" x="8.62" y="-448.25" font-family="Helvetica,sans-Serif" font-size="10.00">std::span&lt; const Sym &gt;</text>
<text xml:space="preserve" text-anchor="start" x="60" y="-432.25" font-family="Helvetica,sans-Serif" font-size="10.00"> </text>
<text xml:space="preserve" text-anchor="start" x="60" y="-416.25" font-family="Helvetica,sans-Serif" font-size="10.00"> </text>
<polygon fill="#666666" stroke="#666666" points="4.62,-444 4.62,-444 118.38,-444 118.38,-444 4.62,-444"/>
<polygon fill="#666666" stroke="#666666" points="4.62,-428 4.62,-428 118.38,-428 118.38,-428 4.62,-428"/>
<polygon fill="none" stroke="#666666" points="4.62,-410 4.62,-462 118.38,-462 118.38,-410 4.62,-410"/>
</a>
</g>
</g>
<!-- Node2&#45;&gt;Node1 -->
<g id="edge1_Node000001_Node000002" class="edge">
<title>Node2&#45;&gt;Node1</title>
<g id="a_edge1_Node000001_Node000002"><a xlink:title=" ">
<path fill="none" stroke="#63b8ff" d="M61.5,-410.45C61.5,-399.18 61.5,-384.72 61.5,-368.53"/>
<polygon fill="none" stroke="#63b8ff" points="61.5,-368.74 57.5,-362.74 61.5,-356.74 65.5,-362.74 61.5,-368.74"/>
</a>
</g>
<text xml:space="preserve" text-anchor="start" x="64.5" y="-379.25" font-family="Helvetica,sans-Serif" font-size="10.00" fill="grey">&#45;data</text>
</g>
<!-- Node3 -->
<g id="Node000003" class="node">
<title>Node3</title>
<g id="a_Node000003"><a xlink:href="struct_sym.html" target="_top" xlink:title=" ">
<polygon fill="white" stroke="none" points="123,-616 0,-616 0,-516 123,-516 123,-616"/>
<text xml:space="preserve" text-anchor="start" x="51.38" y="-602.25" font-family="Helvetica,sans-Serif" font-size="10.00">Sym</text>
<text xml:space="preserve" text-anchor="start" x="4" y="-586.25" font-family="Helvetica,sans-Serif" font-size="10.00">+</text>
<text xml:space="preserve" text-anchor="start" x="14" y="-586.25" font-family="Helvetica,sans-Serif" font-size="10.00">value</text>
<text xml:space="preserve" text-anchor="start" x="4" y="-570.25" font-family="Helvetica,sans-Serif" font-size="10.00">+</text>
<text xml:space="preserve" text-anchor="start" x="14" y="-570.25" font-family="Helvetica,sans-Serif" font-size="10.00">operator unsigned char()</text>
<text xml:space="preserve" text-anchor="start" x="4" y="-554.25" font-family="Helvetica,sans-Serif" font-size="10.00">+</text>
<text xml:space="preserve" text-anchor="start" x="14" y="-554.25" font-family="Helvetica,sans-Serif" font-size="10.00">operator&lt;=&gt;()</text>
<text xml:space="preserve" text-anchor="start" x="4" y="-538.25" font-family="Helvetica,sans-Serif" font-size="10.00">+</text>
<text xml:space="preserve" text-anchor="start" x="14" y="-538.25" font-family="Helvetica,sans-Serif" font-size="10.00">max()</text>
<text xml:space="preserve" text-anchor="start" x="4" y="-522.25" font-family="Helvetica,sans-Serif" font-size="10.00">+</text>
<text xml:space="preserve" text-anchor="start" x="14" y="-522.25" font-family="Helvetica,sans-Serif" font-size="10.00">alphabet_size()</text>
<polygon fill="#666666" stroke="#666666" points="0,-598 0,-598 123,-598 123,-598 0,-598"/>
<polygon fill="#666666" stroke="#666666" points="0,-582 0,-582 12,-582 12,-582 0,-582"/>
<polygon fill="#666666" stroke="#666666" points="12,-582 12,-582 123,-582 123,-582 12,-582"/>
<polygon fill="none" stroke="#666666" points="0,-516 0,-616 123,-616 123,-516 0,-516"/>
</a>
</g>
</g>
<!-- Node3&#45;&gt;Node2 -->
<g id="edge2_Node000002_Node000003" class="edge">
<title>Node3&#45;&gt;Node2</title>
<g id="a_edge2_Node000002_Node000003"><a xlink:title=" ">
<path fill="none" stroke="#63b8ff" d="M61.5,-516.24C61.5,-502.51 61.5,-487.77 61.5,-474.78"/>
<polygon fill="none" stroke="#63b8ff" points="61.5,-474.89 57.5,-468.89 61.5,-462.89 65.5,-468.89 61.5,-474.89"/>
</a>
</g>
<text xml:space="preserve" text-anchor="start" x="64.5" y="-485.25" font-family="Helvetica,sans-Serif" font-size="10.00" fill="grey">+elements</text>
</g>
</g>
</svg>
