<?xml version="1.0" encoding="UTF-8" standalone="no"?>
<!DOCTYPE svg PUBLIC "-//W3C//DTD SVG 1.1//EN"
 "http://www.w3.org/Graphics/SVG/1.1/DTD/svg11.dtd">
<!-- Generated by graphviz version 14.1.4 (20260321.0153)
 -->
<!-- Title: LZ77Decompressor Pages: 1 -->
<svg width="131pt" height="746pt"
 viewBox="0.00 0.00 131.00 746.00" xmlns="http://www.w3.org/2000/svg" xmlns:xlink="http://www.w3.org/1999/xlink">
<g id="graph0" class="graph" transform="scale(1 1) rotate(0) translate(4 741.5)">
<title>LZ77Decompressor</title>
<!-- Node1 -->
<g id="Node000001" class="node">
<title>Node1</title>
<g id="a_Node000001"><a xlink:title=" ">
<polygon fill="#999999" stroke="none" points="116.62,-62 6.38,-62 6.38,0 116.62,0 116.62,-62"/>
<text xml:space="preserve" text-anchor="start" x="18.38" y="-50.5" font-family="Helvetica,sans-Serif" font-size="10.00">LZ77Decompressor</text>
<text xml:space="preserve" text-anchor="start" x="60" y="-36" font-family="Helvetica,sans-Serif" font-size="10.00"> </text>
<text xml:space="preserve" text-anchor="start" x="10.38" y="-21.5" font-family="Helvetica,sans-Serif" font-size="10.00">+</text>
<text xml:space="preserve" text-anchor="start" x="20.38" y="-21.5" font-family="Helvetica,sans-Serif" font-size="10.00">LZ77Decompressor()</text>
<text xml:space="preserve" text-anchor="start" x="10.38" y="-7" font-family="Helvetica,sans-Serif" font-size="10.00">+</text>
<text xml:space="preserve" text-anchor="start" x="20.38" y="-7" font-family="Helvetica,sans-Serif" font-size="10.00">decompress()</text>
<polygon fill="#666666" stroke="#666666" points="6.38,-45.5 6.38,-45.5 116.62,-45.5 116.62,-45.5 6.38,-45.5"/>
<polygon fill="#666666" stroke="#666666" points="6.38,-31 6.38,-31 116.62,-31 116.62,-31 6.38,-31"/>
<polygon fill="none" stroke="#666666" points="6.38,0 6.38,-62 116.62,-62 116.62,0 6.38,0"/>
</a>
</g>
</g>
<!-- Node2 -->
<g id="Node000002" class="node">
<title>Node2</title>
<g id="a_Node000002"><a xlink:href="classLZ77Block.html" target="_top" xlink:title="Represents a block of data encoded by LZ77.">
<polygon fill="white" stroke="none" points="121.12,-379.5 1.88,-379.5 1.88,-114.5 121.12,-114.5 121.12,-379.5"/>
<text xml:space="preserve" text-anchor="start" x="37.88" y="-368" font-family="Helvetica,sans-Serif" font-size="10.00">LZ77Block</text>
<text xml:space="preserve" text-anchor="start" x="7.38" y="-353.5" font-family="Helvetica,sans-Serif" font-size="10.00">&#45;</text>
<text xml:space="preserve" text-anchor="start" x="15.88" y="-353.5" font-family="Helvetica,sans-Serif" font-size="10.00">compressed_length_</text>
<text xml:space="preserve" text-anchor="start" x="7.38" y="-339" font-family="Helvetica,sans-Serif" font-size="10.00">&#45;</text>
<text xml:space="preserve" text-anchor="start" x="15.88" y="-339" font-family="Helvetica,sans-Serif" font-size="10.00">uncompressed_length_</text>
<text xml:space="preserve" text-anchor="start" x="5.88" y="-324.5" font-family="Helvetica,sans-Serif" font-size="10.00">+</text>
<text xml:space="preserve" text-anchor="start" x="15.88" y="-324.5" font-family="Helvetica,sans-Serif" font-size="10.00">LZ77Block()</text>
<text xml:space="preserve" text-anchor="start" x="5.88" y="-310" font-family="Helvetica,sans-Serif" font-size="10.00">+</text>
<text xml:space="preserve" text-anchor="start" x="15.88" y="-310" font-family="Helvetica,sans-Serif" font-size="10.00">LZ77Block()</text>
<text xml:space="preserve" text-anchor="start" x="5.88" y="-295.5" font-family="Helvetica,sans-Serif" font-size="10.00">+</text>
<text xml:space="preserve" text-anchor="start" x="15.88" y="-295.5" font-family="Helvetica,sans-Serif" font-size="10.00">serialize()</text>
<text xml:space="preserve" text-anchor="start" x="5.88" y="-281" font-family="Helvetica,sans-Serif" font-size="10.00">+</text>
<text xml:space="preserve" text-anchor="start" x="15.88" y="-281" font-family="Helvetica,sans-Serif" font-size="10.00">write_to()</text>
<text xml:space="preserve" text-anchor="start" x="5.88" y="-266.5" font-family="Helvetica,sans-Serif" font-size="10.00">+</text>
<text xml:space="preserve" text-anchor="start" x="15.88" y="-266.5" font-family="Helvetica,sans-Serif" font-size="10.00">push_back()</text>
<text xml:space="preserve" text-anchor="start" x="5.88" y="-252" font-family="Helvetica,sans-Serif" font-size="10.00">+</text>
<text xml:space="preserve" text-anchor="start" x="15.88" y="-252" font-family="Helvetica,sans-Serif" font-size="10.00">clear()</text>
<text xml:space="preserve" text-anchor="start" x="5.88" y="-237.5" font-family="Helvetica,sans-Serif" font-size="10.00">+</text>
<text xml:space="preserve" text-anchor="start" x="15.88" y="-237.5" font-family="Helvetica,sans-Serif" font-size="10.00">reserve()</text>
<text xml:space="preserve" text-anchor="start" x="5.88" y="-223" font-family="Helvetica,sans-Serif" font-size="10.00">+</text>
<text xml:space="preserve" text-anchor="start" x="15.88" y="-223" font-family="Helvetica,sans-Serif" font-size="10.00">size()</text>
<text xml:space="preserve" text-anchor="start" x="5.88" y="-208.5" font-family="Helvetica,sans-Serif" font-size="10.00">+</text>
<text xml:space="preserve" text-anchor="start" x="15.88" y="-208.5" font-family="Helvetica,sans-Serif" font-size="10.00">size_bytes()</text>
<text xml:space="preserve" text-anchor="start" x="5.88" y="-194" font-family="Helvetica,sans-Serif" font-size="10.00">+</text>
<text xml:space="preserve" text-anchor="start" x="15.88" y="-194" font-family="Helvetica,sans-Serif" font-size="10.00">compressed_length()</text>
<text xml:space="preserve" text-anchor="start" x="5.88" y="-179.5" font-family="Helvetica,sans-Serif" font-size="10.00">+</text>
<text xml:space="preserve" text-anchor="start" x="15.88" y="-179.5" font-family="Helvetica,sans-Serif" font-size="10.00">uncompressed_length()</text>
<text xml:space="preserve" text-anchor="start" x="5.88" y="-165" font-family="Helvetica,sans-Serif" font-size="10.00">+</text>
<text xml:space="preserve" text-anchor="start" x="15.88" y="-165" font-family="Helvetica,sans-Serif" font-size="10.00">operator[]()</text>
<text xml:space="preserve" text-anchor="start" x="5.88" y="-150.5" font-family="Helvetica,sans-Serif" font-size="10.00">+</text>
<text xml:space="preserve" text-anchor="start" x="15.88" y="-150.5" font-family="Helvetica,sans-Serif" font-size="10.00">begin()</text>
<text xml:space="preserve" text-anchor="start" x="5.88" y="-136" font-family="Helvetica,sans-Serif" font-size="10.00">+</text>
<text xml:space="preserve" text-anchor="start" x="15.88" y="-136" font-family="Helvetica,sans-Serif" font-size="10.00">end()</text>
<text xml:space="preserve" text-anchor="start" x="5.88" y="-121.5" font-family="Helvetica,sans-Serif" font-size="10.00">+</text>
<text xml:space="preserve" text-anchor="start" x="15.88" y="-121.5" font-family="Helvetica,sans-Serif" font-size="10.00">operator[]()</text>
<polygon fill="#666666" stroke="#666666" points="1.88,-363 1.88,-363 121.12,-363 121.12,-363 1.88,-363"/>
<polygon fill="#666666" stroke="#666666" points="1.88,-334 1.88,-334 13.88,-334 13.88,-334 1.88,-334"/>
<polygon fill="#666666" stroke="#666666" points="13.88,-334 13.88,-334 121.12,-334 121.12,-334 13.88,-334"/>
<polygon fill="none" stroke="#666666" points="1.88,-114.5 1.88,-379.5 121.12,-379.5 121.12,-114.5 1.88,-114.5"/>
</a>
</g>
</g>
<!-- Node2&#45;&gt;Node1 -->
<g id="edge1_Node000001_Node000002" class="edge">
<title>Node2&#45;&gt;Node1</title>
<g id="a_edge1_Node000001_Node000002"><a xlink:title=" ">
<path fill="none" stroke="#63b8ff" d="M61.5,-114.74C61.5,-100.41 61.5,-86.69 61.5,-74.68"/>
<polygon fill="none" stroke="#63b8ff" points="61.5,-74.82 57.5,-68.82 61.5,-62.82 65.5,-68.82 61.5,-74.82"/>
</a>
</g>
<text xml:space="preserve" text-anchor="start" x="64.5" y="-86" font-family="Helvetica,sans-Serif" font-size="10.00" fill="grey">&#45;data_</text>
</g>
<!-- Node3 -->
<g id="Node000003" class="node">
<title>Node3</title>
<g id="a_Node000003"><a xlink:title=" ">
<polygon fill="white" stroke="none" points="110.12,-479.5 12.88,-479.5 12.88,-432 110.12,-432 110.12,-479.5"/>
<text xml:space="preserve" text-anchor="start" x="16.88" y="-468" font-family="Helvetica,sans-Serif" font-size="10.00">std::vector&lt; Token &gt;</text>
<text xml:space="preserve" text-anchor="start" x="60" y="-453.5" font-family="Helvetica,sans-Serif" font-size="10.00"> </text>
<text xml:space="preserve" text-anchor="start" x="60" y="-439" font-family="Helvetica,sans-Serif" font-size="10.00"> </text>
<polygon fill="#666666" stroke="#666666" points="12.88,-463 12.88,-463 110.12,-463 110.12,-463 12.88,-463"/>
<polygon fill="#666666" stroke="#666666" points="12.88,-448.5 12.88,-448.5 110.12,-448.5 110.12,-448.5 12.88,-448.5"/>
<polygon fill="none" stroke="#666666" points="12.88,-432 12.88,-479.5 110.12,-479.5 110.12,-432 12.88,-432"/>
</a>
</g>
</g>
<!-- Node3&#45;&gt;Node2 -->
<g id="edge2_Node000002_Node000003" class="edge">
<title>Node3&#45;&gt;Node2</title>
<g id="a_edge2_Node000002_Node000003"><a xlink:title=" ">
<path fill="none" stroke="#63b8ff" d="M61.5,-432.23C61.5,-421.41 61.5,-407.45 61.5,-392.06"/>
<polygon fill="none" stroke="#63b8ff" points="61.5,-392.35 57.5,-386.35 61.5,-380.35 65.5,-386.35 61.5,-392.35"/>
</a>
</g>
<text xml:space="preserve" text-anchor="start" x="64.5" y="-403.5" font-family="Helvetica,sans-Serif" font-size="10.00" fill="grey">&#45;block</text>
</g>
<!-- Node4 -->
<g id="Node000004" class="node">
<title>Node4</title>
<g id="a_Node000004"><a xlink:href="structToken.html" target="_top" xlink:title="This is the type LZ77 will output.">
<polygon fill="white" stroke="none" points="91.12,-594 31.88,-594 31.88,-532 91.12,-532 91.12,-594"/>
<text xml:space="preserve" text-anchor="start" x="48.75" y="-582.5" font-family="Helvetica,sans-Serif" font-size="10.00">Token</text>
<text xml:space="preserve" text-anchor="start" x="35.88" y="-568" font-family="Helvetica,sans-Serif" font-size="10.00">+</text>
<text xml:space="preserve" text-anchor="start" x="45.88" y="-568" font-family="Helvetica,sans-Serif" font-size="10.00">offset</text>
<text xml:space="preserve" text-anchor="start" x="35.88" y="-553.5" font-family="Helvetica,sans-Serif" font-size="10.00">+</text>
<text xml:space="preserve" text-anchor="start" x="45.88" y="-553.5" font-family="Helvetica,sans-Serif" font-size="10.00">length</text>
<text xml:space="preserve" text-anchor="start" x="35.88" y="-539" font-family="Helvetica,sans-Serif" font-size="10.00">+</text>
<text xml:space="preserve" text-anchor="start" x="45.88" y="-539" font-family="Helvetica,sans-Serif" font-size="10.00">serialize()</text>
<polygon fill="#666666" stroke="#666666" points="31.88,-577.5 31.88,-577.5 91.12,-577.5 91.12,-577.5 31.88,-577.5"/>
<polygon fill="#666666" stroke="#666666" points="31.88,-548.5 31.88,-548.5 43.88,-548.5 43.88,-548.5 31.88,-548.5"/>
<polygon fill="#666666" stroke="#666666" points="43.88,-548.5 43.88,-548.5 91.12,-548.5 91.12,-548.5 43.88,-548.5"/>
<polygon fill="none" stroke="#666666" points="31.88,-532 31.88,-594 91.12,-594 91.12,-532 31.88,-532"/>
</a>
</g>
</g>
<!-- Node4&#45;&gt;Node3 -->
<g id="edge3_Node000003_Node000004" class="edge">
<title>Node4&#45;&gt;Node3</title>
<g id="a_edge3_Node000003_Node000004"><a xlink:title=" ">
<path fill="none" stroke="#63b8ff" d="M61.5,-532.12C61.5,-519.67 61.5,-505.12 61.5,-492.14"/>
<polygon fill="none" stroke="#63b8ff" points="61.5,-492.24 57.5,-486.24 61.5,-480.24 65.5,-486.24 61.5,-492.24"/>
</a>
</g>
<text xml:space="preserve" text-anchor="start" x="64.5" y="-503.5" font-family="Helvetica,sans-Serif" font-size="10.00" fill="grey">+elements</text>
</g>
<!-- Node5 -->
<g id="Node000005" class="node">
<title>Node5</title>
<g id="a_Node000005"><a xlink:href="structSym.html" target="_top" xlink:title=" ">
<polygon fill="white" stroke="none" points="123,-737.5 0,-737.5 0,-646.5 123,-646.5 123,-737.5"/>
<text xml:space="preserve" text-anchor="start" x="51.38" y="-726" font-family="Helvetica,sans-Serif" font-size="10.00">Sym</text>
<text xml:space="preserve" text-anchor="start" x="4" y="-711.5" font-family="Helvetica,sans-Serif" font-size="10.00">+</text>
<text xml:space="preserve" text-anchor="start" x="14" y="-711.5" font-family="Helvetica,sans-Serif" font-size="10.00">value</text>
<text xml:space="preserve" text-anchor="start" x="4" y="-697" font-family="Helvetica,sans-Serif" font-size="10.00">+</text>
<text xml:space="preserve" text-anchor="start" x="14" y="-697" font-family="Helvetica,sans-Serif" font-size="10.00">operator unsigned char()</text>
<text xml:space="preserve" text-anchor="start" x="4" y="-682.5" font-family="Helvetica,sans-Serif" font-size="10.00">+</text>
<text xml:space="preserve" text-anchor="start" x="14" y="-682.5" font-family="Helvetica,sans-Serif" font-size="10.00">operator&lt;=&gt;()</text>
<text xml:space="preserve" text-anchor="start" x="4" y="-668" font-family="Helvetica,sans-Serif" font-size="10.00">+</text>
<text xml:space="preserve" text-anchor="start" x="14" y="-668" font-family="Helvetica,sans-Serif" font-size="10.00">max()</text>
<text xml:space="preserve" text-anchor="start" x="4" y="-653.5" font-family="Helvetica,sans-Serif" font-size="10.00">+</text>
<text xml:space="preserve" text-anchor="start" x="14" y="-653.5" font-family="Helvetica,sans-Serif" font-size="10.00">alphabet_size()</text>
<polygon fill="#666666" stroke="#666666" points="0,-721 0,-721 123,-721 123,-721 0,-721"/>
<polygon fill="#666666" stroke="#666666" points="0,-706.5 0,-706.5 12,-706.5 12,-706.5 0,-706.5"/>
<polygon fill="#666666" stroke="#666666" points="12,-706.5 12,-706.5 123,-706.5 123,-706.5 12,-706.5"/>
<polygon fill="none" stroke="#666666" points="0,-646.5 0,-737.5 123,-737.5 123,-646.5 0,-646.5"/>
</a>
</g>
</g>
<!-- Node5&#45;&gt;Node4 -->
<g id="edge4_Node000004_Node000005" class="edge">
<title>Node5&#45;&gt;Node4</title>
<g id="a_edge4_Node000004_Node000005"><a xlink:title=" ">
<path fill="none" stroke="#63b8ff" d="M61.5,-646.58C61.5,-633.63 61.5,-619.51 61.5,-606.66"/>
<polygon fill="none" stroke="#63b8ff" points="61.5,-606.75 57.5,-600.75 61.5,-594.75 65.5,-600.75 61.5,-606.75"/>
</a>
</g>
<text xml:space="preserve" text-anchor="start" x="64.5" y="-618" font-family="Helvetica,sans-Serif" font-size="10.00" fill="grey">+symbol</text>
</g>
</g>
</svg>
