<?xml version="1.0" encoding="UTF-8" standalone="no"?>
<!DOCTYPE svg PUBLIC "-//W3C//DTD SVG 1.1//EN"
 "http://www.w3.org/Graphics/SVG/1.1/DTD/svg11.dtd">
<!-- Generated by graphviz version 14.1.5 (20260411.2331)
 -->
<!-- Title: FileInfo::split_file Pages: 1 -->
<svg width="361pt" height="47pt"
 viewBox="0.00 0.00 361.00 47.00" xmlns="http://www.w3.org/2000/svg" xmlns:xlink="http://www.w3.org/1999/xlink">
<g id="graph0" class="graph" transform="scale(1 1) rotate(0) translate(4 43)">
<title>FileInfo::split_file</title>
<!-- Node1 -->
<g id="Node000001" class="node">
<title>Node1</title>
<g id="a_Node000001"><a xlink:title=" ">
<polygon fill="#999999" stroke="#666666" points="90.25,-20 0,-20 0,0 90.25,0 90.25,-20"/>
<text xml:space="preserve" text-anchor="middle" x="45.12" y="-6.5" font-family="Helvetica,sans-Serif" font-size="10.00">FileInfo::split_file</text>
</a>
</g>
</g>
<!-- Node2 -->
<g id="Node000002" class="node">
<title>Node2</title>
<g id="a_Node000002"><a xlink:href="class_file_info.html#a9ec4f681948c70beda564ffd1d40bc10" target="_top" xlink:title=" ">
<polygon fill="white" stroke="#666666" points="251.75,-39 126.25,-39 126.25,-19 251.75,-19 251.75,-39"/>
<text xml:space="preserve" text-anchor="middle" x="189" y="-25.5" font-family="Helvetica,sans-Serif" font-size="10.00">FileInfo::check_signature</text>
</a>
</g>
</g>
<!-- Node1&#45;&gt;Node2 -->
<g id="edge1_Node000001_Node000002" class="edge">
<title>Node1&#45;&gt;Node2</title>
<g id="a_edge1_Node000001_Node000002"><a xlink:title=" ">
<path fill="none" stroke="#63b8ff" d="M90.63,-15.96C98.34,-16.99 106.53,-18.09 114.77,-19.19"/>
<polygon fill="#63b8ff" stroke="#63b8ff" points="114.11,-22.64 124.49,-20.49 115.04,-15.7 114.11,-22.64"/>
</a>
</g>
</g>
<!-- Node3 -->
<g id="Node000003" class="node">
<title>Node3</title>
<g id="a_Node000003"><a xlink:href="utils_8cppm.html#a6c327b69ce479189b2946651f162daec" target="_top" xlink:title="throw_error is a custom error logger to the terminal. This will NOT ALWAYS throw.">
<polygon fill="white" stroke="#666666" points="352.5,-20 287.75,-20 287.75,0 352.5,0 352.5,-20"/>
<text xml:space="preserve" text-anchor="middle" x="320.12" y="-6.5" font-family="Helvetica,sans-Serif" font-size="10.00">throw_error</text>
</a>
</g>
</g>
<!-- Node1&#45;&gt;Node3 -->
<g id="edge3_Node000001_Node000003" class="edge">
<title>Node1&#45;&gt;Node3</title>
<g id="a_edge3_Node000001_Node000003"><a xlink:title=" ">
<path fill="none" stroke="#63b8ff" d="M90.59,-10C141.79,-10 225.31,-10 275.95,-10"/>
<polygon fill="#63b8ff" stroke="#63b8ff" points="275.95,-13.5 285.95,-10 275.95,-6.5 275.95,-13.5"/>
</a>
</g>
</g>
<!-- Node2&#45;&gt;Node3 -->
<g id="edge2_Node000002_Node000003" class="edge">
<title>Node2&#45;&gt;Node3</title>
<g id="a_edge2_Node000002_Node000003"><a xlink:title=" ">
<path fill="none" stroke="#63b8ff" d="M251.92,-19.89C260.08,-18.69 268.3,-17.48 276.06,-16.34"/>
<polygon fill="#63b8ff" stroke="#63b8ff" points="276.52,-19.81 285.91,-14.89 275.5,-12.88 276.52,-19.81"/>
</a>
</g>
</g>
</g>
</svg>
