<?xml version="1.0" encoding="UTF-8" standalone="no"?>
<!DOCTYPE svg PUBLIC "-//W3C//DTD SVG 1.1//EN"
 "http://www.w3.org/Graphics/SVG/1.1/DTD/svg11.dtd">
<!-- Generated by graphviz version 14.1.4 (20260321.0153)
 -->
<!-- Title: File Pages: 1 -->
<!--zoomable 906 -->

<svg id="main" version="1.1" xmlns="http://www.w3.org/2000/svg" xmlns:xlink="http://www.w3.org/1999/xlink" xml:space="preserve" onload="init(evt)">

<style type="text/css"><![CDATA[
.node, .edge {opacity: 0.7;}
.node.selected, .edge.selected {opacity: 1;}
.edge:hover path { stroke: red; }
.edge:hover polygon { stroke: red; fill: red; }
]]></style>

<defs>
  <circle id="rim" cx="0" cy="0" r="7"/>
  <circle id="rim2" cx="0" cy="0" r="3.5"/>
  <g id="zoomPlus">
    <use xlink:href="#rim" fill="#404040"><set attributeName="fill" to="#808080" begin="zoomplus.mouseover" end="zoomplus.mouseout"/></use>
    <path d="M-4,0h8M0,-4v8" fill="none" stroke="white" stroke-width="1.5" pointer-events="none"/>
  </g>
  <g id="zoomMin">
    <use xlink:href="#rim" fill="#404040"><set attributeName="fill" to="#808080" begin="zoomminus.mouseover" end="zoomminus.mouseout"/></use>
    <path d="M-4,0h8" fill="none" stroke="white" stroke-width="1.5" pointer-events="none"/>
  </g>
  <g id="arrowUp" transform="translate(30 24)">
    <use xlink:href="#rim"/>
    <path pointer-events="none" fill="none" stroke="white" stroke-width="1.5" d="M0,-3.0v7 M-2.5,-0.5L0,-3.0L2.5,-0.5"/>
  </g>
  <g id="arrowRight" transform="rotate(90) translate(36 -43)">
    <use xlink:href="#rim"/>
    <path pointer-events="none" fill="none" stroke="white" stroke-width="1.5" d="M0,-3.0v7 M-2.5,-0.5L0,-3.0L2.5,-0.5"/>
  </g>
  <g id="arrowDown" transform="rotate(180) translate(-30 -48)">
    <use xlink:href="#rim"/>
    <path pointer-events="none" fill="none" stroke="white" stroke-width="1.5" d="M0,-3.0v7 M-2.5,-0.5L0,-3.0L2.5,-0.5"/>
  </g>
  <g id="arrowLeft" transform="rotate(270) translate(-36 17)">
    <use xlink:href="#rim"/>
    <path pointer-events="none" fill="none" stroke="white" stroke-width="1.5" d="M0,-3.0v7 M-2.5,-0.5L0,-3.0L2.5,-0.5"/>
  </g>
  <g id="resetDef">
    <use xlink:href="#rim2" fill="#404040"><set attributeName="fill" to="#808080" begin="reset.mouseover" end="reset.mouseout"/></use>
  </g>
</defs>
<script type="application/ecmascript">
var viewWidth = 357;
var viewHeight = 906;
var sectionId = 'dynsection-0';
</script>
<script type="application/ecmascript" xlink:href="svg.min.js"/>
<svg id="graph" class="graph">
<g id="viewport">
<title>File</title>
<!-- Node1 -->
<g id="Node000001" class="node">
<title>Node1</title>
<g id="a_Node000001"><a xlink:title="Interpret a file as to retrieve custom information.">
<polygon fill="#999999" stroke="none" points="242,-279.5 134,-279.5 134,0 242,0 242,-279.5"/>
<text xml:space="preserve" text-anchor="start" x="180.12" y="-268" font-family="Helvetica,sans-Serif" font-size="10.00">File</text>
<text xml:space="preserve" text-anchor="start" x="186.5" y="-253.5" font-family="Helvetica,sans-Serif" font-size="10.00"> </text>
<text xml:space="preserve" text-anchor="start" x="138" y="-239" font-family="Helvetica,sans-Serif" font-size="10.00">+</text>
<text xml:space="preserve" text-anchor="start" x="148" y="-239" font-family="Helvetica,sans-Serif" font-size="10.00">File()</text>
<text xml:space="preserve" text-anchor="start" x="138" y="-224.5" font-family="Helvetica,sans-Serif" font-size="10.00">+</text>
<text xml:space="preserve" text-anchor="start" x="148" y="-224.5" font-family="Helvetica,sans-Serif" font-size="10.00">write()</text>
<text xml:space="preserve" text-anchor="start" x="138" y="-210" font-family="Helvetica,sans-Serif" font-size="10.00">+</text>
<text xml:space="preserve" text-anchor="start" x="148" y="-210" font-family="Helvetica,sans-Serif" font-size="10.00">write()</text>
<text xml:space="preserve" text-anchor="start" x="138" y="-195.5" font-family="Helvetica,sans-Serif" font-size="10.00">+</text>
<text xml:space="preserve" text-anchor="start" x="148" y="-195.5" font-family="Helvetica,sans-Serif" font-size="10.00">get_in_file_options()</text>
<text xml:space="preserve" text-anchor="start" x="138" y="-181" font-family="Helvetica,sans-Serif" font-size="10.00">+</text>
<text xml:space="preserve" text-anchor="start" x="148" y="-181" font-family="Helvetica,sans-Serif" font-size="10.00">get_ref_out_stream()</text>
<text xml:space="preserve" text-anchor="start" x="138" y="-166.5" font-family="Helvetica,sans-Serif" font-size="10.00">+</text>
<text xml:space="preserve" text-anchor="start" x="148" y="-166.5" font-family="Helvetica,sans-Serif" font-size="10.00">split_file()</text>
<text xml:space="preserve" text-anchor="start" x="138" y="-152" font-family="Helvetica,sans-Serif" font-size="10.00">+</text>
<text xml:space="preserve" text-anchor="start" x="148" y="-152" font-family="Helvetica,sans-Serif" font-size="10.00">read_file()</text>
<text xml:space="preserve" text-anchor="start" x="138" y="-137.5" font-family="Helvetica,sans-Serif" font-size="10.00">+</text>
<text xml:space="preserve" text-anchor="start" x="148" y="-137.5" font-family="Helvetica,sans-Serif" font-size="10.00">has_signature()</text>
<text xml:space="preserve" text-anchor="start" x="138" y="-123" font-family="Helvetica,sans-Serif" font-size="10.00">+</text>
<text xml:space="preserve" text-anchor="start" x="148" y="-123" font-family="Helvetica,sans-Serif" font-size="10.00">has_signature()</text>
<text xml:space="preserve" text-anchor="start" x="138" y="-108.5" font-family="Helvetica,sans-Serif" font-size="10.00">+</text>
<text xml:space="preserve" text-anchor="start" x="148" y="-108.5" font-family="Helvetica,sans-Serif" font-size="10.00">extract_info()</text>
<text xml:space="preserve" text-anchor="start" x="138" y="-94" font-family="Helvetica,sans-Serif" font-size="10.00">+</text>
<text xml:space="preserve" text-anchor="start" x="148" y="-94" font-family="Helvetica,sans-Serif" font-size="10.00">extract_info()</text>
<text xml:space="preserve" text-anchor="start" x="138" y="-79.5" font-family="Helvetica,sans-Serif" font-size="10.00">+</text>
<text xml:space="preserve" text-anchor="start" x="148" y="-79.5" font-family="Helvetica,sans-Serif" font-size="10.00">create_file()</text>
<text xml:space="preserve" text-anchor="start" x="139.5" y="-65" font-family="Helvetica,sans-Serif" font-size="10.00">&#45;</text>
<text xml:space="preserve" text-anchor="start" x="148" y="-65" font-family="Helvetica,sans-Serif" font-size="10.00">check_signature()</text>
<text xml:space="preserve" text-anchor="start" x="139.5" y="-50.5" font-family="Helvetica,sans-Serif" font-size="10.00">&#45;</text>
<text xml:space="preserve" text-anchor="start" x="148" y="-50.5" font-family="Helvetica,sans-Serif" font-size="10.00">has_signature()</text>
<text xml:space="preserve" text-anchor="start" x="139.5" y="-36" font-family="Helvetica,sans-Serif" font-size="10.00">&#45;</text>
<text xml:space="preserve" text-anchor="start" x="148" y="-36" font-family="Helvetica,sans-Serif" font-size="10.00">create_file()</text>
<text xml:space="preserve" text-anchor="start" x="139.5" y="-21.5" font-family="Helvetica,sans-Serif" font-size="10.00">&#45;</text>
<text xml:space="preserve" text-anchor="start" x="148" y="-21.5" font-family="Helvetica,sans-Serif" font-size="10.00">concatenate_files()</text>
<text xml:space="preserve" text-anchor="start" x="139.5" y="-7" font-family="Helvetica,sans-Serif" font-size="10.00">&#45;</text>
<text xml:space="preserve" text-anchor="start" x="148" y="-7" font-family="Helvetica,sans-Serif" font-size="10.00">create_file()</text>
<polygon fill="#666666" stroke="#666666" points="134,-263 134,-263 242,-263 242,-263 134,-263"/>
<polygon fill="#666666" stroke="#666666" points="134,-248.5 134,-248.5 242,-248.5 242,-248.5 134,-248.5"/>
<polygon fill="none" stroke="#666666" points="134,0 134,-279.5 242,-279.5 242,0 134,0"/>
</a>
</g>
</g>
<!-- Node2 -->
<g id="Node000002" class="node">
<title>Node2</title>
<g id="a_Node000002"><a xlink:href="structFileOptions.html" target="_top" xlink:title=" ">
<polygon fill="white" stroke="none" points="114,-473.75 0,-473.75 0,-397.25 114,-397.25 114,-473.75"/>
<text xml:space="preserve" text-anchor="start" x="32.25" y="-462.25" font-family="Helvetica,sans-Serif" font-size="10.00">FileOptions</text>
<text xml:space="preserve" text-anchor="start" x="4" y="-447.75" font-family="Helvetica,sans-Serif" font-size="10.00">+</text>
<text xml:space="preserve" text-anchor="start" x="14" y="-447.75" font-family="Helvetica,sans-Serif" font-size="10.00">path</text>
<text xml:space="preserve" text-anchor="start" x="4" y="-433.25" font-family="Helvetica,sans-Serif" font-size="10.00">+</text>
<text xml:space="preserve" text-anchor="start" x="14" y="-433.25" font-family="Helvetica,sans-Serif" font-size="10.00">header</text>
<text xml:space="preserve" text-anchor="start" x="4" y="-418.75" font-family="Helvetica,sans-Serif" font-size="10.00">+</text>
<text xml:space="preserve" text-anchor="start" x="14" y="-418.75" font-family="Helvetica,sans-Serif" font-size="10.00">delete_on_dtor</text>
<text xml:space="preserve" text-anchor="start" x="4" y="-404.25" font-family="Helvetica,sans-Serif" font-size="10.00">+</text>
<text xml:space="preserve" text-anchor="start" x="14" y="-404.25" font-family="Helvetica,sans-Serif" font-size="10.00">already_compressed()</text>
<polygon fill="#666666" stroke="#666666" points="0,-457.25 0,-457.25 114,-457.25 114,-457.25 0,-457.25"/>
<polygon fill="#666666" stroke="#666666" points="0,-413.75 0,-413.75 12,-413.75 12,-413.75 0,-413.75"/>
<polygon fill="#666666" stroke="#666666" points="12,-413.75 12,-413.75 114,-413.75 114,-413.75 12,-413.75"/>
<polygon fill="none" stroke="#666666" points="0,-397.25 0,-473.75 114,-473.75 114,-397.25 0,-397.25"/>
</a>
</g>
</g>
<!-- Node2&#45;&gt;Node1 -->
<g id="edge1_Node000001_Node000002" class="edge">
<title>Node2&#45;&gt;Node1</title>
<g id="a_edge1_Node000001_Node000002"><a xlink:title=" ">
<path fill="none" stroke="#63b8ff" d="M71.42,-397.32C82.33,-369.62 97.93,-330.96 112.75,-297.5 117.79,-286.12 123.17,-274.33 128.63,-262.57"/>
<polygon fill="none" stroke="#63b8ff" points="128.65,-262.52 127.57,-255.39 133.73,-251.65 134.82,-258.78 128.65,-262.52"/>
</a>
</g>
<text xml:space="preserve" text-anchor="start" x="115.75" y="-303.5" font-family="Helvetica,sans-Serif" font-size="10.00" fill="grey">&#45;in_file_options</text>
</g>
<!-- Node3 -->
<g id="Node000003" class="node">
<title>Node3</title>
<g id="a_Node000003"><a xlink:href="structparser_1_1Options.html" target="_top" xlink:title="All the options available.">
<polygon fill="white" stroke="none" points="243.88,-539 132.12,-539 132.12,-332 243.88,-332 243.88,-539"/>
<text xml:space="preserve" text-anchor="start" x="154.25" y="-527.5" font-family="Helvetica,sans-Serif" font-size="10.00">parser::Options</text>
<text xml:space="preserve" text-anchor="start" x="136.12" y="-513" font-family="Helvetica,sans-Serif" font-size="10.00">+</text>
<text xml:space="preserve" text-anchor="start" x="146.12" y="-513" font-family="Helvetica,sans-Serif" font-size="10.00">filename_in</text>
<text xml:space="preserve" text-anchor="start" x="136.12" y="-498.5" font-family="Helvetica,sans-Serif" font-size="10.00">+</text>
<text xml:space="preserve" text-anchor="start" x="146.12" y="-498.5" font-family="Helvetica,sans-Serif" font-size="10.00">filename_out</text>
<text xml:space="preserve" text-anchor="start" x="136.12" y="-484" font-family="Helvetica,sans-Serif" font-size="10.00">+</text>
<text xml:space="preserve" text-anchor="start" x="146.12" y="-484" font-family="Helvetica,sans-Serif" font-size="10.00">compressor</text>
<text xml:space="preserve" text-anchor="start" x="136.12" y="-469.5" font-family="Helvetica,sans-Serif" font-size="10.00">+</text>
<text xml:space="preserve" text-anchor="start" x="146.12" y="-469.5" font-family="Helvetica,sans-Serif" font-size="10.00">preset</text>
<text xml:space="preserve" text-anchor="start" x="136.12" y="-455" font-family="Helvetica,sans-Serif" font-size="10.00">+</text>
<text xml:space="preserve" text-anchor="start" x="146.12" y="-455" font-family="Helvetica,sans-Serif" font-size="10.00">n_files</text>
<text xml:space="preserve" text-anchor="start" x="136.12" y="-440.5" font-family="Helvetica,sans-Serif" font-size="10.00">+</text>
<text xml:space="preserve" text-anchor="start" x="146.12" y="-440.5" font-family="Helvetica,sans-Serif" font-size="10.00">size_files</text>
<text xml:space="preserve" text-anchor="start" x="136.12" y="-426" font-family="Helvetica,sans-Serif" font-size="10.00">+</text>
<text xml:space="preserve" text-anchor="start" x="146.12" y="-426" font-family="Helvetica,sans-Serif" font-size="10.00">force_compression</text>
<text xml:space="preserve" text-anchor="start" x="136.12" y="-411.5" font-family="Helvetica,sans-Serif" font-size="10.00">+</text>
<text xml:space="preserve" text-anchor="start" x="146.12" y="-411.5" font-family="Helvetica,sans-Serif" font-size="10.00">delete_input</text>
<text xml:space="preserve" text-anchor="start" x="136.12" y="-397" font-family="Helvetica,sans-Serif" font-size="10.00">+</text>
<text xml:space="preserve" text-anchor="start" x="146.12" y="-397" font-family="Helvetica,sans-Serif" font-size="10.00">concatenate_files</text>
<text xml:space="preserve" text-anchor="start" x="136.12" y="-382.5" font-family="Helvetica,sans-Serif" font-size="10.00">+</text>
<text xml:space="preserve" text-anchor="start" x="146.12" y="-382.5" font-family="Helvetica,sans-Serif" font-size="10.00">need_help</text>
<text xml:space="preserve" text-anchor="start" x="136.12" y="-368" font-family="Helvetica,sans-Serif" font-size="10.00">+</text>
<text xml:space="preserve" text-anchor="start" x="146.12" y="-368" font-family="Helvetica,sans-Serif" font-size="10.00">decomp_after_concat</text>
<text xml:space="preserve" text-anchor="start" x="136.12" y="-353.5" font-family="Helvetica,sans-Serif" font-size="10.00">+</text>
<text xml:space="preserve" text-anchor="start" x="146.12" y="-353.5" font-family="Helvetica,sans-Serif" font-size="10.00">concurrency</text>
<text xml:space="preserve" text-anchor="start" x="186.5" y="-339" font-family="Helvetica,sans-Serif" font-size="10.00"> </text>
<polygon fill="#666666" stroke="#666666" points="132.12,-522.5 132.12,-522.5 243.88,-522.5 243.88,-522.5 132.12,-522.5"/>
<polygon fill="#666666" stroke="#666666" points="132.12,-348.5 132.12,-348.5 144.12,-348.5 144.12,-348.5 132.12,-348.5"/>
<polygon fill="#666666" stroke="#666666" points="144.12,-348.5 144.12,-348.5 243.88,-348.5 243.88,-348.5 144.12,-348.5"/>
<polygon fill="none" stroke="#666666" points="132.12,-332 132.12,-539 243.88,-539 243.88,-332 132.12,-332"/>
</a>
</g>
</g>
<!-- Node3&#45;&gt;Node1 -->
<g id="edge2_Node000001_Node000003" class="edge">
<title>Node3&#45;&gt;Node1</title>
<g id="a_edge2_Node000001_Node000003"><a xlink:title=" ">
<path fill="none" stroke="#63b8ff" d="M188,-332.17C188,-319.25 188,-305.82 188,-292.33"/>
<polygon fill="none" stroke="#63b8ff" points="188,-292.3 184,-286.3 188,-280.3 192,-286.3 188,-292.3"/>
</a>
</g>
<text xml:space="preserve" text-anchor="start" x="191" y="-303.5" font-family="Helvetica,sans-Serif" font-size="10.00" fill="grey">&#45;cli_options</text>
</g>
<!-- Node4 -->
<g id="Node000004" class="node">
<title>Node4</title>
<g id="a_Node000004"><a xlink:title=" ">
<polygon fill="white" stroke="none" points="327.88,-459.25 262.12,-459.25 262.12,-411.75 327.88,-411.75 327.88,-459.25"/>
<text xml:space="preserve" text-anchor="start" x="266.12" y="-447.75" font-family="Helvetica,sans-Serif" font-size="10.00">std::ofstream</text>
<text xml:space="preserve" text-anchor="start" x="293.5" y="-433.25" font-family="Helvetica,sans-Serif" font-size="10.00"> </text>
<text xml:space="preserve" text-anchor="start" x="293.5" y="-418.75" font-family="Helvetica,sans-Serif" font-size="10.00"> </text>
<polygon fill="#666666" stroke="#666666" points="262.12,-442.75 262.12,-442.75 327.88,-442.75 327.88,-442.75 262.12,-442.75"/>
<polygon fill="#666666" stroke="#666666" points="262.12,-428.25 262.12,-428.25 327.88,-428.25 327.88,-428.25 262.12,-428.25"/>
<polygon fill="none" stroke="#666666" points="262.12,-411.75 262.12,-459.25 327.88,-459.25 327.88,-411.75 262.12,-411.75"/>
</a>
</g>
</g>
<!-- Node4&#45;&gt;Node1 -->
<g id="edge3_Node000001_Node000004" class="edge">
<title>Node4&#45;&gt;Node1</title>
<g id="a_edge3_Node000001_Node000004"><a xlink:title=" ">
<path fill="none" stroke="#63b8ff" d="M287.34,-412.14C278,-384.97 261.63,-337.77 247,-297.5 246.25,-295.43 245.49,-293.35 244.73,-291.26"/>
<polygon fill="none" stroke="#63b8ff" points="244.73,-291.27 238.91,-287.01 240.6,-280 246.42,-284.26 244.73,-291.27"/>
</a>
</g>
<text xml:space="preserve" text-anchor="start" x="255.35" y="-303.5" font-family="Helvetica,sans-Serif" font-size="10.00" fill="grey">&#45;out_file</text>
</g>
<!-- Node5 -->
<g id="Node000005" class="node">
<title>Node5</title>
<g id="a_Node000005"><a xlink:title=" ">
<polygon fill="white" stroke="none" points="342.12,-634 247.88,-634 247.88,-576 342.12,-576 342.12,-634"/>
<text xml:space="preserve" text-anchor="start" x="251.88" y="-622.5" font-family="Helvetica,sans-Serif" font-size="10.00">std::basic_ofstream</text>
<text xml:space="preserve" text-anchor="start" x="275.5" y="-612" font-family="Helvetica,sans-Serif" font-size="10.00">&lt; Char &gt;</text>
<text xml:space="preserve" text-anchor="start" x="293.5" y="-597.5" font-family="Helvetica,sans-Serif" font-size="10.00"> </text>
<text xml:space="preserve" text-anchor="start" x="293.5" y="-583" font-family="Helvetica,sans-Serif" font-size="10.00"> </text>
<polygon fill="#666666" stroke="#666666" points="247.88,-607 247.88,-607 342.12,-607 342.12,-607 247.88,-607"/>
<polygon fill="#666666" stroke="#666666" points="247.88,-592.5 247.88,-592.5 342.12,-592.5 342.12,-592.5 247.88,-592.5"/>
<polygon fill="none" stroke="#666666" points="247.88,-576 247.88,-634 342.12,-634 342.12,-576 247.88,-576"/>
</a>
</g>
</g>
<!-- Node5&#45;&gt;Node4 -->
<g id="edge4_Node000004_Node000005" class="edge">
<title>Node5&#45;&gt;Node4</title>
<g id="a_edge4_Node000004_Node000005"><a xlink:title=" ">
<path fill="none" stroke="#63b8ff" d="M295,-564.87C295,-532 295,-486.17 295,-459.09"/>
<polygon fill="none" stroke="#63b8ff" points="291.5,-564.83 295,-574.83 298.5,-564.83 291.5,-564.83"/>
</a>
</g>
</g>
<!-- Node6 -->
<g id="Node000006" class="node">
<title>Node6</title>
<g id="a_Node000006"><a xlink:title=" ">
<polygon fill="white" stroke="none" points="340.62,-729 249.38,-729 249.38,-671 340.62,-671 340.62,-729"/>
<text xml:space="preserve" text-anchor="start" x="253.38" y="-717.5" font-family="Helvetica,sans-Serif" font-size="10.00">std::basic_ostream</text>
<text xml:space="preserve" text-anchor="start" x="275.5" y="-707" font-family="Helvetica,sans-Serif" font-size="10.00">&lt; Char &gt;</text>
<text xml:space="preserve" text-anchor="start" x="293.5" y="-692.5" font-family="Helvetica,sans-Serif" font-size="10.00"> </text>
<text xml:space="preserve" text-anchor="start" x="293.5" y="-678" font-family="Helvetica,sans-Serif" font-size="10.00"> </text>
<polygon fill="#666666" stroke="#666666" points="249.38,-702 249.38,-702 340.62,-702 340.62,-702 249.38,-702"/>
<polygon fill="#666666" stroke="#666666" points="249.38,-687.5 249.38,-687.5 340.62,-687.5 340.62,-687.5 249.38,-687.5"/>
<polygon fill="none" stroke="#666666" points="249.38,-671 249.38,-729 340.62,-729 340.62,-671 249.38,-671"/>
</a>
</g>
</g>
<!-- Node6&#45;&gt;Node5 -->
<g id="edge5_Node000005_Node000006" class="edge">
<title>Node6&#45;&gt;Node5</title>
<g id="a_edge5_Node000005_Node000006"><a xlink:title=" ">
<path fill="none" stroke="#63b8ff" d="M295,-659.62C295,-650.97 295,-641.97 295,-633.88"/>
<polygon fill="none" stroke="#63b8ff" points="291.5,-659.58 295,-669.58 298.5,-659.58 291.5,-659.58"/>
</a>
</g>
</g>
<!-- Node7 -->
<g id="Node000007" class="node">
<title>Node7</title>
<g id="a_Node000007"><a xlink:title=" ">
<polygon fill="white" stroke="none" points="348.88,-813.5 241.12,-813.5 241.12,-766 348.88,-766 348.88,-813.5"/>
<text xml:space="preserve" text-anchor="start" x="245.12" y="-802" font-family="Helvetica,sans-Serif" font-size="10.00">std::basic_ios&lt; Char &gt;</text>
<text xml:space="preserve" text-anchor="start" x="293.5" y="-787.5" font-family="Helvetica,sans-Serif" font-size="10.00"> </text>
<text xml:space="preserve" text-anchor="start" x="293.5" y="-773" font-family="Helvetica,sans-Serif" font-size="10.00"> </text>
<polygon fill="#666666" stroke="#666666" points="241.12,-797 241.12,-797 348.88,-797 348.88,-797 241.12,-797"/>
<polygon fill="#666666" stroke="#666666" points="241.12,-782.5 241.12,-782.5 348.88,-782.5 348.88,-782.5 241.12,-782.5"/>
<polygon fill="none" stroke="#666666" points="241.12,-766 241.12,-813.5 348.88,-813.5 348.88,-766 241.12,-766"/>
</a>
</g>
</g>
<!-- Node7&#45;&gt;Node6 -->
<g id="edge6_Node000006_Node000007" class="edge">
<title>Node7&#45;&gt;Node6</title>
<g id="a_edge6_Node000006_Node000007"><a xlink:title=" ">
<path fill="none" stroke="#63b8ff" d="M295,-754.88C295,-746.28 295,-737.13 295,-728.86"/>
<polygon fill="none" stroke="#63b8ff" points="291.5,-754.64 295,-764.64 298.5,-754.64 291.5,-754.64"/>
</a>
</g>
</g>
<!-- Node8 -->
<g id="Node000008" class="node">
<title>Node8</title>
<g id="a_Node000008"><a xlink:title=" ">
<polygon fill="white" stroke="none" points="328.25,-898 261.75,-898 261.75,-850.5 328.25,-850.5 328.25,-898"/>
<text xml:space="preserve" text-anchor="start" x="265.75" y="-886.5" font-family="Helvetica,sans-Serif" font-size="10.00">std::ios_base</text>
<text xml:space="preserve" text-anchor="start" x="293.5" y="-872" font-family="Helvetica,sans-Serif" font-size="10.00"> </text>
<text xml:space="preserve" text-anchor="start" x="293.5" y="-857.5" font-family="Helvetica,sans-Serif" font-size="10.00"> </text>
<polygon fill="#666666" stroke="#666666" points="261.75,-881.5 261.75,-881.5 328.25,-881.5 328.25,-881.5 261.75,-881.5"/>
<polygon fill="#666666" stroke="#666666" points="261.75,-867 261.75,-867 328.25,-867 328.25,-867 261.75,-867"/>
<polygon fill="none" stroke="#666666" points="261.75,-850.5 261.75,-898 328.25,-898 328.25,-850.5 261.75,-850.5"/>
</a>
</g>
</g>
<!-- Node8&#45;&gt;Node7 -->
<g id="edge7_Node000007_Node000008" class="edge">
<title>Node8&#45;&gt;Node7</title>
<g id="a_edge7_Node000007_Node000008"><a xlink:title=" ">
<path fill="none" stroke="#63b8ff" d="M295,-839.21C295,-830.46 295,-821.27 295,-813.27"/>
<polygon fill="none" stroke="#63b8ff" points="291.5,-839.19 295,-849.19 298.5,-839.19 291.5,-839.19"/>
</a>
</g>
</g>
</g>
</svg>

<g id="navigator" transform="translate(0 0)" fill="#404254">
  <rect fill="#f2f5e9" fill-opacity="0.5" stroke="#606060" stroke-width=".5" x="0" y="0" width="60" height="60"/>
  <use id="zoomplus" xlink:href="#zoomPlus" x="17" y="9" onmousedown="handleZoom(evt,'in')"/>
  <use id="zoomminus" xlink:href="#zoomMin" x="42" y="9" onmousedown="handleZoom(evt,'out')"/>
  <use id="reset" xlink:href="#resetDef" x="30" y="36" onmousedown="handleReset()"/>
   <use id="arrowup" xlink:href="#arrowUp" x="0" y="0" onmousedown="handlePan(0,-1)"/>
  <use id="arrowright" xlink:href="#arrowRight" x="0" y="0" onmousedown="handlePan(1,0)"/>
  <use id="arrowdown" xlink:href="#arrowDown" x="0" y="0" onmousedown="handlePan(0,1)"/>
  <use id="arrowleft" xlink:href="#arrowLeft" x="0" y="0" onmousedown="handlePan(-1,0)"/>
</g>
<svg viewBox="0 0 15 15" width="100%" height="30px" preserveAspectRatio="xMaxYMin meet">
 <g id="arrow_out" transform="scale(0.3 0.3)">
  <a xlink:href="classFile__coll__graph_org.svg" target="_base">
   <rect id="button" ry="5" rx="5" y="6" x="6" height="38" width="38"
        fill="#f2f5e9" fill-opacity="0.5" stroke="#606060" stroke-width="1.0"/>
   <path id="arrow"
     d="M 11.500037,31.436501 C 11.940474,20.09759 22.043105,11.32322 32.158766,21.979434 L 37.068811,17.246167 C 37.068811,17.246167 37.088388,32 37.088388,32 L 22.160133,31.978069 C 22.160133,31.978069 26.997745,27.140456 26.997745,27.140456 C 18.528582,18.264221 13.291696,25.230495 11.500037,31.436501 z"
     style="fill:#404040;"/>
  </a>
 </g>
</svg>

<style type='text/css'>
<![CDATA[
[data-mouse-over-selected='false'] { opacity: 0.7; }
[data-mouse-over-selected='true']  { opacity: 1.0; }
]]>
</style>
<script type="application/ecmascript"><![CDATA[
document.addEventListener('DOMContentLoaded', (event) => {
  highlightEdges();
  highlightAdjacentNodes();
});
]]></script>
</svg>
