<?xml version="1.0" encoding="UTF-8" standalone="no"?>
<!DOCTYPE svg PUBLIC "-//W3C//DTD SVG 1.1//EN"
 "http://www.w3.org/Graphics/SVG/1.1/DTD/svg11.dtd">
<!-- Generated by graphviz version 14.1.5 (20260411.2331)
 -->
<!-- Title: alg::Rabin::roll_hash Pages: 1 -->
<svg width="269pt" height="90pt"
 viewBox="0.00 0.00 269.00 90.00" xmlns="http://www.w3.org/2000/svg" xmlns:xlink="http://www.w3.org/1999/xlink">
<g id="graph0" class="graph" transform="scale(1 1) rotate(0) translate(4 86)">
<title>alg::Rabin::roll_hash</title>
<!-- Node1 -->
<g id="Node000001" class="node">
<title>Node1</title>
<g id="a_Node000001"><a xlink:title="Roll and add the hash to the symbol_positions.">
<polygon fill="#999999" stroke="#666666" points="105.25,-51 0,-51 0,-31 105.25,-31 105.25,-51"/>
<text xml:space="preserve" text-anchor="middle" x="52.62" y="-37.5" font-family="Helvetica,sans-Serif" font-size="10.00">alg::Rabin::roll_hash</text>
</a>
</g>
</g>
<!-- Node2 -->
<g id="Node000002" class="node">
<title>Node2</title>
<g id="a_Node000002"><a xlink:href="classalg_1_1_rabin.html#a72778b4f5a658ef5f0f65b6bf2dac96f" target="_top" xlink:title=" ">
<polygon fill="white" stroke="#666666" points="248.75,-82 153.25,-82 153.25,-50 248.75,-50 248.75,-82"/>
<text xml:space="preserve" text-anchor="start" x="161.25" y="-68.5" font-family="Helvetica,sans-Serif" font-size="10.00">alg::Rabin::bucket</text>
<text xml:space="preserve" text-anchor="middle" x="201" y="-56.5" font-family="Helvetica,sans-Serif" font-size="10.00">_index</text>
</a>
</g>
</g>
<!-- Node1&#45;&gt;Node2 -->
<g id="edge1_Node000001_Node000002" class="edge">
<title>Node1&#45;&gt;Node2</title>
<g id="a_edge1_Node000001_Node000002"><a xlink:title=" ">
<path fill="none" stroke="#63b8ff" d="M105.64,-49.88C117.35,-51.88 129.85,-54.02 141.79,-56.06"/>
<polygon fill="#63b8ff" stroke="#63b8ff" points="141.09,-59.49 151.53,-57.72 142.27,-52.59 141.09,-59.49"/>
</a>
</g>
</g>
<!-- Node3 -->
<g id="Node000003" class="node">
<title>Node3</title>
<g id="a_Node000003"><a xlink:href="classalg_1_1_rabin.html#a07a4f8f848f5fe3e55b406b486c3a0fd" target="_top" xlink:title=" ">
<polygon fill="white" stroke="#666666" points="260.75,-32 141.25,-32 141.25,0 260.75,0 260.75,-32"/>
<text xml:space="preserve" text-anchor="start" x="149.25" y="-18.5" font-family="Helvetica,sans-Serif" font-size="10.00">alg::Rabin::prev_bucket</text>
<text xml:space="preserve" text-anchor="middle" x="201" y="-6.5" font-family="Helvetica,sans-Serif" font-size="10.00">_index</text>
</a>
</g>
</g>
<!-- Node1&#45;&gt;Node3 -->
<g id="edge2_Node000001_Node000003" class="edge">
<title>Node1&#45;&gt;Node3</title>
<g id="a_edge2_Node000001_Node000003"><a xlink:title=" ">
<path fill="none" stroke="#63b8ff" d="M105.64,-32.12C113.41,-30.79 121.52,-29.4 129.58,-28.03"/>
<polygon fill="#63b8ff" stroke="#63b8ff" points="130.16,-31.48 139.42,-26.35 128.98,-24.58 130.16,-31.48"/>
</a>
</g>
</g>
</g>
</svg>
