<?xml version="1.0" encoding="UTF-8" standalone="no"?>
<!DOCTYPE svg PUBLIC "-//W3C//DTD SVG 1.1//EN"
 "http://www.w3.org/Graphics/SVG/1.1/DTD/svg11.dtd">
<!-- Generated by graphviz version 14.1.4 (20260321.0153)
 -->
<!-- Title: Compress&#45;to&#45;fit/src/parser/cli_parser.cppm Pages: 1 -->
<svg width="138pt" height="93pt"
 viewBox="0.00 0.00 138.00 93.00" xmlns="http://www.w3.org/2000/svg" xmlns:xlink="http://www.w3.org/1999/xlink">
<g id="graph0" class="graph" transform="scale(1 1) rotate(0) translate(4 89.16)">
<title>Compress&#45;to&#45;fit/src/parser/cli_parser.cppm</title>
<!-- Node1 -->
<g id="Node000001" class="node">
<title>Node1</title>
<g id="a_Node000001"><a xlink:title=" ">
<polygon fill="#999999" stroke="#666666" points="124.12,-85.16 4.62,-85.16 4.62,-56.16 124.12,-56.16 124.12,-85.16"/>
<text xml:space="preserve" text-anchor="start" x="12.62" y="-71.66" font-family="Helvetica,sans-Serif" font-size="10.00">Compress&#45;to&#45;fit/src</text>
<text xml:space="preserve" text-anchor="middle" x="64.38" y="-61.16" font-family="Helvetica,sans-Serif" font-size="10.00">/parser/cli_parser.cppm</text>
</a>
</g>
</g>
<!-- Node2 -->
<g id="Node000002" class="node">
<title>Node2</title>
<g id="a_Node000002"><a xlink:title=" ">
<polygon fill="#e0e0e0" stroke="#999999" points="64.75,-20.16 0,-20.16 0,-1.66 64.75,-1.66 64.75,-20.16"/>
<text xml:space="preserve" text-anchor="middle" x="32.38" y="-6.66" font-family="Helvetica,sans-Serif" font-size="10.00">std.compat</text>
</a>
</g>
</g>
<!-- Node1&#45;&gt;Node2 -->
<g id="edge1_Node000001_Node000002" class="edge">
<title>Node1&#45;&gt;Node2</title>
<g id="a_edge1_Node000001_Node000002"><a xlink:title=" ">
<path fill="none" stroke="#63b8ff" d="M56.63,-55.68C52.46,-48.15 47.26,-38.76 42.74,-30.62"/>
<polygon fill="#63b8ff" stroke="#63b8ff" points="45.81,-28.94 37.9,-21.89 39.69,-32.33 45.81,-28.94"/>
</a>
</g>
</g>
<!-- Node3 -->
<g id="Node000003" class="node">
<title>Node3</title>
<g id="a_Node000003"><a xlink:href="utils_8cppm.html" target="_top" xlink:title=" ">
<polygon fill="white" stroke="#666666" points="111.78,-20.16 82.97,-20.16 82.97,-1.66 111.78,-1.66 111.78,-20.16"/>
<text xml:space="preserve" text-anchor="middle" x="97.38" y="-6.66" font-family="Helvetica,sans-Serif" font-size="10.00">util</text>
</a>
</g>
</g>
<!-- Node1&#45;&gt;Node3 -->
<g id="edge2_Node000001_Node000003" class="edge">
<title>Node1&#45;&gt;Node3</title>
<g id="a_edge2_Node000001_Node000003"><a xlink:title=" ">
<path fill="none" stroke="#63b8ff" d="M72.36,-55.68C76.71,-48.07 82.15,-38.55 86.84,-30.34"/>
<polygon fill="#63b8ff" stroke="#63b8ff" points="89.76,-32.3 91.68,-21.88 83.68,-28.82 89.76,-32.3"/>
</a>
</g>
</g>
<!-- Node3&#45;&gt;Node3 -->
<g id="edge3_Node000003_Node000003" class="edge">
<title>Node3&#45;&gt;Node3</title>
<g id="a_edge3_Node000003_Node000003"><a xlink:title=" ">
<path fill="none" stroke="#63b8ff" d="M109.68,-20.54C119.57,-24.39 129.78,-21.18 129.78,-10.91 129.78,-4.65 125.98,-1.01 120.78,0"/>
<polygon fill="#63b8ff" stroke="#63b8ff" points="120.71,3.51 111.18,-1.11 121.51,-3.44 120.71,3.51"/>
</a>
</g>
</g>
</g>
</svg>
