<?xml version="1.0" encoding="UTF-8" standalone="no"?>
<!DOCTYPE svg PUBLIC "-//W3C//DTD SVG 1.1//EN"
 "http://www.w3.org/Graphics/SVG/1.1/DTD/svg11.dtd">
<!-- Generated by graphviz version 14.1.4 (20260321.0153)
 -->
<!-- Title: Compress&#45;to&#45;fit/Compress&#45;to&#45;fit.cpp Pages: 1 -->
<svg width="372pt" height="146pt"
 viewBox="0.00 0.00 372.00 146.00" xmlns="http://www.w3.org/2000/svg" xmlns:xlink="http://www.w3.org/1999/xlink">
<g id="graph0" class="graph" transform="scale(1 1) rotate(0) translate(4 142)">
<title>Compress&#45;to&#45;fit/Compress&#45;to&#45;fit.cpp</title>
<!-- Node1 -->
<g id="Node000001" class="node">
<title>Node1</title>
<g id="a_Node000001"><a xlink:title=" ">
<polygon fill="#999999" stroke="#666666" points="267,-138 135.5,-138 135.5,-109 267,-109 267,-138"/>
<text xml:space="preserve" text-anchor="start" x="143.5" y="-124.5" font-family="Helvetica,sans-Serif" font-size="10.00">Compress&#45;to&#45;fit/Compress</text>
<text xml:space="preserve" text-anchor="middle" x="201.25" y="-114" font-family="Helvetica,sans-Serif" font-size="10.00">&#45;to&#45;fit.cpp</text>
</a>
</g>
</g>
<!-- Node2 -->
<g id="Node000002" class="node">
<title>Node2</title>
<g id="a_Node000002"><a xlink:title=" ">
<polygon fill="#e0e0e0" stroke="#999999" points="80.5,-18.5 0,-18.5 0,0 80.5,0 80.5,-18.5"/>
<text xml:space="preserve" text-anchor="middle" x="40.25" y="-5" font-family="Helvetica,sans-Serif" font-size="10.00">mio/mmap.hpp</text>
</a>
</g>
</g>
<!-- Node1&#45;&gt;Node2 -->
<g id="edge1_Node000001_Node000002" class="edge">
<title>Node1&#45;&gt;Node2</title>
<g id="a_edge1_Node000001_Node000002"><a xlink:title=" ">
<path fill="none" stroke="#63b8ff" d="M135.35,-113.44C88.33,-105.46 30.93,-92.12 16.25,-73 5.85,-59.45 15.2,-40.87 25.11,-27.44"/>
<polygon fill="#63b8ff" stroke="#63b8ff" points="27.64,-29.88 31.2,-19.91 22.2,-25.49 27.64,-29.88"/>
</a>
</g>
</g>
<!-- Node3 -->
<g id="Node000003" class="node">
<title>Node3</title>
<g id="a_Node000003"><a xlink:href="macros_8hpp.html" target="_top" xlink:title=" ">
<polygon fill="white" stroke="#666666" points="124.88,-73 25.62,-73 25.62,-54.5 124.88,-54.5 124.88,-73"/>
<text xml:space="preserve" text-anchor="middle" x="75.25" y="-59.5" font-family="Helvetica,sans-Serif" font-size="10.00">src/util/macros.hpp</text>
</a>
</g>
</g>
<!-- Node1&#45;&gt;Node3 -->
<g id="edge2_Node000001_Node000003" class="edge">
<title>Node1&#45;&gt;Node3</title>
<g id="a_edge2_Node000001_Node000003"><a xlink:title=" ">
<path fill="none" stroke="#63b8ff" d="M170.75,-108.52C150.59,-99.28 124.32,-87.24 104.44,-78.13"/>
<polygon fill="#63b8ff" stroke="#63b8ff" points="106.06,-75.02 95.51,-74.03 103.14,-81.38 106.06,-75.02"/>
</a>
</g>
</g>
<!-- Node4 -->
<g id="Node000004" class="node">
<title>Node4</title>
<g id="a_Node000004"><a xlink:href="utils_8cppm.html" target="_top" xlink:title=" ">
<polygon fill="white" stroke="#666666" points="254.65,-18.5 225.85,-18.5 225.85,0 254.65,0 254.65,-18.5"/>
<text xml:space="preserve" text-anchor="middle" x="240.25" y="-5" font-family="Helvetica,sans-Serif" font-size="10.00">util</text>
</a>
</g>
</g>
<!-- Node1&#45;&gt;Node4 -->
<g id="edge3_Node000001_Node000004" class="edge">
<title>Node1&#45;&gt;Node4</title>
<g id="a_edge3_Node000001_Node000004"><a xlink:title=" ">
<path fill="none" stroke="#63b8ff" d="M206.03,-108.74C212.93,-88.89 225.7,-52.14 233.54,-29.57"/>
<polygon fill="#63b8ff" stroke="#63b8ff" points="236.75,-30.99 236.73,-20.39 230.14,-28.69 236.75,-30.99"/>
</a>
</g>
</g>
<!-- Node5 -->
<g id="Node000005" class="node">
<title>Node5</title>
<g id="a_Node000005"><a xlink:href="cli__parser_8cppm.html" target="_top" xlink:title=" ">
<polygon fill="white" stroke="#666666" points="308.12,-73 264.38,-73 264.38,-54.5 308.12,-54.5 308.12,-73"/>
<text xml:space="preserve" text-anchor="middle" x="286.25" y="-59.5" font-family="Helvetica,sans-Serif" font-size="10.00">parser</text>
</a>
</g>
</g>
<!-- Node1&#45;&gt;Node5 -->
<g id="edge5_Node000001_Node000005" class="edge">
<title>Node1&#45;&gt;Node5</title>
<g id="a_edge5_Node000001_Node000005"><a xlink:title=" ">
<path fill="none" stroke="#63b8ff" d="M221.83,-108.52C234.67,-99.8 251.19,-88.57 264.28,-79.67"/>
<polygon fill="#63b8ff" stroke="#63b8ff" points="265.96,-82.77 272.26,-74.25 262.02,-76.98 265.96,-82.77"/>
</a>
</g>
</g>
<!-- Node6 -->
<g id="Node000006" class="node">
<title>Node6</title>
<g id="a_Node000006"><a xlink:title=" ">
<polygon fill="#e0e0e0" stroke="#999999" points="363.62,-18.5 298.88,-18.5 298.88,0 363.62,0 363.62,-18.5"/>
<text xml:space="preserve" text-anchor="middle" x="331.25" y="-5" font-family="Helvetica,sans-Serif" font-size="10.00">std.compat</text>
</a>
</g>
</g>
<!-- Node1&#45;&gt;Node6 -->
<g id="edge12_Node000001_Node000006" class="edge">
<title>Node1&#45;&gt;Node6</title>
<g id="a_edge12_Node000001_Node000006"><a xlink:title=" ">
<path fill="none" stroke="#63b8ff" d="M262.39,-108.52C282.49,-101.08 303.25,-89.84 317.25,-73 327.2,-61.03 330.46,-43.48 331.37,-29.99"/>
<polygon fill="#63b8ff" stroke="#63b8ff" points="334.87,-30.2 331.63,-20.11 327.87,-30.02 334.87,-30.2"/>
</a>
</g>
</g>
<!-- Node7 -->
<g id="Node000007" class="node">
<title>Node7</title>
<g id="a_Node000007"><a xlink:href="models_8cppm.html" target="_top" xlink:title=" ">
<polygon fill="white" stroke="#666666" points="190,-73 142.5,-73 142.5,-54.5 190,-54.5 190,-73"/>
<text xml:space="preserve" text-anchor="middle" x="166.25" y="-59.5" font-family="Helvetica,sans-Serif" font-size="10.00">models</text>
</a>
</g>
</g>
<!-- Node1&#45;&gt;Node7 -->
<g id="edge8_Node000001_Node000007" class="edge">
<title>Node1&#45;&gt;Node7</title>
<g id="a_edge8_Node000001_Node000007"><a xlink:title=" ">
<path fill="none" stroke="#63b8ff" d="M192.78,-108.52C188.16,-100.91 182.4,-91.39 177.42,-83.18"/>
<polygon fill="#63b8ff" stroke="#63b8ff" points="180.46,-81.44 172.28,-74.7 174.47,-85.06 180.46,-81.44"/>
</a>
</g>
</g>
<!-- Node4&#45;&gt;Node4 -->
<g id="edge4_Node000004_Node000004" class="edge">
<title>Node4&#45;&gt;Node4</title>
<g id="a_edge4_Node000004_Node000004"><a xlink:title=" ">
<path fill="none" stroke="#63b8ff" d="M254.91,-18.75C264,-21.04 272.65,-17.87 272.65,-9.25 272.65,-4.54 270.06,-1.45 266.23,0"/>
<polygon fill="#63b8ff" stroke="#63b8ff" points="266.5,3.49 256.42,0.21 266.35,-3.5 266.5,3.49"/>
</a>
</g>
</g>
<!-- Node5&#45;&gt;Node4 -->
<g id="edge7_Node000005_Node000004" class="edge">
<title>Node5&#45;&gt;Node4</title>
<g id="a_edge7_Node000005_Node000004"><a xlink:title=" ">
<path fill="none" stroke="#63b8ff" d="M278.65,-54.08C272.29,-46.82 263.02,-36.23 255.17,-27.28"/>
<polygon fill="#63b8ff" stroke="#63b8ff" points="257.92,-25.11 248.7,-19.9 252.66,-29.72 257.92,-25.11"/>
</a>
</g>
</g>
<!-- Node5&#45;&gt;Node6 -->
<g id="edge6_Node000005_Node000006" class="edge">
<title>Node5&#45;&gt;Node6</title>
<g id="a_edge6_Node000005_Node000006"><a xlink:title=" ">
<path fill="none" stroke="#63b8ff" d="M293.68,-54.08C299.91,-46.82 308.98,-36.23 316.65,-27.28"/>
<polygon fill="#63b8ff" stroke="#63b8ff" points="319.12,-29.78 322.97,-19.91 313.81,-25.22 319.12,-29.78"/>
</a>
</g>
</g>
<!-- Node7&#45;&gt;Node2 -->
<g id="edge9_Node000007_Node000002" class="edge">
<title>Node7&#45;&gt;Node2</title>
<g id="a_edge9_Node000007_Node000002"><a xlink:title=" ">
<path fill="none" stroke="#63b8ff" d="M145.44,-54.08C125.38,-45.72 94.75,-32.96 71.71,-23.36"/>
<polygon fill="#63b8ff" stroke="#63b8ff" points="73.06,-20.13 62.48,-19.51 70.37,-26.59 73.06,-20.13"/>
</a>
</g>
</g>
<!-- Node7&#45;&gt;Node7 -->
<g id="edge11_Node000007_Node000007" class="edge">
<title>Node7&#45;&gt;Node7</title>
<g id="a_edge11_Node000007_Node000007"><a xlink:title=" ">
<path fill="none" stroke="#63b8ff" d="M186.44,-73.48C197.66,-75.3 208,-72.05 208,-63.75 208,-58.43 203.76,-55.19 197.76,-54.02"/>
<polygon fill="#63b8ff" stroke="#63b8ff" points="197.95,-50.52 187.95,-54.02 197.95,-57.52 197.95,-50.52"/>
</a>
</g>
</g>
<!-- Node8 -->
<g id="Node000008" class="node">
<title>Node8</title>
<g id="a_Node000008"><a xlink:title=" ">
<polygon fill="#e0e0e0" stroke="#999999" points="190.75,-18.5 141.75,-18.5 141.75,0 190.75,0 190.75,-18.5"/>
<text xml:space="preserve" text-anchor="middle" x="166.25" y="-5" font-family="Helvetica,sans-Serif" font-size="10.00">cassert</text>
</a>
</g>
</g>
<!-- Node7&#45;&gt;Node8 -->
<g id="edge10_Node000007_Node000008" class="edge">
<title>Node7&#45;&gt;Node8</title>
<g id="a_edge10_Node000007_Node000008"><a xlink:title=" ">
<path fill="none" stroke="#63b8ff" d="M166.25,-54.08C166.25,-47.58 166.25,-38.42 166.25,-30.16"/>
<polygon fill="#63b8ff" stroke="#63b8ff" points="169.75,-30.27 166.25,-20.27 162.75,-30.27 169.75,-30.27"/>
</a>
</g>
</g>
</g>
</svg>
