<?xml version="1.0" encoding="UTF-8" standalone="no"?>
<!DOCTYPE svg PUBLIC "-//W3C//DTD SVG 1.1//EN"
 "http://www.w3.org/Graphics/SVG/1.1/DTD/svg11.dtd">
<!-- Generated by graphviz version 14.1.4 (20260321.0153)
 -->
<!-- Title: Compress&#45;to&#45;fit/src/util/core_utils.cppm Pages: 1 -->
<svg width="140pt" height="92pt"
 viewBox="0.00 0.00 140.00 92.00" xmlns="http://www.w3.org/2000/svg" xmlns:xlink="http://www.w3.org/1999/xlink">
<g id="graph0" class="graph" transform="scale(1 1) rotate(0) translate(4 87.5)">
<title>Compress&#45;to&#45;fit/src/util/core_utils.cppm</title>
<!-- Node1 -->
<g id="Node000001" class="node">
<title>Node1</title>
<g id="a_Node000001"><a xlink:title=" ">
<polygon fill="#999999" stroke="#666666" points="113.38,-83.5 9.62,-83.5 9.62,-54.5 113.38,-54.5 113.38,-83.5"/>
<text xml:space="preserve" text-anchor="start" x="17.62" y="-70" font-family="Helvetica,sans-Serif" font-size="10.00">Compress&#45;to&#45;fit/src</text>
<text xml:space="preserve" text-anchor="middle" x="61.5" y="-59.5" font-family="Helvetica,sans-Serif" font-size="10.00">/util/core_utils.cppm</text>
</a>
</g>
</g>
<!-- Node2 -->
<g id="Node000002" class="node">
<title>Node2</title>
<g id="a_Node000002"><a xlink:title=" ">
<polygon fill="#e0e0e0" stroke="#999999" points="49,-18.5 0,-18.5 0,0 49,0 49,-18.5"/>
<text xml:space="preserve" text-anchor="middle" x="24.5" y="-5" font-family="Helvetica,sans-Serif" font-size="10.00">cassert</text>
</a>
</g>
</g>
<!-- Node1&#45;&gt;Node2 -->
<g id="edge1_Node000001_Node000002" class="edge">
<title>Node1&#45;&gt;Node2</title>
<g id="a_edge1_Node000001_Node000002"><a xlink:title=" ">
<path fill="none" stroke="#63b8ff" d="M52.54,-54.02C47.61,-46.32 41.43,-36.68 36.13,-28.4"/>
<polygon fill="#63b8ff" stroke="#63b8ff" points="39.2,-26.71 30.86,-20.18 33.31,-30.49 39.2,-26.71"/>
</a>
</g>
</g>
<!-- Node3 -->
<g id="Node000003" class="node">
<title>Node3</title>
<g id="a_Node000003"><a xlink:title=" ">
<polygon fill="#e0e0e0" stroke="#999999" points="131.88,-18.5 67.12,-18.5 67.12,0 131.88,0 131.88,-18.5"/>
<text xml:space="preserve" text-anchor="middle" x="99.5" y="-5" font-family="Helvetica,sans-Serif" font-size="10.00">std.compat</text>
</a>
</g>
</g>
<!-- Node1&#45;&gt;Node3 -->
<g id="edge2_Node000001_Node000003" class="edge">
<title>Node1&#45;&gt;Node3</title>
<g id="a_edge2_Node000001_Node000003"><a xlink:title=" ">
<path fill="none" stroke="#63b8ff" d="M70.7,-54.02C75.76,-46.32 82.11,-36.68 87.56,-28.4"/>
<polygon fill="#63b8ff" stroke="#63b8ff" points="90.4,-30.45 92.97,-20.17 84.55,-26.6 90.4,-30.45"/>
</a>
</g>
</g>
</g>
</svg>
