<?xml version="1.0" encoding="UTF-8" standalone="no"?>
<!DOCTYPE svg PUBLIC "-//W3C//DTD SVG 1.1//EN"
 "http://www.w3.org/Graphics/SVG/1.1/DTD/svg11.dtd">
<!-- Generated by graphviz version 14.1.4 (20260321.0153)
 -->
<!-- Title: Compress&#45;to&#45;fit/src/util/containers/file_management.cppm Pages: 1 -->
<svg width="312pt" height="157pt"
 viewBox="0.00 0.00 312.00 157.00" xmlns="http://www.w3.org/2000/svg" xmlns:xlink="http://www.w3.org/1999/xlink">
<g id="graph0" class="graph" transform="scale(1 1) rotate(0) translate(4 152.5)">
<title>Compress&#45;to&#45;fit/src/util/containers/file_management.cppm</title>
<!-- Node1 -->
<g id="Node000001" class="node">
<title>Node1</title>
<g id="a_Node000001"><a xlink:title=" ">
<polygon fill="#999999" stroke="#666666" points="228.12,-148.5 124.38,-148.5 124.38,-109 228.12,-109 228.12,-148.5"/>
<text xml:space="preserve" text-anchor="start" x="132.38" y="-135" font-family="Helvetica,sans-Serif" font-size="10.00">Compress&#45;to&#45;fit/src</text>
<text xml:space="preserve" text-anchor="start" x="132.38" y="-124.5" font-family="Helvetica,sans-Serif" font-size="10.00">/util/containers/file</text>
<text xml:space="preserve" text-anchor="middle" x="176.25" y="-114" font-family="Helvetica,sans-Serif" font-size="10.00">_management.cppm</text>
</a>
</g>
</g>
<!-- Node2 -->
<g id="Node000002" class="node">
<title>Node2</title>
<g id="a_Node000002"><a xlink:title=" ">
<polygon fill="#e0e0e0" stroke="#999999" points="80.5,-73 0,-73 0,-54.5 80.5,-54.5 80.5,-73"/>
<text xml:space="preserve" text-anchor="middle" x="40.25" y="-59.5" font-family="Helvetica,sans-Serif" font-size="10.00">mio/mmap.hpp</text>
</a>
</g>
</g>
<!-- Node1&#45;&gt;Node2 -->
<g id="edge1_Node000001_Node000002" class="edge">
<title>Node1&#45;&gt;Node2</title>
<g id="a_edge1_Node000001_Node000002"><a xlink:title=" ">
<path fill="none" stroke="#63b8ff" d="M134.71,-108.51C113.55,-98.71 88.34,-87.03 69.29,-78.2"/>
<polygon fill="#63b8ff" stroke="#63b8ff" points="70.78,-75.04 60.24,-74.01 67.84,-81.39 70.78,-75.04"/>
</a>
</g>
</g>
<!-- Node3 -->
<g id="Node000003" class="node">
<title>Node3</title>
<g id="a_Node000003"><a xlink:title=" ">
<polygon fill="#e0e0e0" stroke="#999999" points="147.75,-73 98.75,-73 98.75,-54.5 147.75,-54.5 147.75,-73"/>
<text xml:space="preserve" text-anchor="middle" x="123.25" y="-59.5" font-family="Helvetica,sans-Serif" font-size="10.00">cassert</text>
</a>
</g>
</g>
<!-- Node1&#45;&gt;Node3 -->
<g id="edge2_Node000001_Node000003" class="edge">
<title>Node1&#45;&gt;Node3</title>
<g id="a_edge2_Node000001_Node000003"><a xlink:title=" ">
<path fill="none" stroke="#63b8ff" d="M160.06,-108.51C152.97,-100.08 144.72,-90.27 137.82,-82.07"/>
<polygon fill="#63b8ff" stroke="#63b8ff" points="140.6,-79.93 131.48,-74.53 135.24,-84.44 140.6,-79.93"/>
</a>
</g>
</g>
<!-- Node4 -->
<g id="Node000004" class="node">
<title>Node4</title>
<g id="a_Node000004"><a xlink:href="utils_8cppm.html" target="_top" xlink:title=" ">
<polygon fill="white" stroke="#666666" points="198.65,-18.5 169.85,-18.5 169.85,0 198.65,0 198.65,-18.5"/>
<text xml:space="preserve" text-anchor="middle" x="184.25" y="-5" font-family="Helvetica,sans-Serif" font-size="10.00">util</text>
</a>
</g>
</g>
<!-- Node1&#45;&gt;Node4 -->
<g id="edge3_Node000001_Node000004" class="edge">
<title>Node1&#45;&gt;Node4</title>
<g id="a_edge3_Node000001_Node000004"><a xlink:title=" ">
<path fill="none" stroke="#63b8ff" d="M177.55,-108.61C179.02,-87.08 181.39,-52.25 182.88,-30.34"/>
<polygon fill="#63b8ff" stroke="#63b8ff" points="186.37,-30.58 183.56,-20.37 179.39,-30.11 186.37,-30.58"/>
</a>
</g>
</g>
<!-- Node5 -->
<g id="Node000005" class="node">
<title>Node5</title>
<g id="a_Node000005"><a xlink:title=" ">
<polygon fill="#e0e0e0" stroke="#999999" points="303.62,-18.5 238.88,-18.5 238.88,0 303.62,0 303.62,-18.5"/>
<text xml:space="preserve" text-anchor="middle" x="271.25" y="-5" font-family="Helvetica,sans-Serif" font-size="10.00">std.compat</text>
</a>
</g>
</g>
<!-- Node1&#45;&gt;Node5 -->
<g id="edge5_Node000001_Node000005" class="edge">
<title>Node1&#45;&gt;Node5</title>
<g id="a_edge5_Node000001_Node000005"><a xlink:title=" ">
<path fill="none" stroke="#63b8ff" d="M216.66,-108.7C231.49,-99.81 247.12,-87.87 257.25,-73 265.92,-60.28 269.31,-43.05 270.59,-29.86"/>
<polygon fill="#63b8ff" stroke="#63b8ff" points="274.06,-30.45 271.19,-20.25 267.08,-30.01 274.06,-30.45"/>
</a>
</g>
</g>
<!-- Node6 -->
<g id="Node000006" class="node">
<title>Node6</title>
<g id="a_Node000006"><a xlink:href="cli__parser_8cppm.html" target="_top" xlink:title=" ">
<polygon fill="white" stroke="#666666" points="248.12,-73 204.38,-73 204.38,-54.5 248.12,-54.5 248.12,-73"/>
<text xml:space="preserve" text-anchor="middle" x="226.25" y="-59.5" font-family="Helvetica,sans-Serif" font-size="10.00">parser</text>
</a>
</g>
</g>
<!-- Node1&#45;&gt;Node6 -->
<g id="edge6_Node000001_Node000006" class="edge">
<title>Node1&#45;&gt;Node6</title>
<g id="a_edge6_Node000001_Node000006"><a xlink:title=" ">
<path fill="none" stroke="#63b8ff" d="M191.52,-108.51C198.14,-100.17 205.83,-90.48 212.29,-82.34"/>
<polygon fill="#63b8ff" stroke="#63b8ff" points="214.99,-84.57 218.46,-74.56 209.51,-80.22 214.99,-84.57"/>
</a>
</g>
</g>
<!-- Node4&#45;&gt;Node4 -->
<g id="edge4_Node000004_Node000004" class="edge">
<title>Node4&#45;&gt;Node4</title>
<g id="a_edge4_Node000004_Node000004"><a xlink:title=" ">
<path fill="none" stroke="#63b8ff" d="M198.91,-18.75C208,-21.04 216.65,-17.87 216.65,-9.25 216.65,-4.54 214.06,-1.45 210.23,0"/>
<polygon fill="#63b8ff" stroke="#63b8ff" points="210.5,3.49 200.42,0.21 210.35,-3.5 210.5,3.49"/>
</a>
</g>
</g>
<!-- Node6&#45;&gt;Node4 -->
<g id="edge8_Node000006_Node000004" class="edge">
<title>Node6&#45;&gt;Node4</title>
<g id="a_edge8_Node000006_Node000004"><a xlink:title=" ">
<path fill="none" stroke="#63b8ff" d="M219.31,-54.08C213.57,-46.89 205.21,-36.45 198.1,-27.57"/>
<polygon fill="#63b8ff" stroke="#63b8ff" points="200.98,-25.56 192,-19.94 195.52,-29.94 200.98,-25.56"/>
</a>
</g>
</g>
<!-- Node6&#45;&gt;Node5 -->
<g id="edge7_Node000006_Node000005" class="edge">
<title>Node6&#45;&gt;Node5</title>
<g id="a_edge7_Node000006_Node000005"><a xlink:title=" ">
<path fill="none" stroke="#63b8ff" d="M233.68,-54.08C239.91,-46.82 248.98,-36.23 256.65,-27.28"/>
<polygon fill="#63b8ff" stroke="#63b8ff" points="259.12,-29.78 262.97,-19.91 253.81,-25.22 259.12,-29.78"/>
</a>
</g>
</g>
</g>
</svg>
