<?xml version="1.0" encoding="UTF-8" standalone="no"?>
<!DOCTYPE svg PUBLIC "-//W3C//DTD SVG 1.1//EN"
 "http://www.w3.org/Graphics/SVG/1.1/DTD/svg11.dtd">
<!-- Generated by graphviz version 14.1.5 (20260411.2331)
 -->
<!-- Title: Compress&#45;to&#45;fit/test/benchmarks/file_management.cpp Pages: 1 -->
<svg width="446pt" height="108pt"
 viewBox="0.00 0.00 446.00 108.00" xmlns="http://www.w3.org/2000/svg" xmlns:xlink="http://www.w3.org/1999/xlink">
<g id="graph0" class="graph" transform="scale(1 1) rotate(0) translate(4 104)">
<title>Compress&#45;to&#45;fit/test/benchmarks/file_management.cpp</title>
<!-- Node1 -->
<g id="Node000001" class="node">
<title>Node1</title>
<g id="a_Node000001"><a xlink:title=" ">
<polygon fill="#999999" stroke="#666666" points="366.25,-100 198,-100 198,-68 366.25,-68 366.25,-100"/>
<text xml:space="preserve" text-anchor="start" x="206" y="-86.5" font-family="Helvetica,sans-Serif" font-size="10.00">Compress&#45;to&#45;fit/test</text>
<text xml:space="preserve" text-anchor="middle" x="282.12" y="-74.5" font-family="Helvetica,sans-Serif" font-size="10.00">/benchmarks/file_management.cpp</text>
</a>
</g>
</g>
<!-- Node2 -->
<g id="Node000002" class="node">
<title>Node2</title>
<g id="a_Node000002"><a xlink:title=" ">
<polygon fill="#e0e0e0" stroke="#999999" points="150.25,-26 0,-26 0,-6 150.25,-6 150.25,-26"/>
<text xml:space="preserve" text-anchor="middle" x="75.12" y="-12.5" font-family="Helvetica,sans-Serif" font-size="10.00">catch2/catch_test_macros.hpp</text>
</a>
</g>
</g>
<!-- Node1&#45;&gt;Node2 -->
<g id="edge1_Node000001_Node000002" class="edge">
<title>Node1&#45;&gt;Node2</title>
<g id="a_edge1_Node000001_Node000002"><a xlink:title=" ">
<path fill="none" stroke="#63b8ff" d="M233.59,-67.53C197.73,-56.09 149.47,-40.71 115.67,-29.93"/>
<polygon fill="#63b8ff" stroke="#63b8ff" points="116.83,-26.62 106.24,-26.92 114.7,-33.29 116.83,-26.62"/>
</a>
</g>
</g>
<!-- Node3 -->
<g id="Node000003" class="node">
<title>Node3</title>
<g id="a_Node000003"><a xlink:title=" ">
<polygon fill="#e0e0e0" stroke="#999999" points="291.75,-32 168.5,-32 168.5,0 291.75,0 291.75,-32"/>
<text xml:space="preserve" text-anchor="start" x="176.5" y="-18.5" font-family="Helvetica,sans-Serif" font-size="10.00">catch2/benchmark/catch</text>
<text xml:space="preserve" text-anchor="middle" x="230.12" y="-6.5" font-family="Helvetica,sans-Serif" font-size="10.00">_benchmark.hpp</text>
</a>
</g>
</g>
<!-- Node1&#45;&gt;Node3 -->
<g id="edge2_Node000001_Node000003" class="edge">
<title>Node1&#45;&gt;Node3</title>
<g id="a_edge2_Node000001_Node000003"><a xlink:title=" ">
<path fill="none" stroke="#63b8ff" d="M270.06,-67.69C263.83,-59.78 256.08,-49.94 249.06,-41.04"/>
<polygon fill="#63b8ff" stroke="#63b8ff" points="251.99,-39.1 243.06,-33.41 246.5,-43.43 251.99,-39.1"/>
</a>
</g>
</g>
<!-- Node4 -->
<g id="Node000004" class="node">
<title>Node4</title>
<g id="a_Node000004"><a xlink:title=" ">
<polygon fill="#e0e0e0" stroke="#999999" points="358.62,-26 309.62,-26 309.62,-6 358.62,-6 358.62,-26"/>
<text xml:space="preserve" text-anchor="middle" x="334.12" y="-12.5" font-family="Helvetica,sans-Serif" font-size="10.00">fstream</text>
</a>
</g>
</g>
<!-- Node1&#45;&gt;Node4 -->
<g id="edge3_Node000001_Node000004" class="edge">
<title>Node1&#45;&gt;Node4</title>
<g id="a_edge3_Node000001_Node000004"><a xlink:title=" ">
<path fill="none" stroke="#63b8ff" d="M294.19,-67.69C301.82,-58 311.74,-45.41 319.79,-35.2"/>
<polygon fill="#63b8ff" stroke="#63b8ff" points="322.41,-37.53 325.85,-27.51 316.91,-33.19 322.41,-37.53"/>
</a>
</g>
</g>
<!-- Node5 -->
<g id="Node000005" class="node">
<title>Node5</title>
<g id="a_Node000005"><a xlink:title=" ">
<polygon fill="#e0e0e0" stroke="#999999" points="437.62,-26 376.62,-26 376.62,-6 437.62,-6 437.62,-26"/>
<text xml:space="preserve" text-anchor="middle" x="407.12" y="-12.5" font-family="Helvetica,sans-Serif" font-size="10.00">filesystem</text>
</a>
</g>
</g>
<!-- Node1&#45;&gt;Node5 -->
<g id="edge4_Node000001_Node000005" class="edge">
<title>Node1&#45;&gt;Node5</title>
<g id="a_edge4_Node000001_Node000005"><a xlink:title=" ">
<path fill="none" stroke="#63b8ff" d="M311.43,-67.53C331.86,-56.74 358.96,-42.43 379.1,-31.8"/>
<polygon fill="#63b8ff" stroke="#63b8ff" points="380.66,-34.93 387.87,-27.17 377.39,-28.74 380.66,-34.93"/>
</a>
</g>
</g>
</g>
</svg>
