<?xml version="1.0" encoding="UTF-8" standalone="no"?>
<!DOCTYPE svg PUBLIC "-//W3C//DTD SVG 1.1//EN"
 "http://www.w3.org/Graphics/SVG/1.1/DTD/svg11.dtd">
<!-- Generated by graphviz version 14.1.4 (20260321.0153)
 -->
<!-- Title: Compress&#45;to&#45;fit/src/util/containers/file_list.cppm Pages: 1 -->
<svg width="318pt" height="105pt"
 viewBox="0.00 0.00 318.00 105.00" xmlns="http://www.w3.org/2000/svg" xmlns:xlink="http://www.w3.org/1999/xlink">

<svg id="main" version="1.1" xmlns="http://www.w3.org/2000/svg" xmlns:xlink="http://www.w3.org/1999/xlink" xml:space="preserve">

<style type="text/css"><![CDATA[
.node, .edge {opacity: 0.7;}
.node.selected, .edge.selected {opacity: 1;}
.edge:hover path { stroke: red; }
.edge:hover polygon { stroke: red; fill: red; }
]]></style>
<script type="application/ecmascript" xlink:href="svg.min.js"/>
<svg id="graph" class="graph">
<g id="graph0" class="graph" transform="scale(1 1) rotate(0) translate(4 101.38)">
<title>Compress&#45;to&#45;fit/src/util/containers/file_list.cppm</title>
<!-- Node1 -->
<g id="Node000001" class="node">
<title>Node1</title>
<g id="a_Node000001"><a xlink:title=" ">
<polygon fill="#999999" stroke="#666666" points="181.5,-97.38 81.5,-97.38 81.5,-57.88 181.5,-57.88 181.5,-97.38"/>
<text xml:space="preserve" text-anchor="start" x="89.5" y="-83.88" font-family="Helvetica,sans-Serif" font-size="10.00">Compress&#45;to&#45;fit/src</text>
<text xml:space="preserve" text-anchor="start" x="89.5" y="-73.38" font-family="Helvetica,sans-Serif" font-size="10.00">/util/containers/file</text>
<text xml:space="preserve" text-anchor="middle" x="131.5" y="-62.88" font-family="Helvetica,sans-Serif" font-size="10.00">_list.cppm</text>
</a>
</g>
</g>
<!-- Node2 -->
<g id="Node000002" class="node">
<title>Node2</title>
<g id="a_Node000002"><a xlink:title=" ">
<polygon fill="#e0e0e0" stroke="#999999" points="49,-21.88 0,-21.88 0,-3.38 49,-3.38 49,-21.88"/>
<text xml:space="preserve" text-anchor="middle" x="24.5" y="-8.38" font-family="Helvetica,sans-Serif" font-size="10.00">cassert</text>
</a>
</g>
</g>
<!-- Node1&#45;&gt;Node2 -->
<g id="edge1_Node000001_Node000002" class="edge">
<title>Node1&#45;&gt;Node2</title>
<g id="a_edge1_Node000001_Node000002"><a xlink:title=" ">
<path fill="none" stroke="#63b8ff" d="M98.82,-57.38C82.79,-47.95 63.82,-36.78 49.05,-28.08"/>
<polygon fill="#63b8ff" stroke="#63b8ff" points="50.84,-25.08 40.45,-23.02 47.29,-31.11 50.84,-25.08"/>
</a>
</g>
</g>
<!-- Node3 -->
<g id="Node000003" class="node">
<title>Node3</title>
<g id="a_Node000003"><a xlink:title=" ">
<polygon fill="#e0e0e0" stroke="#999999" points="131.88,-21.88 67.12,-21.88 67.12,-3.38 131.88,-3.38 131.88,-21.88"/>
<text xml:space="preserve" text-anchor="middle" x="99.5" y="-8.38" font-family="Helvetica,sans-Serif" font-size="10.00">std.compat</text>
</a>
</g>
</g>
<!-- Node1&#45;&gt;Node3 -->
<g id="edge2_Node000001_Node000003" class="edge">
<title>Node1&#45;&gt;Node3</title>
<g id="a_edge2_Node000001_Node000003"><a xlink:title=" ">
<path fill="none" stroke="#63b8ff" d="M121.73,-57.38C117.68,-49.41 113,-40.2 108.98,-32.3"/>
<polygon fill="#63b8ff" stroke="#63b8ff" points="112.21,-30.93 104.57,-23.6 105.97,-34.1 112.21,-30.93"/>
</a>
</g>
</g>
<!-- Node4 -->
<g id="Node000004" class="node">
<title>Node4</title>
<g id="a_Node000004"><a xlink:href="utils_8cppm.html" target="_top" xlink:title=" ">
<polygon fill="white" stroke="#666666" points="178.9,-21.88 150.1,-21.88 150.1,-3.38 178.9,-3.38 178.9,-21.88"/>
<text xml:space="preserve" text-anchor="middle" x="164.5" y="-8.38" font-family="Helvetica,sans-Serif" font-size="10.00">util</text>
</a>
</g>
</g>
<!-- Node1&#45;&gt;Node4 -->
<g id="edge3_Node000001_Node000004" class="edge">
<title>Node1&#45;&gt;Node4</title>
<g id="a_edge3_Node000001_Node000004"><a xlink:title=" ">
<path fill="none" stroke="#63b8ff" d="M141.58,-57.38C145.75,-49.41 150.58,-40.2 154.72,-32.3"/>
<polygon fill="#63b8ff" stroke="#63b8ff" points="157.74,-34.07 159.28,-23.59 151.54,-30.83 157.74,-34.07"/>
</a>
</g>
</g>
<!-- Node5 -->
<g id="Node000005" class="node">
<title>Node5</title>
<g id="a_Node000005"><a xlink:href="containers_8cppm.html" target="_top" xlink:title=" ">
<polygon fill="white" stroke="#666666" points="292.25,-21.88 214.75,-21.88 214.75,-3.38 292.25,-3.38 292.25,-21.88"/>
<text xml:space="preserve" text-anchor="middle" x="253.5" y="-8.38" font-family="Helvetica,sans-Serif" font-size="10.00">containers:file</text>
</a>
</g>
</g>
<!-- Node1&#45;&gt;Node5 -->
<g id="edge5_Node000001_Node000005" class="edge">
<title>Node1&#45;&gt;Node5</title>
<g id="a_edge5_Node000001_Node000005"><a xlink:title=" ">
<path fill="none" stroke="#63b8ff" d="M168.77,-57.38C187.57,-47.67 209.93,-36.12 226.97,-27.33"/>
<polygon fill="#63b8ff" stroke="#63b8ff" points="228.18,-30.64 235.46,-22.94 224.96,-24.42 228.18,-30.64"/>
</a>
</g>
</g>
<!-- Node4&#45;&gt;Node4 -->
<g id="edge4_Node000004_Node000004" class="edge">
<title>Node4&#45;&gt;Node4</title>
<g id="a_edge4_Node000004_Node000004"><a xlink:title=" ">
<path fill="none" stroke="#63b8ff" d="M175.12,-22.31C185.5,-27.66 196.9,-24.43 196.9,-12.63 196.9,-5.06 192.22,-1.02 186.13,-0.5"/>
<polygon fill="#63b8ff" stroke="#63b8ff" points="185.6,2.97 176.6,-2.61 187.12,-3.86 185.6,2.97"/>
</a>
</g>
</g>
<!-- Node5&#45;&gt;Node5 -->
<g id="edge6_Node000005_Node000005" class="edge">
<title>Node5&#45;&gt;Node5</title>
<g id="a_edge6_Node000005_Node000005"><a xlink:title=" ">
<path fill="none" stroke="#63b8ff" d="M272.1,-22.31C290.28,-27.66 310.25,-24.43 310.25,-12.63 310.25,-3.22 297.57,0.74 283.22,-0.74"/>
<polygon fill="#63b8ff" stroke="#63b8ff" points="282.72,2.73 273.59,-2.65 284.07,-4.14 282.72,2.73"/>
</a>
</g>
</g>
</g>
</svg>
</svg>

<style type='text/css'>
<![CDATA[
[data-mouse-over-selected='false'] { opacity: 0.7; }
[data-mouse-over-selected='true']  { opacity: 1.0; }
]]>
</style>
<script type="application/ecmascript"><![CDATA[
document.addEventListener('DOMContentLoaded', (event) => {
  highlightEdges();
  highlightAdjacentNodes();
});
]]></script>
</svg>
