<?xml version="1.0" encoding="UTF-8" standalone="no"?>
<!DOCTYPE svg PUBLIC "-//W3C//DTD SVG 1.1//EN"
 "http://www.w3.org/Graphics/SVG/1.1/DTD/svg11.dtd">
<!-- Generated by graphviz version 14.1.4 (20260321.0153)
 -->
<!-- Title: Compress&#45;to&#45;fit/src/util/containers/file_buffer.cppm Pages: 1 -->
<svg width="251pt" height="105pt"
 viewBox="0.00 0.00 251.00 105.00" xmlns="http://www.w3.org/2000/svg" xmlns:xlink="http://www.w3.org/1999/xlink">
<g id="graph0" class="graph" transform="scale(1 1) rotate(0) translate(4 101.38)">
<title>Compress&#45;to&#45;fit/src/util/containers/file_buffer.cppm</title>
<!-- Node1 -->
<g id="Node000001" class="node">
<title>Node1</title>
<g id="a_Node000001"><a xlink:title=" ">
<polygon fill="#999999" stroke="#666666" points="171.38,-97.38 71.38,-97.38 71.38,-57.88 171.38,-57.88 171.38,-97.38"/>
<text xml:space="preserve" text-anchor="start" x="79.38" y="-83.88" font-family="Helvetica,sans-Serif" font-size="10.00">Compress&#45;to&#45;fit/src</text>
<text xml:space="preserve" text-anchor="start" x="79.38" y="-73.38" font-family="Helvetica,sans-Serif" font-size="10.00">/util/containers/file</text>
<text xml:space="preserve" text-anchor="middle" x="121.38" y="-62.88" font-family="Helvetica,sans-Serif" font-size="10.00">_buffer.cppm</text>
</a>
</g>
</g>
<!-- Node2 -->
<g id="Node000002" class="node">
<title>Node2</title>
<g id="a_Node000002"><a xlink:title=" ">
<polygon fill="#e0e0e0" stroke="#999999" points="64.75,-21.88 0,-21.88 0,-3.38 64.75,-3.38 64.75,-21.88"/>
<text xml:space="preserve" text-anchor="middle" x="32.38" y="-8.38" font-family="Helvetica,sans-Serif" font-size="10.00">std.compat</text>
</a>
</g>
</g>
<!-- Node1&#45;&gt;Node2 -->
<g id="edge1_Node000001_Node000002" class="edge">
<title>Node1&#45;&gt;Node2</title>
<g id="a_edge1_Node000001_Node000002"><a xlink:title=" ">
<path fill="none" stroke="#63b8ff" d="M94.19,-57.38C81.25,-48.22 66,-37.43 53.88,-28.85"/>
<polygon fill="#63b8ff" stroke="#63b8ff" points="55.98,-26.05 45.79,-23.12 51.93,-31.76 55.98,-26.05"/>
</a>
</g>
</g>
<!-- Node3 -->
<g id="Node000003" class="node">
<title>Node3</title>
<g id="a_Node000003"><a xlink:href="containers_8cppm.html" target="_top" xlink:title=" ">
<polygon fill="white" stroke="#666666" points="160.12,-21.88 82.62,-21.88 82.62,-3.38 160.12,-3.38 160.12,-21.88"/>
<text xml:space="preserve" text-anchor="middle" x="121.38" y="-8.38" font-family="Helvetica,sans-Serif" font-size="10.00">containers:file</text>
</a>
</g>
</g>
<!-- Node1&#45;&gt;Node3 -->
<g id="edge2_Node000001_Node000003" class="edge">
<title>Node1&#45;&gt;Node3</title>
<g id="a_edge2_Node000001_Node000003"><a xlink:title=" ">
<path fill="none" stroke="#63b8ff" d="M121.38,-57.38C121.38,-49.87 121.38,-41.26 121.38,-33.67"/>
<polygon fill="#63b8ff" stroke="#63b8ff" points="124.88,-33.76 121.38,-23.76 117.88,-33.76 124.88,-33.76"/>
</a>
</g>
</g>
<!-- Node4 -->
<g id="Node000004" class="node">
<title>Node4</title>
<g id="a_Node000004"><a xlink:href="utils_8cppm.html" target="_top" xlink:title=" ">
<polygon fill="white" stroke="#666666" points="224.78,-21.88 195.97,-21.88 195.97,-3.38 224.78,-3.38 224.78,-21.88"/>
<text xml:space="preserve" text-anchor="middle" x="210.38" y="-8.38" font-family="Helvetica,sans-Serif" font-size="10.00">util</text>
</a>
</g>
</g>
<!-- Node1&#45;&gt;Node4 -->
<g id="edge4_Node000001_Node000004" class="edge">
<title>Node1&#45;&gt;Node4</title>
<g id="a_edge4_Node000001_Node000004"><a xlink:title=" ">
<path fill="none" stroke="#63b8ff" d="M148.56,-57.38C161.5,-48.22 176.75,-37.43 188.87,-28.85"/>
<polygon fill="#63b8ff" stroke="#63b8ff" points="190.82,-31.76 196.96,-23.12 186.77,-26.05 190.82,-31.76"/>
</a>
</g>
</g>
<!-- Node3&#45;&gt;Node3 -->
<g id="edge3_Node000003_Node000003" class="edge">
<title>Node3&#45;&gt;Node3</title>
<g id="a_edge3_Node000003_Node000003"><a xlink:title=" ">
<path fill="none" stroke="#63b8ff" d="M139.98,-22.31C158.15,-27.66 178.12,-24.43 178.12,-12.63 178.12,-3.22 165.44,0.74 151.09,-0.74"/>
<polygon fill="#63b8ff" stroke="#63b8ff" points="150.59,2.73 141.46,-2.65 151.95,-4.14 150.59,2.73"/>
</a>
</g>
</g>
<!-- Node4&#45;&gt;Node4 -->
<g id="edge5_Node000004_Node000004" class="edge">
<title>Node4&#45;&gt;Node4</title>
<g id="a_edge5_Node000004_Node000004"><a xlink:title=" ">
<path fill="none" stroke="#63b8ff" d="M220.99,-22.31C231.37,-27.66 242.78,-24.43 242.78,-12.63 242.78,-5.06 238.1,-1.02 232,-0.5"/>
<polygon fill="#63b8ff" stroke="#63b8ff" points="231.48,2.97 222.47,-2.61 232.99,-3.86 231.48,2.97"/>
</a>
</g>
</g>
</g>
</svg>
