<?xml version="1.0" encoding="UTF-8" standalone="no"?>
<!DOCTYPE svg PUBLIC "-//W3C//DTD SVG 1.1//EN"
 "http://www.w3.org/Graphics/SVG/1.1/DTD/svg11.dtd">
<!-- Generated by graphviz version 14.1.4 (20260321.0153)
 -->
<!-- Title: Graphical Class Hierarchy Pages: 1 -->
<svg width="234pt" height="74pt"
 viewBox="0.00 0.00 234.00 74.00" xmlns="http://www.w3.org/2000/svg" xmlns:xlink="http://www.w3.org/1999/xlink">
<g id="graph0" class="graph" transform="scale(1 1) rotate(0) translate(4 69.75)">
<title>Graphical Class Hierarchy</title>
<!-- Node0 -->
<g id="Node000000" class="node">
<title>Node0</title>
<g id="a_Node000000"><a xlink:title=" ">
<polygon fill="#e0e0e0" stroke="#999999" points="80.5,-21.5 0,-21.5 0,-3 80.5,-3 80.5,-21.5"/>
<text xml:space="preserve" text-anchor="middle" x="40.25" y="-8" font-family="Helvetica,sans-Serif" font-size="10.00">std::false_type</text>
</a>
</g>
</g>
<!-- Node1 -->
<g id="Node000001" class="node">
<title>Node1</title>
<g id="a_Node000001"><a xlink:href="structis__vector_3_01std_1_1vector_3_01T_00_01A_01_4_01_4.html" target="_top" xlink:title=" ">
<polygon fill="white" stroke="#666666" points="226.25,-65.75 116.5,-65.75 116.5,-36.75 226.25,-36.75 226.25,-65.75"/>
<text xml:space="preserve" text-anchor="start" x="124.5" y="-52.25" font-family="Helvetica,sans-Serif" font-size="10.00">is_vector&lt; std::vector</text>
<text xml:space="preserve" text-anchor="middle" x="171.38" y="-41.75" font-family="Helvetica,sans-Serif" font-size="10.00">&lt; T, A &gt; &gt;</text>
</a>
</g>
</g>
<!-- Node0&#45;&gt;Node1 -->
<g id="edge2_Node000000_Node000001" class="edge">
<title>Node0&#45;&gt;Node1</title>
<g id="a_edge2_Node000000_Node000001"><a xlink:title=" ">
<path fill="none" stroke="#63b8ff" d="M84.37,-25.27C96.1,-28.82 108.9,-32.68 120.96,-36.32"/>
<polygon fill="#63b8ff" stroke="#63b8ff" points="85.53,-21.97 74.95,-22.43 83.51,-28.67 85.53,-21.97"/>
</a>
</g>
</g>
<!-- Node3 -->
<g id="Node000003" class="node">
<title>Node3</title>
<g id="a_Node000003"><a xlink:href="structis__vector.html" target="_top" xlink:title=" ">
<polygon fill="white" stroke="#666666" points="210.88,-18.5 131.88,-18.5 131.88,0 210.88,0 210.88,-18.5"/>
<text xml:space="preserve" text-anchor="middle" x="171.38" y="-5" font-family="Helvetica,sans-Serif" font-size="10.00">is_vector&lt; T &gt;</text>
</a>
</g>
</g>
<!-- Node0&#45;&gt;Node3 -->
<g id="edge3_Node000000_Node000003" class="edge">
<title>Node0&#45;&gt;Node3</title>
<g id="a_edge3_Node000000_Node000003"><a xlink:title=" ">
<path fill="none" stroke="#63b8ff" d="M92.01,-11.07C105.18,-10.76 119.17,-10.44 131.62,-10.15"/>
<polygon fill="#63b8ff" stroke="#63b8ff" points="92.12,-7.57 82.21,-11.3 92.29,-14.57 92.12,-7.57"/>
</a>
</g>
</g>
<!-- Node2 -->
<g id="Node000002" class="node">
<title>Node2</title>
<g id="a_Node000002"><a xlink:title=" ">
<polygon fill="#e0e0e0" stroke="#999999" points="78.25,-60.5 2.25,-60.5 2.25,-42 78.25,-42 78.25,-60.5"/>
<text xml:space="preserve" text-anchor="middle" x="40.25" y="-47" font-family="Helvetica,sans-Serif" font-size="10.00">std::true_type</text>
</a>
</g>
</g>
<!-- Node2&#45;&gt;Node1 -->
<g id="edge4_Node000002_Node000001" class="edge">
<title>Node2&#45;&gt;Node1</title>
<g id="a_edge4_Node000002_Node000001"><a xlink:title=" ">
<path fill="none" stroke="#63b8ff" d="M90,-51.25C98.59,-51.25 107.58,-51.25 116.3,-51.25"/>
<polygon fill="#63b8ff" stroke="#63b8ff" points="90.11,-47.75 80.11,-51.25 90.11,-54.75 90.11,-47.75"/>
</a>
</g>
</g>
</g>
</svg>
