<?xml version="1.0" encoding="UTF-8" standalone="no"?>
<!DOCTYPE svg PUBLIC "-//W3C//DTD SVG 1.1//EN"
 "http://www.w3.org/Graphics/SVG/1.1/DTD/svg11.dtd">
<!-- Generated by graphviz version 14.1.5 (20260411.2331)
 -->
<!-- Title: Graphical Class Hierarchy Pages: 1 -->
<svg width="236pt" height="78pt"
 viewBox="0.00 0.00 236.00 78.00" xmlns="http://www.w3.org/2000/svg" xmlns:xlink="http://www.w3.org/1999/xlink">
<g id="graph0" class="graph" transform="scale(1 1) rotate(0) translate(4 74)">
<title>Graphical Class Hierarchy</title>
<!-- Node0 -->
<g id="Node000000" class="node">
<title>Node0</title>
<g id="a_Node000000"><a xlink:title=" ">
<polygon fill="#e0e0e0" stroke="#999999" points="80.5,-23 0,-23 0,-3 80.5,-3 80.5,-23"/>
<text xml:space="preserve" text-anchor="middle" x="40.25" y="-9.5" font-family="Helvetica,sans-Serif" font-size="10.00">std::false_type</text>
</a>
</g>
</g>
<!-- Node1 -->
<g id="Node000001" class="node">
<title>Node1</title>
<g id="a_Node000001"><a xlink:href="structis__vector_3_01std_1_1vector_3_01_t_00_01_a_01_4_01_4.html" target="_top" xlink:title=" ">
<polygon fill="white" stroke="#666666" points="227.75,-70 116.5,-70 116.5,-38 227.75,-38 227.75,-70"/>
<text xml:space="preserve" text-anchor="start" x="124.5" y="-56.5" font-family="Helvetica,sans-Serif" font-size="10.00">is_vector&lt; std::vector</text>
<text xml:space="preserve" text-anchor="middle" x="172.12" y="-44.5" font-family="Helvetica,sans-Serif" font-size="10.00">&lt; T, A &gt; &gt;</text>
</a>
</g>
</g>
<!-- Node0&#45;&gt;Node1 -->
<g id="edge2_Node000000_Node000001" class="edge">
<title>Node0&#45;&gt;Node1</title>
<g id="a_edge2_Node000000_Node000001"><a xlink:title=" ">
<path fill="none" stroke="#63b8ff" d="M85.25,-26.89C96.06,-30.3 107.74,-33.99 118.89,-37.51"/>
<polygon fill="#63b8ff" stroke="#63b8ff" points="86.39,-23.58 75.8,-23.91 84.28,-30.26 86.39,-23.58"/>
</a>
</g>
</g>
<!-- Node3 -->
<g id="Node000003" class="node">
<title>Node3</title>
<g id="a_Node000003"><a xlink:href="structis__vector.html" target="_top" xlink:title=" ">
<polygon fill="white" stroke="#666666" points="211.62,-20 132.62,-20 132.62,0 211.62,0 211.62,-20"/>
<text xml:space="preserve" text-anchor="middle" x="172.12" y="-6.5" font-family="Helvetica,sans-Serif" font-size="10.00">is_vector&lt; T &gt;</text>
</a>
</g>
</g>
<!-- Node0&#45;&gt;Node3 -->
<g id="edge3_Node000000_Node000003" class="edge">
<title>Node0&#45;&gt;Node3</title>
<g id="a_edge3_Node000000_Node000003"><a xlink:title=" ">
<path fill="none" stroke="#63b8ff" d="M92.3,-11.82C105.56,-11.51 119.62,-11.19 132.14,-10.9"/>
<polygon fill="#63b8ff" stroke="#63b8ff" points="92.35,-8.32 82.44,-12.05 92.51,-15.32 92.35,-8.32"/>
</a>
</g>
</g>
<!-- Node2 -->
<g id="Node000002" class="node">
<title>Node2</title>
<g id="a_Node000002"><a xlink:title=" ">
<polygon fill="#e0e0e0" stroke="#999999" points="78.25,-64 2.25,-64 2.25,-44 78.25,-44 78.25,-64"/>
<text xml:space="preserve" text-anchor="middle" x="40.25" y="-50.5" font-family="Helvetica,sans-Serif" font-size="10.00">std::true_type</text>
</a>
</g>
</g>
<!-- Node2&#45;&gt;Node1 -->
<g id="edge4_Node000002_Node000001" class="edge">
<title>Node2&#45;&gt;Node1</title>
<g id="a_edge4_Node000002_Node000001"><a xlink:title=" ">
<path fill="none" stroke="#63b8ff" d="M89.95,-54C98.61,-54 107.67,-54 116.48,-54"/>
<polygon fill="#63b8ff" stroke="#63b8ff" points="89.98,-50.5 79.98,-54 89.98,-57.5 89.98,-50.5"/>
</a>
</g>
</g>
</g>
</svg>
