<?xml version="1.0" encoding="UTF-8" standalone="no"?>
<!DOCTYPE svg PUBLIC "-//W3C//DTD SVG 1.1//EN"
 "http://www.w3.org/Graphics/SVG/1.1/DTD/svg11.dtd">
<!-- Generated by graphviz version 14.1.4 (20260321.0153)
 -->
<!-- Title: Compress&#45;to&#45;fit/src/gui/interface.cpp Pages: 1 -->
<svg width="675pt" height="211pt"
 viewBox="0.00 0.00 675.00 211.00" xmlns="http://www.w3.org/2000/svg" xmlns:xlink="http://www.w3.org/1999/xlink">
<g id="graph0" class="graph" transform="scale(1 1) rotate(0) translate(4 207)">
<title>Compress&#45;to&#45;fit/src/gui/interface.cpp</title>
<!-- Node1 -->
<g id="Node000001" class="node">
<title>Node1</title>
<g id="a_Node000001"><a xlink:title=" ">
<polygon fill="#999999" stroke="#666666" points="569,-203 469,-203 469,-174 569,-174 569,-203"/>
<text xml:space="preserve" text-anchor="start" x="477" y="-189.5" font-family="Helvetica,sans-Serif" font-size="10.00">Compress&#45;to&#45;fit/src</text>
<text xml:space="preserve" text-anchor="middle" x="519" y="-179" font-family="Helvetica,sans-Serif" font-size="10.00">/gui/interface.cpp</text>
</a>
</g>
</g>
<!-- Node2 -->
<g id="Node000002" class="node">
<title>Node2</title>
<g id="a_Node000002"><a xlink:href="interface_8hpp.html" target="_top" xlink:title=" ">
<polygon fill="white" stroke="#666666" points="288.5,-138 215.5,-138 215.5,-119.5 288.5,-119.5 288.5,-138"/>
<text xml:space="preserve" text-anchor="middle" x="252" y="-124.5" font-family="Helvetica,sans-Serif" font-size="10.00">interface.hpp</text>
</a>
</g>
</g>
<!-- Node1&#45;&gt;Node2 -->
<g id="edge1_Node000001_Node000002" class="edge">
<title>Node1&#45;&gt;Node2</title>
<g id="a_edge1_Node000001_Node000002"><a xlink:title=" ">
<path fill="none" stroke="#63b8ff" d="M468.78,-176.64C420.35,-166.16 347.59,-150.42 299.94,-140.12"/>
<polygon fill="#63b8ff" stroke="#63b8ff" points="300.69,-136.7 290.18,-138.01 299.21,-143.54 300.69,-136.7"/>
</a>
</g>
</g>
<!-- Node14 -->
<g id="Node000014" class="node">
<title>Node14</title>
<g id="a_Node000014"><a xlink:title=" ">
<polygon fill="#e0e0e0" stroke="#999999" points="485.88,-138 430.12,-138 430.12,-119.5 485.88,-119.5 485.88,-138"/>
<text xml:space="preserve" text-anchor="middle" x="458" y="-124.5" font-family="Helvetica,sans-Serif" font-size="10.00">algorithm</text>
</a>
</g>
</g>
<!-- Node1&#45;&gt;Node14 -->
<g id="edge13_Node000001_Node000014" class="edge">
<title>Node1&#45;&gt;Node14</title>
<g id="a_edge13_Node000001_Node000014"><a xlink:title=" ">
<path fill="none" stroke="#63b8ff" d="M504.23,-173.52C495.56,-165.31 484.55,-154.88 475.45,-146.27"/>
<polygon fill="#63b8ff" stroke="#63b8ff" points="477.91,-143.78 468.24,-139.44 473.1,-148.86 477.91,-143.78"/>
</a>
</g>
</g>
<!-- Node15 -->
<g id="Node000015" class="node">
<title>Node15</title>
<g id="a_Node000015"><a xlink:title=" ">
<polygon fill="#e0e0e0" stroke="#999999" points="533.75,-138 504.25,-138 504.25,-119.5 533.75,-119.5 533.75,-138"/>
<text xml:space="preserve" text-anchor="middle" x="519" y="-124.5" font-family="Helvetica,sans-Serif" font-size="10.00">std</text>
</a>
</g>
</g>
<!-- Node1&#45;&gt;Node15 -->
<g id="edge14_Node000001_Node000015" class="edge">
<title>Node1&#45;&gt;Node15</title>
<g id="a_edge14_Node000001_Node000015"><a xlink:title=" ">
<path fill="none" stroke="#63b8ff" d="M519,-173.52C519,-166.42 519,-157.67 519,-149.86"/>
<polygon fill="#63b8ff" stroke="#63b8ff" points="522.5,-149.92 519,-139.92 515.5,-149.92 522.5,-149.92"/>
</a>
</g>
</g>
<!-- Node16 -->
<g id="Node000016" class="node">
<title>Node16</title>
<g id="a_Node000016"><a xlink:href="cli__parser_8cppm.html" target="_top" xlink:title=" ">
<polygon fill="white" stroke="#666666" points="595.88,-138 552.12,-138 552.12,-119.5 595.88,-119.5 595.88,-138"/>
<text xml:space="preserve" text-anchor="middle" x="574" y="-124.5" font-family="Helvetica,sans-Serif" font-size="10.00">parser</text>
</a>
</g>
</g>
<!-- Node1&#45;&gt;Node16 -->
<g id="edge15_Node000001_Node000016" class="edge">
<title>Node1&#45;&gt;Node16</title>
<g id="a_edge15_Node000001_Node000016"><a xlink:title=" ">
<path fill="none" stroke="#63b8ff" d="M532.31,-173.52C540.05,-165.39 549.86,-155.1 558.01,-146.54"/>
<polygon fill="#63b8ff" stroke="#63b8ff" points="560.35,-149.15 564.71,-139.5 555.28,-144.33 560.35,-149.15"/>
</a>
</g>
</g>
<!-- Node18 -->
<g id="Node000018" class="node">
<title>Node18</title>
<g id="a_Node000018"><a xlink:href="utils_8cppm.html" target="_top" xlink:title=" ">
<polygon fill="white" stroke="#666666" points="649.4,-78.25 620.6,-78.25 620.6,-59.75 649.4,-59.75 649.4,-78.25"/>
<text xml:space="preserve" text-anchor="middle" x="635" y="-64.75" font-family="Helvetica,sans-Serif" font-size="10.00">util</text>
</a>
</g>
</g>
<!-- Node1&#45;&gt;Node18 -->
<g id="edge19_Node000001_Node000018" class="edge">
<title>Node1&#45;&gt;Node18</title>
<g id="a_edge19_Node000001_Node000018"><a xlink:title=" ">
<path fill="none" stroke="#63b8ff" d="M553.9,-173.66C571.09,-165.41 591.07,-153.51 605,-138 617.53,-124.05 625.5,-104.03 630.05,-89.32"/>
<polygon fill="#63b8ff" stroke="#63b8ff" points="633.36,-90.5 632.69,-79.93 626.62,-88.61 633.36,-90.5"/>
</a>
</g>
</g>
<!-- Node3 -->
<g id="Node000003" class="node">
<title>Node3</title>
<g id="a_Node000003"><a xlink:title=" ">
<polygon fill="#e0e0e0" stroke="#999999" points="52,-78.25 0,-78.25 0,-59.75 52,-59.75 52,-78.25"/>
<text xml:space="preserve" text-anchor="middle" x="26" y="-64.75" font-family="Helvetica,sans-Serif" font-size="10.00">QObject</text>
</a>
</g>
</g>
<!-- Node2&#45;&gt;Node3 -->
<g id="edge2_Node000002_Node000003" class="edge">
<title>Node2&#45;&gt;Node3</title>
<g id="a_edge2_Node000002_Node000003"><a xlink:title=" ">
<path fill="none" stroke="#63b8ff" d="M215.34,-120.85C176.58,-113.19 113.88,-99.73 61,-83.5 59.85,-83.15 58.68,-82.77 57.5,-82.39"/>
<polygon fill="#63b8ff" stroke="#63b8ff" points="58.95,-79.19 48.36,-79.13 56.61,-85.78 58.95,-79.19"/>
</a>
</g>
</g>
<!-- Node4 -->
<g id="Node000004" class="node">
<title>Node4</title>
<g id="a_Node000004"><a xlink:title=" ">
<polygon fill="#e0e0e0" stroke="#999999" points="160.12,-78.25 69.88,-78.25 69.88,-59.75 160.12,-59.75 160.12,-78.25"/>
<text xml:space="preserve" text-anchor="middle" x="115" y="-64.75" font-family="Helvetica,sans-Serif" font-size="10.00">qqmlintegration.h</text>
</a>
</g>
</g>
<!-- Node2&#45;&gt;Node4 -->
<g id="edge3_Node000002_Node000004" class="edge">
<title>Node2&#45;&gt;Node4</title>
<g id="a_edge3_Node000002_Node000004"><a xlink:title=" ">
<path fill="none" stroke="#63b8ff" d="M231.49,-119.1C208.89,-109.58 172.29,-94.15 146.14,-83.13"/>
<polygon fill="#63b8ff" stroke="#63b8ff" points="147.62,-79.95 137.05,-79.29 144.9,-86.4 147.62,-79.95"/>
</a>
</g>
</g>
<!-- Node5 -->
<g id="Node000005" class="node">
<title>Node5</title>
<g id="a_Node000005"><a xlink:title=" ">
<polygon fill="#e0e0e0" stroke="#999999" points="214.12,-78.25 177.88,-78.25 177.88,-59.75 214.12,-59.75 214.12,-78.25"/>
<text xml:space="preserve" text-anchor="middle" x="196" y="-64.75" font-family="Helvetica,sans-Serif" font-size="10.00">QUrl</text>
</a>
</g>
</g>
<!-- Node2&#45;&gt;Node5 -->
<g id="edge4_Node000002_Node000005" class="edge">
<title>Node2&#45;&gt;Node5</title>
<g id="a_edge4_Node000002_Node000005"><a xlink:title=" ">
<path fill="none" stroke="#63b8ff" d="M243.74,-119.23C235.47,-110.7 222.52,-97.35 212.19,-86.7"/>
<polygon fill="#63b8ff" stroke="#63b8ff" points="214.82,-84.39 205.35,-79.64 209.8,-89.26 214.82,-84.39"/>
</a>
</g>
</g>
<!-- Node6 -->
<g id="Node000006" class="node">
<title>Node6</title>
<g id="a_Node000006"><a xlink:href="comp__options_8hpp.html" target="_top" xlink:title=" ">
<polygon fill="white" stroke="#666666" points="384.25,-78.25 231.75,-78.25 231.75,-59.75 384.25,-59.75 384.25,-78.25"/>
<text xml:space="preserve" text-anchor="middle" x="308" y="-64.75" font-family="Helvetica,sans-Serif" font-size="10.00">src/common/comp_options.hpp</text>
</a>
</g>
</g>
<!-- Node2&#45;&gt;Node6 -->
<g id="edge5_Node000002_Node000006" class="edge">
<title>Node2&#45;&gt;Node6</title>
<g id="a_edge5_Node000002_Node000006"><a xlink:title=" ">
<path fill="none" stroke="#63b8ff" d="M260.26,-119.23C268.53,-110.7 281.48,-97.35 291.81,-86.7"/>
<polygon fill="#63b8ff" stroke="#63b8ff" points="294.2,-89.26 298.65,-79.64 289.18,-84.39 294.2,-89.26"/>
</a>
</g>
</g>
<!-- Node9 -->
<g id="Node000009" class="node">
<title>Node9</title>
<g id="a_Node000009"><a xlink:href="error__warn__print_8hpp.html" target="_top" xlink:title=" ">
<polygon fill="white" stroke="#666666" points="520,-83.5 402,-83.5 402,-54.5 520,-54.5 520,-83.5"/>
<text xml:space="preserve" text-anchor="start" x="410" y="-70" font-family="Helvetica,sans-Serif" font-size="10.00">src/common/error_warn</text>
<text xml:space="preserve" text-anchor="middle" x="461" y="-59.5" font-family="Helvetica,sans-Serif" font-size="10.00">_print.hpp</text>
</a>
</g>
</g>
<!-- Node2&#45;&gt;Node9 -->
<g id="edge8_Node000002_Node000009" class="edge">
<title>Node2&#45;&gt;Node9</title>
<g id="a_edge8_Node000002_Node000009"><a xlink:title=" ">
<path fill="none" stroke="#63b8ff" d="M283.29,-119.1C313.86,-110.66 361.24,-97.56 399.39,-87.02"/>
<polygon fill="#63b8ff" stroke="#63b8ff" points="400.23,-90.42 408.94,-84.39 398.37,-83.68 400.23,-90.42"/>
</a>
</g>
</g>
<!-- Node7 -->
<g id="Node000007" class="node">
<title>Node7</title>
<g id="a_Node000007"><a xlink:title=" ">
<polygon fill="#e0e0e0" stroke="#999999" points="258.62,-18.5 213.38,-18.5 213.38,0 258.62,0 258.62,-18.5"/>
<text xml:space="preserve" text-anchor="middle" x="236" y="-5" font-family="Helvetica,sans-Serif" font-size="10.00">cstdint</text>
</a>
</g>
</g>
<!-- Node6&#45;&gt;Node7 -->
<g id="edge6_Node000006_Node000007" class="edge">
<title>Node6&#45;&gt;Node7</title>
<g id="a_edge6_Node000006_Node000007"><a xlink:title=" ">
<path fill="none" stroke="#63b8ff" d="M297.38,-59.48C286.42,-50.69 269.09,-36.79 255.63,-26"/>
<polygon fill="#63b8ff" stroke="#63b8ff" points="257.84,-23.28 247.85,-19.75 253.46,-28.74 257.84,-23.28"/>
</a>
</g>
</g>
<!-- Node8 -->
<g id="Node000008" class="node">
<title>Node8</title>
<g id="a_Node000008"><a xlink:title=" ">
<polygon fill="#e0e0e0" stroke="#999999" points="341.75,-18.5 276.25,-18.5 276.25,0 341.75,0 341.75,-18.5"/>
<text xml:space="preserve" text-anchor="middle" x="309" y="-5" font-family="Helvetica,sans-Serif" font-size="10.00">string_view</text>
</a>
</g>
</g>
<!-- Node6&#45;&gt;Node8 -->
<g id="edge7_Node000006_Node000008" class="edge">
<title>Node6&#45;&gt;Node8</title>
<g id="a_edge7_Node000006_Node000008"><a xlink:title=" ">
<path fill="none" stroke="#63b8ff" d="M308.15,-59.48C308.28,-51.8 308.48,-40.22 308.65,-30.22"/>
<polygon fill="#63b8ff" stroke="#63b8ff" points="312.15,-30.38 308.83,-20.32 305.15,-30.26 312.15,-30.38"/>
</a>
</g>
</g>
<!-- Node10 -->
<g id="Node000010" class="node">
<title>Node10</title>
<g id="a_Node000010"><a xlink:title=" ">
<polygon fill="#e0e0e0" stroke="#999999" points="411.5,-18.5 362.5,-18.5 362.5,0 411.5,0 411.5,-18.5"/>
<text xml:space="preserve" text-anchor="middle" x="387" y="-5" font-family="Helvetica,sans-Serif" font-size="10.00">cassert</text>
</a>
</g>
</g>
<!-- Node9&#45;&gt;Node10 -->
<g id="edge9_Node000009_Node000010" class="edge">
<title>Node9&#45;&gt;Node10</title>
<g id="a_edge9_Node000009_Node000010"><a xlink:title=" ">
<path fill="none" stroke="#63b8ff" d="M443.09,-54.02C432.24,-45.55 418.37,-34.73 407.14,-25.97"/>
<polygon fill="#63b8ff" stroke="#63b8ff" points="409.32,-23.23 399.28,-19.83 405.01,-28.75 409.32,-23.23"/>
</a>
</g>
</g>
<!-- Node11 -->
<g id="Node000011" class="node">
<title>Node11</title>
<g id="a_Node000011"><a xlink:title=" ">
<polygon fill="#e0e0e0" stroke="#999999" points="488,-18.5 430,-18.5 430,0 488,0 488,-18.5"/>
<text xml:space="preserve" text-anchor="middle" x="459" y="-5" font-family="Helvetica,sans-Serif" font-size="10.00">stdexcept</text>
</a>
</g>
</g>
<!-- Node9&#45;&gt;Node11 -->
<g id="edge10_Node000009_Node000011" class="edge">
<title>Node9&#45;&gt;Node11</title>
<g id="a_edge10_Node000009_Node000011"><a xlink:title=" ">
<path fill="none" stroke="#63b8ff" d="M460.52,-54.02C460.27,-46.92 459.97,-38.17 459.7,-30.36"/>
<polygon fill="#63b8ff" stroke="#63b8ff" points="463.2,-30.29 459.35,-20.42 456.2,-30.53 463.2,-30.29"/>
</a>
</g>
</g>
<!-- Node12 -->
<g id="Node000012" class="node">
<title>Node12</title>
<g id="a_Node000012"><a xlink:title=" ">
<polygon fill="#e0e0e0" stroke="#999999" points="546,-18.5 506,-18.5 506,0 546,0 546,-18.5"/>
<text xml:space="preserve" text-anchor="middle" x="526" y="-5" font-family="Helvetica,sans-Serif" font-size="10.00">string</text>
</a>
</g>
</g>
<!-- Node9&#45;&gt;Node12 -->
<g id="edge11_Node000009_Node000012" class="edge">
<title>Node9&#45;&gt;Node12</title>
<g id="a_edge11_Node000009_Node000012"><a xlink:title=" ">
<path fill="none" stroke="#63b8ff" d="M476.73,-54.02C486.07,-45.72 497.96,-35.17 507.71,-26.5"/>
<polygon fill="#63b8ff" stroke="#63b8ff" points="509.98,-29.17 515.13,-19.91 505.33,-23.93 509.98,-29.17"/>
</a>
</g>
</g>
<!-- Node13 -->
<g id="Node000013" class="node">
<title>Node13</title>
<g id="a_Node000013"><a xlink:title=" ">
<polygon fill="#e0e0e0" stroke="#999999" points="598.38,-18.5 563.62,-18.5 563.62,0 598.38,0 598.38,-18.5"/>
<text xml:space="preserve" text-anchor="middle" x="581" y="-5" font-family="Helvetica,sans-Serif" font-size="10.00">print</text>
</a>
</g>
</g>
<!-- Node9&#45;&gt;Node13 -->
<g id="edge12_Node000009_Node000013" class="edge">
<title>Node9&#45;&gt;Node13</title>
<g id="a_edge12_Node000009_Node000013"><a xlink:title=" ">
<path fill="none" stroke="#63b8ff" d="M490.05,-54.02C509.18,-44.81 534.1,-32.82 553.02,-23.72"/>
<polygon fill="#63b8ff" stroke="#63b8ff" points="554.51,-26.88 562.01,-19.39 551.48,-20.57 554.51,-26.88"/>
</a>
</g>
</g>
<!-- Node17 -->
<g id="Node000017" class="node">
<title>Node17</title>
<g id="a_Node000017"><a xlink:title=" ">
<polygon fill="#e0e0e0" stroke="#999999" points="602.38,-78.25 537.62,-78.25 537.62,-59.75 602.38,-59.75 602.38,-78.25"/>
<text xml:space="preserve" text-anchor="middle" x="570" y="-64.75" font-family="Helvetica,sans-Serif" font-size="10.00">std.compat</text>
</a>
</g>
</g>
<!-- Node16&#45;&gt;Node17 -->
<g id="edge16_Node000016_Node000017" class="edge">
<title>Node16&#45;&gt;Node17</title>
<g id="a_edge16_Node000016_Node000017"><a xlink:title=" ">
<path fill="none" stroke="#63b8ff" d="M573.41,-119.23C572.88,-111.55 572.08,-99.97 571.38,-89.97"/>
<polygon fill="#63b8ff" stroke="#63b8ff" points="574.88,-89.8 570.7,-80.07 567.9,-90.28 574.88,-89.8"/>
</a>
</g>
</g>
<!-- Node16&#45;&gt;Node18 -->
<g id="edge17_Node000016_Node000018" class="edge">
<title>Node16&#45;&gt;Node18</title>
<g id="a_edge17_Node000016_Node000018"><a xlink:title=" ">
<path fill="none" stroke="#63b8ff" d="M583,-119.23C592.1,-110.61 606.4,-97.08 617.7,-86.38"/>
<polygon fill="#63b8ff" stroke="#63b8ff" points="620.01,-89.01 624.86,-79.6 615.2,-83.93 620.01,-89.01"/>
</a>
</g>
</g>
<!-- Node18&#45;&gt;Node18 -->
<g id="edge18_Node000018_Node000018" class="edge">
<title>Node18&#45;&gt;Node18</title>
<g id="a_edge18_Node000018_Node000018"><a xlink:title=" ">
<path fill="none" stroke="#63b8ff" d="M647.3,-78.63C657.19,-82.48 667.4,-79.27 667.4,-69 667.4,-62.74 663.61,-59.11 658.41,-58.09"/>
<polygon fill="#63b8ff" stroke="#63b8ff" points="658.34,-54.58 648.8,-59.2 659.14,-61.53 658.34,-54.58"/>
</a>
</g>
</g>
</g>
</svg>
