<?xml version="1.0" encoding="UTF-8" standalone="no"?>
<!DOCTYPE svg PUBLIC "-//W3C//DTD SVG 1.1//EN"
 "http://www.w3.org/Graphics/SVG/1.1/DTD/svg11.dtd">
<!-- Generated by graphviz version 14.1.5 (20260411.2331)
 -->
<!-- Title: Compress&#45;to&#45;fit/src/models/LZ77/lz77_impl.cpp Pages: 1 -->
<svg width="332pt" height="264pt"
 viewBox="0.00 0.00 332.00 264.00" xmlns="http://www.w3.org/2000/svg" xmlns:xlink="http://www.w3.org/1999/xlink">

<svg id="main" version="1.1" xmlns="http://www.w3.org/2000/svg" xmlns:xlink="http://www.w3.org/1999/xlink" xml:space="preserve">

<style type="text/css"><![CDATA[
.node, .edge {opacity: 0.7;}
.node.selected, .edge.selected {opacity: 1;}
.edge:hover path { stroke: red; }
.edge:hover polygon { stroke: red; fill: red; }
]]></style>
<script type="application/ecmascript" xlink:href="svg.min.js"/>
<svg id="graph" class="graph">
<g id="graph0" class="graph" transform="scale(1 1) rotate(0) translate(4 260)">
<title>Compress&#45;to&#45;fit/src/models/LZ77/lz77_impl.cpp</title>
<!-- Node1 -->
<g id="Node000001" class="node">
<title>Node1</title>
<g id="a_Node000001"><a xlink:title=" ">
<polygon fill="#999999" stroke="#666666" points="250.25,-256 112,-256 112,-224 250.25,-224 250.25,-256"/>
<text xml:space="preserve" text-anchor="start" x="120" y="-242.5" font-family="Helvetica,sans-Serif" font-size="10.00">Compress&#45;to&#45;fit/src</text>
<text xml:space="preserve" text-anchor="middle" x="181.12" y="-230.5" font-family="Helvetica,sans-Serif" font-size="10.00">/models/LZ77/lz77_impl.cpp</text>
</a>
</g>
</g>
<!-- Node2 -->
<g id="Node000002" class="node">
<title>Node2</title>
<g id="a_Node000002"><a xlink:href="lz77_8cppm.html" target="_top" xlink:title="[lz77.Karp&#45;Rabin]">
<polygon fill="white" stroke="#666666" points="211.62,-188 150.62,-188 150.62,-168 211.62,-168 211.62,-188"/>
<text xml:space="preserve" text-anchor="middle" x="181.12" y="-174.5" font-family="Helvetica,sans-Serif" font-size="10.00">lz77.cppm</text>
</a>
</g>
</g>
<!-- Node1&#45;&gt;Node2 -->
<g id="edge1_Node000001_Node000002" class="edge">
<title>Node1&#45;&gt;Node2</title>
<g id="a_edge1_Node000001_Node000002"><a xlink:title=" ">
<path fill="none" stroke="#63b8ff" d="M181.12,-223.55C181.12,-216.34 181.12,-207.66 181.12,-199.88"/>
<polygon fill="#63b8ff" stroke="#63b8ff" points="184.63,-199.92 181.13,-189.92 177.63,-199.92 184.63,-199.92"/>
</a>
</g>
</g>
<!-- Node3 -->
<g id="Node000003" class="node">
<title>Node3</title>
<g id="a_Node000003"><a xlink:title=" ">
<polygon fill="#e0e0e0" stroke="#999999" points="84.25,-132 0,-132 0,-112 84.25,-112 84.25,-132"/>
<text xml:space="preserve" text-anchor="middle" x="42.12" y="-118.5" font-family="Helvetica,sans-Serif" font-size="10.00">source_location</text>
</a>
</g>
</g>
<!-- Node2&#45;&gt;Node3 -->
<g id="edge2_Node000002_Node000003" class="edge">
<title>Node2&#45;&gt;Node3</title>
<g id="a_edge2_Node000002_Node000003"><a xlink:title=" ">
<path fill="none" stroke="#63b8ff" d="M156.91,-167.59C134.82,-159.01 101.93,-146.23 77,-136.55"/>
<polygon fill="#63b8ff" stroke="#63b8ff" points="78.53,-133.39 67.94,-133.03 75.99,-139.91 78.53,-133.39"/>
</a>
</g>
</g>
<!-- Node4 -->
<g id="Node000004" class="node">
<title>Node4</title>
<g id="a_Node000004"><a xlink:title=" ">
<polygon fill="#e0e0e0" stroke="#999999" points="141.75,-132 102.5,-132 102.5,-112 141.75,-112 141.75,-132"/>
<text xml:space="preserve" text-anchor="middle" x="122.12" y="-118.5" font-family="Helvetica,sans-Serif" font-size="10.00">limits</text>
</a>
</g>
</g>
<!-- Node2&#45;&gt;Node4 -->
<g id="edge3_Node000002_Node000004" class="edge">
<title>Node2&#45;&gt;Node4</title>
<g id="a_edge3_Node000002_Node000004"><a xlink:title=" ">
<path fill="none" stroke="#63b8ff" d="M170.85,-167.59C162.56,-160.01 150.68,-149.13 140.72,-140.02"/>
<polygon fill="#63b8ff" stroke="#63b8ff" points="143.14,-137.49 133.4,-133.32 138.41,-142.65 143.14,-137.49"/>
</a>
</g>
</g>
<!-- Node5 -->
<g id="Node000005" class="node">
<title>Node5</title>
<g id="a_Node000005"><a xlink:href="cli__parser_8cppm.html" target="_top" xlink:title=" ">
<polygon fill="white" stroke="#666666" points="202.62,-132 159.62,-132 159.62,-112 202.62,-112 202.62,-132"/>
<text xml:space="preserve" text-anchor="middle" x="181.12" y="-118.5" font-family="Helvetica,sans-Serif" font-size="10.00">parser</text>
</a>
</g>
</g>
<!-- Node2&#45;&gt;Node5 -->
<g id="edge4_Node000002_Node000005" class="edge">
<title>Node2&#45;&gt;Node5</title>
<g id="a_edge4_Node000002_Node000005"><a xlink:title=" ">
<path fill="none" stroke="#63b8ff" d="M181.12,-167.59C181.12,-161.01 181.12,-151.96 181.12,-143.73"/>
<polygon fill="#63b8ff" stroke="#63b8ff" points="184.63,-143.81 181.13,-133.81 177.63,-143.81 184.63,-143.81"/>
</a>
</g>
</g>
<!-- Node8 -->
<g id="Node000008" class="node">
<title>Node8</title>
<g id="a_Node000008"><a xlink:href="utils_8cppm.html" target="_top" xlink:title=" ">
<polygon fill="white" stroke="#666666" points="241.53,-76 212.72,-76 212.72,-56 241.53,-56 241.53,-76"/>
<text xml:space="preserve" text-anchor="middle" x="227.12" y="-62.5" font-family="Helvetica,sans-Serif" font-size="10.00">util</text>
</a>
</g>
</g>
<!-- Node2&#45;&gt;Node8 -->
<g id="edge10_Node000002_Node000008" class="edge">
<title>Node2&#45;&gt;Node8</title>
<g id="a_edge10_Node000002_Node000008"><a xlink:title=" ">
<path fill="none" stroke="#63b8ff" d="M189.16,-167.63C196.21,-158.94 206.23,-145.37 212.12,-132 218.42,-117.7 222.25,-100.43 224.46,-87.28"/>
<polygon fill="#63b8ff" stroke="#63b8ff" points="227.88,-88.07 225.89,-77.67 220.96,-87.05 227.88,-88.07"/>
</a>
</g>
</g>
<!-- Node9 -->
<g id="Node000009" class="node">
<title>Node9</title>
<g id="a_Node000009"><a xlink:title=" ">
<polygon fill="#e0e0e0" stroke="#999999" points="323.5,-132 258.75,-132 258.75,-112 323.5,-112 323.5,-132"/>
<text xml:space="preserve" text-anchor="middle" x="291.12" y="-118.5" font-family="Helvetica,sans-Serif" font-size="10.00">std.compat</text>
</a>
</g>
</g>
<!-- Node2&#45;&gt;Node9 -->
<g id="edge9_Node000002_Node000009" class="edge">
<title>Node2&#45;&gt;Node9</title>
<g id="a_edge9_Node000002_Node000009"><a xlink:title=" ">
<path fill="none" stroke="#63b8ff" d="M200.29,-167.59C217.22,-159.28 242.17,-147.03 261.65,-137.47"/>
<polygon fill="#63b8ff" stroke="#63b8ff" points="263.02,-140.7 270.46,-133.15 259.94,-134.41 263.02,-140.7"/>
</a>
</g>
</g>
<!-- Node6 -->
<g id="Node000006" class="node">
<title>Node6</title>
<g id="a_Node000006"><a xlink:title=" ">
<polygon fill="#e0e0e0" stroke="#999999" points="157.5,-76 122.75,-76 122.75,-56 157.5,-56 157.5,-76"/>
<text xml:space="preserve" text-anchor="middle" x="140.12" y="-62.5" font-family="Helvetica,sans-Serif" font-size="10.00">print</text>
</a>
</g>
</g>
<!-- Node5&#45;&gt;Node6 -->
<g id="edge5_Node000005_Node000006" class="edge">
<title>Node5&#45;&gt;Node6</title>
<g id="a_edge5_Node000005_Node000006"><a xlink:title=" ">
<path fill="none" stroke="#63b8ff" d="M173.98,-111.59C168.52,-104.39 160.8,-94.23 154.12,-85.43"/>
<polygon fill="#63b8ff" stroke="#63b8ff" points="156.93,-83.35 148.1,-77.5 151.36,-87.58 156.93,-83.35"/>
</a>
</g>
</g>
<!-- Node7 -->
<g id="Node000007" class="node">
<title>Node7</title>
<g id="a_Node000007"><a xlink:title=" ">
<polygon fill="#e0e0e0" stroke="#999999" points="220.88,-20 191.38,-20 191.38,0 220.88,0 220.88,-20"/>
<text xml:space="preserve" text-anchor="middle" x="206.12" y="-6.5" font-family="Helvetica,sans-Serif" font-size="10.00">std</text>
</a>
</g>
</g>
<!-- Node5&#45;&gt;Node7 -->
<g id="edge6_Node000005_Node000007" class="edge">
<title>Node5&#45;&gt;Node7</title>
<g id="a_edge6_Node000005_Node000007"><a xlink:title=" ">
<path fill="none" stroke="#63b8ff" d="M183.26,-111.62C187.28,-93.92 196.07,-55.24 201.51,-31.32"/>
<polygon fill="#63b8ff" stroke="#63b8ff" points="204.86,-32.36 203.66,-21.83 198.03,-30.81 204.86,-32.36"/>
</a>
</g>
</g>
<!-- Node5&#45;&gt;Node8 -->
<g id="edge7_Node000005_Node000008" class="edge">
<title>Node5&#45;&gt;Node8</title>
<g id="a_edge7_Node000005_Node000008"><a xlink:title=" ">
<path fill="none" stroke="#63b8ff" d="M189.14,-111.59C195.4,-104.24 204.3,-93.8 211.91,-84.87"/>
<polygon fill="#63b8ff" stroke="#63b8ff" points="214.4,-87.33 218.22,-77.45 209.07,-82.79 214.4,-87.33"/>
</a>
</g>
</g>
<!-- Node8&#45;&gt;Node7 -->
<g id="edge8_Node000008_Node000007" class="edge">
<title>Node8&#45;&gt;Node7</title>
<g id="a_edge8_Node000008_Node000007"><a xlink:title=" ">
<path fill="none" stroke="#63b8ff" d="M223.47,-55.59C220.82,-48.78 217.14,-39.32 213.85,-30.86"/>
<polygon fill="#63b8ff" stroke="#63b8ff" points="217.18,-29.76 210.29,-21.71 210.65,-32.3 217.18,-29.76"/>
</a>
</g>
</g>
</g>
</svg>
</svg>

<style type='text/css'>
<![CDATA[
[data-mouse-over-selected='false'] { opacity: 0.7; }
[data-mouse-over-selected='true']  { opacity: 1.0; }
]]>
</style>
<script type="application/ecmascript"><![CDATA[
document.addEventListener('DOMContentLoaded', (event) => {
  highlightEdges();
  highlightAdjacentNodes();
});
]]></script>
</svg>
