<?xml version="1.0" encoding="UTF-8" standalone="no"?>
<!DOCTYPE svg PUBLIC "-//W3C//DTD SVG 1.1//EN"
 "http://www.w3.org/Graphics/SVG/1.1/DTD/svg11.dtd">
<!-- Generated by graphviz version 14.1.4 (20260321.0153)
 -->
<!-- Title: Compress&#45;to&#45;fit/src/models/LZ77/lz77.cppm Pages: 1 -->
<svg width="373pt" height="146pt"
 viewBox="0.00 0.00 373.00 146.00" xmlns="http://www.w3.org/2000/svg" xmlns:xlink="http://www.w3.org/1999/xlink">

<svg id="main" version="1.1" xmlns="http://www.w3.org/2000/svg" xmlns:xlink="http://www.w3.org/1999/xlink" xml:space="preserve">

<style type="text/css"><![CDATA[
.node, .edge {opacity: 0.7;}
.node.selected, .edge.selected {opacity: 1;}
.edge:hover path { stroke: red; }
.edge:hover polygon { stroke: red; fill: red; }
]]></style>
<script type="application/ecmascript" xlink:href="svg.min.js"/>
<svg id="graph" class="graph">
<g id="graph0" class="graph" transform="scale(1 1) rotate(0) translate(4 142)">
<title>Compress&#45;to&#45;fit/src/models/LZ77/lz77.cppm</title>
<!-- Node1 -->
<g id="Node000001" class="node">
<title>Node1</title>
<g id="a_Node000001"><a xlink:title=" ">
<polygon fill="#999999" stroke="#666666" points="264.5,-138 140.5,-138 140.5,-109 264.5,-109 264.5,-138"/>
<text xml:space="preserve" text-anchor="start" x="148.5" y="-124.5" font-family="Helvetica,sans-Serif" font-size="10.00">Compress&#45;to&#45;fit/src</text>
<text xml:space="preserve" text-anchor="middle" x="202.5" y="-114" font-family="Helvetica,sans-Serif" font-size="10.00">/models/LZ77/lz77.cppm</text>
</a>
</g>
</g>
<!-- Node2 -->
<g id="Node000002" class="node">
<title>Node2</title>
<g id="a_Node000002"><a xlink:title=" ">
<polygon fill="#e0e0e0" stroke="#999999" points="49,-73 0,-73 0,-54.5 49,-54.5 49,-73"/>
<text xml:space="preserve" text-anchor="middle" x="24.5" y="-59.5" font-family="Helvetica,sans-Serif" font-size="10.00">cassert</text>
</a>
</g>
</g>
<!-- Node1&#45;&gt;Node2 -->
<g id="edge1_Node000001_Node000002" class="edge">
<title>Node1&#45;&gt;Node2</title>
<g id="a_edge1_Node000001_Node000002"><a xlink:title=" ">
<path fill="none" stroke="#63b8ff" d="M159.41,-108.52C128.98,-98.65 88.69,-85.58 60.09,-76.3"/>
<polygon fill="#63b8ff" stroke="#63b8ff" points="61.4,-73.04 50.8,-73.28 59.24,-79.7 61.4,-73.04"/>
</a>
</g>
</g>
<!-- Node3 -->
<g id="Node000003" class="node">
<title>Node3</title>
<g id="a_Node000003"><a xlink:title=" ">
<polygon fill="#e0e0e0" stroke="#999999" points="115.62,-73 67.38,-73 67.38,-54.5 115.62,-54.5 115.62,-73"/>
<text xml:space="preserve" text-anchor="middle" x="91.5" y="-59.5" font-family="Helvetica,sans-Serif" font-size="10.00">cstddef</text>
</a>
</g>
</g>
<!-- Node1&#45;&gt;Node3 -->
<g id="edge2_Node000001_Node000003" class="edge">
<title>Node1&#45;&gt;Node3</title>
<g id="a_edge2_Node000001_Node000003"><a xlink:title=" ">
<path fill="none" stroke="#63b8ff" d="M175.63,-108.52C158.2,-99.45 135.59,-87.69 118.19,-78.64"/>
<polygon fill="#63b8ff" stroke="#63b8ff" points="119.96,-75.61 109.48,-74.1 116.73,-81.82 119.96,-75.61"/>
</a>
</g>
</g>
<!-- Node4 -->
<g id="Node000004" class="node">
<title>Node4</title>
<g id="a_Node000004"><a xlink:href="containers_8cppm.html" target="_top" xlink:title=" ">
<polygon fill="white" stroke="#666666" points="195.38,-73 133.62,-73 133.62,-54.5 195.38,-54.5 195.38,-73"/>
<text xml:space="preserve" text-anchor="middle" x="164.5" y="-59.5" font-family="Helvetica,sans-Serif" font-size="10.00">containers</text>
</a>
</g>
</g>
<!-- Node1&#45;&gt;Node4 -->
<g id="edge3_Node000001_Node000004" class="edge">
<title>Node1&#45;&gt;Node4</title>
<g id="a_edge3_Node000001_Node000004"><a xlink:title=" ">
<path fill="none" stroke="#63b8ff" d="M193.3,-108.52C188.24,-100.82 181.89,-91.18 176.44,-82.9"/>
<polygon fill="#63b8ff" stroke="#63b8ff" points="179.45,-81.1 171.03,-74.67 173.6,-84.95 179.45,-81.1"/>
</a>
</g>
</g>
<!-- Node5 -->
<g id="Node000005" class="node">
<title>Node5</title>
<g id="a_Node000005"><a xlink:href="cli__parser_8cppm.html" target="_top" xlink:title=" ">
<polygon fill="white" stroke="#666666" points="313.38,-73 269.62,-73 269.62,-54.5 313.38,-54.5 313.38,-73"/>
<text xml:space="preserve" text-anchor="middle" x="291.5" y="-59.5" font-family="Helvetica,sans-Serif" font-size="10.00">parser</text>
</a>
</g>
</g>
<!-- Node1&#45;&gt;Node5 -->
<g id="edge5_Node000001_Node000005" class="edge">
<title>Node1&#45;&gt;Node5</title>
<g id="a_edge5_Node000001_Node000005"><a xlink:title=" ">
<path fill="none" stroke="#63b8ff" d="M224.04,-108.52C237.62,-99.71 255.13,-88.35 268.9,-79.41"/>
<polygon fill="#63b8ff" stroke="#63b8ff" points="270.41,-82.61 276.89,-74.23 266.6,-76.73 270.41,-82.61"/>
</a>
</g>
</g>
<!-- Node6 -->
<g id="Node000006" class="node">
<title>Node6</title>
<g id="a_Node000006"><a xlink:title=" ">
<polygon fill="#e0e0e0" stroke="#999999" points="290.88,-18.5 226.12,-18.5 226.12,0 290.88,0 290.88,-18.5"/>
<text xml:space="preserve" text-anchor="middle" x="258.5" y="-5" font-family="Helvetica,sans-Serif" font-size="10.00">std.compat</text>
</a>
</g>
</g>
<!-- Node1&#45;&gt;Node6 -->
<g id="edge9_Node000001_Node000006" class="edge">
<title>Node1&#45;&gt;Node6</title>
<g id="a_edge9_Node000001_Node000006"><a xlink:title=" ">
<path fill="none" stroke="#63b8ff" d="M209.37,-108.74C219.32,-88.79 237.77,-51.8 249.01,-29.26"/>
<polygon fill="#63b8ff" stroke="#63b8ff" points="252.14,-30.83 253.48,-20.32 245.88,-27.71 252.14,-30.83"/>
</a>
</g>
</g>
<!-- Node7 -->
<g id="Node000007" class="node">
<title>Node7</title>
<g id="a_Node000007"><a xlink:href="utils_8cppm.html" target="_top" xlink:title=" ">
<polygon fill="white" stroke="#666666" points="346.9,-18.5 318.1,-18.5 318.1,0 346.9,0 346.9,-18.5"/>
<text xml:space="preserve" text-anchor="middle" x="332.5" y="-5" font-family="Helvetica,sans-Serif" font-size="10.00">util</text>
</a>
</g>
</g>
<!-- Node1&#45;&gt;Node7 -->
<g id="edge10_Node000001_Node000007" class="edge">
<title>Node1&#45;&gt;Node7</title>
<g id="a_edge10_Node000001_Node000007"><a xlink:title=" ">
<path fill="none" stroke="#63b8ff" d="M264.74,-110C286.09,-102.67 308.18,-91.12 322.5,-73 331.93,-61.06 334.11,-43.77 334.1,-30.37"/>
<polygon fill="#63b8ff" stroke="#63b8ff" points="337.6,-30.35 333.66,-20.51 330.61,-30.66 337.6,-30.35"/>
</a>
</g>
</g>
<!-- Node4&#45;&gt;Node4 -->
<g id="edge4_Node000004_Node000004" class="edge">
<title>Node4&#45;&gt;Node4</title>
<g id="a_edge4_Node000004_Node000004"><a xlink:title=" ">
<path fill="none" stroke="#63b8ff" d="M188.14,-73.48C201.28,-75.3 213.38,-72.05 213.38,-63.75 213.38,-57.98 207.53,-54.65 199.54,-53.77"/>
<polygon fill="#63b8ff" stroke="#63b8ff" points="199.57,-50.27 189.65,-53.99 199.72,-57.27 199.57,-50.27"/>
</a>
</g>
</g>
<!-- Node5&#45;&gt;Node6 -->
<g id="edge6_Node000005_Node000006" class="edge">
<title>Node5&#45;&gt;Node6</title>
<g id="a_edge6_Node000005_Node000006"><a xlink:title=" ">
<path fill="none" stroke="#63b8ff" d="M286.05,-54.08C281.68,-47.12 275.39,-37.12 269.92,-28.42"/>
<polygon fill="#63b8ff" stroke="#63b8ff" points="272.94,-26.64 264.65,-20.04 267.01,-30.37 272.94,-26.64"/>
</a>
</g>
</g>
<!-- Node5&#45;&gt;Node7 -->
<g id="edge7_Node000005_Node000007" class="edge">
<title>Node5&#45;&gt;Node7</title>
<g id="a_edge7_Node000005_Node000007"><a xlink:title=" ">
<path fill="none" stroke="#63b8ff" d="M298.27,-54.08C303.88,-46.89 312.04,-36.45 318.98,-27.57"/>
<polygon fill="#63b8ff" stroke="#63b8ff" points="321.53,-29.99 324.92,-19.95 316.01,-25.68 321.53,-29.99"/>
</a>
</g>
</g>
<!-- Node7&#45;&gt;Node7 -->
<g id="edge8_Node000007_Node000007" class="edge">
<title>Node7&#45;&gt;Node7</title>
<g id="a_edge8_Node000007_Node000007"><a xlink:title=" ">
<path fill="none" stroke="#63b8ff" d="M347.16,-18.75C356.25,-21.04 364.9,-17.87 364.9,-9.25 364.9,-4.54 362.31,-1.45 358.48,0"/>
<polygon fill="#63b8ff" stroke="#63b8ff" points="358.75,3.49 348.67,0.21 358.6,-3.5 358.75,3.49"/>
</a>
</g>
</g>
</g>
</svg>
</svg>

<style type='text/css'>
<![CDATA[
[data-mouse-over-selected='false'] { opacity: 0.7; }
[data-mouse-over-selected='true']  { opacity: 1.0; }
]]>
</style>
<script type="application/ecmascript"><![CDATA[
document.addEventListener('DOMContentLoaded', (event) => {
  highlightEdges();
  highlightAdjacentNodes();
});
]]></script>
</svg>
