<?xml version="1.0" encoding="UTF-8" standalone="no"?>
<!DOCTYPE svg PUBLIC "-//W3C//DTD SVG 1.1//EN"
 "http://www.w3.org/Graphics/SVG/1.1/DTD/svg11.dtd">
<!-- Generated by graphviz version 14.1.4 (20260321.0153)
 -->
<!-- Title: Compress&#45;to&#45;fit/src/util/macros.hpp Pages: 1 -->
<svg width="294pt" height="102pt"
 viewBox="0.00 0.00 294.00 102.00" xmlns="http://www.w3.org/2000/svg" xmlns:xlink="http://www.w3.org/1999/xlink">
<g id="graph0" class="graph" transform="scale(1 1) rotate(0) translate(4 98)">
<title>Compress&#45;to&#45;fit/src/util/macros.hpp</title>
<!-- Node1 -->
<g id="Node000001" class="node">
<title>Node1</title>
<g id="a_Node000001"><a xlink:title=" ">
<polygon fill="#999999" stroke="#666666" points="191.75,-94 91.75,-94 91.75,-65 191.75,-65 191.75,-94"/>
<text xml:space="preserve" text-anchor="start" x="99.75" y="-80.5" font-family="Helvetica,sans-Serif" font-size="10.00">Compress&#45;to&#45;fit/src</text>
<text xml:space="preserve" text-anchor="middle" x="141.75" y="-70" font-family="Helvetica,sans-Serif" font-size="10.00">/util/macros.hpp</text>
</a>
</g>
</g>
<!-- Node2 -->
<g id="Node000002" class="node">
<title>Node2</title>
<g id="a_Node000002"><a xlink:href="Compress-to-fit_8cpp.html" target="_top" xlink:title=" ">
<polygon fill="white" stroke="#666666" points="131.5,-29 0,-29 0,0 131.5,0 131.5,-29"/>
<text xml:space="preserve" text-anchor="start" x="8" y="-15.5" font-family="Helvetica,sans-Serif" font-size="10.00">Compress&#45;to&#45;fit/Compress</text>
<text xml:space="preserve" text-anchor="middle" x="65.75" y="-5" font-family="Helvetica,sans-Serif" font-size="10.00">&#45;to&#45;fit.cpp</text>
</a>
</g>
</g>
<!-- Node1&#45;&gt;Node2 -->
<g id="edge1_Node000001_Node000002" class="edge">
<title>Node1&#45;&gt;Node2</title>
<g id="a_edge1_Node000001_Node000002"><a xlink:title=" ">
<path fill="none" stroke="#63b8ff" d="M116.06,-57.21C105.01,-48.04 92.4,-37.59 82.57,-29.44"/>
<polygon fill="#63b8ff" stroke="#63b8ff" points="113.79,-59.86 123.72,-63.55 118.25,-54.48 113.79,-59.86"/>
</a>
</g>
</g>
<!-- Node3 -->
<g id="Node000003" class="node">
<title>Node3</title>
<g id="a_Node000003"><a xlink:href="everything_8hpp.html" target="_top" xlink:title=" ">
<polygon fill="white" stroke="#666666" points="286.12,-29 149.38,-29 149.38,0 286.12,0 286.12,-29"/>
<text xml:space="preserve" text-anchor="start" x="157.38" y="-15.5" font-family="Helvetica,sans-Serif" font-size="10.00">Compress&#45;to&#45;fit/for</text>
<text xml:space="preserve" text-anchor="middle" x="217.75" y="-5" font-family="Helvetica,sans-Serif" font-size="10.00">_intellisense/everything.hpp</text>
</a>
</g>
</g>
<!-- Node1&#45;&gt;Node3 -->
<g id="edge2_Node000001_Node000003" class="edge">
<title>Node1&#45;&gt;Node3</title>
<g id="a_edge2_Node000001_Node000003"><a xlink:title=" ">
<path fill="none" stroke="#63b8ff" d="M167.44,-57.21C178.49,-48.04 191.1,-37.59 200.93,-29.44"/>
<polygon fill="#63b8ff" stroke="#63b8ff" points="165.25,-54.48 159.78,-63.55 169.71,-59.86 165.25,-54.48"/>
</a>
</g>
</g>
</g>
</svg>
