<?xml version="1.0" encoding="UTF-8" standalone="no"?>
<!DOCTYPE svg PUBLIC "-//W3C//DTD SVG 1.1//EN"
 "http://www.w3.org/Graphics/SVG/1.1/DTD/svg11.dtd">
<!-- Generated by graphviz version 14.1.4 (20260321.0153)
 -->
<!-- Title: Compress&#45;to&#45;fit/src/models/models.cppm Pages: 1 -->
<svg width="163pt" height="92pt"
 viewBox="0.00 0.00 163.00 92.00" xmlns="http://www.w3.org/2000/svg" xmlns:xlink="http://www.w3.org/1999/xlink">
<g id="graph0" class="graph" transform="scale(1 1) rotate(0) translate(4 87.5)">
<title>Compress&#45;to&#45;fit/src/models/models.cppm</title>
<!-- Node1 -->
<g id="Node000001" class="node">
<title>Node1</title>
<g id="a_Node000001"><a xlink:title=" ">
<polygon fill="#999999" stroke="#666666" points="137.25,-83.5 25.25,-83.5 25.25,-54.5 137.25,-54.5 137.25,-83.5"/>
<text xml:space="preserve" text-anchor="start" x="33.25" y="-70" font-family="Helvetica,sans-Serif" font-size="10.00">Compress&#45;to&#45;fit/src</text>
<text xml:space="preserve" text-anchor="middle" x="81.25" y="-59.5" font-family="Helvetica,sans-Serif" font-size="10.00">/models/models.cppm</text>
</a>
</g>
</g>
<!-- Node1&#45;&gt;Node1 -->
<g id="edge3_Node000001_Node000001" class="edge">
<title>Node1&#45;&gt;Node1</title>
<g id="a_edge3_Node000001_Node000001"><a xlink:title=" ">
<path fill="none" stroke="#63b8ff" d="M137.71,-79.59C148.02,-78.25 155.25,-74.72 155.25,-69 155.25,-65.69 152.83,-63.12 148.8,-61.28"/>
<polygon fill="#63b8ff" stroke="#63b8ff" points="149.74,-57.9 139.18,-58.79 147.98,-64.68 149.74,-57.9"/>
</a>
</g>
</g>
<!-- Node2 -->
<g id="Node000002" class="node">
<title>Node2</title>
<g id="a_Node000002"><a xlink:title=" ">
<polygon fill="#e0e0e0" stroke="#999999" points="80.5,-18.5 0,-18.5 0,0 80.5,0 80.5,-18.5"/>
<text xml:space="preserve" text-anchor="middle" x="40.25" y="-5" font-family="Helvetica,sans-Serif" font-size="10.00">mio/mmap.hpp</text>
</a>
</g>
</g>
<!-- Node1&#45;&gt;Node2 -->
<g id="edge1_Node000001_Node000002" class="edge">
<title>Node1&#45;&gt;Node2</title>
<g id="a_edge1_Node000001_Node000002"><a xlink:title=" ">
<path fill="none" stroke="#63b8ff" d="M71.33,-54.02C65.8,-46.24 58.86,-36.46 52.94,-28.13"/>
<polygon fill="#63b8ff" stroke="#63b8ff" points="55.91,-26.27 47.27,-20.14 50.2,-30.32 55.91,-26.27"/>
</a>
</g>
</g>
<!-- Node3 -->
<g id="Node000003" class="node">
<title>Node3</title>
<g id="a_Node000003"><a xlink:title=" ">
<polygon fill="#e0e0e0" stroke="#999999" points="147.75,-18.5 98.75,-18.5 98.75,0 147.75,0 147.75,-18.5"/>
<text xml:space="preserve" text-anchor="middle" x="123.25" y="-5" font-family="Helvetica,sans-Serif" font-size="10.00">cassert</text>
</a>
</g>
</g>
<!-- Node1&#45;&gt;Node3 -->
<g id="edge2_Node000001_Node000003" class="edge">
<title>Node1&#45;&gt;Node3</title>
<g id="a_edge2_Node000001_Node000003"><a xlink:title=" ">
<path fill="none" stroke="#63b8ff" d="M91.42,-54.02C97.08,-46.24 104.19,-36.46 110.25,-28.13"/>
<polygon fill="#63b8ff" stroke="#63b8ff" points="113.02,-30.27 116.07,-20.13 107.35,-26.16 113.02,-30.27"/>
</a>
</g>
</g>
</g>
</svg>
