<?xml version="1.0" encoding="UTF-8" standalone="no"?>
<!DOCTYPE svg PUBLIC "-//W3C//DTD SVG 1.1//EN"
 "http://www.w3.org/Graphics/SVG/1.1/DTD/svg11.dtd">
<!-- Generated by graphviz version 14.1.5 (20260411.2331)
 -->
<!-- Title: parser::lex Pages: 1 -->
<svg width="286pt" height="84pt"
 viewBox="0.00 0.00 286.00 84.00" xmlns="http://www.w3.org/2000/svg" xmlns:xlink="http://www.w3.org/1999/xlink">

<svg id="main" version="1.1" xmlns="http://www.w3.org/2000/svg" xmlns:xlink="http://www.w3.org/1999/xlink" xml:space="preserve">

<style type="text/css"><![CDATA[
.node, .edge {opacity: 0.7;}
.node.selected, .edge.selected {opacity: 1;}
.edge:hover path { stroke: red; }
.edge:hover polygon { stroke: red; fill: red; }
]]></style>
<script type="application/ecmascript" xlink:href="svg.min.js"/>
<svg id="graph" class="graph">
<g id="graph0" class="graph" transform="scale(1 1) rotate(0) translate(4 80)">
<title>parser::lex</title>
<!-- Node1 -->
<g id="Node000001" class="node">
<title>Node1</title>
<g id="a_Node000001"><a xlink:title=" ">
<polygon fill="#999999" stroke="#666666" points="278.25,-39 216.5,-39 216.5,-19 278.25,-19 278.25,-39"/>
<text xml:space="preserve" text-anchor="middle" x="247.38" y="-25.5" font-family="Helvetica,sans-Serif" font-size="10.00">parser::lex</text>
</a>
</g>
</g>
<!-- Node1&#45;&gt;Node1 -->
<g id="edge1_Node000001_Node000001" class="edge">
<title>Node1&#45;&gt;Node1</title>
<g id="a_edge1_Node000001_Node000001"><a xlink:title=" ">
<path fill="none" stroke="#63b8ff" d="M268.69,-50.44C265.95,-54.3 258.84,-57 247.38,-57 226.41,-57 220.02,-47.98 228.21,-39.34"/>
<polygon fill="#63b8ff" stroke="#63b8ff" points="272.17,-49.98 266.83,-40.82 265.3,-51.31 272.17,-49.98"/>
</a>
</g>
</g>
<!-- Node2 -->
<g id="Node000002" class="node">
<title>Node2</title>
<g id="a_Node000002"><a xlink:href="namespaceparser.html#a7f5ecbf764fc175fc336fcea0dd07be8" target="_top" xlink:title="Parse the cli, fully manages error checking.">
<polygon fill="white" stroke="#666666" points="163.25,-58 90.25,-58 90.25,-38 163.25,-38 163.25,-58"/>
<text xml:space="preserve" text-anchor="middle" x="126.75" y="-44.5" font-family="Helvetica,sans-Serif" font-size="10.00">parser::parse</text>
</a>
</g>
</g>
<!-- Node1&#45;&gt;Node2 -->
<g id="edge2_Node000001_Node000002" class="edge">
<title>Node1&#45;&gt;Node2</title>
<g id="a_edge2_Node000001_Node000002"><a xlink:title=" ">
<path fill="none" stroke="#63b8ff" d="M205.12,-35.61C191.54,-37.78 176.55,-40.18 163.42,-42.29"/>
<polygon fill="#63b8ff" stroke="#63b8ff" points="205.32,-39.12 214.64,-34.08 204.21,-32.21 205.32,-39.12"/>
</a>
</g>
</g>
<!-- Node4 -->
<g id="Node000004" class="node">
<title>Node4</title>
<g id="a_Node000004"><a xlink:href="classparser_1_1_token.html#a03fc54839cfb01b88087c14db5b0fd63" target="_top" xlink:title=" ">
<polygon fill="white" stroke="#666666" points="180.5,-20 73,-20 73,0 180.5,0 180.5,-20"/>
<text xml:space="preserve" text-anchor="middle" x="126.75" y="-6.5" font-family="Helvetica,sans-Serif" font-size="10.00">parser::Token::Token</text>
</a>
</g>
</g>
<!-- Node1&#45;&gt;Node4 -->
<g id="edge5_Node000001_Node000004" class="edge">
<title>Node1&#45;&gt;Node4</title>
<g id="a_edge5_Node000001_Node000004"><a xlink:title=" ">
<path fill="none" stroke="#63b8ff" d="M204.85,-22.35C197.14,-21.11 188.99,-19.81 180.99,-18.53"/>
<polygon fill="#63b8ff" stroke="#63b8ff" points="204.21,-25.79 214.64,-23.92 205.32,-18.88 204.21,-25.79"/>
</a>
</g>
</g>
<!-- Node2&#45;&gt;Node2 -->
<g id="edge4_Node000002_Node000002" class="edge">
<title>Node2&#45;&gt;Node2</title>
<g id="a_edge4_Node000002_Node000002"><a xlink:title=" ">
<path fill="none" stroke="#63b8ff" d="M145.88,-69.44C143.42,-73.3 137.04,-76 126.75,-76 107.93,-76 102.2,-66.98 109.55,-58.34"/>
<polygon fill="#63b8ff" stroke="#63b8ff" points="149.37,-69.08 144.21,-59.83 142.48,-70.28 149.37,-69.08"/>
</a>
</g>
</g>
<!-- Node3 -->
<g id="Node000003" class="node">
<title>Node3</title>
<g id="a_Node000003"><a xlink:href="_compress-to-fit_8cpp.html#a0ddf1224851353fc92bfbff6f499fa97" target="_top" xlink:title=" ">
<polygon fill="white" stroke="#666666" points="37,-58 0,-58 0,-38 37,-38 37,-58"/>
<text xml:space="preserve" text-anchor="middle" x="18.5" y="-44.5" font-family="Helvetica,sans-Serif" font-size="10.00">main</text>
</a>
</g>
</g>
<!-- Node2&#45;&gt;Node3 -->
<g id="edge3_Node000002_Node000003" class="edge">
<title>Node2&#45;&gt;Node3</title>
<g id="a_edge3_Node000002_Node000003"><a xlink:title=" ">
<path fill="none" stroke="#63b8ff" d="M78.28,-48C63.69,-48 48.52,-48 37.25,-48"/>
<polygon fill="#63b8ff" stroke="#63b8ff" points="78.27,-51.5 88.27,-48 78.27,-44.5 78.27,-51.5"/>
</a>
</g>
</g>
</g>
</svg>
</svg>

<style type='text/css'>
<![CDATA[
[data-mouse-over-selected='false'] { opacity: 0.7; }
[data-mouse-over-selected='true']  { opacity: 1.0; }
]]>
</style>
<script type="application/ecmascript"><![CDATA[
document.addEventListener('DOMContentLoaded', (event) => {
  highlightEdges();
  highlightAdjacentNodes();
});
]]></script>
</svg>
