<?xml version="1.0" encoding="UTF-8" standalone="no"?>
<!DOCTYPE svg PUBLIC "-//W3C//DTD SVG 1.1//EN"
 "http://www.w3.org/Graphics/SVG/1.1/DTD/svg11.dtd">
<!-- Generated by graphviz version 14.1.5 (20260411.2331)
 -->
<!-- Title: parser::parse Pages: 1 -->
<svg width="280pt" height="65pt"
 viewBox="0.00 0.00 280.00 65.00" xmlns="http://www.w3.org/2000/svg" xmlns:xlink="http://www.w3.org/1999/xlink">

<svg id="main" version="1.1" xmlns="http://www.w3.org/2000/svg" xmlns:xlink="http://www.w3.org/1999/xlink" xml:space="preserve">

<style type="text/css"><![CDATA[
.node, .edge {opacity: 0.7;}
.node.selected, .edge.selected {opacity: 1;}
.edge:hover path { stroke: red; }
.edge:hover polygon { stroke: red; fill: red; }
]]></style>
<script type="application/ecmascript" xlink:href="svg.min.js"/>
<svg id="graph" class="graph">
<g id="graph0" class="graph" transform="scale(1 1) rotate(0) translate(4 61)">
<title>parser::parse</title>
<!-- Node1 -->
<g id="Node000001" class="node">
<title>Node1</title>
<g id="a_Node000001"><a xlink:title="Parse the cli, fully manages error checking.">
<polygon fill="#999999" stroke="#666666" points="73,-20 0,-20 0,0 73,0 73,-20"/>
<text xml:space="preserve" text-anchor="middle" x="36.5" y="-6.5" font-family="Helvetica,sans-Serif" font-size="10.00">parser::parse</text>
</a>
</g>
</g>
<!-- Node1&#45;&gt;Node1 -->
<g id="edge4_Node000001_Node000001" class="edge">
<title>Node1&#45;&gt;Node1</title>
<g id="a_edge4_Node000001_Node000001"><a xlink:title=" ">
<path fill="none" stroke="#63b8ff" d="M20.07,-20.34C13.06,-28.98 18.53,-38 36.5,-38 46.33,-38 52.42,-35.3 54.77,-31.44"/>
<polygon fill="#63b8ff" stroke="#63b8ff" points="58.27,-31.12 53.17,-21.83 51.36,-32.27 58.27,-31.12"/>
</a>
</g>
</g>
<!-- Node2 -->
<g id="Node000002" class="node">
<title>Node2</title>
<g id="a_Node000002"><a xlink:href="namespaceparser.html#a883c446b2f982a5d7b6989f2442e8186" target="_top" xlink:title=" ">
<polygon fill="white" stroke="#666666" points="170.75,-39 109,-39 109,-19 170.75,-19 170.75,-39"/>
<text xml:space="preserve" text-anchor="middle" x="139.88" y="-25.5" font-family="Helvetica,sans-Serif" font-size="10.00">parser::lex</text>
</a>
</g>
</g>
<!-- Node1&#45;&gt;Node2 -->
<g id="edge1_Node000001_Node000002" class="edge">
<title>Node1&#45;&gt;Node2</title>
<g id="a_edge1_Node000001_Node000002"><a xlink:title=" ">
<path fill="none" stroke="#63b8ff" d="M73.24,-16.7C81.15,-18.18 89.58,-19.76 97.68,-21.28"/>
<polygon fill="#63b8ff" stroke="#63b8ff" points="96.86,-24.69 107.33,-23.09 98.15,-17.81 96.86,-24.69"/>
</a>
</g>
</g>
<!-- Node3 -->
<g id="Node000003" class="node">
<title>Node3</title>
<g id="a_Node000003"><a xlink:href="utils_8cppm.html#a6c327b69ce479189b2946651f162daec" target="_top" xlink:title="throw_error is a custom error logger to the terminal. This will NOT ALWAYS throw.">
<polygon fill="white" stroke="#666666" points="271.5,-20 206.75,-20 206.75,0 271.5,0 271.5,-20"/>
<text xml:space="preserve" text-anchor="middle" x="239.12" y="-6.5" font-family="Helvetica,sans-Serif" font-size="10.00">throw_error</text>
</a>
</g>
</g>
<!-- Node1&#45;&gt;Node3 -->
<g id="edge5_Node000001_Node000003" class="edge">
<title>Node1&#45;&gt;Node3</title>
<g id="a_edge5_Node000001_Node000003"><a xlink:title=" ">
<path fill="none" stroke="#63b8ff" d="M73.37,-10C107.54,-10 159.01,-10 195.32,-10"/>
<polygon fill="#63b8ff" stroke="#63b8ff" points="195.02,-13.5 205.02,-10 195.02,-6.5 195.02,-13.5"/>
</a>
</g>
</g>
<!-- Node2&#45;&gt;Node2 -->
<g id="edge2_Node000002_Node000002" class="edge">
<title>Node2&#45;&gt;Node2</title>
<g id="a_edge2_Node000002_Node000002"><a xlink:title=" ">
<path fill="none" stroke="#63b8ff" d="M124.11,-39.34C117.37,-47.98 122.62,-57 139.88,-57 149.31,-57 155.16,-54.3 157.42,-50.44"/>
<polygon fill="#63b8ff" stroke="#63b8ff" points="160.92,-50.16 155.88,-40.83 154,-51.26 160.92,-50.16"/>
</a>
</g>
</g>
<!-- Node2&#45;&gt;Node3 -->
<g id="edge3_Node000002_Node000003" class="edge">
<title>Node2&#45;&gt;Node3</title>
<g id="a_edge3_Node000002_Node000003"><a xlink:title=" ">
<path fill="none" stroke="#63b8ff" d="M171.11,-23.09C178.77,-21.6 187.14,-19.96 195.28,-18.37"/>
<polygon fill="#63b8ff" stroke="#63b8ff" points="195.93,-21.81 205.08,-16.46 194.59,-14.94 195.93,-21.81"/>
</a>
</g>
</g>
</g>
</svg>
</svg>

<style type='text/css'>
<![CDATA[
[data-mouse-over-selected='false'] { opacity: 0.7; }
[data-mouse-over-selected='true']  { opacity: 1.0; }
]]>
</style>
<script type="application/ecmascript"><![CDATA[
document.addEventListener('DOMContentLoaded', (event) => {
  highlightEdges();
  highlightAdjacentNodes();
});
]]></script>
</svg>
