<?xml version="1.0" encoding="UTF-8" standalone="no"?>
<!DOCTYPE svg PUBLIC "-//W3C//DTD SVG 1.1//EN"
 "http://www.w3.org/Graphics/SVG/1.1/DTD/svg11.dtd">
<!-- Generated by graphviz version 14.1.5 (20260411.2331)
 -->
<!-- Title: parser::parse Pages: 1 -->
<svg width="154pt" height="46pt"
 viewBox="0.00 0.00 154.00 46.00" xmlns="http://www.w3.org/2000/svg" xmlns:xlink="http://www.w3.org/1999/xlink">
<g id="graph0" class="graph" transform="scale(1 1) rotate(0) translate(4 42)">
<title>parser::parse</title>
<!-- Node1 -->
<g id="Node000001" class="node">
<title>Node1</title>
<g id="a_Node000001"><a xlink:title="Parse the cli, fully manages error checking.">
<polygon fill="#999999" stroke="#666666" points="146,-20 73,-20 73,0 146,0 146,-20"/>
<text xml:space="preserve" text-anchor="middle" x="109.5" y="-6.5" font-family="Helvetica,sans-Serif" font-size="10.00">parser::parse</text>
</a>
</g>
</g>
<!-- Node1&#45;&gt;Node1 -->
<g id="edge2_Node000001_Node000001" class="edge">
<title>Node1&#45;&gt;Node1</title>
<g id="a_edge2_Node000001_Node000001"><a xlink:title=" ">
<path fill="none" stroke="#63b8ff" d="M125.58,-31.44C123.51,-35.3 118.15,-38 109.5,-38 93.68,-38 88.86,-28.98 95.04,-20.34"/>
<polygon fill="#63b8ff" stroke="#63b8ff" points="129.09,-31.22 124.18,-21.84 122.16,-32.24 129.09,-31.22"/>
</a>
</g>
</g>
<!-- Node2 -->
<g id="Node000002" class="node">
<title>Node2</title>
<g id="a_Node000002"><a xlink:href="_compress-to-fit_8cpp.html#a0ddf1224851353fc92bfbff6f499fa97" target="_top" xlink:title=" ">
<polygon fill="white" stroke="#666666" points="37,-20 0,-20 0,0 37,0 37,-20"/>
<text xml:space="preserve" text-anchor="middle" x="18.5" y="-6.5" font-family="Helvetica,sans-Serif" font-size="10.00">main</text>
</a>
</g>
</g>
<!-- Node1&#45;&gt;Node2 -->
<g id="edge1_Node000001_Node000002" class="edge">
<title>Node1&#45;&gt;Node2</title>
<g id="a_edge1_Node000001_Node000002"><a xlink:title=" ">
<path fill="none" stroke="#63b8ff" d="M61.31,-10C52.72,-10 44.28,-10 37.24,-10"/>
<polygon fill="#63b8ff" stroke="#63b8ff" points="61.04,-13.5 71.04,-10 61.04,-6.5 61.04,-13.5"/>
</a>
</g>
</g>
</g>
</svg>
