<?xml version="1.0" encoding="UTF-8" standalone="no"?>
<!DOCTYPE svg PUBLIC "-//W3C//DTD SVG 1.1//EN"
 "http://www.w3.org/Graphics/SVG/1.1/DTD/svg11.dtd">
<!-- Generated by graphviz version 14.1.5 (20260411.2331)
 -->
<!-- Title: Sym Pages: 1 -->
<svg width="131pt" height="108pt"
 viewBox="0.00 0.00 131.00 108.00" xmlns="http://www.w3.org/2000/svg" xmlns:xlink="http://www.w3.org/1999/xlink">
<g id="graph0" class="graph" transform="scale(1 1) rotate(0) translate(4 104)">
<title>Sym</title>
<!-- Node1 -->
<g id="Node000001" class="node">
<title>Node1</title>
<g id="a_Node000001"><a xlink:title=" ">
<polygon fill="#999999" stroke="none" points="123,-100 0,-100 0,0 123,0 123,-100"/>
<text xml:space="preserve" text-anchor="start" x="51.38" y="-86.25" font-family="Helvetica,sans-Serif" font-size="10.00">Sym</text>
<text xml:space="preserve" text-anchor="start" x="4" y="-70.25" font-family="Helvetica,sans-Serif" font-size="10.00">+</text>
<text xml:space="preserve" text-anchor="start" x="14" y="-70.25" font-family="Helvetica,sans-Serif" font-size="10.00">value</text>
<text xml:space="preserve" text-anchor="start" x="4" y="-54.25" font-family="Helvetica,sans-Serif" font-size="10.00">+</text>
<text xml:space="preserve" text-anchor="start" x="14" y="-54.25" font-family="Helvetica,sans-Serif" font-size="10.00">operator unsigned char()</text>
<text xml:space="preserve" text-anchor="start" x="4" y="-38.25" font-family="Helvetica,sans-Serif" font-size="10.00">+</text>
<text xml:space="preserve" text-anchor="start" x="14" y="-38.25" font-family="Helvetica,sans-Serif" font-size="10.00">operator&lt;=&gt;()</text>
<text xml:space="preserve" text-anchor="start" x="4" y="-22.25" font-family="Helvetica,sans-Serif" font-size="10.00">+</text>
<text xml:space="preserve" text-anchor="start" x="14" y="-22.25" font-family="Helvetica,sans-Serif" font-size="10.00">max()</text>
<text xml:space="preserve" text-anchor="start" x="4" y="-6.25" font-family="Helvetica,sans-Serif" font-size="10.00">+</text>
<text xml:space="preserve" text-anchor="start" x="14" y="-6.25" font-family="Helvetica,sans-Serif" font-size="10.00">alphabet_size()</text>
<polygon fill="#666666" stroke="#666666" points="0,-82 0,-82 123,-82 123,-82 0,-82"/>
<polygon fill="#666666" stroke="#666666" points="0,-66 0,-66 12,-66 12,-66 0,-66"/>
<polygon fill="#666666" stroke="#666666" points="12,-66 12,-66 123,-66 123,-66 12,-66"/>
<polygon fill="none" stroke="#666666" points="0,0 0,-100 123,-100 123,0 0,0"/>
</a>
</g>
</g>
</g>
</svg>
