<?xml version="1.0" encoding="UTF-8" standalone="no"?>
<!DOCTYPE svg PUBLIC "-//W3C//DTD SVG 1.1//EN"
 "http://www.w3.org/Graphics/SVG/1.1/DTD/svg11.dtd">
<!-- Generated by graphviz version 14.1.5 (20260411.2331)
 -->
<!-- Title: CompressionData&lt; Sym &gt; Pages: 1 -->
<svg width="226pt" height="1024pt"
 viewBox="0.00 0.00 226.00 1024.00" xmlns="http://www.w3.org/2000/svg" xmlns:xlink="http://www.w3.org/1999/xlink">
<g id="graph0" class="graph" transform="scale(1 1) rotate(0) translate(4 1020)">
<title>CompressionData&lt; Sym &gt;</title>
<!-- Node1 -->
<g id="Node000001" class="node">
<title>Node1</title>
<g id="a_Node000001"><a xlink:title=" ">
<polygon fill="#999999" stroke="none" points="125,-52 0,-52 0,0 125,0 125,-52"/>
<text xml:space="preserve" text-anchor="start" x="4" y="-38.25" font-family="Helvetica,sans-Serif" font-size="10.00">CompressionData&lt; Sym &gt;</text>
<text xml:space="preserve" text-anchor="start" x="9.56" y="-22.25" font-family="Helvetica,sans-Serif" font-size="10.00">+</text>
<text xml:space="preserve" text-anchor="start" x="25.12" y="-22.25" font-family="Helvetica,sans-Serif" font-size="10.00">preset</text>
<text xml:space="preserve" text-anchor="start" x="9.56" y="-6.25" font-family="Helvetica,sans-Serif" font-size="10.00">+</text>
<text xml:space="preserve" text-anchor="start" x="25.12" y="-6.25" font-family="Helvetica,sans-Serif" font-size="10.00">CompressionData()</text>
<polygon fill="#666666" stroke="#666666" points="0,-34 0,-34 125,-34 125,-34 0,-34"/>
<polygon fill="#666666" stroke="#666666" points="0,-18 0,-18 23.12,-18 23.12,-18 0,-18"/>
<polygon fill="#666666" stroke="#666666" points="23.12,-18 23.12,-18 125,-18 125,-18 23.12,-18"/>
<polygon fill="none" stroke="#666666" points="0,0 0,-52 125,-52 125,0 0,0"/>
</a>
</g>
</g>
<!-- Node2 -->
<g id="Node000002" class="node">
<title>Node2</title>
<g id="a_Node000002"><a xlink:href="class_window.html" target="_top" xlink:title="[lz77.Window]">
<polygon fill="white" stroke="none" points="122.12,-756 2.87,-756 2.87,-400 122.12,-400 122.12,-756"/>
<text xml:space="preserve" text-anchor="start" x="44.88" y="-742.25" font-family="Helvetica,sans-Serif" font-size="10.00">Window</text>
<text xml:space="preserve" text-anchor="start" x="8.38" y="-726.25" font-family="Helvetica,sans-Serif" font-size="10.00">&#45;</text>
<text xml:space="preserve" text-anchor="start" x="16.88" y="-726.25" font-family="Helvetica,sans-Serif" font-size="10.00">size_look_ahead</text>
<text xml:space="preserve" text-anchor="start" x="8.38" y="-710.25" font-family="Helvetica,sans-Serif" font-size="10.00">&#45;</text>
<text xml:space="preserve" text-anchor="start" x="16.88" y="-710.25" font-family="Helvetica,sans-Serif" font-size="10.00">max_size_look_ahead</text>
<text xml:space="preserve" text-anchor="start" x="8.38" y="-694.25" font-family="Helvetica,sans-Serif" font-size="10.00">&#45;</text>
<text xml:space="preserve" text-anchor="start" x="16.88" y="-694.25" font-family="Helvetica,sans-Serif" font-size="10.00">size_search</text>
<text xml:space="preserve" text-anchor="start" x="8.38" y="-678.25" font-family="Helvetica,sans-Serif" font-size="10.00">&#45;</text>
<text xml:space="preserve" text-anchor="start" x="16.88" y="-678.25" font-family="Helvetica,sans-Serif" font-size="10.00">max_size_search</text>
<text xml:space="preserve" text-anchor="start" x="8.38" y="-662.25" font-family="Helvetica,sans-Serif" font-size="10.00">&#45;</text>
<text xml:space="preserve" text-anchor="start" x="16.88" y="-662.25" font-family="Helvetica,sans-Serif" font-size="10.00">max_size</text>
<text xml:space="preserve" text-anchor="start" x="8.38" y="-646.25" font-family="Helvetica,sans-Serif" font-size="10.00">&#45;</text>
<text xml:space="preserve" text-anchor="start" x="16.88" y="-646.25" font-family="Helvetica,sans-Serif" font-size="10.00">offset</text>
<text xml:space="preserve" text-anchor="start" x="6.88" y="-630.25" font-family="Helvetica,sans-Serif" font-size="10.00">+</text>
<text xml:space="preserve" text-anchor="start" x="16.88" y="-630.25" font-family="Helvetica,sans-Serif" font-size="10.00">Window()</text>
<text xml:space="preserve" text-anchor="start" x="6.88" y="-614.25" font-family="Helvetica,sans-Serif" font-size="10.00">+</text>
<text xml:space="preserve" text-anchor="start" x="16.88" y="-614.25" font-family="Helvetica,sans-Serif" font-size="10.00">Window()</text>
<text xml:space="preserve" text-anchor="start" x="6.88" y="-598.25" font-family="Helvetica,sans-Serif" font-size="10.00">+</text>
<text xml:space="preserve" text-anchor="start" x="16.88" y="-598.25" font-family="Helvetica,sans-Serif" font-size="10.00">begin()</text>
<text xml:space="preserve" text-anchor="start" x="6.88" y="-582.25" font-family="Helvetica,sans-Serif" font-size="10.00">+</text>
<text xml:space="preserve" text-anchor="start" x="16.88" y="-582.25" font-family="Helvetica,sans-Serif" font-size="10.00">end()</text>
<text xml:space="preserve" text-anchor="start" x="6.88" y="-566.25" font-family="Helvetica,sans-Serif" font-size="10.00">+</text>
<text xml:space="preserve" text-anchor="start" x="16.88" y="-566.25" font-family="Helvetica,sans-Serif" font-size="10.00">slide()</text>
<text xml:space="preserve" text-anchor="start" x="6.88" y="-550.25" font-family="Helvetica,sans-Serif" font-size="10.00">+</text>
<text xml:space="preserve" text-anchor="start" x="16.88" y="-550.25" font-family="Helvetica,sans-Serif" font-size="10.00">look_ahead_buffer()</text>
<text xml:space="preserve" text-anchor="start" x="6.88" y="-534.25" font-family="Helvetica,sans-Serif" font-size="10.00">+</text>
<text xml:space="preserve" text-anchor="start" x="16.88" y="-534.25" font-family="Helvetica,sans-Serif" font-size="10.00">search_buffer()</text>
<text xml:space="preserve" text-anchor="start" x="6.88" y="-518.25" font-family="Helvetica,sans-Serif" font-size="10.00">+</text>
<text xml:space="preserve" text-anchor="start" x="16.88" y="-518.25" font-family="Helvetica,sans-Serif" font-size="10.00">get_size_search()</text>
<text xml:space="preserve" text-anchor="start" x="6.88" y="-502.25" font-family="Helvetica,sans-Serif" font-size="10.00">+</text>
<text xml:space="preserve" text-anchor="start" x="16.88" y="-502.25" font-family="Helvetica,sans-Serif" font-size="10.00">get_size_la_buf()</text>
<text xml:space="preserve" text-anchor="start" x="6.88" y="-486.25" font-family="Helvetica,sans-Serif" font-size="10.00">+</text>
<text xml:space="preserve" text-anchor="start" x="16.88" y="-486.25" font-family="Helvetica,sans-Serif" font-size="10.00">get_max_size()</text>
<text xml:space="preserve" text-anchor="start" x="6.88" y="-470.25" font-family="Helvetica,sans-Serif" font-size="10.00">+</text>
<text xml:space="preserve" text-anchor="start" x="16.88" y="-470.25" font-family="Helvetica,sans-Serif" font-size="10.00">get_max_size_search()</text>
<text xml:space="preserve" text-anchor="start" x="6.88" y="-454.25" font-family="Helvetica,sans-Serif" font-size="10.00">+</text>
<text xml:space="preserve" text-anchor="start" x="16.88" y="-454.25" font-family="Helvetica,sans-Serif" font-size="10.00">get_relative_pos()</text>
<text xml:space="preserve" text-anchor="start" x="6.88" y="-438.25" font-family="Helvetica,sans-Serif" font-size="10.00">+</text>
<text xml:space="preserve" text-anchor="start" x="16.88" y="-438.25" font-family="Helvetica,sans-Serif" font-size="10.00">get_absolute_pos()</text>
<text xml:space="preserve" text-anchor="start" x="6.88" y="-422.25" font-family="Helvetica,sans-Serif" font-size="10.00">+</text>
<text xml:space="preserve" text-anchor="start" x="16.88" y="-422.25" font-family="Helvetica,sans-Serif" font-size="10.00">operator[]()</text>
<text xml:space="preserve" text-anchor="start" x="6.88" y="-406.25" font-family="Helvetica,sans-Serif" font-size="10.00">+</text>
<text xml:space="preserve" text-anchor="start" x="16.88" y="-406.25" font-family="Helvetica,sans-Serif" font-size="10.00">get_data()</text>
<polygon fill="#666666" stroke="#666666" points="2.88,-738 2.88,-738 122.12,-738 122.12,-738 2.88,-738"/>
<polygon fill="#666666" stroke="#666666" points="2.88,-642 2.88,-642 14.88,-642 14.88,-642 2.88,-642"/>
<polygon fill="#666666" stroke="#666666" points="14.88,-642 14.88,-642 122.12,-642 122.12,-642 14.88,-642"/>
<polygon fill="none" stroke="#666666" points="2.88,-400 2.88,-756 122.12,-756 122.12,-400 2.88,-400"/>
</a>
</g>
</g>
<!-- Node2&#45;&gt;Node1 -->
<g id="edge1_Node000001_Node000002" class="edge">
<title>Node2&#45;&gt;Node1</title>
<g id="a_edge1_Node000001_Node000002"><a xlink:title=" ">
<path fill="none" stroke="#63b8ff" d="M54.94,-400.23C52.41,-311.83 51.2,-203.22 55.5,-106 56.1,-92.52 57.26,-77.79 58.47,-64.74"/>
<polygon fill="none" stroke="#63b8ff" points="58.47,-64.71 55.08,-58.35 59.64,-52.77 63.04,-59.13 58.47,-64.71"/>
</a>
</g>
<text xml:space="preserve" text-anchor="start" x="58.5" y="-222.25" font-family="Helvetica,sans-Serif" font-size="10.00" fill="grey">+window</text>
</g>
<!-- Node5 -->
<g id="Node000005" class="node">
<title>Node5</title>
<g id="a_Node000005"><a xlink:href="classalg_1_1_rabin.html" target="_top" xlink:title=" ">
<polygon fill="white" stroke="none" points="217.88,-346 109.12,-346 109.12,-106 217.88,-106 217.88,-346"/>
<text xml:space="preserve" text-anchor="start" x="141.38" y="-332.25" font-family="Helvetica,sans-Serif" font-size="10.00">alg::Rabin</text>
<text xml:space="preserve" text-anchor="start" x="114.62" y="-316.25" font-family="Helvetica,sans-Serif" font-size="10.00">&#45;</text>
<text xml:space="preserve" text-anchor="start" x="123.12" y="-316.25" font-family="Helvetica,sans-Serif" font-size="10.00">hash</text>
<text xml:space="preserve" text-anchor="start" x="114.62" y="-300.25" font-family="Helvetica,sans-Serif" font-size="10.00">&#45;</text>
<text xml:space="preserve" text-anchor="start" x="123.12" y="-300.25" font-family="Helvetica,sans-Serif" font-size="10.00">position</text>
<text xml:space="preserve" text-anchor="start" x="114.62" y="-284.25" font-family="Helvetica,sans-Serif" font-size="10.00">&#45;</text>
<text xml:space="preserve" text-anchor="start" x="123.12" y="-284.25" font-family="Helvetica,sans-Serif" font-size="10.00">poss_table</text>
<text xml:space="preserve" text-anchor="start" x="114.62" y="-268.25" font-family="Helvetica,sans-Serif" font-size="10.00">&#45;</text>
<text xml:space="preserve" text-anchor="start" x="123.12" y="-268.25" font-family="Helvetica,sans-Serif" font-size="10.00">prev_poss_table</text>
<text xml:space="preserve" text-anchor="start" x="114.62" y="-252.25" font-family="Helvetica,sans-Serif" font-size="10.00">&#45;</text>
<text xml:space="preserve" text-anchor="start" x="123.12" y="-252.25" font-family="Helvetica,sans-Serif" font-size="10.00">MAX_CHAIN</text>
<text xml:space="preserve" text-anchor="start" x="113.12" y="-236.25" font-family="Helvetica,sans-Serif" font-size="10.00">+</text>
<text xml:space="preserve" text-anchor="start" x="123.12" y="-236.25" font-family="Helvetica,sans-Serif" font-size="10.00">Rabin()</text>
<text xml:space="preserve" text-anchor="start" x="113.12" y="-220.25" font-family="Helvetica,sans-Serif" font-size="10.00">+</text>
<text xml:space="preserve" text-anchor="start" x="123.12" y="-220.25" font-family="Helvetica,sans-Serif" font-size="10.00">operator=()</text>
<text xml:space="preserve" text-anchor="start" x="113.12" y="-204.25" font-family="Helvetica,sans-Serif" font-size="10.00">+</text>
<text xml:space="preserve" text-anchor="start" x="123.12" y="-204.25" font-family="Helvetica,sans-Serif" font-size="10.00">roll_hash()</text>
<text xml:space="preserve" text-anchor="start" x="113.12" y="-188.25" font-family="Helvetica,sans-Serif" font-size="10.00">+</text>
<text xml:space="preserve" text-anchor="start" x="123.12" y="-188.25" font-family="Helvetica,sans-Serif" font-size="10.00">find_pattern()</text>
<text xml:space="preserve" text-anchor="start" x="113.12" y="-172.25" font-family="Helvetica,sans-Serif" font-size="10.00">+</text>
<text xml:space="preserve" text-anchor="start" x="123.12" y="-172.25" font-family="Helvetica,sans-Serif" font-size="10.00">get_pos()</text>
<text xml:space="preserve" text-anchor="start" x="114.62" y="-156.25" font-family="Helvetica,sans-Serif" font-size="10.00">&#45;</text>
<text xml:space="preserve" text-anchor="start" x="123.12" y="-156.25" font-family="Helvetica,sans-Serif" font-size="10.00">bucket_index()</text>
<text xml:space="preserve" text-anchor="start" x="114.62" y="-140.25" font-family="Helvetica,sans-Serif" font-size="10.00">&#45;</text>
<text xml:space="preserve" text-anchor="start" x="123.12" y="-140.25" font-family="Helvetica,sans-Serif" font-size="10.00">prev_bucket_index()</text>
<text xml:space="preserve" text-anchor="start" x="114.62" y="-124.25" font-family="Helvetica,sans-Serif" font-size="10.00">&#45;</text>
<text xml:space="preserve" text-anchor="start" x="123.12" y="-124.25" font-family="Helvetica,sans-Serif" font-size="10.00">get_max_chain_from</text>
<text xml:space="preserve" text-anchor="start" x="123.12" y="-112.25" font-family="Helvetica,sans-Serif" font-size="10.00">_preset()</text>
<polygon fill="#666666" stroke="#666666" points="109.12,-328 109.12,-328 217.88,-328 217.88,-328 109.12,-328"/>
<polygon fill="#666666" stroke="#666666" points="109.12,-248 109.12,-248 121.12,-248 121.12,-248 109.12,-248"/>
<polygon fill="#666666" stroke="#666666" points="121.12,-248 121.12,-248 217.88,-248 217.88,-248 121.12,-248"/>
<polygon fill="none" stroke="#666666" points="109.12,-106 109.12,-346 217.88,-346 217.88,-106 109.12,-106"/>
</a>
</g>
</g>
<!-- Node2&#45;&gt;Node5 -->
<g id="edge5_Node000005_Node000002" class="edge">
<title>Node2&#45;&gt;Node5</title>
<g id="a_edge5_Node000005_Node000002"><a xlink:title=" ">
<path fill="none" stroke="#63b8ff" d="M113.52,-400.21C117.61,-386.04 121.69,-371.89 125.66,-358.13"/>
<polygon fill="none" stroke="#63b8ff" points="125.69,-358.01 123.51,-351.14 129.02,-346.48 131.2,-353.35 125.69,-358.01"/>
</a>
</g>
<text xml:space="preserve" text-anchor="start" x="125.05" y="-369.25" font-family="Helvetica,sans-Serif" font-size="10.00" fill="grey">&#45;data</text>
</g>
<!-- Node3 -->
<g id="Node000003" class="node">
<title>Node3</title>
<g id="a_Node000003"><a xlink:title=" ">
<polygon fill="white" stroke="none" points="119.38,-862 5.62,-862 5.62,-810 119.38,-810 119.38,-862"/>
<text xml:space="preserve" text-anchor="start" x="9.62" y="-848.25" font-family="Helvetica,sans-Serif" font-size="10.00">std::span&lt; const Sym &gt;</text>
<text xml:space="preserve" text-anchor="start" x="61" y="-832.25" font-family="Helvetica,sans-Serif" font-size="10.00"> </text>
<text xml:space="preserve" text-anchor="start" x="61" y="-816.25" font-family="Helvetica,sans-Serif" font-size="10.00"> </text>
<polygon fill="#666666" stroke="#666666" points="5.62,-844 5.62,-844 119.38,-844 119.38,-844 5.62,-844"/>
<polygon fill="#666666" stroke="#666666" points="5.62,-828 5.62,-828 119.38,-828 119.38,-828 5.62,-828"/>
<polygon fill="none" stroke="#666666" points="5.62,-810 5.62,-862 119.38,-862 119.38,-810 5.62,-810"/>
</a>
</g>
</g>
<!-- Node3&#45;&gt;Node2 -->
<g id="edge2_Node000002_Node000003" class="edge">
<title>Node3&#45;&gt;Node2</title>
<g id="a_edge2_Node000002_Node000003"><a xlink:title=" ">
<path fill="none" stroke="#63b8ff" d="M62.5,-810.45C62.5,-799.18 62.5,-784.72 62.5,-768.53"/>
<polygon fill="none" stroke="#63b8ff" points="62.5,-768.74 58.5,-762.74 62.5,-756.74 66.5,-762.74 62.5,-768.74"/>
</a>
</g>
<text xml:space="preserve" text-anchor="start" x="65.5" y="-779.25" font-family="Helvetica,sans-Serif" font-size="10.00" fill="grey">&#45;data</text>
</g>
<!-- Node4 -->
<g id="Node000004" class="node">
<title>Node4</title>
<g id="a_Node000004"><a xlink:href="struct_sym.html" target="_top" xlink:title=" ">
<polygon fill="white" stroke="none" points="124,-1016 1,-1016 1,-916 124,-916 124,-1016"/>
<text xml:space="preserve" text-anchor="start" x="52.38" y="-1002.25" font-family="Helvetica,sans-Serif" font-size="10.00">Sym</text>
<text xml:space="preserve" text-anchor="start" x="5" y="-986.25" font-family="Helvetica,sans-Serif" font-size="10.00">+</text>
<text xml:space="preserve" text-anchor="start" x="15" y="-986.25" font-family="Helvetica,sans-Serif" font-size="10.00">value</text>
<text xml:space="preserve" text-anchor="start" x="5" y="-970.25" font-family="Helvetica,sans-Serif" font-size="10.00">+</text>
<text xml:space="preserve" text-anchor="start" x="15" y="-970.25" font-family="Helvetica,sans-Serif" font-size="10.00">operator unsigned char()</text>
<text xml:space="preserve" text-anchor="start" x="5" y="-954.25" font-family="Helvetica,sans-Serif" font-size="10.00">+</text>
<text xml:space="preserve" text-anchor="start" x="15" y="-954.25" font-family="Helvetica,sans-Serif" font-size="10.00">operator&lt;=&gt;()</text>
<text xml:space="preserve" text-anchor="start" x="5" y="-938.25" font-family="Helvetica,sans-Serif" font-size="10.00">+</text>
<text xml:space="preserve" text-anchor="start" x="15" y="-938.25" font-family="Helvetica,sans-Serif" font-size="10.00">max()</text>
<text xml:space="preserve" text-anchor="start" x="5" y="-922.25" font-family="Helvetica,sans-Serif" font-size="10.00">+</text>
<text xml:space="preserve" text-anchor="start" x="15" y="-922.25" font-family="Helvetica,sans-Serif" font-size="10.00">alphabet_size()</text>
<polygon fill="#666666" stroke="#666666" points="1,-998 1,-998 124,-998 124,-998 1,-998"/>
<polygon fill="#666666" stroke="#666666" points="1,-982 1,-982 13,-982 13,-982 1,-982"/>
<polygon fill="#666666" stroke="#666666" points="13,-982 13,-982 124,-982 124,-982 13,-982"/>
<polygon fill="none" stroke="#666666" points="1,-916 1,-1016 124,-1016 124,-916 1,-916"/>
</a>
</g>
</g>
<!-- Node4&#45;&gt;Node3 -->
<g id="edge3_Node000003_Node000004" class="edge">
<title>Node4&#45;&gt;Node3</title>
<g id="a_edge3_Node000003_Node000004"><a xlink:title=" ">
<path fill="none" stroke="#63b8ff" d="M62.5,-916.24C62.5,-902.51 62.5,-887.77 62.5,-874.78"/>
<polygon fill="none" stroke="#63b8ff" points="62.5,-874.89 58.5,-868.89 62.5,-862.89 66.5,-868.89 62.5,-874.89"/>
</a>
</g>
<text xml:space="preserve" text-anchor="start" x="65.5" y="-885.25" font-family="Helvetica,sans-Serif" font-size="10.00" fill="grey">+elements</text>
</g>
<!-- Node5&#45;&gt;Node1 -->
<g id="edge4_Node000001_Node000005" class="edge">
<title>Node5&#45;&gt;Node1</title>
<g id="a_edge4_Node000001_Node000005"><a xlink:title=" ">
<path fill="none" stroke="#63b8ff" d="M109.16,-118.47C98.96,-98.48 88.98,-78.91 80.88,-63.03"/>
<polygon fill="none" stroke="#63b8ff" points="80.94,-63.15 74.65,-59.62 75.49,-52.46 81.78,-55.99 80.94,-63.15"/>
</a>
</g>
<text xml:space="preserve" text-anchor="start" x="95.34" y="-75.25" font-family="Helvetica,sans-Serif" font-size="10.00" fill="grey">+pattern_matcher</text>
</g>
</g>
</svg>
