<?xml version="1.0" encoding="UTF-8" standalone="no"?>
<!DOCTYPE svg PUBLIC "-//W3C//DTD SVG 1.1//EN"
 "http://www.w3.org/Graphics/SVG/1.1/DTD/svg11.dtd">
<!-- Generated by graphviz version 14.1.4 (20260321.0153)
 -->
<!-- Title: Node&lt; T &gt; Pages: 1 -->
<svg width="146pt" height="199pt"
 viewBox="0.00 0.00 146.00 199.00" xmlns="http://www.w3.org/2000/svg" xmlns:xlink="http://www.w3.org/1999/xlink">

<svg id="main" version="1.1" xmlns="http://www.w3.org/2000/svg" xmlns:xlink="http://www.w3.org/1999/xlink" xml:space="preserve">

<style type="text/css"><![CDATA[
.node, .edge {opacity: 0.7;}
.node.selected, .edge.selected {opacity: 1;}
.edge:hover path { stroke: red; }
.edge:hover polygon { stroke: red; fill: red; }
]]></style>
<script type="application/ecmascript" xlink:href="svg.min.js"/>
<svg id="graph" class="graph">
<g id="graph0" class="graph" transform="scale(1 1) rotate(0) translate(4 195)">
<title>Node&lt; T &gt;</title>
<!-- Node1 -->
<g id="Node000001" class="node">
<title>Node1</title>
<g id="a_Node000001"><a xlink:title=" ">
<polygon fill="#999999" stroke="none" points="89.25,-62 0,-62 0,0 89.25,0 89.25,-62"/>
<text xml:space="preserve" text-anchor="start" x="21" y="-50.5" font-family="Helvetica,sans-Serif" font-size="10.00">Node&lt; T &gt;</text>
<text xml:space="preserve" text-anchor="start" x="4" y="-36" font-family="Helvetica,sans-Serif" font-size="10.00">+</text>
<text xml:space="preserve" text-anchor="start" x="14" y="-36" font-family="Helvetica,sans-Serif" font-size="10.00">element_</text>
<text xml:space="preserve" text-anchor="start" x="4" y="-21.5" font-family="Helvetica,sans-Serif" font-size="10.00">+</text>
<text xml:space="preserve" text-anchor="start" x="14" y="-21.5" font-family="Helvetica,sans-Serif" font-size="10.00">sequence_num_</text>
<text xml:space="preserve" text-anchor="start" x="4" y="-7" font-family="Helvetica,sans-Serif" font-size="10.00">+</text>
<text xml:space="preserve" text-anchor="start" x="14" y="-7" font-family="Helvetica,sans-Serif" font-size="10.00">Node()</text>
<polygon fill="#666666" stroke="#666666" points="0,-45.5 0,-45.5 89.25,-45.5 89.25,-45.5 0,-45.5"/>
<polygon fill="#666666" stroke="#666666" points="0,-16.5 0,-16.5 12,-16.5 12,-16.5 0,-16.5"/>
<polygon fill="#666666" stroke="#666666" points="12,-16.5 12,-16.5 89.25,-16.5 89.25,-16.5 12,-16.5"/>
<polygon fill="none" stroke="#666666" points="0,0 0,-62 89.25,-62 89.25,0 0,0"/>
</a>
</g>
</g>
<!-- Node2 -->
<g id="Node000002" class="node">
<title>Node2</title>
<g id="a_Node000002"><a xlink:href="structNode.html" target="_top" xlink:title=" ">
<polygon fill="white" stroke="none" points="89.25,-191 0,-191 0,-129 89.25,-129 89.25,-191"/>
<text xml:space="preserve" text-anchor="start" x="21" y="-179.5" font-family="Helvetica,sans-Serif" font-size="10.00">Node&lt; T &gt;</text>
<text xml:space="preserve" text-anchor="start" x="4" y="-165" font-family="Helvetica,sans-Serif" font-size="10.00">+</text>
<text xml:space="preserve" text-anchor="start" x="14" y="-165" font-family="Helvetica,sans-Serif" font-size="10.00">element_</text>
<text xml:space="preserve" text-anchor="start" x="4" y="-150.5" font-family="Helvetica,sans-Serif" font-size="10.00">+</text>
<text xml:space="preserve" text-anchor="start" x="14" y="-150.5" font-family="Helvetica,sans-Serif" font-size="10.00">sequence_num_</text>
<text xml:space="preserve" text-anchor="start" x="4" y="-136" font-family="Helvetica,sans-Serif" font-size="10.00">+</text>
<text xml:space="preserve" text-anchor="start" x="14" y="-136" font-family="Helvetica,sans-Serif" font-size="10.00">Node()</text>
<polygon fill="#666666" stroke="#666666" points="0,-174.5 0,-174.5 89.25,-174.5 89.25,-174.5 0,-174.5"/>
<polygon fill="#666666" stroke="#666666" points="0,-145.5 0,-145.5 12,-145.5 12,-145.5 0,-145.5"/>
<polygon fill="#666666" stroke="#666666" points="12,-145.5 12,-145.5 89.25,-145.5 89.25,-145.5 12,-145.5"/>
<polygon fill="none" stroke="#666666" points="0,-129 0,-191 89.25,-191 89.25,-129 0,-129"/>
</a>
</g>
</g>
<!-- Node2&#45;&gt;Node1 -->
<g id="edge1_Node000001_Node000002" class="edge">
<title>Node2&#45;&gt;Node1</title>
<g id="a_edge1_Node000001_Node000002"><a xlink:title=" ">
<path fill="none" stroke="#63b8ff" d="M44.62,-129.22C44.62,-112.9 44.62,-92.39 44.62,-74.43"/>
<polygon fill="none" stroke="#63b8ff" points="44.63,-74.49 40.63,-68.49 44.63,-62.49 48.63,-68.49 44.63,-74.49"/>
</a>
</g>
<text xml:space="preserve" text-anchor="start" x="47.62" y="-100.5" font-family="Helvetica,sans-Serif" font-size="10.00" fill="grey">+next</text>
<text xml:space="preserve" text-anchor="start" x="47.62" y="-86" font-family="Helvetica,sans-Serif" font-size="10.00" fill="grey">+prev</text>
</g>
<!-- Node2&#45;&gt;Node2 -->
<g id="edge2_Node000002_Node000002" class="edge">
<title>Node2&#45;&gt;Node2</title>
<g id="a_edge2_Node000002_Node000002"><a xlink:title=" ">
<path fill="none" stroke="#63b8ff" d="M89.09,-171.85C99.54,-170.88 107.25,-166.93 107.25,-160 107.25,-156.32 105.07,-153.48 101.47,-151.48"/>
<polygon fill="none" stroke="#63b8ff" points="101.55,-151.5 94.72,-153.8 89.96,-148.38 96.8,-146.08 101.55,-151.5"/>
</a>
</g>
<text xml:space="preserve" text-anchor="start" x="110.25" y="-165" font-family="Helvetica,sans-Serif" font-size="10.00" fill="grey">+next</text>
<text xml:space="preserve" text-anchor="start" x="110.25" y="-150.5" font-family="Helvetica,sans-Serif" font-size="10.00" fill="grey">+prev</text>
</g>
</g>
</svg>
</svg>

<style type='text/css'>
<![CDATA[
[data-mouse-over-selected='false'] { opacity: 0.7; }
[data-mouse-over-selected='true']  { opacity: 1.0; }
]]>
</style>
<script type="application/ecmascript"><![CDATA[
document.addEventListener('DOMContentLoaded', (event) => {
  highlightEdges();
  highlightAdjacentNodes();
});
]]></script>
</svg>
