<?xml version="1.0" encoding="UTF-8" standalone="no"?>
<!DOCTYPE svg PUBLIC "-//W3C//DTD SVG 1.1//EN"
 "http://www.w3.org/Graphics/SVG/1.1/DTD/svg11.dtd">
<!-- Generated by graphviz version 14.1.4 (20260321.0153)
 -->
<!-- Title: is_vector&lt; std::vector&lt; T, A &gt; &gt; Pages: 1 -->
<svg width="166pt" height="150pt"
 viewBox="0.00 0.00 166.00 150.00" xmlns="http://www.w3.org/2000/svg" xmlns:xlink="http://www.w3.org/1999/xlink">

<svg id="main" version="1.1" xmlns="http://www.w3.org/2000/svg" xmlns:xlink="http://www.w3.org/1999/xlink" xml:space="preserve">

<style type="text/css"><![CDATA[
.node, .edge {opacity: 0.7;}
.node.selected, .edge.selected {opacity: 1;}
.edge:hover path { stroke: red; }
.edge:hover polygon { stroke: red; fill: red; }
]]></style>
<script type="application/ecmascript" xlink:href="svg.min.js"/>
<svg id="graph" class="graph">
<g id="graph0" class="graph" transform="scale(1 1) rotate(0) translate(4 145.5)">
<title>is_vector&lt; std::vector&lt; T, A &gt; &gt;</title>
<!-- Node1 -->
<g id="Node000001" class="node">
<title>Node1</title>
<g id="a_Node000001"><a xlink:title=" ">
<polygon fill="#999999" stroke="none" points="131.12,-58 29.38,-58 29.38,0 131.12,0 131.12,-58"/>
<text xml:space="preserve" text-anchor="start" x="33.38" y="-46.5" font-family="Helvetica,sans-Serif" font-size="10.00">is_vector&lt; std::vector</text>
<text xml:space="preserve" text-anchor="start" x="57.75" y="-36" font-family="Helvetica,sans-Serif" font-size="10.00">&lt; T, A &gt; &gt;</text>
<text xml:space="preserve" text-anchor="start" x="78.75" y="-21.5" font-family="Helvetica,sans-Serif" font-size="10.00"> </text>
<text xml:space="preserve" text-anchor="start" x="78.75" y="-7" font-family="Helvetica,sans-Serif" font-size="10.00"> </text>
<polygon fill="#666666" stroke="#666666" points="29.38,-31 29.38,-31 131.12,-31 131.12,-31 29.38,-31"/>
<polygon fill="#666666" stroke="#666666" points="29.38,-16.5 29.38,-16.5 131.12,-16.5 131.12,-16.5 29.38,-16.5"/>
<polygon fill="none" stroke="#666666" points="29.38,0 29.38,-58 131.12,-58 131.12,0 29.38,0"/>
</a>
</g>
</g>
<!-- Node2 -->
<g id="Node000002" class="node">
<title>Node2</title>
<g id="a_Node000002"><a xlink:title=" ">
<polygon fill="white" stroke="none" points="72.5,-141.5 0,-141.5 0,-94 72.5,-94 72.5,-141.5"/>
<text xml:space="preserve" text-anchor="start" x="4" y="-130" font-family="Helvetica,sans-Serif" font-size="10.00">std::false_type</text>
<text xml:space="preserve" text-anchor="start" x="34.75" y="-115.5" font-family="Helvetica,sans-Serif" font-size="10.00"> </text>
<text xml:space="preserve" text-anchor="start" x="34.75" y="-101" font-family="Helvetica,sans-Serif" font-size="10.00"> </text>
<polygon fill="#666666" stroke="#666666" points="0,-125 0,-125 72.5,-125 72.5,-125 0,-125"/>
<polygon fill="#666666" stroke="#666666" points="0,-110.5 0,-110.5 72.5,-110.5 72.5,-110.5 0,-110.5"/>
<polygon fill="none" stroke="#666666" points="0,-94 0,-141.5 72.5,-141.5 72.5,-94 0,-94"/>
</a>
</g>
</g>
<!-- Node2&#45;&gt;Node1 -->
<g id="edge1_Node000001_Node000002" class="edge">
<title>Node2&#45;&gt;Node1</title>
<g id="a_edge1_Node000001_Node000002"><a xlink:title=" ">
<path fill="none" stroke="#63b8ff" d="M52.74,-84.23C57.14,-75.56 61.86,-66.26 66.12,-57.86"/>
<polygon fill="none" stroke="#63b8ff" points="49.67,-82.56 48.27,-93.06 55.91,-85.72 49.67,-82.56"/>
</a>
</g>
</g>
<!-- Node3 -->
<g id="Node000003" class="node">
<title>Node3</title>
<g id="a_Node000003"><a xlink:title=" ">
<polygon fill="white" stroke="none" points="158.25,-141.5 90.25,-141.5 90.25,-94 158.25,-94 158.25,-141.5"/>
<text xml:space="preserve" text-anchor="start" x="94.25" y="-130" font-family="Helvetica,sans-Serif" font-size="10.00">std::true_type</text>
<text xml:space="preserve" text-anchor="start" x="122.75" y="-115.5" font-family="Helvetica,sans-Serif" font-size="10.00"> </text>
<text xml:space="preserve" text-anchor="start" x="122.75" y="-101" font-family="Helvetica,sans-Serif" font-size="10.00"> </text>
<polygon fill="#666666" stroke="#666666" points="90.25,-125 90.25,-125 158.25,-125 158.25,-125 90.25,-125"/>
<polygon fill="#666666" stroke="#666666" points="90.25,-110.5 90.25,-110.5 158.25,-110.5 158.25,-110.5 90.25,-110.5"/>
<polygon fill="none" stroke="#666666" points="90.25,-94 90.25,-141.5 158.25,-141.5 158.25,-94 90.25,-94"/>
</a>
</g>
</g>
<!-- Node3&#45;&gt;Node1 -->
<g id="edge2_Node000001_Node000003" class="edge">
<title>Node3&#45;&gt;Node1</title>
<g id="a_edge2_Node000001_Node000003"><a xlink:title=" ">
<path fill="none" stroke="#63b8ff" d="M107.76,-84.23C103.36,-75.56 98.64,-66.26 94.38,-57.86"/>
<polygon fill="none" stroke="#63b8ff" points="104.59,-85.72 112.23,-93.06 110.83,-82.56 104.59,-85.72"/>
</a>
</g>
</g>
</g>
</svg>
</svg>

<style type='text/css'>
<![CDATA[
[data-mouse-over-selected='false'] { opacity: 0.7; }
[data-mouse-over-selected='true']  { opacity: 1.0; }
]]>
</style>
<script type="application/ecmascript"><![CDATA[
document.addEventListener('DOMContentLoaded', (event) => {
  highlightEdges();
  highlightAdjacentNodes();
});
]]></script>
</svg>
