<?xml version="1.0" encoding="UTF-8" standalone="no"?>
<!DOCTYPE svg PUBLIC "-//W3C//DTD SVG 1.1//EN"
 "http://www.w3.org/Graphics/SVG/1.1/DTD/svg11.dtd">
<!-- Generated by graphviz version 14.1.4 (20260321.0153)
 -->
<!-- Title: Token Pages: 1 -->
<svg width="131pt" height="214pt"
 viewBox="0.00 0.00 131.00 214.00" xmlns="http://www.w3.org/2000/svg" xmlns:xlink="http://www.w3.org/1999/xlink">
<g id="graph0" class="graph" transform="scale(1 1) rotate(0) translate(4 209.5)">
<title>Token</title>
<!-- Node1 -->
<g id="Node000001" class="node">
<title>Node1</title>
<g id="a_Node000001"><a xlink:title="This is the type LZ77 will output.">
<polygon fill="#999999" stroke="none" points="91.12,-62 31.88,-62 31.88,0 91.12,0 91.12,-62"/>
<text xml:space="preserve" text-anchor="start" x="48.75" y="-50.5" font-family="Helvetica,sans-Serif" font-size="10.00">Token</text>
<text xml:space="preserve" text-anchor="start" x="35.88" y="-36" font-family="Helvetica,sans-Serif" font-size="10.00">+</text>
<text xml:space="preserve" text-anchor="start" x="45.88" y="-36" font-family="Helvetica,sans-Serif" font-size="10.00">offset</text>
<text xml:space="preserve" text-anchor="start" x="35.88" y="-21.5" font-family="Helvetica,sans-Serif" font-size="10.00">+</text>
<text xml:space="preserve" text-anchor="start" x="45.88" y="-21.5" font-family="Helvetica,sans-Serif" font-size="10.00">length</text>
<text xml:space="preserve" text-anchor="start" x="35.88" y="-7" font-family="Helvetica,sans-Serif" font-size="10.00">+</text>
<text xml:space="preserve" text-anchor="start" x="45.88" y="-7" font-family="Helvetica,sans-Serif" font-size="10.00">serialize()</text>
<polygon fill="#666666" stroke="#666666" points="31.88,-45.5 31.88,-45.5 91.12,-45.5 91.12,-45.5 31.88,-45.5"/>
<polygon fill="#666666" stroke="#666666" points="31.88,-16.5 31.88,-16.5 43.88,-16.5 43.88,-16.5 31.88,-16.5"/>
<polygon fill="#666666" stroke="#666666" points="43.88,-16.5 43.88,-16.5 91.12,-16.5 91.12,-16.5 43.88,-16.5"/>
<polygon fill="none" stroke="#666666" points="31.88,0 31.88,-62 91.12,-62 91.12,0 31.88,0"/>
</a>
</g>
</g>
<!-- Node2 -->
<g id="Node000002" class="node">
<title>Node2</title>
<g id="a_Node000002"><a xlink:href="structSym.html" target="_top" xlink:title=" ">
<polygon fill="white" stroke="none" points="123,-205.5 0,-205.5 0,-114.5 123,-114.5 123,-205.5"/>
<text xml:space="preserve" text-anchor="start" x="51.38" y="-194" font-family="Helvetica,sans-Serif" font-size="10.00">Sym</text>
<text xml:space="preserve" text-anchor="start" x="4" y="-179.5" font-family="Helvetica,sans-Serif" font-size="10.00">+</text>
<text xml:space="preserve" text-anchor="start" x="14" y="-179.5" font-family="Helvetica,sans-Serif" font-size="10.00">value</text>
<text xml:space="preserve" text-anchor="start" x="4" y="-165" font-family="Helvetica,sans-Serif" font-size="10.00">+</text>
<text xml:space="preserve" text-anchor="start" x="14" y="-165" font-family="Helvetica,sans-Serif" font-size="10.00">operator unsigned char()</text>
<text xml:space="preserve" text-anchor="start" x="4" y="-150.5" font-family="Helvetica,sans-Serif" font-size="10.00">+</text>
<text xml:space="preserve" text-anchor="start" x="14" y="-150.5" font-family="Helvetica,sans-Serif" font-size="10.00">operator&lt;=&gt;()</text>
<text xml:space="preserve" text-anchor="start" x="4" y="-136" font-family="Helvetica,sans-Serif" font-size="10.00">+</text>
<text xml:space="preserve" text-anchor="start" x="14" y="-136" font-family="Helvetica,sans-Serif" font-size="10.00">max()</text>
<text xml:space="preserve" text-anchor="start" x="4" y="-121.5" font-family="Helvetica,sans-Serif" font-size="10.00">+</text>
<text xml:space="preserve" text-anchor="start" x="14" y="-121.5" font-family="Helvetica,sans-Serif" font-size="10.00">alphabet_size()</text>
<polygon fill="#666666" stroke="#666666" points="0,-189 0,-189 123,-189 123,-189 0,-189"/>
<polygon fill="#666666" stroke="#666666" points="0,-174.5 0,-174.5 12,-174.5 12,-174.5 0,-174.5"/>
<polygon fill="#666666" stroke="#666666" points="12,-174.5 12,-174.5 123,-174.5 123,-174.5 12,-174.5"/>
<polygon fill="none" stroke="#666666" points="0,-114.5 0,-205.5 123,-205.5 123,-114.5 0,-114.5"/>
</a>
</g>
</g>
<!-- Node2&#45;&gt;Node1 -->
<g id="edge1_Node000001_Node000002" class="edge">
<title>Node2&#45;&gt;Node1</title>
<g id="a_edge1_Node000001_Node000002"><a xlink:title=" ">
<path fill="none" stroke="#63b8ff" d="M61.5,-114.58C61.5,-101.63 61.5,-87.51 61.5,-74.66"/>
<polygon fill="none" stroke="#63b8ff" points="61.5,-74.75 57.5,-68.75 61.5,-62.75 65.5,-68.75 61.5,-74.75"/>
</a>
</g>
<text xml:space="preserve" text-anchor="start" x="64.5" y="-86" font-family="Helvetica,sans-Serif" font-size="10.00" fill="grey">+symbol</text>
</g>
</g>
</svg>
