<?xml version="1.0" encoding="UTF-8" standalone="no"?>
<!DOCTYPE svg PUBLIC "-//W3C//DTD SVG 1.1//EN"
 "http://www.w3.org/Graphics/SVG/1.1/DTD/svg11.dtd">
<!-- Generated by graphviz version 14.1.5 (20260411.2331)
 -->
<!-- Title: is_vector&lt; std::vector&lt; T, A &gt; &gt; Pages: 1 -->
<svg width="166pt" height="160pt"
 viewBox="0.00 0.00 166.00 160.00" xmlns="http://www.w3.org/2000/svg" xmlns:xlink="http://www.w3.org/1999/xlink">
<g id="graph0" class="graph" transform="scale(1 1) rotate(0) translate(4 156)">
<title>is_vector&lt; std::vector&lt; T, A &gt; &gt;</title>
<!-- Node1 -->
<g id="Node000001" class="node">
<title>Node1</title>
<g id="a_Node000001"><a xlink:title=" ">
<polygon fill="#999999" stroke="none" points="131.88,-64 28.62,-64 28.62,0 131.88,0 131.88,-64"/>
<text xml:space="preserve" text-anchor="start" x="32.62" y="-50.25" font-family="Helvetica,sans-Serif" font-size="10.00">is_vector&lt; std::vector</text>
<text xml:space="preserve" text-anchor="start" x="58.88" y="-38.25" font-family="Helvetica,sans-Serif" font-size="10.00">&lt; T, A &gt; &gt;</text>
<text xml:space="preserve" text-anchor="start" x="78.75" y="-22.25" font-family="Helvetica,sans-Serif" font-size="10.00"> </text>
<text xml:space="preserve" text-anchor="start" x="78.75" y="-6.25" font-family="Helvetica,sans-Serif" font-size="10.00"> </text>
<polygon fill="#666666" stroke="#666666" points="28.62,-34 28.62,-34 131.88,-34 131.88,-34 28.62,-34"/>
<polygon fill="#666666" stroke="#666666" points="28.62,-18 28.62,-18 131.88,-18 131.88,-18 28.62,-18"/>
<polygon fill="none" stroke="#666666" points="28.62,0 28.62,-64 131.88,-64 131.88,0 28.62,0"/>
</a>
</g>
</g>
<!-- Node2 -->
<g id="Node000002" class="node">
<title>Node2</title>
<g id="a_Node000002"><a xlink:title=" ">
<polygon fill="white" stroke="none" points="72.5,-152 0,-152 0,-100 72.5,-100 72.5,-152"/>
<text xml:space="preserve" text-anchor="start" x="4" y="-138.25" font-family="Helvetica,sans-Serif" font-size="10.00">std::false_type</text>
<text xml:space="preserve" text-anchor="start" x="34.75" y="-122.25" font-family="Helvetica,sans-Serif" font-size="10.00"> </text>
<text xml:space="preserve" text-anchor="start" x="34.75" y="-106.25" font-family="Helvetica,sans-Serif" font-size="10.00"> </text>
<polygon fill="#666666" stroke="#666666" points="0,-134 0,-134 72.5,-134 72.5,-134 0,-134"/>
<polygon fill="#666666" stroke="#666666" points="0,-118 0,-118 72.5,-118 72.5,-118 0,-118"/>
<polygon fill="none" stroke="#666666" points="0,-100 0,-152 72.5,-152 72.5,-100 0,-100"/>
</a>
</g>
</g>
<!-- Node2&#45;&gt;Node1 -->
<g id="edge1_Node000001_Node000002" class="edge">
<title>Node2&#45;&gt;Node1</title>
<g id="a_edge1_Node000001_Node000002"><a xlink:title=" ">
<path fill="none" stroke="#63b8ff" d="M52.89,-90.2C57.02,-81.58 61.4,-72.41 65.43,-63.98"/>
<polygon fill="none" stroke="#63b8ff" points="49.85,-88.45 48.69,-98.98 56.17,-91.47 49.85,-88.45"/>
</a>
</g>
</g>
<!-- Node3 -->
<g id="Node000003" class="node">
<title>Node3</title>
<g id="a_Node000003"><a xlink:title=" ">
<polygon fill="white" stroke="none" points="158.25,-152 90.25,-152 90.25,-100 158.25,-100 158.25,-152"/>
<text xml:space="preserve" text-anchor="start" x="94.25" y="-138.25" font-family="Helvetica,sans-Serif" font-size="10.00">std::true_type</text>
<text xml:space="preserve" text-anchor="start" x="122.75" y="-122.25" font-family="Helvetica,sans-Serif" font-size="10.00"> </text>
<text xml:space="preserve" text-anchor="start" x="122.75" y="-106.25" font-family="Helvetica,sans-Serif" font-size="10.00"> </text>
<polygon fill="#666666" stroke="#666666" points="90.25,-134 90.25,-134 158.25,-134 158.25,-134 90.25,-134"/>
<polygon fill="#666666" stroke="#666666" points="90.25,-118 90.25,-118 158.25,-118 158.25,-118 90.25,-118"/>
<polygon fill="none" stroke="#666666" points="90.25,-100 90.25,-152 158.25,-152 158.25,-100 90.25,-100"/>
</a>
</g>
</g>
<!-- Node3&#45;&gt;Node1 -->
<g id="edge2_Node000001_Node000003" class="edge">
<title>Node3&#45;&gt;Node1</title>
<g id="a_edge2_Node000001_Node000003"><a xlink:title=" ">
<path fill="none" stroke="#63b8ff" d="M107.61,-90.2C103.48,-81.58 99.1,-72.41 95.07,-63.98"/>
<polygon fill="none" stroke="#63b8ff" points="104.33,-91.47 111.81,-98.98 110.65,-88.45 104.33,-91.47"/>
</a>
</g>
</g>
</g>
</svg>
