<?xml version="1.0" encoding="UTF-8" standalone="no"?>
<!DOCTYPE svg PUBLIC "-//W3C//DTD SVG 1.1//EN"
 "http://www.w3.org/Graphics/SVG/1.1/DTD/svg11.dtd">
<!-- Generated by graphviz version 14.1.5 (20260411.2331)
 -->
<!-- Title: is_vector&lt; T &gt; Pages: 1 -->
<svg width="81pt" height="148pt"
 viewBox="0.00 0.00 81.00 148.00" xmlns="http://www.w3.org/2000/svg" xmlns:xlink="http://www.w3.org/1999/xlink">
<g id="graph0" class="graph" transform="scale(1 1) rotate(0) translate(4 144)">
<title>is_vector&lt; T &gt;</title>
<!-- Node1 -->
<g id="Node000001" class="node">
<title>Node1</title>
<g id="a_Node000001"><a xlink:title=" ">
<polygon fill="#999999" stroke="none" points="71.75,-52 0.75,-52 0.75,0 71.75,0 71.75,-52"/>
<text xml:space="preserve" text-anchor="start" x="4.75" y="-38.25" font-family="Helvetica,sans-Serif" font-size="10.00">is_vector&lt; T &gt;</text>
<text xml:space="preserve" text-anchor="start" x="34.75" y="-22.25" font-family="Helvetica,sans-Serif" font-size="10.00"> </text>
<text xml:space="preserve" text-anchor="start" x="34.75" y="-6.25" font-family="Helvetica,sans-Serif" font-size="10.00"> </text>
<polygon fill="#666666" stroke="#666666" points="0.75,-34 0.75,-34 71.75,-34 71.75,-34 0.75,-34"/>
<polygon fill="#666666" stroke="#666666" points="0.75,-18 0.75,-18 71.75,-18 71.75,-18 0.75,-18"/>
<polygon fill="none" stroke="#666666" points="0.75,0 0.75,-52 71.75,-52 71.75,0 0.75,0"/>
</a>
</g>
</g>
<!-- Node2 -->
<g id="Node000002" class="node">
<title>Node2</title>
<g id="a_Node000002"><a xlink:title=" ">
<polygon fill="white" stroke="none" points="72.5,-140 0,-140 0,-88 72.5,-88 72.5,-140"/>
<text xml:space="preserve" text-anchor="start" x="4" y="-126.25" font-family="Helvetica,sans-Serif" font-size="10.00">std::false_type</text>
<text xml:space="preserve" text-anchor="start" x="34.75" y="-110.25" font-family="Helvetica,sans-Serif" font-size="10.00"> </text>
<text xml:space="preserve" text-anchor="start" x="34.75" y="-94.25" font-family="Helvetica,sans-Serif" font-size="10.00"> </text>
<polygon fill="#666666" stroke="#666666" points="0,-122 0,-122 72.5,-122 72.5,-122 0,-122"/>
<polygon fill="#666666" stroke="#666666" points="0,-106 0,-106 72.5,-106 72.5,-106 0,-106"/>
<polygon fill="none" stroke="#666666" points="0,-88 0,-140 72.5,-140 72.5,-88 0,-88"/>
</a>
</g>
</g>
<!-- Node2&#45;&gt;Node1 -->
<g id="edge1_Node000001_Node000002" class="edge">
<title>Node2&#45;&gt;Node1</title>
<g id="a_edge1_Node000001_Node000002"><a xlink:title=" ">
<path fill="none" stroke="#63b8ff" d="M36.25,-76.66C36.25,-68.29 36.25,-59.57 36.25,-51.82"/>
<polygon fill="none" stroke="#63b8ff" points="32.75,-76.61 36.25,-86.61 39.75,-76.61 32.75,-76.61"/>
</a>
</g>
</g>
</g>
</svg>
