<?xml version="1.0" encoding="UTF-8" standalone="no"?>
<!DOCTYPE svg PUBLIC "-//W3C//DTD SVG 1.1//EN"
 "http://www.w3.org/Graphics/SVG/1.1/DTD/svg11.dtd">
<!-- Generated by graphviz version 14.1.5 (20260411.2331)
 -->
<!-- Title: Token Pages: 1 -->
<svg width="131pt" height="230pt"
 viewBox="0.00 0.00 131.00 230.00" xmlns="http://www.w3.org/2000/svg" xmlns:xlink="http://www.w3.org/1999/xlink">
<g id="graph0" class="graph" transform="scale(1 1) rotate(0) translate(4 226)">
<title>Token</title>
<!-- Node1 -->
<g id="Node000001" class="node">
<title>Node1</title>
<g id="a_Node000001"><a xlink:title="This is the type LZ77 will output.">
<polygon fill="#999999" stroke="none" points="83.62,-68 39.38,-68 39.38,0 83.62,0 83.62,-68"/>
<text xml:space="preserve" text-anchor="start" x="48.38" y="-54.25" font-family="Helvetica,sans-Serif" font-size="10.00">Token</text>
<text xml:space="preserve" text-anchor="start" x="43.38" y="-38.25" font-family="Helvetica,sans-Serif" font-size="10.00">+</text>
<text xml:space="preserve" text-anchor="start" x="53.38" y="-38.25" font-family="Helvetica,sans-Serif" font-size="10.00">offset</text>
<text xml:space="preserve" text-anchor="start" x="43.38" y="-22.25" font-family="Helvetica,sans-Serif" font-size="10.00">+</text>
<text xml:space="preserve" text-anchor="start" x="53.38" y="-22.25" font-family="Helvetica,sans-Serif" font-size="10.00">length</text>
<text xml:space="preserve" text-anchor="start" x="60" y="-6.25" font-family="Helvetica,sans-Serif" font-size="10.00"> </text>
<polygon fill="#666666" stroke="#666666" points="39.38,-50 39.38,-50 83.62,-50 83.62,-50 39.38,-50"/>
<polygon fill="#666666" stroke="#666666" points="39.38,-18 39.38,-18 51.38,-18 51.38,-18 39.38,-18"/>
<polygon fill="#666666" stroke="#666666" points="51.38,-18 51.38,-18 83.62,-18 83.62,-18 51.38,-18"/>
<polygon fill="none" stroke="#666666" points="39.38,0 39.38,-68 83.62,-68 83.62,0 39.38,0"/>
</a>
</g>
</g>
<!-- Node2 -->
<g id="Node000002" class="node">
<title>Node2</title>
<g id="a_Node000002"><a xlink:href="struct_sym.html" target="_top" xlink:title=" ">
<polygon fill="white" stroke="none" points="123,-222 0,-222 0,-122 123,-122 123,-222"/>
<text xml:space="preserve" text-anchor="start" x="51.38" y="-208.25" font-family="Helvetica,sans-Serif" font-size="10.00">Sym</text>
<text xml:space="preserve" text-anchor="start" x="4" y="-192.25" font-family="Helvetica,sans-Serif" font-size="10.00">+</text>
<text xml:space="preserve" text-anchor="start" x="14" y="-192.25" font-family="Helvetica,sans-Serif" font-size="10.00">value</text>
<text xml:space="preserve" text-anchor="start" x="4" y="-176.25" font-family="Helvetica,sans-Serif" font-size="10.00">+</text>
<text xml:space="preserve" text-anchor="start" x="14" y="-176.25" font-family="Helvetica,sans-Serif" font-size="10.00">operator unsigned char()</text>
<text xml:space="preserve" text-anchor="start" x="4" y="-160.25" font-family="Helvetica,sans-Serif" font-size="10.00">+</text>
<text xml:space="preserve" text-anchor="start" x="14" y="-160.25" font-family="Helvetica,sans-Serif" font-size="10.00">operator&lt;=&gt;()</text>
<text xml:space="preserve" text-anchor="start" x="4" y="-144.25" font-family="Helvetica,sans-Serif" font-size="10.00">+</text>
<text xml:space="preserve" text-anchor="start" x="14" y="-144.25" font-family="Helvetica,sans-Serif" font-size="10.00">max()</text>
<text xml:space="preserve" text-anchor="start" x="4" y="-128.25" font-family="Helvetica,sans-Serif" font-size="10.00">+</text>
<text xml:space="preserve" text-anchor="start" x="14" y="-128.25" font-family="Helvetica,sans-Serif" font-size="10.00">alphabet_size()</text>
<polygon fill="#666666" stroke="#666666" points="0,-204 0,-204 123,-204 123,-204 0,-204"/>
<polygon fill="#666666" stroke="#666666" points="0,-188 0,-188 12,-188 12,-188 0,-188"/>
<polygon fill="#666666" stroke="#666666" points="12,-188 12,-188 123,-188 123,-188 12,-188"/>
<polygon fill="none" stroke="#666666" points="0,-122 0,-222 123,-222 123,-122 0,-122"/>
</a>
</g>
</g>
<!-- Node2&#45;&gt;Node1 -->
<g id="edge1_Node000001_Node000002" class="edge">
<title>Node2&#45;&gt;Node1</title>
<g id="a_edge1_Node000001_Node000002"><a xlink:title=" ">
<path fill="none" stroke="#63b8ff" d="M61.5,-122.29C61.5,-108.68 61.5,-93.95 61.5,-80.54"/>
<polygon fill="none" stroke="#63b8ff" points="61.5,-80.55 57.5,-74.55 61.5,-68.55 65.5,-74.55 61.5,-80.55"/>
</a>
</g>
<text xml:space="preserve" text-anchor="start" x="64.5" y="-91.25" font-family="Helvetica,sans-Serif" font-size="10.00" fill="grey">+symbol</text>
</g>
</g>
</svg>
