<?xml version="1.0" encoding="UTF-8" standalone="no"?>
<!DOCTYPE svg PUBLIC "-//W3C//DTD SVG 1.1//EN"
 "http://www.w3.org/Graphics/SVG/1.1/DTD/svg11.dtd">
<!-- Generated by graphviz version 14.1.5 (20260411.2331)
 -->
<!-- Title: CodecInterface&lt; InType, OutType &gt; Pages: 1 -->
<svg width="248pt" height="318pt"
 viewBox="0.00 0.00 248.00 318.00" xmlns="http://www.w3.org/2000/svg" xmlns:xlink="http://www.w3.org/1999/xlink">
<g id="graph0" class="graph" transform="scale(1 1) rotate(0) translate(4 314)">
<title>CodecInterface&lt; InType, OutType &gt;</title>
<!-- Node1 -->
<g id="Node000001" class="node">
<title>Node1</title>
<g id="a_Node000001"><a xlink:title=" ">
<polygon fill="#999999" stroke="none" points="178.12,-64 62.12,-64 62.12,0 178.12,0 178.12,-64"/>
<text xml:space="preserve" text-anchor="start" x="66.12" y="-50.25" font-family="Helvetica,sans-Serif" font-size="10.00">CodecInterface&lt; InType,</text>
<text xml:space="preserve" text-anchor="start" x="95.75" y="-38.25" font-family="Helvetica,sans-Serif" font-size="10.00"> OutType &gt;</text>
<text xml:space="preserve" text-anchor="start" x="118.62" y="-22.25" font-family="Helvetica,sans-Serif" font-size="10.00"> </text>
<text xml:space="preserve" text-anchor="start" x="118.62" y="-6.25" font-family="Helvetica,sans-Serif" font-size="10.00"> </text>
<polygon fill="#666666" stroke="#666666" points="62.12,-34 62.12,-34 178.12,-34 178.12,-34 62.12,-34"/>
<polygon fill="#666666" stroke="#666666" points="62.12,-18 62.12,-18 178.12,-18 178.12,-18 62.12,-18"/>
<polygon fill="none" stroke="#666666" points="62.12,0 62.12,-64 178.12,-64 178.12,0 62.12,0"/>
</a>
</g>
</g>
<!-- Node2 -->
<g id="Node000002" class="node">
<title>Node2</title>
<g id="a_Node000002"><a xlink:href="struct_forward_iterator.html" target="_top" xlink:title=" ">
<polygon fill="white" stroke="none" points="112.25,-310 0,-310 0,-118 112.25,-118 112.25,-310"/>
<text xml:space="preserve" text-anchor="start" x="4" y="-296.25" font-family="Helvetica,sans-Serif" font-size="10.00">ForwardIterator&lt; InType</text>
<text xml:space="preserve" text-anchor="start" x="34.75" y="-284.25" font-family="Helvetica,sans-Serif" font-size="10.00"> const * &gt;</text>
<text xml:space="preserve" text-anchor="start" x="8.25" y="-268.25" font-family="Helvetica,sans-Serif" font-size="10.00">+</text>
<text xml:space="preserve" text-anchor="start" x="22.5" y="-268.25" font-family="Helvetica,sans-Serif" font-size="10.00">iterator</text>
<text xml:space="preserve" text-anchor="start" x="8.25" y="-252.25" font-family="Helvetica,sans-Serif" font-size="10.00">+</text>
<text xml:space="preserve" text-anchor="start" x="22.5" y="-252.25" font-family="Helvetica,sans-Serif" font-size="10.00">end</text>
<text xml:space="preserve" text-anchor="start" x="8.25" y="-236.25" font-family="Helvetica,sans-Serif" font-size="10.00">+</text>
<text xml:space="preserve" text-anchor="start" x="22.5" y="-236.25" font-family="Helvetica,sans-Serif" font-size="10.00">ForwardIterator()</text>
<text xml:space="preserve" text-anchor="start" x="8.25" y="-220.25" font-family="Helvetica,sans-Serif" font-size="10.00">+</text>
<text xml:space="preserve" text-anchor="start" x="22.5" y="-220.25" font-family="Helvetica,sans-Serif" font-size="10.00">operator++()</text>
<text xml:space="preserve" text-anchor="start" x="8.25" y="-204.25" font-family="Helvetica,sans-Serif" font-size="10.00">+</text>
<text xml:space="preserve" text-anchor="start" x="22.5" y="-204.25" font-family="Helvetica,sans-Serif" font-size="10.00">operator+=()</text>
<text xml:space="preserve" text-anchor="start" x="8.25" y="-188.25" font-family="Helvetica,sans-Serif" font-size="10.00">+</text>
<text xml:space="preserve" text-anchor="start" x="22.5" y="-188.25" font-family="Helvetica,sans-Serif" font-size="10.00">operator*()</text>
<text xml:space="preserve" text-anchor="start" x="8.25" y="-172.25" font-family="Helvetica,sans-Serif" font-size="10.00">+</text>
<text xml:space="preserve" text-anchor="start" x="22.5" y="-172.25" font-family="Helvetica,sans-Serif" font-size="10.00">operator==()</text>
<text xml:space="preserve" text-anchor="start" x="8.25" y="-156.25" font-family="Helvetica,sans-Serif" font-size="10.00">+</text>
<text xml:space="preserve" text-anchor="start" x="22.5" y="-156.25" font-family="Helvetica,sans-Serif" font-size="10.00">operator!=()</text>
<text xml:space="preserve" text-anchor="start" x="8.25" y="-140.25" font-family="Helvetica,sans-Serif" font-size="10.00">+</text>
<text xml:space="preserve" text-anchor="start" x="22.5" y="-140.25" font-family="Helvetica,sans-Serif" font-size="10.00">reached_end()</text>
<text xml:space="preserve" text-anchor="start" x="8.25" y="-124.25" font-family="Helvetica,sans-Serif" font-size="10.00">+</text>
<text xml:space="preserve" text-anchor="start" x="22.5" y="-124.25" font-family="Helvetica,sans-Serif" font-size="10.00">distance_to_end()</text>
<polygon fill="#666666" stroke="#666666" points="0,-280 0,-280 112.25,-280 112.25,-280 0,-280"/>
<polygon fill="#666666" stroke="#666666" points="0,-248 0,-248 20.5,-248 20.5,-248 0,-248"/>
<polygon fill="#666666" stroke="#666666" points="20.5,-248 20.5,-248 112.25,-248 112.25,-248 20.5,-248"/>
<polygon fill="none" stroke="#666666" points="0,-118 0,-310 112.25,-310 112.25,-118 0,-118"/>
</a>
</g>
</g>
<!-- Node2&#45;&gt;Node1 -->
<g id="edge1_Node000001_Node000002" class="edge">
<title>Node2&#45;&gt;Node1</title>
<g id="a_edge1_Node000001_Node000002"><a xlink:title=" ">
<path fill="none" stroke="#63b8ff" d="M89.81,-118.26C95.05,-103.52 100.23,-88.95 104.79,-76.14"/>
<polygon fill="none" stroke="#63b8ff" points="104.79,-76.13 103.03,-69.14 108.81,-64.82 110.57,-71.82 104.79,-76.13"/>
</a>
</g>
<text xml:space="preserve" text-anchor="start" x="104.21" y="-87.25" font-family="Helvetica,sans-Serif" font-size="10.00" fill="grey">+in_data</text>
</g>
<!-- Node3 -->
<g id="Node000003" class="node">
<title>Node3</title>
<g id="a_Node000003"><a xlink:title=" ">
<polygon fill="white" stroke="none" points="239.75,-240 130.5,-240 130.5,-188 239.75,-188 239.75,-240"/>
<text xml:space="preserve" text-anchor="start" x="134.5" y="-226.25" font-family="Helvetica,sans-Serif" font-size="10.00">std::vector&lt; OutType &gt;</text>
<text xml:space="preserve" text-anchor="start" x="147.38" y="-210.25" font-family="Helvetica,sans-Serif" font-size="10.00">+</text>
<text xml:space="preserve" text-anchor="start" x="170.25" y="-210.25" font-family="Helvetica,sans-Serif" font-size="10.00">elements</text>
<text xml:space="preserve" text-anchor="start" x="183.62" y="-194.25" font-family="Helvetica,sans-Serif" font-size="10.00"> </text>
<polygon fill="#666666" stroke="#666666" points="130.5,-222 130.5,-222 239.75,-222 239.75,-222 130.5,-222"/>
<polygon fill="#666666" stroke="#666666" points="130.5,-206 130.5,-206 168.25,-206 168.25,-206 130.5,-206"/>
<polygon fill="#666666" stroke="#666666" points="168.25,-206 168.25,-206 239.75,-206 239.75,-206 168.25,-206"/>
<polygon fill="none" stroke="#666666" points="130.5,-188 130.5,-240 239.75,-240 239.75,-188 130.5,-188"/>
</a>
</g>
</g>
<!-- Node3&#45;&gt;Node1 -->
<g id="edge2_Node000001_Node000003" class="edge">
<title>Node3&#45;&gt;Node1</title>
<g id="a_edge2_Node000001_Node000003"><a xlink:title=" ">
<path fill="none" stroke="#63b8ff" d="M180.37,-188.2C174.76,-161.36 164.23,-117.61 149.12,-82 148.21,-79.84 147.21,-77.66 146.16,-75.49"/>
<polygon fill="none" stroke="#63b8ff" points="146.12,-75.41 139.79,-71.95 140.54,-64.78 146.87,-68.24 146.12,-75.41"/>
</a>
</g>
<text xml:space="preserve" text-anchor="start" x="158.86" y="-87.25" font-family="Helvetica,sans-Serif" font-size="10.00" fill="grey">+out_data</text>
</g>
</g>
</svg>
