<?xml version="1.0" encoding="UTF-8" standalone="no"?>
<!DOCTYPE svg PUBLIC "-//W3C//DTD SVG 1.1//EN"
 "http://www.w3.org/Graphics/SVG/1.1/DTD/svg11.dtd">
<!-- Generated by graphviz version 14.1.5 (20260411.2331)
 -->
<!-- Title: throw_error Pages: 1 -->
<svg width="451pt" height="198pt"
 viewBox="0.00 0.00 451.00 198.00" xmlns="http://www.w3.org/2000/svg" xmlns:xlink="http://www.w3.org/1999/xlink">
<g id="graph0" class="graph" transform="scale(1 1) rotate(0) translate(4 194)">
<title>throw_error</title>
<!-- Node1 -->
<g id="Node000001" class="node">
<title>Node1</title>
<g id="a_Node000001"><a xlink:title="throw_error is a custom error logger to the terminal. This will NOT ALWAYS throw.">
<polygon fill="#999999" stroke="#666666" points="442.75,-114 378,-114 378,-94 442.75,-94 442.75,-114"/>
<text xml:space="preserve" text-anchor="middle" x="410.38" y="-100.5" font-family="Helvetica,sans-Serif" font-size="10.00">throw_error</text>
</a>
</g>
</g>
<!-- Node2 -->
<g id="Node000002" class="node">
<title>Node2</title>
<g id="a_Node000002"><a xlink:href="class_file_info.html#a9ec4f681948c70beda564ffd1d40bc10" target="_top" xlink:title=" ">
<polygon fill="white" stroke="#666666" points="342,-152 216.5,-152 216.5,-132 342,-132 342,-152"/>
<text xml:space="preserve" text-anchor="middle" x="279.25" y="-138.5" font-family="Helvetica,sans-Serif" font-size="10.00">FileInfo::check_signature</text>
</a>
</g>
</g>
<!-- Node1&#45;&gt;Node2 -->
<g id="edge1_Node000001_Node000002" class="edge">
<title>Node1&#45;&gt;Node2</title>
<g id="a_edge1_Node000001_Node000002"><a xlink:title=" ">
<path fill="none" stroke="#63b8ff" d="M367.21,-116.41C350.52,-121.32 331.56,-126.9 315.61,-131.6"/>
<polygon fill="#63b8ff" stroke="#63b8ff" points="367.73,-119.9 376.34,-113.72 365.75,-113.19 367.73,-119.9"/>
</a>
</g>
</g>
<!-- Node3 -->
<g id="Node000003" class="node">
<title>Node3</title>
<g id="a_Node000003"><a xlink:href="class_file_info.html#a69041c392ec2ad14c0f356efea36bb54" target="_top" xlink:title=" ">
<polygon fill="white" stroke="#666666" points="171.88,-190 81.62,-190 81.62,-170 171.88,-170 171.88,-190"/>
<text xml:space="preserve" text-anchor="middle" x="126.75" y="-176.5" font-family="Helvetica,sans-Serif" font-size="10.00">FileInfo::split_file</text>
</a>
</g>
</g>
<!-- Node1&#45;&gt;Node3 -->
<g id="edge15_Node000001_Node000003" class="edge">
<title>Node1&#45;&gt;Node3</title>
<g id="a_edge15_Node000001_Node000003"><a xlink:title=" ">
<path fill="none" stroke="#63b8ff" d="M393.4,-122.58C380.87,-135.77 362.22,-152.56 342,-161 286.86,-184.01 216.95,-185.68 172.28,-183.69"/>
<polygon fill="#63b8ff" stroke="#63b8ff" points="395.89,-125.05 400.02,-115.3 390.71,-120.34 395.89,-125.05"/>
</a>
</g>
</g>
<!-- Node6 -->
<g id="Node000006" class="node">
<title>Node6</title>
<g id="a_Node000006"><a xlink:href="namespaceparser.html#a883c446b2f982a5d7b6989f2442e8186" target="_top" xlink:title=" ">
<polygon fill="white" stroke="#666666" points="310.12,-58 248.38,-58 248.38,-38 310.12,-38 310.12,-58"/>
<text xml:space="preserve" text-anchor="middle" x="279.25" y="-44.5" font-family="Helvetica,sans-Serif" font-size="10.00">parser::lex</text>
</a>
</g>
</g>
<!-- Node1&#45;&gt;Node6 -->
<g id="edge6_Node000001_Node000006" class="edge">
<title>Node1&#45;&gt;Node6</title>
<g id="a_edge6_Node000001_Node000006"><a xlink:title=" ">
<path fill="none" stroke="#63b8ff" d="M374.97,-89.08C352.6,-79.38 324,-66.97 304.11,-58.35"/>
<polygon fill="#63b8ff" stroke="#63b8ff" points="373.43,-92.23 384,-93 376.22,-85.81 373.43,-92.23"/>
</a>
</g>
</g>
<!-- Node7 -->
<g id="Node000007" class="node">
<title>Node7</title>
<g id="a_Node000007"><a xlink:href="namespaceparser.html#a7f5ecbf764fc175fc336fcea0dd07be8" target="_top" xlink:title="Parse the cli, fully manages error checking.">
<polygon fill="white" stroke="#666666" points="163.25,-96 90.25,-96 90.25,-76 163.25,-76 163.25,-96"/>
<text xml:space="preserve" text-anchor="middle" x="126.75" y="-82.5" font-family="Helvetica,sans-Serif" font-size="10.00">parser::parse</text>
</a>
</g>
</g>
<!-- Node1&#45;&gt;Node7 -->
<g id="edge12_Node000001_Node000007" class="edge">
<title>Node1&#45;&gt;Node7</title>
<g id="a_edge12_Node000001_Node000007"><a xlink:title=" ">
<path fill="none" stroke="#63b8ff" d="M366.4,-101.25C310.83,-97.7 215.08,-91.58 163.36,-88.28"/>
<polygon fill="#63b8ff" stroke="#63b8ff" points="365.9,-104.73 376.11,-101.87 366.35,-97.74 365.9,-104.73"/>
</a>
</g>
</g>
<!-- Node9 -->
<g id="Node000009" class="node">
<title>Node9</title>
<g id="a_Node000009"><a xlink:href="class_file_info.html#a088e3df093b7480ac8f26624863b6fa0" target="_top" xlink:title="Read a file into a vector. Will call throw_error if file is not found or inaccessible.">
<polygon fill="white" stroke="#666666" points="324.75,-20 233.75,-20 233.75,0 324.75,0 324.75,-20"/>
<text xml:space="preserve" text-anchor="middle" x="279.25" y="-6.5" font-family="Helvetica,sans-Serif" font-size="10.00">FileInfo::read_file</text>
</a>
</g>
</g>
<!-- Node1&#45;&gt;Node9 -->
<g id="edge13_Node000001_Node000009" class="edge">
<title>Node1&#45;&gt;Node9</title>
<g id="a_edge13_Node000001_Node000009"><a xlink:title=" ">
<path fill="none" stroke="#63b8ff" d="M396.58,-84.62C384.43,-67.65 364.68,-43.5 342,-29 336.71,-25.62 330.78,-22.81 324.74,-20.48"/>
<polygon fill="#63b8ff" stroke="#63b8ff" points="393.4,-86.17 401.96,-92.41 399.16,-82.19 393.4,-86.17"/>
</a>
</g>
</g>
<!-- Node2&#45;&gt;Node3 -->
<g id="edge2_Node000002_Node000003" class="edge">
<title>Node2&#45;&gt;Node3</title>
<g id="a_edge2_Node000002_Node000003"><a xlink:title=" ">
<path fill="none" stroke="#63b8ff" d="M225.78,-155.25C207.23,-159.93 186.64,-165.13 169.14,-169.55"/>
<polygon fill="#63b8ff" stroke="#63b8ff" points="226.42,-158.7 235.26,-152.85 224.71,-151.91 226.42,-158.7"/>
</a>
</g>
</g>
<!-- Node5 -->
<g id="Node000005" class="node">
<title>Node5</title>
<g id="a_Node000005"><a xlink:href="class_file_info.html#a63ec6528df6855ce6ff971255f490fae" target="_top" xlink:title=" ">
<polygon fill="white" stroke="#666666" points="173.38,-152 80.12,-152 80.12,-132 173.38,-132 173.38,-152"/>
<text xml:space="preserve" text-anchor="middle" x="126.75" y="-138.5" font-family="Helvetica,sans-Serif" font-size="10.00">FileInfo::write_file</text>
</a>
</g>
</g>
<!-- Node2&#45;&gt;Node5 -->
<g id="edge4_Node000002_Node000005" class="edge">
<title>Node2&#45;&gt;Node5</title>
<g id="a_edge4_Node000002_Node000005"><a xlink:title=" ">
<path fill="none" stroke="#63b8ff" d="M204.71,-142C194.1,-142 183.45,-142 173.59,-142"/>
<polygon fill="#63b8ff" stroke="#63b8ff" points="204.65,-145.5 214.65,-142 204.65,-138.5 204.65,-145.5"/>
</a>
</g>
</g>
<!-- Node4 -->
<g id="Node000004" class="node">
<title>Node4</title>
<g id="a_Node000004"><a xlink:href="_compress-to-fit_8cpp.html#a0ddf1224851353fc92bfbff6f499fa97" target="_top" xlink:title=" ">
<polygon fill="white" stroke="#666666" points="37,-124 0,-124 0,-104 37,-104 37,-124"/>
<text xml:space="preserve" text-anchor="middle" x="18.5" y="-110.5" font-family="Helvetica,sans-Serif" font-size="10.00">main</text>
</a>
</g>
</g>
<!-- Node3&#45;&gt;Node4 -->
<g id="edge3_Node000003_Node000004" class="edge">
<title>Node3&#45;&gt;Node4</title>
<g id="a_edge3_Node000003_Node000004"><a xlink:title=" ">
<path fill="none" stroke="#63b8ff" d="M80.58,-165.04C77.97,-163.78 75.42,-162.43 73,-161 55.75,-150.82 38.91,-134.7 28.87,-124.24"/>
<polygon fill="#63b8ff" stroke="#63b8ff" points="78.9,-168.13 89.47,-168.93 81.7,-161.72 78.9,-168.13"/>
</a>
</g>
</g>
<!-- Node5&#45;&gt;Node4 -->
<g id="edge5_Node000005_Node000004" class="edge">
<title>Node5&#45;&gt;Node4</title>
<g id="a_edge5_Node000005_Node000004"><a xlink:title=" ">
<path fill="none" stroke="#63b8ff" d="M75.39,-128.73C61.79,-125.14 47.94,-121.49 37.43,-118.72"/>
<polygon fill="#63b8ff" stroke="#63b8ff" points="74.16,-132.02 84.72,-131.19 75.94,-125.26 74.16,-132.02"/>
</a>
</g>
</g>
<!-- Node6&#45;&gt;Node6 -->
<g id="edge7_Node000006_Node000006" class="edge">
<title>Node6&#45;&gt;Node6</title>
<g id="a_edge7_Node000006_Node000006"><a xlink:title=" ">
<path fill="none" stroke="#63b8ff" d="M302.43,-69.44C299.44,-73.3 291.72,-76 279.25,-76 256.46,-76 249.51,-66.98 258.42,-58.34"/>
<polygon fill="#63b8ff" stroke="#63b8ff" points="305.88,-68.88 300.4,-59.82 299.04,-70.33 305.88,-68.88"/>
</a>
</g>
</g>
<!-- Node6&#45;&gt;Node7 -->
<g id="edge8_Node000006_Node000007" class="edge">
<title>Node6&#45;&gt;Node7</title>
<g id="a_edge8_Node000006_Node000007"><a xlink:title=" ">
<path fill="none" stroke="#63b8ff" d="M237.02,-58.41C214.04,-64.21 185.68,-71.37 163.62,-76.94"/>
<polygon fill="#63b8ff" stroke="#63b8ff" points="237.85,-61.81 246.69,-55.97 236.14,-55.02 237.85,-61.81"/>
</a>
</g>
</g>
<!-- Node8 -->
<g id="Node000008" class="node">
<title>Node8</title>
<g id="a_Node000008"><a xlink:href="classparser_1_1_token.html#a03fc54839cfb01b88087c14db5b0fd63" target="_top" xlink:title=" ">
<polygon fill="white" stroke="#666666" points="180.5,-58 73,-58 73,-38 180.5,-38 180.5,-58"/>
<text xml:space="preserve" text-anchor="middle" x="126.75" y="-44.5" font-family="Helvetica,sans-Serif" font-size="10.00">parser::Token::Token</text>
</a>
</g>
</g>
<!-- Node6&#45;&gt;Node8 -->
<g id="edge11_Node000006_Node000008" class="edge">
<title>Node6&#45;&gt;Node8</title>
<g id="a_edge11_Node000006_Node000008"><a xlink:title=" ">
<path fill="none" stroke="#63b8ff" d="M236.75,-48C219.5,-48 199.26,-48 180.94,-48"/>
<polygon fill="#63b8ff" stroke="#63b8ff" points="236.64,-51.5 246.64,-48 236.64,-44.5 236.64,-51.5"/>
</a>
</g>
</g>
<!-- Node7&#45;&gt;Node4 -->
<g id="edge9_Node000007_Node000004" class="edge">
<title>Node7&#45;&gt;Node4</title>
<g id="a_edge9_Node000007_Node000004"><a xlink:title=" ">
<path fill="none" stroke="#63b8ff" d="M78.72,-98.39C63.99,-102.28 48.63,-106.32 37.25,-109.32"/>
<polygon fill="#63b8ff" stroke="#63b8ff" points="79.54,-101.8 88.32,-95.87 77.75,-95.03 79.54,-101.8"/>
</a>
</g>
</g>
<!-- Node7&#45;&gt;Node7 -->
<g id="edge10_Node000007_Node000007" class="edge">
<title>Node7&#45;&gt;Node7</title>
<g id="a_edge10_Node000007_Node000007"><a xlink:title=" ">
<path fill="none" stroke="#63b8ff" d="M145.88,-107.44C143.42,-111.3 137.04,-114 126.75,-114 107.93,-114 102.2,-104.98 109.55,-96.34"/>
<polygon fill="#63b8ff" stroke="#63b8ff" points="149.37,-107.08 144.21,-97.83 142.48,-108.28 149.37,-107.08"/>
</a>
</g>
</g>
<!-- Node9&#45;&gt;Node4 -->
<g id="edge14_Node000009_Node000004" class="edge">
<title>Node9&#45;&gt;Node4</title>
<g id="a_edge14_Node000009_Node000004"><a xlink:title=" ">
<path fill="none" stroke="#63b8ff" d="M222.17,-2.39C178.37,0.69 117.65,-1.58 73,-29 44.62,-46.43 28.81,-85.17 22.61,-103.71"/>
<polygon fill="#63b8ff" stroke="#63b8ff" points="221.71,-5.87 231.97,-3.21 222.29,1.11 221.71,-5.87"/>
</a>
</g>
</g>
</g>
</svg>
