<?xml version="1.0" encoding="UTF-8" standalone="no"?>
<!DOCTYPE svg PUBLIC "-//W3C//DTD SVG 1.1//EN"
 "http://www.w3.org/Graphics/SVG/1.1/DTD/svg11.dtd">
<!-- Generated by graphviz version 14.1.4 (20260321.0153)
 -->
<!-- Title: Compress&#45;to&#45;fit/test/util/utils.cpp Pages: 1 -->
<svg width="279pt" height="93pt"
 viewBox="0.00 0.00 279.00 93.00" xmlns="http://www.w3.org/2000/svg" xmlns:xlink="http://www.w3.org/1999/xlink">
<g id="graph0" class="graph" transform="scale(1 1) rotate(0) translate(4 89.16)">
<title>Compress&#45;to&#45;fit/test/util/utils.cpp</title>
<!-- Node1 -->
<g id="Node000001" class="node">
<title>Node1</title>
<g id="a_Node000001"><a xlink:title=" ">
<polygon fill="#999999" stroke="#666666" points="238.62,-85.16 135.62,-85.16 135.62,-56.16 238.62,-56.16 238.62,-85.16"/>
<text xml:space="preserve" text-anchor="start" x="143.62" y="-71.66" font-family="Helvetica,sans-Serif" font-size="10.00">Compress&#45;to&#45;fit/test</text>
<text xml:space="preserve" text-anchor="middle" x="187.12" y="-61.16" font-family="Helvetica,sans-Serif" font-size="10.00">/util/utils.cpp</text>
</a>
</g>
</g>
<!-- Node2 -->
<g id="Node000002" class="node">
<title>Node2</title>
<g id="a_Node000002"><a xlink:title=" ">
<polygon fill="#e0e0e0" stroke="#999999" points="150.25,-20.16 0,-20.16 0,-1.66 150.25,-1.66 150.25,-20.16"/>
<text xml:space="preserve" text-anchor="middle" x="75.12" y="-6.66" font-family="Helvetica,sans-Serif" font-size="10.00">catch2/catch_test_macros.hpp</text>
</a>
</g>
</g>
<!-- Node1&#45;&gt;Node2 -->
<g id="edge1_Node000001_Node000002" class="edge">
<title>Node1&#45;&gt;Node2</title>
<g id="a_edge1_Node000001_Node000002"><a xlink:title=" ">
<path fill="none" stroke="#63b8ff" d="M160.01,-55.68C142.43,-46.61 119.61,-34.85 102.06,-25.8"/>
<polygon fill="#63b8ff" stroke="#63b8ff" points="103.74,-22.73 93.25,-21.26 100.54,-28.95 103.74,-22.73"/>
</a>
</g>
</g>
<!-- Node3 -->
<g id="Node000003" class="node">
<title>Node3</title>
<g id="a_Node000003"><a xlink:title=" ">
<polygon fill="#e0e0e0" stroke="#999999" points="206,-20.16 168.25,-20.16 168.25,-1.66 206,-1.66 206,-20.16"/>
<text xml:space="preserve" text-anchor="middle" x="187.12" y="-6.66" font-family="Helvetica,sans-Serif" font-size="10.00">array</text>
</a>
</g>
</g>
<!-- Node1&#45;&gt;Node3 -->
<g id="edge2_Node000001_Node000003" class="edge">
<title>Node1&#45;&gt;Node3</title>
<g id="a_edge2_Node000001_Node000003"><a xlink:title=" ">
<path fill="none" stroke="#63b8ff" d="M187.12,-55.68C187.12,-48.58 187.12,-39.82 187.12,-32.02"/>
<polygon fill="#63b8ff" stroke="#63b8ff" points="190.63,-32.08 187.13,-22.08 183.63,-32.08 190.63,-32.08"/>
</a>
</g>
</g>
<!-- Node4 -->
<g id="Node000004" class="node">
<title>Node4</title>
<g id="a_Node000004"><a xlink:href="utils_8cppm.html" target="_top" xlink:title=" ">
<polygon fill="white" stroke="#666666" points="252.53,-20.16 223.72,-20.16 223.72,-1.66 252.53,-1.66 252.53,-20.16"/>
<text xml:space="preserve" text-anchor="middle" x="238.12" y="-6.66" font-family="Helvetica,sans-Serif" font-size="10.00">util</text>
</a>
</g>
</g>
<!-- Node1&#45;&gt;Node4 -->
<g id="edge3_Node000001_Node000004" class="edge">
<title>Node1&#45;&gt;Node4</title>
<g id="a_edge3_Node000001_Node000004"><a xlink:title=" ">
<path fill="none" stroke="#63b8ff" d="M199.47,-55.68C206.57,-47.64 215.55,-37.48 223.06,-28.97"/>
<polygon fill="#63b8ff" stroke="#63b8ff" points="225.48,-31.51 229.48,-21.7 220.24,-26.88 225.48,-31.51"/>
</a>
</g>
</g>
<!-- Node4&#45;&gt;Node4 -->
<g id="edge4_Node000004_Node000004" class="edge">
<title>Node4&#45;&gt;Node4</title>
<g id="a_edge4_Node000004_Node000004"><a xlink:title=" ">
<path fill="none" stroke="#63b8ff" d="M250.43,-20.54C260.32,-24.39 270.52,-21.18 270.52,-10.91 270.52,-4.65 266.73,-1.01 261.53,0"/>
<polygon fill="#63b8ff" stroke="#63b8ff" points="261.46,3.51 251.93,-1.11 262.26,-3.44 261.46,3.51"/>
</a>
</g>
</g>
</g>
</svg>
